<?xml version="1.0" encoding="utf-8" standalone="no"?>
<!DOCTYPE svg PUBLIC "-//W3C//DTD SVG 1.1//EN"
  "http://www.w3.org/Graphics/SVG/1.1/DTD/svg11.dtd">
<svg xmlns:xlink="http://www.w3.org/1999/xlink" width="260.195919pt" height="163.252377pt" viewBox="0 0 260.195919 163.252377" xmlns="http://www.w3.org/2000/svg" version="1.1">
 <metadata>
  <rdf:RDF xmlns:dc="http://purl.org/dc/elements/1.1/" xmlns:cc="http://creativecommons.org/ns#" xmlns:rdf="http://www.w3.org/1999/02/22-rdf-syntax-ns#">
   <cc:Work>
    <dc:type rdf:resource="http://purl.org/dc/dcmitype/StillImage"/>
    <dc:date>2022-02-14T16:46:27.656325</dc:date>
    <dc:format>image/svg+xml</dc:format>
    <dc:creator>
     <cc:Agent>
      <dc:title>Matplotlib v3.5.1, https://matplotlib.org/</dc:title>
     </cc:Agent>
    </dc:creator>
   </cc:Work>
  </rdf:RDF>
 </metadata>
 <defs>
  <style type="text/css">*{stroke-linejoin: round; stroke-linecap: butt}</style>
 </defs>
 <g id="figure_1">
  <g id="patch_1">
   <path d="M 0 163.252377
L 260.195919 163.252377
L 260.195919 0
L 0 0
L 0 163.252377
z
" style="fill: none"/>
  </g>
  <g id="axes_1">
   <g id="patch_2">
    <path d="M 30.144939 139.471785
L 249.829978 139.471785
L 249.829978 7.2
L 30.144939 7.2
z
" style="fill: #ffffff"/>
   </g>
   <g id="patch_3">
    <path d="M 30.144939 139.471785
L 30.144939 139.471785
L 34.628307 139.471785
L 34.628307 139.471785
L 39.111675 139.471785
L 39.111675 139.471785
L 43.595043 139.471785
L 43.595043 139.471785
L 48.078411 139.471785
L 48.078411 139.471785
L 52.56178 139.471785
L 52.56178 139.471785
L 57.045148 139.471785
L 57.045148 139.130856
L 61.528516 139.130856
L 61.528516 138.619463
L 66.011884 138.619463
L 66.011884 136.232963
L 70.495252 136.232963
L 70.495252 128.902997
L 74.97862 128.902997
L 74.97862 107.083565
L 79.461988 107.083565
L 79.461988 79.979739
L 83.945357 79.979739
L 83.945357 50.830341
L 88.428725 50.830341
L 88.428725 13.498656
L 92.912093 13.498656
L 92.912093 29.010909
L 97.395461 29.010909
L 97.395461 49.97802
L 101.878829 49.97802
L 101.878829 74.183952
L 106.362197 74.183952
L 106.362197 96.855706
L 110.845565 96.855706
L 110.845565 111.004244
L 115.328934 111.004244
L 115.328934 127.368819
L 119.812302 127.368819
L 119.812302 133.675998
L 124.29567 133.675998
L 124.29567 135.551106
L 128.779038 135.551106
L 128.779038 138.619463
L 133.262406 138.619463
L 133.262406 139.130856
L 137.745774 139.130856
L 137.745774 138.789928
L 142.229143 138.789928
L 142.229143 139.130856
L 146.712511 139.130856
L 146.712511 139.471785
L 151.195879 139.471785
L 151.195879 139.471785
L 155.679247 139.471785
L 155.679247 139.471785
L 160.162615 139.471785
L 160.162615 139.471785
L 164.645983 139.471785
L 164.645983 139.471785
L 169.129351 139.471785
L 169.129351 139.471785
L 173.61272 139.471785
L 173.61272 139.471785
L 178.096088 139.471785
L 178.096088 139.471785
L 182.579456 139.471785
L 182.579456 139.471785
L 187.062824 139.471785
L 187.062824 139.471785
L 191.546192 139.471785
L 191.546192 139.471785
L 196.02956 139.471785
L 196.02956 139.471785
L 200.512928 139.471785
L 200.512928 139.471785
L 204.996297 139.471785
L 204.996297 139.471785
L 209.479665 139.471785
L 209.479665 139.471785
L 213.963033 139.471785
L 213.963033 139.471785
L 218.446401 139.471785
L 218.446401 139.471785
L 222.929769 139.471785
L 222.929769 139.471785
L 227.413137 139.471785
L 227.413137 139.471785
L 231.896506 139.471785
L 231.896506 139.471785
L 236.379874 139.471785
L 236.379874 139.471785
L 240.863242 139.471785
L 240.863242 139.471785
L 245.34661 139.471785
L 245.34661 139.471785
L 249.829978 139.471785
L 249.829978 139.471785
L 245.34661 139.471785
L 245.34661 139.471785
L 240.863242 139.471785
L 240.863242 139.471785
L 236.379874 139.471785
L 236.379874 139.471785
L 231.896506 139.471785
L 231.896506 139.471785
L 227.413137 139.471785
L 227.413137 139.471785
L 222.929769 139.471785
L 222.929769 139.471785
L 218.446401 139.471785
L 218.446401 139.471785
L 213.963033 139.471785
L 213.963033 139.471785
L 209.479665 139.471785
L 209.479665 139.471785
L 204.996297 139.471785
L 204.996297 139.471785
L 200.512928 139.471785
L 200.512928 139.471785
L 196.02956 139.471785
L 196.02956 139.471785
L 191.546192 139.471785
L 191.546192 139.471785
L 187.062824 139.471785
L 187.062824 139.471785
L 182.579456 139.471785
L 182.579456 139.471785
L 178.096088 139.471785
L 178.096088 139.471785
L 173.61272 139.471785
L 173.61272 139.471785
L 169.129351 139.471785
L 169.129351 139.471785
L 164.645983 139.471785
L 164.645983 139.471785
L 160.162615 139.471785
L 160.162615 139.471785
L 155.679247 139.471785
L 155.679247 139.471785
L 151.195879 139.471785
L 151.195879 139.471785
L 146.712511 139.471785
L 146.712511 139.471785
L 142.229143 139.471785
L 142.229143 139.471785
L 137.745774 139.471785
L 137.745774 139.471785
L 133.262406 139.471785
L 133.262406 139.471785
L 128.779038 139.471785
L 128.779038 139.471785
L 124.29567 139.471785
L 124.29567 139.471785
L 119.812302 139.471785
L 119.812302 139.471785
L 115.328934 139.471785
L 115.328934 139.471785
L 110.845565 139.471785
L 110.845565 139.471785
L 106.362197 139.471785
L 106.362197 139.471785
L 101.878829 139.471785
L 101.878829 139.471785
L 97.395461 139.471785
L 97.395461 139.471785
L 92.912093 139.471785
L 92.912093 139.471785
L 88.428725 139.471785
L 88.428725 139.471785
L 83.945357 139.471785
L 83.945357 139.471785
L 79.461988 139.471785
L 79.461988 139.471785
L 74.97862 139.471785
L 74.97862 139.471785
L 70.495252 139.471785
L 70.495252 139.471785
L 66.011884 139.471785
L 66.011884 139.471785
L 61.528516 139.471785
L 61.528516 139.471785
L 57.045148 139.471785
L 57.045148 139.471785
L 52.56178 139.471785
L 52.56178 139.471785
L 48.078411 139.471785
L 48.078411 139.471785
L 43.595043 139.471785
L 43.595043 139.471785
L 39.111675 139.471785
L 39.111675 139.471785
L 34.628307 139.471785
L 34.628307 139.471785
z
" clip-path="url(#p1cc648ef20)" style="fill: #00afa5"/>
   </g>
   <g id="patch_4">
    <path d="M 30.144939 139.471785
L 30.144939 139.471785
L 34.628307 139.471785
L 34.628307 139.471785
L 39.111675 139.471785
L 39.111675 139.471785
L 43.595043 139.471785
L 43.595043 139.471785
L 48.078411 139.471785
L 48.078411 139.471785
L 52.56178 139.471785
L 52.56178 139.471785
L 57.045148 139.471785
L 57.045148 139.471785
L 61.528516 139.471785
L 61.528516 139.471785
L 66.011884 139.471785
L 66.011884 139.301321
L 70.495252 139.301321
L 70.495252 139.301321
L 74.97862 139.301321
L 74.97862 138.789928
L 79.461988 138.789928
L 79.461988 137.937606
L 83.945357 137.937606
L 83.945357 137.426213
L 88.428725 137.426213
L 88.428725 132.482748
L 92.912093 132.482748
L 92.912093 126.346033
L 97.395461 126.346033
L 97.395461 116.800031
L 101.878829 116.800031
L 101.878829 101.969636
L 106.362197 101.969636
L 106.362197 95.662456
L 110.845565 95.662456
L 110.845565 82.707168
L 115.328934 82.707168
L 115.328934 67.194916
L 119.812302 67.194916
L 119.812302 58.6717
L 124.29567 58.6717
L 124.29567 72.990702
L 128.779038 72.990702
L 128.779038 78.275096
L 133.262406 78.275096
L 133.262406 83.55949
L 137.745774 83.55949
L 137.745774 96.173849
L 142.229143 96.173849
L 142.229143 107.935887
L 146.712511 107.935887
L 146.712511 113.902138
L 151.195879 113.902138
L 151.195879 120.550246
L 155.679247 120.550246
L 155.679247 122.766282
L 160.162615 122.766282
L 160.162615 130.607641
L 164.645983 130.607641
L 164.645983 134.357856
L 169.129351 134.357856
L 169.129351 136.91482
L 173.61272 136.91482
L 173.61272 136.573892
L 178.096088 136.573892
L 178.096088 137.596677
L 182.579456 137.596677
L 182.579456 138.448999
L 187.062824 138.448999
L 187.062824 139.301321
L 191.546192 139.301321
L 191.546192 139.301321
L 196.02956 139.301321
L 196.02956 138.960392
L 200.512928 138.960392
L 200.512928 139.301321
L 204.996297 139.301321
L 204.996297 139.301321
L 209.479665 139.301321
L 209.479665 139.301321
L 213.963033 139.301321
L 213.963033 139.471785
L 218.446401 139.471785
L 218.446401 139.471785
L 222.929769 139.471785
L 222.929769 139.471785
L 227.413137 139.471785
L 227.413137 139.471785
L 231.896506 139.471785
L 231.896506 139.471785
L 236.379874 139.471785
L 236.379874 139.471785
L 240.863242 139.471785
L 240.863242 139.471785
L 245.34661 139.471785
L 245.34661 139.471785
L 249.829978 139.471785
L 249.829978 139.471785
L 245.34661 139.471785
L 245.34661 139.471785
L 240.863242 139.471785
L 240.863242 139.471785
L 236.379874 139.471785
L 236.379874 139.471785
L 231.896506 139.471785
L 231.896506 139.471785
L 227.413137 139.471785
L 227.413137 139.471785
L 222.929769 139.471785
L 222.929769 139.471785
L 218.446401 139.471785
L 218.446401 139.471785
L 213.963033 139.471785
L 213.963033 139.471785
L 209.479665 139.471785
L 209.479665 139.471785
L 204.996297 139.471785
L 204.996297 139.471785
L 200.512928 139.471785
L 200.512928 139.471785
L 196.02956 139.471785
L 196.02956 139.471785
L 191.546192 139.471785
L 191.546192 139.471785
L 187.062824 139.471785
L 187.062824 139.471785
L 182.579456 139.471785
L 182.579456 139.471785
L 178.096088 139.471785
L 178.096088 139.471785
L 173.61272 139.471785
L 173.61272 139.471785
L 169.129351 139.471785
L 169.129351 139.471785
L 164.645983 139.471785
L 164.645983 139.471785
L 160.162615 139.471785
L 160.162615 139.471785
L 155.679247 139.471785
L 155.679247 139.471785
L 151.195879 139.471785
L 151.195879 139.471785
L 146.712511 139.471785
L 146.712511 139.471785
L 142.229143 139.471785
L 142.229143 139.471785
L 137.745774 139.471785
L 137.745774 139.471785
L 133.262406 139.471785
L 133.262406 139.471785
L 128.779038 139.471785
L 128.779038 139.471785
L 124.29567 139.471785
L 124.29567 139.471785
L 119.812302 139.471785
L 119.812302 139.471785
L 115.328934 139.471785
L 115.328934 139.471785
L 110.845565 139.471785
L 110.845565 139.471785
L 106.362197 139.471785
L 106.362197 139.471785
L 101.878829 139.471785
L 101.878829 139.471785
L 97.395461 139.471785
L 97.395461 139.471785
L 92.912093 139.471785
L 92.912093 139.471785
L 88.428725 139.471785
L 88.428725 139.471785
L 83.945357 139.471785
L 83.945357 139.471785
L 79.461988 139.471785
L 79.461988 139.471785
L 74.97862 139.471785
L 74.97862 139.471785
L 70.495252 139.471785
L 70.495252 139.471785
L 66.011884 139.471785
L 66.011884 139.471785
L 61.528516 139.471785
L 61.528516 139.471785
L 57.045148 139.471785
L 57.045148 139.471785
L 52.56178 139.471785
L 52.56178 139.471785
L 48.078411 139.471785
L 48.078411 139.471785
L 43.595043 139.471785
L 43.595043 139.471785
L 39.111675 139.471785
L 39.111675 139.471785
L 34.628307 139.471785
L 34.628307 139.471785
z
" clip-path="url(#p1cc648ef20)" style="fill: #f17900; opacity: 0.8"/>
   </g>
   <g id="patch_5">
    <path d="M 30.144939 139.471785
L 30.144939 139.471785
L 34.628307 139.471785
L 34.628307 139.471785
L 39.111675 139.471785
L 39.111675 139.471785
L 43.595043 139.471785
L 43.595043 139.471785
L 48.078411 139.471785
L 48.078411 139.471785
L 52.56178 139.471785
L 52.56178 139.471785
L 57.045148 139.471785
L 57.045148 139.471785
L 61.528516 139.471785
L 61.528516 139.471785
L 66.011884 139.471785
L 66.011884 139.471785
L 70.495252 139.471785
L 70.495252 139.471785
L 74.97862 139.471785
L 74.97862 139.471785
L 79.461988 139.471785
L 79.461988 139.301022
L 83.945357 139.301022
L 83.945357 139.130259
L 88.428725 139.130259
L 88.428725 139.130259
L 92.912093 139.130259
L 92.912093 139.130259
L 97.395461 139.130259
L 97.395461 137.764153
L 101.878829 137.764153
L 101.878829 137.59339
L 106.362197 137.59339
L 106.362197 135.202706
L 110.845565 135.202706
L 110.845565 133.495075
L 115.328934 133.495075
L 115.328934 128.37218
L 119.812302 128.37218
L 119.812302 124.103101
L 124.29567 124.103101
L 124.29567 116.247997
L 128.779038 116.247997
L 128.779038 113.515786
L 133.262406 113.515786
L 133.262406 110.271286
L 137.745774 110.271286
L 137.745774 104.806865
L 142.229143 104.806865
L 142.229143 92.511919
L 146.712511 92.511919
L 146.712511 87.218261
L 151.195879 87.218261
L 151.195879 93.024208
L 155.679247 93.024208
L 155.679247 84.827577
L 160.162615 84.827577
L 160.162615 92.170392
L 164.645983 92.170392
L 164.645983 97.805576
L 169.129351 97.805576
L 169.129351 95.585655
L 173.61272 95.585655
L 173.61272 106.002208
L 178.096088 106.002208
L 178.096088 106.68526
L 182.579456 106.68526
L 182.579456 116.931049
L 187.062824 116.931049
L 187.062824 118.126391
L 191.546192 118.126391
L 191.546192 119.834023
L 196.02956 119.834023
L 196.02956 124.615391
L 200.512928 124.615391
L 200.512928 127.347601
L 204.996297 127.347601
L 204.996297 126.664549
L 209.479665 126.664549
L 209.479665 133.665838
L 213.963033 133.665838
L 213.963033 134.007364
L 218.446401 134.007364
L 218.446401 135.544232
L 222.929769 135.544232
L 222.929769 137.59339
L 227.413137 137.59339
L 227.413137 137.081101
L 231.896506 137.081101
L 231.896506 137.764153
L 236.379874 137.764153
L 236.379874 137.934917
L 240.863242 137.934917
L 240.863242 138.276443
L 245.34661 138.276443
L 245.34661 138.788732
L 249.829978 138.788732
L 249.829978 139.471785
L 245.34661 139.471785
L 245.34661 139.471785
L 240.863242 139.471785
L 240.863242 139.471785
L 236.379874 139.471785
L 236.379874 139.471785
L 231.896506 139.471785
L 231.896506 139.471785
L 227.413137 139.471785
L 227.413137 139.471785
L 222.929769 139.471785
L 222.929769 139.471785
L 218.446401 139.471785
L 218.446401 139.471785
L 213.963033 139.471785
L 213.963033 139.471785
L 209.479665 139.471785
L 209.479665 139.471785
L 204.996297 139.471785
L 204.996297 139.471785
L 200.512928 139.471785
L 200.512928 139.471785
L 196.02956 139.471785
L 196.02956 139.471785
L 191.546192 139.471785
L 191.546192 139.471785
L 187.062824 139.471785
L 187.062824 139.471785
L 182.579456 139.471785
L 182.579456 139.471785
L 178.096088 139.471785
L 178.096088 139.471785
L 173.61272 139.471785
L 173.61272 139.471785
L 169.129351 139.471785
L 169.129351 139.471785
L 164.645983 139.471785
L 164.645983 139.471785
L 160.162615 139.471785
L 160.162615 139.471785
L 155.679247 139.471785
L 155.679247 139.471785
L 151.195879 139.471785
L 151.195879 139.471785
L 146.712511 139.471785
L 146.712511 139.471785
L 142.229143 139.471785
L 142.229143 139.471785
L 137.745774 139.471785
L 137.745774 139.471785
L 133.262406 139.471785
L 133.262406 139.471785
L 128.779038 139.471785
L 128.779038 139.471785
L 124.29567 139.471785
L 124.29567 139.471785
L 119.812302 139.471785
L 119.812302 139.471785
L 115.328934 139.471785
L 115.328934 139.471785
L 110.845565 139.471785
L 110.845565 139.471785
L 106.362197 139.471785
L 106.362197 139.471785
L 101.878829 139.471785
L 101.878829 139.471785
L 97.395461 139.471785
L 97.395461 139.471785
L 92.912093 139.471785
L 92.912093 139.471785
L 88.428725 139.471785
L 88.428725 139.471785
L 83.945357 139.471785
L 83.945357 139.471785
L 79.461988 139.471785
L 79.461988 139.471785
L 74.97862 139.471785
L 74.97862 139.471785
L 70.495252 139.471785
L 70.495252 139.471785
L 66.011884 139.471785
L 66.011884 139.471785
L 61.528516 139.471785
L 61.528516 139.471785
L 57.045148 139.471785
L 57.045148 139.471785
L 52.56178 139.471785
L 52.56178 139.471785
L 48.078411 139.471785
L 48.078411 139.471785
L 43.595043 139.471785
L 43.595043 139.471785
L 39.111675 139.471785
L 39.111675 139.471785
L 34.628307 139.471785
L 34.628307 139.471785
z
" clip-path="url(#p1cc648ef20)" style="fill: #ae0060; opacity: 0.8"/>
   </g>
   <g id="matplotlib.axis_1">
    <g id="xtick_1">
     <g id="line2d_1">
      <path d="M 30.144939 139.471785
L 30.144939 7.2
" clip-path="url(#p1cc648ef20)" style="fill: none; stroke: #000000; stroke-opacity: 0.1; stroke-width: 0.5; stroke-linecap: square"/>
     </g>
     <g id="line2d_2">
      <defs>
       <path id="m6810fd66d1" d="M 0 0
L 0 -3
" style="stroke: #000000; stroke-width: 0.5"/>
      </defs>
      <g>
       <use xlink:href="#m6810fd66d1" x="30.144939" y="139.471785" style="stroke: #000000; stroke-width: 0.5"/>
      </g>
     </g>
     <g id="text_1">
      <!-- 0 -->
      <g transform="translate(28.561968 145.220041)scale(0.06246 -0.06246)">
       <defs>
        <path id="Calibri-30" d="M 3022 2031
Q 3022 1566 2948 1181
Q 2875 797 2704 520
Q 2534 244 2259 92
Q 1984 -59 1581 -59
Q 1200 -59 939 77
Q 678 213 518 477
Q 359 741 292 1127
Q 225 1513 225 2013
Q 225 2475 300 2861
Q 375 3247 544 3523
Q 713 3800 988 3951
Q 1263 4103 1663 4103
Q 2047 4103 2308 3967
Q 2569 3831 2728 3567
Q 2888 3303 2955 2917
Q 3022 2531 3022 2031
z
M 2472 1994
Q 2472 2297 2450 2537
Q 2428 2778 2386 2962
Q 2344 3147 2276 3280
Q 2209 3413 2115 3498
Q 2022 3584 1901 3623
Q 1781 3663 1631 3663
Q 1366 3663 1200 3538
Q 1034 3413 939 3194
Q 844 2975 809 2681
Q 775 2388 775 2050
Q 775 1597 822 1280
Q 869 963 970 763
Q 1072 563 1230 472
Q 1388 381 1613 381
Q 1788 381 1920 437
Q 2053 494 2148 598
Q 2244 703 2306 850
Q 2369 997 2406 1175
Q 2444 1353 2458 1561
Q 2472 1769 2472 1994
z
" transform="scale(0.015625)"/>
       </defs>
       <use xlink:href="#Calibri-30"/>
      </g>
     </g>
    </g>
    <g id="xtick_2">
     <g id="line2d_3">
      <path d="M 61.528516 139.471785
L 61.528516 7.2
" clip-path="url(#p1cc648ef20)" style="fill: none; stroke: #000000; stroke-opacity: 0.1; stroke-width: 0.5; stroke-linecap: square"/>
     </g>
     <g id="line2d_4">
      <g>
       <use xlink:href="#m6810fd66d1" x="61.528516" y="139.471785" style="stroke: #000000; stroke-width: 0.5"/>
      </g>
     </g>
     <g id="text_2">
      <!-- 5 -->
      <g transform="translate(59.945545 145.220041)scale(0.06246 -0.06246)">
       <defs>
        <path id="Calibri-35" d="M 2869 1300
Q 2869 975 2759 722
Q 2650 469 2450 295
Q 2250 122 1973 31
Q 1697 -59 1359 -59
Q 1172 -59 1003 -32
Q 834 -6 703 33
Q 572 72 487 109
Q 403 147 379 169
Q 356 191 347 209
Q 338 228 330 254
Q 322 281 319 322
Q 316 363 316 419
Q 316 472 320 514
Q 325 556 337 582
Q 350 609 367 621
Q 384 634 406 634
Q 438 634 503 595
Q 569 556 680 511
Q 791 466 955 425
Q 1119 384 1344 384
Q 1553 384 1728 434
Q 1903 484 2029 590
Q 2156 697 2228 858
Q 2300 1019 2300 1250
Q 2300 1444 2239 1592
Q 2178 1741 2051 1839
Q 1925 1938 1731 1986
Q 1538 2034 1269 2034
Q 1078 2034 940 2015
Q 803 1997 684 1997
Q 597 1997 559 2037
Q 522 2078 522 2194
L 522 3841
Q 522 3944 570 3994
Q 619 4044 709 4044
L 2500 4044
Q 2525 4044 2548 4030
Q 2572 4016 2587 3987
Q 2603 3959 2611 3915
Q 2619 3872 2619 3813
Q 2619 3700 2587 3637
Q 2556 3575 2500 3575
L 991 3575
L 991 2441
Q 1100 2456 1214 2459
Q 1328 2463 1478 2463
Q 1825 2463 2084 2380
Q 2344 2297 2517 2145
Q 2691 1994 2780 1778
Q 2869 1563 2869 1300
z
" transform="scale(0.015625)"/>
       </defs>
       <use xlink:href="#Calibri-35"/>
      </g>
     </g>
    </g>
    <g id="xtick_3">
     <g id="line2d_5">
      <path d="M 92.912093 139.471785
L 92.912093 7.2
" clip-path="url(#p1cc648ef20)" style="fill: none; stroke: #000000; stroke-opacity: 0.1; stroke-width: 0.5; stroke-linecap: square"/>
     </g>
     <g id="line2d_6">
      <g>
       <use xlink:href="#m6810fd66d1" x="92.912093" y="139.471785" style="stroke: #000000; stroke-width: 0.5"/>
      </g>
     </g>
     <g id="text_3">
      <!-- 10 -->
      <g transform="translate(89.746152 145.220041)scale(0.06246 -0.06246)">
       <defs>
        <path id="Calibri-31" d="M 2897 213
Q 2897 153 2887 112
Q 2878 72 2862 47
Q 2847 22 2826 11
Q 2806 0 2784 0
L 672 0
Q 650 0 631 11
Q 613 22 595 47
Q 578 72 568 112
Q 559 153 559 213
Q 559 269 568 309
Q 578 350 592 376
Q 606 403 626 417
Q 647 431 672 431
L 1516 431
L 1516 3506
L 734 3041
Q 675 3009 639 3003
Q 603 2997 581 3017
Q 559 3038 551 3084
Q 544 3131 544 3203
Q 544 3256 548 3293
Q 553 3331 562 3356
Q 572 3381 589 3400
Q 606 3419 634 3438
L 1566 4034
Q 1578 4044 1597 4050
Q 1616 4056 1644 4062
Q 1672 4069 1709 4070
Q 1747 4072 1803 4072
Q 1878 4072 1928 4065
Q 1978 4059 2006 4048
Q 2034 4038 2043 4020
Q 2053 4003 2053 3984
L 2053 431
L 2784 431
Q 2809 431 2831 417
Q 2853 403 2867 376
Q 2881 350 2889 309
Q 2897 269 2897 213
z
" transform="scale(0.015625)"/>
       </defs>
       <use xlink:href="#Calibri-31"/>
       <use xlink:href="#Calibri-30" x="50.683594"/>
      </g>
     </g>
    </g>
    <g id="xtick_4">
     <g id="line2d_7">
      <path d="M 124.29567 139.471785
L 124.29567 7.2
" clip-path="url(#p1cc648ef20)" style="fill: none; stroke: #000000; stroke-opacity: 0.1; stroke-width: 0.5; stroke-linecap: square"/>
     </g>
     <g id="line2d_8">
      <g>
       <use xlink:href="#m6810fd66d1" x="124.29567" y="139.471785" style="stroke: #000000; stroke-width: 0.5"/>
      </g>
     </g>
     <g id="text_4">
      <!-- 15 -->
      <g transform="translate(121.129729 145.220041)scale(0.06246 -0.06246)">
       <use xlink:href="#Calibri-31"/>
       <use xlink:href="#Calibri-35" x="50.683594"/>
      </g>
     </g>
    </g>
    <g id="xtick_5">
     <g id="line2d_9">
      <path d="M 155.679247 139.471785
L 155.679247 7.2
" clip-path="url(#p1cc648ef20)" style="fill: none; stroke: #000000; stroke-opacity: 0.1; stroke-width: 0.5; stroke-linecap: square"/>
     </g>
     <g id="line2d_10">
      <g>
       <use xlink:href="#m6810fd66d1" x="155.679247" y="139.471785" style="stroke: #000000; stroke-width: 0.5"/>
      </g>
     </g>
     <g id="text_5">
      <!-- 20 -->
      <g transform="translate(152.513306 145.220041)scale(0.06246 -0.06246)">
       <defs>
        <path id="Calibri-32" d="M 2888 231
Q 2888 175 2880 131
Q 2872 88 2858 58
Q 2844 28 2820 14
Q 2797 0 2769 0
L 534 0
Q 491 0 458 11
Q 425 22 401 47
Q 378 72 367 119
Q 356 166 356 234
Q 356 297 361 344
Q 366 391 381 427
Q 397 463 420 498
Q 444 534 481 575
L 1266 1406
Q 1538 1694 1702 1922
Q 1866 2150 1955 2337
Q 2044 2525 2072 2678
Q 2100 2831 2100 2966
Q 2100 3100 2056 3220
Q 2013 3341 1930 3431
Q 1847 3522 1722 3575
Q 1597 3628 1434 3628
Q 1244 3628 1092 3575
Q 941 3522 827 3459
Q 713 3397 636 3344
Q 559 3291 522 3291
Q 500 3291 483 3303
Q 466 3316 455 3344
Q 444 3372 437 3419
Q 431 3466 431 3531
Q 431 3578 434 3612
Q 438 3647 445 3672
Q 453 3697 465 3719
Q 478 3741 515 3773
Q 553 3806 645 3862
Q 738 3919 877 3973
Q 1016 4028 1183 4065
Q 1350 4103 1534 4103
Q 1828 4103 2048 4020
Q 2269 3938 2414 3794
Q 2559 3650 2631 3459
Q 2703 3269 2703 3053
Q 2703 2859 2668 2667
Q 2634 2475 2523 2251
Q 2413 2028 2203 1754
Q 1994 1481 1647 1125
L 1006 456
L 2766 456
Q 2791 456 2814 442
Q 2838 428 2855 400
Q 2872 372 2880 330
Q 2888 288 2888 231
z
" transform="scale(0.015625)"/>
       </defs>
       <use xlink:href="#Calibri-32"/>
       <use xlink:href="#Calibri-30" x="50.683594"/>
      </g>
     </g>
    </g>
    <g id="xtick_6">
     <g id="line2d_11">
      <path d="M 187.062824 139.471785
L 187.062824 7.2
" clip-path="url(#p1cc648ef20)" style="fill: none; stroke: #000000; stroke-opacity: 0.1; stroke-width: 0.5; stroke-linecap: square"/>
     </g>
     <g id="line2d_12">
      <g>
       <use xlink:href="#m6810fd66d1" x="187.062824" y="139.471785" style="stroke: #000000; stroke-width: 0.5"/>
      </g>
     </g>
     <g id="text_6">
      <!-- 25 -->
      <g transform="translate(183.896883 145.220041)scale(0.06246 -0.06246)">
       <use xlink:href="#Calibri-32"/>
       <use xlink:href="#Calibri-35" x="50.683594"/>
      </g>
     </g>
    </g>
    <g id="xtick_7">
     <g id="line2d_13">
      <path d="M 218.446401 139.471785
L 218.446401 7.2
" clip-path="url(#p1cc648ef20)" style="fill: none; stroke: #000000; stroke-opacity: 0.1; stroke-width: 0.5; stroke-linecap: square"/>
     </g>
     <g id="line2d_14">
      <g>
       <use xlink:href="#m6810fd66d1" x="218.446401" y="139.471785" style="stroke: #000000; stroke-width: 0.5"/>
      </g>
     </g>
     <g id="text_7">
      <!-- 30 -->
      <g transform="translate(215.28046 145.220041)scale(0.06246 -0.06246)">
       <defs>
        <path id="Calibri-33" d="M 2856 1156
Q 2856 878 2759 654
Q 2663 431 2481 272
Q 2300 113 2034 27
Q 1769 -59 1434 -59
Q 1231 -59 1054 -26
Q 878 6 740 51
Q 603 97 512 145
Q 422 194 398 216
Q 375 238 362 259
Q 350 281 340 312
Q 331 344 326 389
Q 322 434 322 500
Q 322 613 344 656
Q 366 700 406 700
Q 434 700 517 650
Q 600 600 729 542
Q 859 484 1032 434
Q 1206 384 1419 384
Q 1625 384 1781 437
Q 1938 491 2044 587
Q 2150 684 2203 817
Q 2256 950 2256 1106
Q 2256 1278 2189 1415
Q 2122 1553 1992 1653
Q 1863 1753 1673 1806
Q 1484 1859 1244 1859
L 859 1859
Q 834 1859 811 1870
Q 788 1881 770 1906
Q 753 1931 742 1972
Q 731 2013 731 2078
Q 731 2138 740 2177
Q 750 2216 767 2239
Q 784 2263 806 2273
Q 828 2284 856 2284
L 1209 2284
Q 1416 2284 1580 2337
Q 1744 2391 1858 2491
Q 1972 2591 2033 2730
Q 2094 2869 2094 3041
Q 2094 3166 2053 3280
Q 2013 3394 1931 3478
Q 1850 3563 1723 3611
Q 1597 3659 1431 3659
Q 1250 3659 1098 3604
Q 947 3550 828 3487
Q 709 3425 631 3370
Q 553 3316 522 3316
Q 500 3316 483 3323
Q 466 3331 455 3354
Q 444 3378 439 3420
Q 434 3463 434 3531
Q 434 3578 437 3614
Q 441 3650 450 3676
Q 459 3703 471 3725
Q 484 3747 514 3776
Q 544 3806 634 3862
Q 725 3919 858 3973
Q 991 4028 1164 4065
Q 1338 4103 1538 4103
Q 1819 4103 2031 4031
Q 2244 3959 2386 3828
Q 2528 3697 2598 3514
Q 2669 3331 2669 3109
Q 2669 2919 2619 2755
Q 2569 2591 2472 2464
Q 2375 2338 2234 2248
Q 2094 2159 1909 2125
L 1909 2119
Q 2119 2097 2292 2014
Q 2466 1931 2591 1806
Q 2716 1681 2786 1514
Q 2856 1347 2856 1156
z
" transform="scale(0.015625)"/>
       </defs>
       <use xlink:href="#Calibri-33"/>
       <use xlink:href="#Calibri-30" x="50.683594"/>
      </g>
     </g>
    </g>
    <g id="xtick_8">
     <g id="line2d_15">
      <path d="M 249.829978 139.471785
L 249.829978 7.2
" clip-path="url(#p1cc648ef20)" style="fill: none; stroke: #000000; stroke-opacity: 0.1; stroke-width: 0.5; stroke-linecap: square"/>
     </g>
     <g id="line2d_16">
      <g>
       <use xlink:href="#m6810fd66d1" x="249.829978" y="139.471785" style="stroke: #000000; stroke-width: 0.5"/>
      </g>
     </g>
     <g id="text_8">
      <!-- 35 -->
      <g transform="translate(246.664037 145.220041)scale(0.06246 -0.06246)">
       <use xlink:href="#Calibri-33"/>
       <use xlink:href="#Calibri-35" x="50.683594"/>
      </g>
     </g>
    </g>
    <g id="text_9">
     <!-- risk $R$ [%] -->
     <g transform="translate(122.887458 154.452064)scale(0.09 -0.09)">
      <defs>
       <path id="Calibri-72" d="M 2122 2706
Q 2122 2638 2119 2591
Q 2116 2544 2106 2517
Q 2097 2491 2083 2477
Q 2069 2463 2044 2463
Q 2019 2463 1983 2477
Q 1947 2491 1901 2505
Q 1856 2519 1800 2531
Q 1744 2544 1678 2544
Q 1600 2544 1525 2512
Q 1450 2481 1367 2409
Q 1284 2338 1193 2219
Q 1103 2100 994 1928
L 994 78
Q 994 53 981 36
Q 969 19 941 6
Q 913 -6 863 -12
Q 813 -19 734 -19
Q 659 -19 609 -12
Q 559 -6 529 6
Q 500 19 489 36
Q 478 53 478 78
L 478 2891
Q 478 2916 487 2933
Q 497 2950 525 2964
Q 553 2978 597 2983
Q 641 2988 713 2988
Q 781 2988 826 2983
Q 872 2978 897 2964
Q 922 2950 933 2933
Q 944 2916 944 2891
L 944 2481
Q 1059 2650 1161 2756
Q 1263 2863 1353 2923
Q 1444 2984 1533 3007
Q 1622 3031 1713 3031
Q 1753 3031 1804 3026
Q 1856 3022 1912 3009
Q 1969 2997 2014 2981
Q 2059 2966 2078 2950
Q 2097 2934 2103 2920
Q 2109 2906 2114 2884
Q 2119 2863 2120 2820
Q 2122 2778 2122 2706
z
" transform="scale(0.015625)"/>
       <path id="Calibri-69" d="M 994 78
Q 994 53 981 36
Q 969 19 941 6
Q 913 -6 863 -12
Q 813 -19 734 -19
Q 659 -19 609 -12
Q 559 -6 529 6
Q 500 19 489 36
Q 478 53 478 78
L 478 2891
Q 478 2913 489 2931
Q 500 2950 529 2962
Q 559 2975 609 2981
Q 659 2988 734 2988
Q 813 2988 863 2981
Q 913 2975 941 2962
Q 969 2950 981 2931
Q 994 2913 994 2891
L 994 78
z
M 1053 3841
Q 1053 3659 984 3593
Q 916 3528 731 3528
Q 550 3528 483 3592
Q 416 3656 416 3834
Q 416 4016 484 4081
Q 553 4147 738 4147
Q 919 4147 986 4083
Q 1053 4019 1053 3841
z
" transform="scale(0.015625)"/>
       <path id="Calibri-73" d="M 2244 844
Q 2244 628 2164 459
Q 2084 291 1937 175
Q 1791 59 1587 0
Q 1384 -59 1141 -59
Q 991 -59 855 -36
Q 719 -13 611 23
Q 503 59 428 98
Q 353 138 318 169
Q 284 200 268 256
Q 253 313 253 409
Q 253 469 259 509
Q 266 550 275 575
Q 284 600 301 611
Q 319 622 341 622
Q 375 622 442 580
Q 509 538 607 488
Q 706 438 840 395
Q 975 353 1150 353
Q 1281 353 1387 381
Q 1494 409 1572 464
Q 1650 519 1692 603
Q 1734 688 1734 803
Q 1734 922 1673 1003
Q 1613 1084 1513 1146
Q 1413 1209 1288 1257
Q 1163 1306 1030 1359
Q 897 1413 770 1480
Q 644 1547 544 1644
Q 444 1741 383 1875
Q 322 2009 322 2197
Q 322 2363 386 2514
Q 450 2666 578 2780
Q 706 2894 898 2962
Q 1091 3031 1347 3031
Q 1459 3031 1571 3012
Q 1684 2994 1775 2966
Q 1866 2938 1930 2905
Q 1994 2872 2026 2847
Q 2059 2822 2070 2803
Q 2081 2784 2086 2761
Q 2091 2738 2095 2703
Q 2100 2669 2100 2619
Q 2100 2566 2095 2527
Q 2091 2488 2080 2463
Q 2069 2438 2053 2427
Q 2038 2416 2019 2416
Q 1991 2416 1937 2450
Q 1884 2484 1800 2523
Q 1716 2563 1602 2597
Q 1488 2631 1341 2631
Q 1209 2631 1109 2601
Q 1009 2572 945 2517
Q 881 2463 848 2388
Q 816 2313 816 2225
Q 816 2103 878 2020
Q 941 1938 1041 1875
Q 1141 1813 1269 1763
Q 1397 1713 1530 1659
Q 1663 1606 1792 1540
Q 1922 1475 2022 1381
Q 2122 1288 2183 1156
Q 2244 1025 2244 844
z
" transform="scale(0.015625)"/>
       <path id="Calibri-6b" d="M 2788 81
Q 2788 56 2775 37
Q 2763 19 2733 6
Q 2703 -6 2650 -12
Q 2597 -19 2516 -19
Q 2431 -19 2376 -14
Q 2322 -9 2284 2
Q 2247 13 2223 33
Q 2200 53 2181 81
L 994 1638
L 994 78
Q 994 53 981 36
Q 969 19 941 6
Q 913 -6 863 -12
Q 813 -19 734 -19
Q 659 -19 609 -12
Q 559 -6 529 6
Q 500 19 489 36
Q 478 53 478 78
L 478 4253
Q 478 4278 489 4297
Q 500 4316 529 4328
Q 559 4341 609 4347
Q 659 4353 734 4353
Q 813 4353 863 4347
Q 913 4341 941 4328
Q 969 4316 981 4297
Q 994 4278 994 4253
L 994 1709
L 2056 2878
Q 2081 2909 2109 2929
Q 2138 2950 2177 2964
Q 2216 2978 2269 2983
Q 2322 2988 2397 2988
Q 2475 2988 2528 2983
Q 2581 2978 2614 2967
Q 2647 2956 2661 2939
Q 2675 2922 2675 2894
Q 2675 2856 2654 2818
Q 2634 2781 2588 2731
L 1569 1713
L 2713 228
Q 2753 175 2770 142
Q 2788 109 2788 81
z
" transform="scale(0.015625)"/>
       <path id="Calibri-20" transform="scale(0.015625)"/>
       <path id="Cambria-Italic-52" d="M 2528 1934
Q 2678 1822 2770 1665
Q 2863 1509 2919 1231
L 2991 869
Q 3013 756 3039 659
Q 3066 563 3102 473
Q 3138 384 3180 331
Q 3222 278 3270 243
Q 3319 209 3380 189
Q 3441 169 3534 153
L 3503 0
L 2638 0
Q 2538 278 2459 663
L 2322 1325
Q 2288 1497 2239 1614
Q 2191 1731 2123 1795
Q 2056 1859 1967 1879
Q 1878 1900 1750 1900
L 1394 1900
L 1175 909
Q 1147 788 1136 716
Q 1125 644 1117 564
Q 1109 484 1109 422
Q 1109 325 1140 270
Q 1172 216 1234 191
Q 1297 166 1450 153
L 1416 0
L 131 0
L 166 153
Q 284 172 343 214
Q 403 256 443 331
Q 484 406 518 514
Q 553 622 622 931
L 1153 3338
Q 1222 3650 1222 3831
Q 1222 3984 1150 4043
Q 1078 4103 916 4113
L 950 4266
L 2341 4266
Q 2672 4266 2881 4227
Q 3091 4188 3239 4109
Q 3388 4031 3488 3907
Q 3588 3784 3638 3629
Q 3688 3475 3688 3300
Q 3688 3022 3595 2806
Q 3503 2591 3343 2428
Q 3184 2266 2973 2153
Q 2763 2041 2528 1969
L 2528 1934
z
M 1822 2169
Q 2163 2169 2388 2236
Q 2613 2303 2763 2440
Q 2913 2578 3009 2803
Q 3106 3028 3106 3291
Q 3106 3425 3081 3529
Q 3056 3634 3015 3703
Q 2975 3772 2912 3825
Q 2850 3878 2756 3917
Q 2663 3956 2539 3973
Q 2416 3991 2203 3991
Q 2038 3991 1853 3978
L 1453 2169
L 1822 2169
z
" transform="scale(0.015625)"/>
       <path id="Calibri-5b" d="M 1684 -813
Q 1684 -916 1661 -958
Q 1638 -1000 1594 -1000
L 794 -1000
Q 756 -1000 722 -989
Q 688 -978 659 -953
Q 631 -928 614 -886
Q 597 -844 597 -781
L 597 4153
Q 597 4213 614 4255
Q 631 4297 659 4323
Q 688 4350 722 4361
Q 756 4372 794 4372
L 1594 4372
Q 1613 4372 1630 4362
Q 1647 4353 1659 4328
Q 1672 4303 1678 4267
Q 1684 4231 1684 4178
Q 1684 4078 1661 4034
Q 1638 3991 1594 3991
L 1084 3991
L 1084 -622
L 1594 -622
Q 1613 -622 1630 -631
Q 1647 -641 1659 -664
Q 1672 -688 1678 -723
Q 1684 -759 1684 -813
z
" transform="scale(0.015625)"/>
       <path id="Calibri-25" d="M 1964 3070
Q 1964 2829 1910 2632
Q 1857 2436 1748 2296
Q 1639 2157 1471 2079
Q 1304 2001 1079 2001
Q 851 2001 688 2073
Q 526 2145 423 2281
Q 320 2417 271 2612
Q 223 2807 223 3057
Q 223 3286 274 3479
Q 326 3673 432 3813
Q 539 3954 706 4035
Q 873 4117 1101 4117
Q 1348 4117 1515 4032
Q 1682 3948 1782 3806
Q 1882 3664 1923 3473
Q 1964 3282 1964 3070
z
M 1526 3054
Q 1526 3229 1501 3365
Q 1476 3501 1424 3591
Q 1373 3682 1288 3727
Q 1204 3773 1089 3773
Q 979 3773 898 3729
Q 817 3686 765 3598
Q 714 3511 689 3381
Q 664 3251 664 3076
Q 664 2864 693 2721
Q 723 2579 777 2496
Q 832 2414 915 2381
Q 998 2348 1104 2348
Q 1229 2348 1309 2395
Q 1389 2442 1437 2534
Q 1486 2626 1506 2756
Q 1526 2886 1526 3054
z
M 4348 1022
Q 4348 781 4294 584
Q 4241 388 4132 248
Q 4023 109 3855 31
Q 3688 -47 3463 -47
Q 3235 -47 3072 25
Q 2910 97 2807 233
Q 2704 369 2655 564
Q 2607 759 2607 1009
Q 2607 1238 2658 1431
Q 2710 1625 2816 1765
Q 2923 1906 3090 1987
Q 3257 2069 3485 2069
Q 3732 2069 3899 1984
Q 4066 1900 4166 1758
Q 4266 1616 4307 1425
Q 4348 1234 4348 1022
z
M 3910 1006
Q 3910 1181 3885 1317
Q 3860 1453 3808 1543
Q 3757 1634 3672 1679
Q 3588 1725 3473 1725
Q 3363 1725 3282 1681
Q 3201 1638 3149 1550
Q 3098 1463 3073 1333
Q 3048 1203 3048 1028
Q 3048 816 3077 673
Q 3107 531 3161 448
Q 3216 366 3299 333
Q 3382 300 3488 300
Q 3613 300 3693 347
Q 3773 394 3821 486
Q 3870 578 3890 708
Q 3910 838 3910 1006
z
M 1078 -25
Q 1062 -53 1040 -67
Q 1018 -81 987 -92
Q 956 -103 912 -108
Q 868 -113 806 -113
Q 737 -113 695 -100
Q 653 -88 635 -67
Q 618 -47 623 -17
Q 628 13 653 50
L 3465 4078
Q 3481 4103 3503 4120
Q 3525 4138 3557 4147
Q 3590 4156 3632 4161
Q 3675 4166 3740 4166
Q 3806 4166 3848 4155
Q 3890 4144 3909 4122
Q 3928 4100 3923 4069
Q 3918 4038 3893 4003
L 1078 -25
z
" transform="scale(0.015625)"/>
       <path id="Calibri-5d" d="M 1369 -781
Q 1369 -844 1351 -886
Q 1334 -928 1306 -953
Q 1278 -978 1242 -989
Q 1206 -1000 1169 -1000
L 372 -1000
Q 328 -1000 304 -958
Q 281 -916 281 -813
Q 281 -759 286 -723
Q 291 -688 303 -664
Q 316 -641 333 -631
Q 350 -622 372 -622
L 881 -622
L 881 3991
L 372 3991
Q 328 3991 304 4034
Q 281 4078 281 4178
Q 281 4231 286 4267
Q 291 4303 303 4328
Q 316 4353 333 4362
Q 350 4372 372 4372
L 1169 4372
Q 1206 4372 1242 4361
Q 1278 4350 1306 4323
Q 1334 4297 1351 4255
Q 1369 4213 1369 4153
L 1369 -781
z
" transform="scale(0.015625)"/>
      </defs>
      <use xlink:href="#Calibri-72" transform="translate(0 0.6875)"/>
      <use xlink:href="#Calibri-69" transform="translate(34.863281 0.6875)"/>
      <use xlink:href="#Calibri-73" transform="translate(57.8125 0.6875)"/>
      <use xlink:href="#Calibri-6b" transform="translate(96.923828 0.6875)"/>
      <use xlink:href="#Calibri-20" transform="translate(142.382812 0.6875)"/>
      <use xlink:href="#Cambria-Italic-52" transform="translate(164.990234 0.6875)"/>
      <use xlink:href="#Calibri-20" transform="translate(224.023438 0.6875)"/>
      <use xlink:href="#Calibri-5b" transform="translate(246.630859 0.6875)"/>
      <use xlink:href="#Calibri-25" transform="translate(277.294922 0.6875)"/>
      <use xlink:href="#Calibri-5d" transform="translate(348.779297 0.6875)"/>
     </g>
    </g>
   </g>
   <g id="matplotlib.axis_2">
    <g id="ytick_1">
     <g id="line2d_17">
      <path d="M 30.144939 139.471785
L 249.829978 139.471785
" clip-path="url(#p1cc648ef20)" style="fill: none; stroke: #000000; stroke-opacity: 0.1; stroke-width: 0.5; stroke-linecap: square"/>
     </g>
     <g id="line2d_18">
      <defs>
       <path id="mdaf96fbe0b" d="M 0 0
L 3 0
" style="stroke: #000000; stroke-width: 0.5"/>
      </defs>
      <g>
       <use xlink:href="#mdaf96fbe0b" x="30.144939" y="139.471785" style="stroke: #000000; stroke-width: 0.5"/>
      </g>
     </g>
     <g id="text_10">
      <!-- 0.00 -->
      <g transform="translate(17.57 141.595913)scale(0.06246 -0.06246)">
       <defs>
        <path id="Calibri-2e" d="M 1144 341
Q 1144 119 1070 45
Q 997 -28 803 -28
Q 616 -28 544 44
Q 472 116 472 331
Q 472 553 545 626
Q 619 700 813 700
Q 1000 700 1072 628
Q 1144 556 1144 341
z
" transform="scale(0.015625)"/>
       </defs>
       <use xlink:href="#Calibri-30"/>
       <use xlink:href="#Calibri-2e" x="50.683594"/>
       <use xlink:href="#Calibri-30" x="75.927734"/>
       <use xlink:href="#Calibri-30" x="126.611328"/>
      </g>
     </g>
    </g>
    <g id="ytick_2">
     <g id="line2d_19">
      <path d="M 30.144939 115.11974
L 249.829978 115.11974
" clip-path="url(#p1cc648ef20)" style="fill: none; stroke: #000000; stroke-opacity: 0.1; stroke-width: 0.5; stroke-linecap: square"/>
     </g>
     <g id="line2d_20">
      <g>
       <use xlink:href="#mdaf96fbe0b" x="30.144939" y="115.11974" style="stroke: #000000; stroke-width: 0.5"/>
      </g>
     </g>
     <g id="text_11">
      <!-- 0.05 -->
      <g transform="translate(17.57 117.243868)scale(0.06246 -0.06246)">
       <use xlink:href="#Calibri-30"/>
       <use xlink:href="#Calibri-2e" x="50.683594"/>
       <use xlink:href="#Calibri-30" x="75.927734"/>
       <use xlink:href="#Calibri-35" x="126.611328"/>
      </g>
     </g>
    </g>
    <g id="ytick_3">
     <g id="line2d_21">
      <path d="M 30.144939 90.767695
L 249.829978 90.767695
" clip-path="url(#p1cc648ef20)" style="fill: none; stroke: #000000; stroke-opacity: 0.1; stroke-width: 0.5; stroke-linecap: square"/>
     </g>
     <g id="line2d_22">
      <g>
       <use xlink:href="#mdaf96fbe0b" x="30.144939" y="90.767695" style="stroke: #000000; stroke-width: 0.5"/>
      </g>
     </g>
     <g id="text_12">
      <!-- 0.10 -->
      <g transform="translate(17.57 92.891823)scale(0.06246 -0.06246)">
       <use xlink:href="#Calibri-30"/>
       <use xlink:href="#Calibri-2e" x="50.683594"/>
       <use xlink:href="#Calibri-31" x="75.927734"/>
       <use xlink:href="#Calibri-30" x="126.611328"/>
      </g>
     </g>
    </g>
    <g id="ytick_4">
     <g id="line2d_23">
      <path d="M 30.144939 66.41565
L 249.829978 66.41565
" clip-path="url(#p1cc648ef20)" style="fill: none; stroke: #000000; stroke-opacity: 0.1; stroke-width: 0.5; stroke-linecap: square"/>
     </g>
     <g id="line2d_24">
      <g>
       <use xlink:href="#mdaf96fbe0b" x="30.144939" y="66.41565" style="stroke: #000000; stroke-width: 0.5"/>
      </g>
     </g>
     <g id="text_13">
      <!-- 0.15 -->
      <g transform="translate(17.57 68.539778)scale(0.06246 -0.06246)">
       <use xlink:href="#Calibri-30"/>
       <use xlink:href="#Calibri-2e" x="50.683594"/>
       <use xlink:href="#Calibri-31" x="75.927734"/>
       <use xlink:href="#Calibri-35" x="126.611328"/>
      </g>
     </g>
    </g>
    <g id="ytick_5">
     <g id="line2d_25">
      <path d="M 30.144939 42.063605
L 249.829978 42.063605
" clip-path="url(#p1cc648ef20)" style="fill: none; stroke: #000000; stroke-opacity: 0.1; stroke-width: 0.5; stroke-linecap: square"/>
     </g>
     <g id="line2d_26">
      <g>
       <use xlink:href="#mdaf96fbe0b" x="30.144939" y="42.063605" style="stroke: #000000; stroke-width: 0.5"/>
      </g>
     </g>
     <g id="text_14">
      <!-- 0.20 -->
      <g transform="translate(17.57 44.187733)scale(0.06246 -0.06246)">
       <use xlink:href="#Calibri-30"/>
       <use xlink:href="#Calibri-2e" x="50.683594"/>
       <use xlink:href="#Calibri-32" x="75.927734"/>
       <use xlink:href="#Calibri-30" x="126.611328"/>
      </g>
     </g>
    </g>
    <g id="ytick_6">
     <g id="line2d_27">
      <path d="M 30.144939 17.71156
L 249.829978 17.71156
" clip-path="url(#p1cc648ef20)" style="fill: none; stroke: #000000; stroke-opacity: 0.1; stroke-width: 0.5; stroke-linecap: square"/>
     </g>
     <g id="line2d_28">
      <g>
       <use xlink:href="#mdaf96fbe0b" x="30.144939" y="17.71156" style="stroke: #000000; stroke-width: 0.5"/>
      </g>
     </g>
     <g id="text_15">
      <!-- 0.25 -->
      <g transform="translate(17.57 19.835688)scale(0.06246 -0.06246)">
       <use xlink:href="#Calibri-30"/>
       <use xlink:href="#Calibri-2e" x="50.683594"/>
       <use xlink:href="#Calibri-32" x="75.927734"/>
       <use xlink:href="#Calibri-35" x="126.611328"/>
      </g>
     </g>
    </g>
    <g id="text_16">
     <!-- $p(R)$ -->
     <g transform="translate(13.59 81.840892)rotate(-90)scale(0.09 -0.09)">
      <defs>
       <path id="Cambria-Italic-70" d="M 669 -553
Q 638 -703 630 -784
Q 622 -866 622 -919
Q 622 -1013 653 -1066
Q 684 -1119 750 -1147
Q 816 -1175 966 -1191
L 941 -1344
L -25 -1344
L 766 2131
Q 825 2394 825 2581
Q 825 2669 798 2717
Q 772 2766 708 2789
Q 644 2813 491 2822
L 528 2988
L 1238 3016
L 1416 3016
L 1206 2203
L 1244 2191
Q 1822 3038 2394 3038
Q 2734 3038 2923 2778
Q 3113 2519 3113 2047
Q 3113 1709 3020 1368
Q 2928 1028 2764 753
Q 2600 478 2398 301
Q 2197 125 1973 37
Q 1750 -50 1503 -50
Q 1088 -50 813 131
L 669 -553
z
M 1044 1088
Q 1013 922 1005 834
Q 997 747 997 663
Q 997 419 1101 308
Q 1206 197 1463 197
Q 1622 197 1756 259
Q 1891 322 2011 440
Q 2131 559 2228 728
Q 2325 897 2401 1120
Q 2478 1344 2517 1580
Q 2556 1816 2556 2022
Q 2556 2350 2464 2511
Q 2372 2672 2172 2672
Q 2013 2672 1858 2564
Q 1703 2456 1518 2218
Q 1334 1981 1231 1750
Q 1128 1519 1069 1219
L 1044 1088
z
" transform="scale(0.015625)"/>
       <path id="Cambria-28" d="M 2309 -1359
Q 1778 -1359 1442 -1200
Q 1106 -1041 918 -714
Q 731 -388 647 134
Q 563 656 563 1550
Q 563 2438 645 2964
Q 728 3491 915 3822
Q 1103 4153 1440 4318
Q 1778 4484 2309 4484
L 2309 4228
Q 2091 4228 1922 4191
Q 1731 4147 1597 4022
Q 1447 3884 1353 3638
Q 1244 3350 1191 2875
Q 1134 2372 1134 1575
Q 1134 872 1181 379
Q 1228 -113 1338 -425
Q 1425 -688 1556 -834
Q 1672 -963 1831 -1028
Q 2016 -1103 2309 -1103
L 2309 -1359
z
" transform="scale(0.015625)"/>
       <path id="Cambria-29" d="M 134 4484
Q 666 4484 1002 4325
Q 1338 4166 1525 3839
Q 1713 3513 1797 2991
Q 1881 2469 1881 1575
Q 1881 688 1798 161
Q 1716 -366 1528 -697
Q 1341 -1028 1003 -1193
Q 666 -1359 134 -1359
L 134 -1103
Q 353 -1103 522 -1066
Q 713 -1022 847 -897
Q 997 -759 1091 -513
Q 1200 -225 1253 250
Q 1309 753 1309 1550
Q 1309 2253 1262 2745
Q 1216 3238 1106 3550
Q 1019 3813 888 3959
Q 772 4088 613 4153
Q 428 4228 134 4228
L 134 4484
z
" transform="scale(0.015625)"/>
      </defs>
      <use xlink:href="#Cambria-Italic-70" transform="translate(0 0.9375)"/>
      <use xlink:href="#Cambria-28" transform="translate(52.685547 0.9375)"/>
      <use xlink:href="#Cambria-Italic-52" transform="translate(90.869141 0.9375)"/>
      <use xlink:href="#Cambria-29" transform="translate(149.902344 0.9375)"/>
     </g>
    </g>
   </g>
   <g id="patch_6">
    <path d="M 30.144939 139.471785
L 30.144939 139.471785
L 34.628307 139.471785
L 34.628307 139.471785
L 39.111675 139.471785
L 39.111675 139.471785
L 43.595043 139.471785
L 43.595043 139.471785
L 48.078411 139.471785
L 48.078411 139.471785
L 52.56178 139.471785
L 52.56178 139.471785
L 57.045148 139.471785
L 57.045148 139.471785
L 61.528516 139.471785
L 61.528516 139.130856
L 66.011884 139.130856
L 66.011884 135.892034
L 70.495252 135.892034
L 70.495252 128.391604
L 74.97862 128.391604
L 74.97862 103.162886
L 79.461988 103.162886
L 79.461988 75.036274
L 83.945357 75.036274
L 83.945357 38.045518
L 88.428725 38.045518
L 88.428725 16.737478
L 92.912093 16.737478
L 92.912093 30.033695
L 97.395461 30.033695
L 97.395461 48.955234
L 101.878829 48.955234
L 101.878829 77.934167
L 106.362197 77.934167
L 106.362197 101.287778
L 110.845565 101.287778
L 110.845565 118.163746
L 115.328934 118.163746
L 115.328934 128.562069
L 119.812302 128.562069
L 119.812302 133.505534
L 124.29567 133.505534
L 124.29567 137.426213
L 128.779038 137.426213
L 128.779038 138.278535
L 133.262406 138.278535
L 133.262406 138.789928
L 137.745774 138.789928
L 137.745774 139.471785
L 142.229143 139.471785
L 142.229143 139.301321
L 146.712511 139.301321
L 146.712511 139.471785
L 151.195879 139.471785
L 151.195879 139.471785
L 155.679247 139.471785
L 155.679247 139.471785
L 160.162615 139.471785
L 160.162615 139.471785
L 164.645983 139.471785
L 164.645983 139.471785
L 169.129351 139.471785
L 169.129351 139.471785
L 173.61272 139.471785
L 173.61272 139.471785
L 178.096088 139.471785
L 178.096088 139.471785
L 182.579456 139.471785
L 182.579456 139.471785
L 187.062824 139.471785
L 187.062824 139.471785
L 191.546192 139.471785
L 191.546192 139.471785
L 196.02956 139.471785
L 196.02956 139.471785
L 200.512928 139.471785
L 200.512928 139.471785
L 204.996297 139.471785
L 204.996297 139.471785
L 209.479665 139.471785
L 209.479665 139.471785
L 213.963033 139.471785
L 213.963033 139.471785
L 218.446401 139.471785
L 218.446401 139.471785
L 222.929769 139.471785
L 222.929769 139.471785
L 227.413137 139.471785
L 227.413137 139.471785
L 231.896506 139.471785
L 231.896506 139.471785
L 236.379874 139.471785
L 236.379874 139.471785
L 240.863242 139.471785
L 240.863242 139.471785
L 245.34661 139.471785
L 245.34661 139.471785
L 249.829978 139.471785
L 249.829978 139.471785
" clip-path="url(#p1cc648ef20)" style="fill: none; stroke: #005ea8; stroke-linejoin: miter"/>
   </g>
   <g id="patch_7">
    <path d="M 30.144939 139.471785
L 30.144939 7.2
" style="fill: none; stroke: #000000; stroke-width: 0.5; stroke-linejoin: miter; stroke-linecap: square"/>
   </g>
   <g id="patch_8">
    <path d="M 249.829978 139.471785
L 249.829978 7.2
" style="fill: none; stroke: #000000; stroke-width: 0.5; stroke-linejoin: miter; stroke-linecap: square"/>
   </g>
   <g id="patch_9">
    <path d="M 30.144939 139.471785
L 249.829978 139.471785
" style="fill: none; stroke: #000000; stroke-width: 0.5; stroke-linejoin: miter; stroke-linecap: square"/>
   </g>
   <g id="patch_10">
    <path d="M 30.144939 7.2
L 249.829978 7.2
" style="fill: none; stroke: #000000; stroke-width: 0.5; stroke-linejoin: miter; stroke-linecap: square"/>
   </g>
   <g id="legend_1">
    <g id="patch_11">
     <path d="M 182.825037 37.229597
L 245.457778 37.229597
Q 246.706978 37.229597 246.706978 35.980397
L 246.706978 11.5722
Q 246.706978 10.323 245.457778 10.323
L 182.825037 10.323
Q 181.575837 10.323 181.575837 11.5722
L 181.575837 35.980397
Q 181.575837 37.229597 182.825037 37.229597
z
" style="fill: #ffffff; opacity: 0.8; stroke: #cccccc; stroke-linejoin: miter"/>
    </g>
    <g id="patch_12">
     <path d="M 182.825037 15.9444
L 195.317037 15.9444
L 195.317037 11.5722
L 182.825037 11.5722
z
" style="fill: #00afa5"/>
    </g>
    <g id="text_17">
     <!-- $p = 0.4$ -->
     <g transform="translate(200.313837 15.9444)scale(0.06246 -0.06246)">
      <defs>
       <path id="Cambria-3d" d="M 388 2259
L 388 2694
L 3156 2694
L 3156 2259
L 388 2259
z
M 388 963
L 388 1397
L 3156 1397
L 3156 963
L 388 963
z
" transform="scale(0.015625)"/>
       <path id="Cambria-30" d="M 1738 -50
Q 1063 -50 733 481
Q 403 1013 403 2094
Q 403 2669 504 3087
Q 606 3506 789 3779
Q 972 4053 1228 4184
Q 1484 4316 1788 4316
Q 2472 4316 2806 3787
Q 3141 3259 3141 2191
Q 3141 1084 2783 517
Q 2425 -50 1738 -50
z
M 1013 2188
Q 1013 1169 1202 692
Q 1391 216 1788 216
Q 2166 216 2348 664
Q 2531 1113 2531 2053
Q 2531 2772 2437 3217
Q 2344 3663 2176 3856
Q 2009 4050 1772 4050
Q 1556 4050 1411 3922
Q 1266 3794 1177 3553
Q 1088 3313 1050 2967
Q 1013 2622 1013 2188
z
" transform="scale(0.015625)"/>
       <path id="Cambria-2e" d="M 972 725
L 972 0
L 341 0
L 341 725
L 972 725
z
" transform="scale(0.015625)"/>
       <path id="Cambria-34" d="M 1613 153
Q 1806 203 1872 264
Q 1938 325 1958 437
Q 1978 550 1978 781
L 1978 1294
L 241 1294
L 241 1528
L 2069 4288
L 2516 4288
L 2516 1597
L 2581 1597
Q 2763 1597 2841 1623
Q 2919 1650 2970 1717
Q 3022 1784 3066 1938
L 3303 1938
L 3266 1294
L 2516 1294
L 2516 781
Q 2516 572 2530 475
Q 2544 378 2576 322
Q 2609 266 2673 228
Q 2738 191 2881 153
L 2881 0
L 1613 0
L 1613 153
z
M 756 1597
L 1978 1597
L 1978 2375
Q 1978 2669 1987 3033
Q 1997 3397 2009 3581
L 1978 3581
L 756 1641
L 756 1597
z
" transform="scale(0.015625)"/>
      </defs>
      <use xlink:href="#Cambria-Italic-70" transform="translate(0 0.5625)"/>
      <use xlink:href="#Cambria-3d" transform="translate(68.662109 0.5625)"/>
      <use xlink:href="#Cambria-30" transform="translate(140.009766 0.5625)"/>
      <use xlink:href="#Cambria-2e" transform="translate(195.380859 0.5625)"/>
      <use xlink:href="#Cambria-34" transform="translate(215.888672 0.5625)"/>
     </g>
    </g>
    <g id="patch_13">
     <path d="M 182.825037 22.25286
L 195.317037 22.25286
L 195.317037 17.88066
L 182.825037 17.88066
z
" style="fill: #f17900; opacity: 0.8"/>
    </g>
    <g id="text_18">
     <!-- $p = 0.55$ -->
     <g transform="translate(200.313837 22.25286)scale(0.06246 -0.06246)">
      <defs>
       <path id="Cambria-35" d="M 469 172
L 469 834
L 847 834
Q 941 516 1130 366
Q 1319 216 1619 216
Q 2034 216 2246 466
Q 2459 716 2459 1213
Q 2459 1544 2346 1761
Q 2234 1978 2043 2075
Q 1853 2172 1600 2172
Q 1388 2172 1234 2145
Q 1081 2119 906 2063
L 656 2209
L 656 4266
L 2378 4266
Q 2484 4266 2531 4283
Q 2578 4300 2606 4336
Q 2634 4372 2672 4472
L 2916 4472
L 2869 3747
L 1072 3747
L 1072 2375
Q 1234 2444 1425 2478
Q 1616 2513 1806 2513
Q 2178 2513 2465 2361
Q 2753 2209 2909 1929
Q 3066 1650 3066 1281
Q 3066 863 2891 563
Q 2716 263 2384 106
Q 2053 -50 1600 -50
Q 1059 -50 469 172
z
" transform="scale(0.015625)"/>
      </defs>
      <use xlink:href="#Cambria-Italic-70" transform="translate(0 0.125)"/>
      <use xlink:href="#Cambria-3d" transform="translate(68.662109 0.125)"/>
      <use xlink:href="#Cambria-30" transform="translate(140.009766 0.125)"/>
      <use xlink:href="#Cambria-2e" transform="translate(195.380859 0.125)"/>
      <use xlink:href="#Cambria-35" transform="translate(215.888672 0.125)"/>
      <use xlink:href="#Cambria-35" transform="translate(271.259766 0.125)"/>
     </g>
    </g>
    <g id="patch_14">
     <path d="M 182.825037 28.56132
L 195.317037 28.56132
L 195.317037 24.18912
L 182.825037 24.18912
z
" style="fill: #ae0060; opacity: 0.8"/>
    </g>
    <g id="text_19">
     <!-- $p = 0.7$ -->
     <g transform="translate(200.313837 28.56132)scale(0.06246 -0.06246)">
      <defs>
       <path id="Cambria-37" d="M 3206 4116
L 1388 -22
L 934 -22
L 934 131
L 2619 3697
L 2619 3744
L 1244 3744
Q 1116 3744 1039 3720
Q 963 3697 911 3653
Q 859 3609 825 3537
Q 791 3466 731 3253
L 463 3253
L 525 4266
L 3206 4266
L 3206 4116
z
" transform="scale(0.015625)"/>
      </defs>
      <use xlink:href="#Cambria-Italic-70" transform="translate(0 0.5625)"/>
      <use xlink:href="#Cambria-3d" transform="translate(68.662109 0.5625)"/>
      <use xlink:href="#Cambria-30" transform="translate(140.009766 0.5625)"/>
      <use xlink:href="#Cambria-2e" transform="translate(195.380859 0.5625)"/>
      <use xlink:href="#Cambria-37" transform="translate(215.888672 0.5625)"/>
     </g>
    </g>
    <g id="patch_15">
     <path d="M 182.825037 34.86978
L 195.317037 34.86978
L 195.317037 30.49758
L 182.825037 30.49758
L 182.825037 34.86978
z
" style="fill: none; stroke: #005ea8; stroke-linejoin: miter"/>
    </g>
    <g id="text_20">
     <!-- Bayesian network -->
     <g transform="translate(200.313837 34.86978)scale(0.06246 -0.06246)">
      <defs>
       <path id="Calibri-42" d="M 3203 1159
Q 3203 969 3154 808
Q 3106 647 3018 519
Q 2931 391 2807 294
Q 2684 197 2529 131
Q 2375 66 2198 33
Q 2022 0 1794 0
L 738 0
Q 666 0 602 48
Q 538 97 538 219
L 538 3825
Q 538 3947 602 3995
Q 666 4044 738 4044
L 1656 4044
Q 2019 4044 2250 3975
Q 2481 3906 2636 3775
Q 2791 3644 2869 3453
Q 2947 3263 2947 3022
Q 2947 2878 2912 2747
Q 2878 2616 2811 2505
Q 2744 2394 2642 2306
Q 2541 2219 2409 2163
Q 2575 2131 2719 2048
Q 2863 1966 2970 1837
Q 3078 1709 3140 1537
Q 3203 1366 3203 1159
z
M 2394 2969
Q 2394 3116 2353 3234
Q 2313 3353 2225 3436
Q 2138 3519 1997 3562
Q 1856 3606 1625 3606
L 1069 3606
L 1069 2297
L 1681 2297
Q 1891 2297 2019 2351
Q 2147 2406 2231 2498
Q 2316 2591 2355 2714
Q 2394 2838 2394 2969
z
M 2638 1128
Q 2638 1309 2580 1446
Q 2522 1584 2411 1678
Q 2300 1772 2133 1820
Q 1966 1869 1713 1869
L 1069 1869
L 1069 444
L 1850 444
Q 2034 444 2171 487
Q 2309 531 2414 617
Q 2519 703 2578 831
Q 2638 959 2638 1128
z
" transform="scale(0.015625)"/>
       <path id="Calibri-61" d="M 2597 75
Q 2597 38 2572 19
Q 2547 0 2503 -9
Q 2459 -19 2375 -19
Q 2294 -19 2245 -9
Q 2197 0 2175 19
Q 2153 38 2153 75
L 2153 356
Q 1969 159 1742 50
Q 1516 -59 1263 -59
Q 1041 -59 861 -1
Q 681 56 554 165
Q 428 275 358 434
Q 288 594 288 797
Q 288 1034 384 1209
Q 481 1384 662 1500
Q 844 1616 1106 1673
Q 1369 1731 1697 1731
L 2084 1731
L 2084 1950
Q 2084 2113 2050 2238
Q 2016 2363 1939 2445
Q 1863 2528 1741 2570
Q 1619 2613 1441 2613
Q 1250 2613 1098 2567
Q 947 2522 833 2467
Q 719 2413 642 2367
Q 566 2322 528 2322
Q 503 2322 484 2334
Q 466 2347 452 2372
Q 438 2397 431 2436
Q 425 2475 425 2522
Q 425 2600 436 2645
Q 447 2691 489 2731
Q 531 2772 634 2826
Q 738 2881 872 2926
Q 1006 2972 1165 3001
Q 1325 3031 1488 3031
Q 1791 3031 2003 2962
Q 2216 2894 2347 2761
Q 2478 2628 2537 2431
Q 2597 2234 2597 1972
L 2597 75
z
M 2084 1359
L 1644 1359
Q 1431 1359 1275 1323
Q 1119 1288 1016 1217
Q 913 1147 864 1048
Q 816 950 816 822
Q 816 603 955 473
Q 1094 344 1344 344
Q 1547 344 1720 447
Q 1894 550 2084 763
L 2084 1359
z
" transform="scale(0.015625)"/>
       <path id="Calibri-79" d="M 1759 0
L 1384 -1034
Q 1366 -1084 1289 -1111
Q 1213 -1138 1056 -1138
Q 975 -1138 925 -1130
Q 875 -1122 848 -1103
Q 822 -1084 819 -1053
Q 816 -1022 834 -978
L 1222 0
Q 1194 13 1169 41
Q 1144 69 1134 100
L 131 2788
Q 106 2853 106 2890
Q 106 2928 131 2950
Q 156 2972 212 2980
Q 269 2988 363 2988
Q 456 2988 509 2983
Q 563 2978 594 2965
Q 625 2953 639 2929
Q 653 2906 669 2866
L 1472 609
L 1481 609
L 2256 2878
Q 2275 2938 2301 2955
Q 2328 2972 2381 2980
Q 2434 2988 2534 2988
Q 2622 2988 2678 2980
Q 2734 2972 2761 2950
Q 2788 2928 2788 2890
Q 2788 2853 2769 2797
L 1759 0
z
" transform="scale(0.015625)"/>
       <path id="Calibri-65" d="M 2878 1606
Q 2878 1484 2817 1432
Q 2756 1381 2678 1381
L 834 1381
Q 834 1147 881 959
Q 928 772 1037 637
Q 1147 503 1322 431
Q 1497 359 1750 359
Q 1950 359 2106 392
Q 2263 425 2377 465
Q 2491 506 2564 539
Q 2638 572 2675 572
Q 2697 572 2714 561
Q 2731 550 2740 528
Q 2750 506 2754 467
Q 2759 428 2759 372
Q 2759 331 2756 301
Q 2753 272 2748 248
Q 2744 225 2733 206
Q 2722 188 2705 170
Q 2688 153 2603 114
Q 2519 75 2384 37
Q 2250 0 2073 -29
Q 1897 -59 1697 -59
Q 1350 -59 1089 37
Q 828 134 650 325
Q 472 516 381 803
Q 291 1091 291 1472
Q 291 1834 384 2123
Q 478 2413 654 2614
Q 831 2816 1081 2923
Q 1331 3031 1641 3031
Q 1972 3031 2205 2925
Q 2438 2819 2588 2639
Q 2738 2459 2808 2217
Q 2878 1975 2878 1700
L 2878 1606
z
M 2359 1759
Q 2369 2166 2180 2397
Q 1991 2628 1619 2628
Q 1428 2628 1284 2556
Q 1141 2484 1044 2365
Q 947 2247 894 2089
Q 841 1931 834 1759
L 2359 1759
z
" transform="scale(0.015625)"/>
       <path id="Calibri-6e" d="M 2900 78
Q 2900 53 2887 36
Q 2875 19 2847 6
Q 2819 -6 2769 -12
Q 2719 -19 2644 -19
Q 2566 -19 2516 -12
Q 2466 -6 2437 6
Q 2409 19 2396 36
Q 2384 53 2384 78
L 2384 1725
Q 2384 1966 2346 2112
Q 2309 2259 2237 2365
Q 2166 2472 2052 2528
Q 1938 2584 1788 2584
Q 1594 2584 1400 2446
Q 1206 2309 994 2044
L 994 78
Q 994 53 981 36
Q 969 19 941 6
Q 913 -6 863 -12
Q 813 -19 734 -19
Q 659 -19 609 -12
Q 559 -6 529 6
Q 500 19 489 36
Q 478 53 478 78
L 478 2891
Q 478 2916 487 2933
Q 497 2950 525 2964
Q 553 2978 597 2983
Q 641 2988 713 2988
Q 781 2988 826 2983
Q 872 2978 897 2964
Q 922 2950 933 2933
Q 944 2916 944 2891
L 944 2519
Q 1181 2784 1417 2907
Q 1653 3031 1894 3031
Q 2175 3031 2367 2936
Q 2559 2841 2678 2681
Q 2797 2522 2848 2308
Q 2900 2094 2900 1794
L 2900 78
z
" transform="scale(0.015625)"/>
       <path id="Calibri-74" d="M 1941 284
Q 1941 194 1928 141
Q 1916 88 1891 63
Q 1866 38 1816 16
Q 1766 -6 1702 -20
Q 1638 -34 1566 -43
Q 1494 -53 1422 -53
Q 1203 -53 1047 5
Q 891 63 791 180
Q 691 297 645 476
Q 600 656 600 900
L 600 2544
L 206 2544
Q 159 2544 131 2594
Q 103 2644 103 2756
Q 103 2816 111 2856
Q 119 2897 131 2923
Q 144 2950 164 2961
Q 184 2972 209 2972
L 600 2972
L 600 3641
Q 600 3663 611 3681
Q 622 3700 651 3714
Q 681 3728 731 3734
Q 781 3741 856 3741
Q 934 3741 984 3734
Q 1034 3728 1062 3714
Q 1091 3700 1103 3681
Q 1116 3663 1116 3641
L 1116 2972
L 1838 2972
Q 1863 2972 1881 2961
Q 1900 2950 1914 2923
Q 1928 2897 1934 2856
Q 1941 2816 1941 2756
Q 1941 2644 1912 2594
Q 1884 2544 1838 2544
L 1116 2544
L 1116 975
Q 1116 684 1202 536
Q 1288 388 1509 388
Q 1581 388 1637 402
Q 1694 416 1737 431
Q 1781 447 1812 461
Q 1844 475 1869 475
Q 1884 475 1898 467
Q 1913 459 1920 437
Q 1928 416 1934 378
Q 1941 341 1941 284
z
" transform="scale(0.015625)"/>
       <path id="Calibri-77" d="M 4413 2897
Q 4413 2875 4406 2844
Q 4400 2813 4384 2766
L 3556 94
Q 3547 59 3526 37
Q 3506 16 3470 3
Q 3434 -9 3371 -14
Q 3309 -19 3216 -19
Q 3119 -19 3053 -12
Q 2988 -6 2948 6
Q 2909 19 2890 41
Q 2872 63 2863 94
L 2272 2134
L 2266 2163
L 2259 2134
L 1713 94
Q 1703 59 1683 37
Q 1663 16 1622 3
Q 1581 -9 1517 -14
Q 1453 -19 1359 -19
Q 1263 -19 1202 -12
Q 1141 -6 1102 6
Q 1063 19 1044 41
Q 1025 63 1016 94
L 194 2766
Q 178 2813 172 2844
Q 166 2875 166 2897
Q 166 2925 178 2942
Q 191 2959 220 2970
Q 250 2981 300 2984
Q 350 2988 422 2988
Q 509 2988 562 2983
Q 616 2978 644 2967
Q 672 2956 684 2936
Q 697 2916 706 2888
L 1384 569
L 1391 541
L 1397 569
L 2019 2888
Q 2025 2916 2039 2936
Q 2053 2956 2081 2967
Q 2109 2978 2157 2983
Q 2206 2988 2284 2988
Q 2359 2988 2407 2983
Q 2456 2978 2484 2967
Q 2513 2956 2525 2937
Q 2538 2919 2544 2894
L 3216 569
L 3222 541
L 3225 569
L 3894 2888
Q 3900 2916 3914 2936
Q 3928 2956 3958 2967
Q 3988 2978 4039 2983
Q 4091 2988 4172 2988
Q 4247 2988 4292 2984
Q 4338 2981 4364 2968
Q 4391 2956 4402 2940
Q 4413 2925 4413 2897
z
" transform="scale(0.015625)"/>
       <path id="Calibri-6f" d="M 3094 1516
Q 3094 1172 3003 883
Q 2913 594 2733 384
Q 2553 175 2283 58
Q 2013 -59 1656 -59
Q 1309 -59 1051 44
Q 794 147 622 344
Q 450 541 365 822
Q 281 1103 281 1459
Q 281 1803 370 2092
Q 459 2381 639 2590
Q 819 2800 1087 2915
Q 1356 3031 1716 3031
Q 2063 3031 2320 2928
Q 2578 2825 2750 2628
Q 2922 2431 3008 2150
Q 3094 1869 3094 1516
z
M 2550 1481
Q 2550 1709 2508 1912
Q 2466 2116 2369 2269
Q 2272 2422 2106 2511
Q 1941 2600 1694 2600
Q 1466 2600 1302 2519
Q 1138 2438 1031 2289
Q 925 2141 873 1937
Q 822 1734 822 1494
Q 822 1263 864 1059
Q 906 856 1004 704
Q 1103 553 1268 464
Q 1434 375 1681 375
Q 1906 375 2072 456
Q 2238 538 2344 684
Q 2450 831 2500 1034
Q 2550 1238 2550 1481
z
" transform="scale(0.015625)"/>
      </defs>
      <use xlink:href="#Calibri-42"/>
      <use xlink:href="#Calibri-61" x="54.394531"/>
      <use xlink:href="#Calibri-79" x="102.294922"/>
      <use xlink:href="#Calibri-65" x="147.558594"/>
      <use xlink:href="#Calibri-73" x="197.314453"/>
      <use xlink:href="#Calibri-69" x="236.425781"/>
      <use xlink:href="#Calibri-61" x="259.375"/>
      <use xlink:href="#Calibri-6e" x="307.275391"/>
      <use xlink:href="#Calibri-20" x="359.814453"/>
      <use xlink:href="#Calibri-6e" x="382.421875"/>
      <use xlink:href="#Calibri-65" x="434.960938"/>
      <use xlink:href="#Calibri-74" x="484.716797"/>
      <use xlink:href="#Calibri-77" x="518.212891"/>
      <use xlink:href="#Calibri-6f" x="589.697266"/>
      <use xlink:href="#Calibri-72" x="642.431641"/>
      <use xlink:href="#Calibri-6b" x="677.294922"/>
     </g>
    </g>
   </g>
  </g>
 </g>
 <defs>
  <clipPath id="p1cc648ef20">
   <rect x="30.144939" y="7.2" width="219.685039" height="132.271785"/>
  </clipPath>
 </defs>
</svg>
