<?xml version="1.0" encoding="utf-8" standalone="no"?>
<!DOCTYPE svg PUBLIC "-//W3C//DTD SVG 1.1//EN"
  "http://www.w3.org/Graphics/SVG/1.1/DTD/svg11.dtd">
<svg xmlns:xlink="http://www.w3.org/1999/xlink" width="461.942827pt" height="149.251479pt" viewBox="0 0 461.942827 149.251479" xmlns="http://www.w3.org/2000/svg" version="1.1">
 <metadata>
  <rdf:RDF xmlns:dc="http://purl.org/dc/elements/1.1/" xmlns:cc="http://creativecommons.org/ns#" xmlns:rdf="http://www.w3.org/1999/02/22-rdf-syntax-ns#">
   <cc:Work>
    <dc:type rdf:resource="http://purl.org/dc/dcmitype/StillImage"/>
    <dc:date>2022-09-08T14:27:53.324781</dc:date>
    <dc:format>image/svg+xml</dc:format>
    <dc:creator>
     <cc:Agent>
      <dc:title>Matplotlib v3.5.3, https://matplotlib.org/</dc:title>
     </cc:Agent>
    </dc:creator>
   </cc:Work>
  </rdf:RDF>
 </metadata>
 <defs>
  <style type="text/css">*{stroke-linejoin: round; stroke-linecap: butt}</style>
 </defs>
 <g id="figure_1">
  <g id="patch_1">
   <path d="M 0 149.251479 
L 461.942827 149.251479 
L 461.942827 0 
L 0 0 
z
" style="fill: #ffffff"/>
  </g>
  <g id="axes_1">
   <g id="patch_2">
    <path d="M 28.317813 121.453961 
L 202.040771 121.453961 
L 202.040771 9.859453 
L 28.317813 9.859453 
z
" style="fill: #ffffff"/>
   </g>
   <g id="matplotlib.axis_1">
    <g id="xtick_1">
     <g id="line2d_1">
      <path d="M 36.214311 121.453961 
L 36.214311 9.859453 
" clip-path="url(#p85216a4ab7)" style="fill: none; stroke: #000000; stroke-opacity: 0.1; stroke-width: 0.5; stroke-linecap: square"/>
     </g>
     <g id="line2d_2">
      <defs>
       <path id="m39a9842f23" d="M 0 0 
L 0 -3 
" style="stroke: #000000; stroke-width: 0.5"/>
      </defs>
      <g>
       <use xlink:href="#m39a9842f23" x="36.214311" y="121.453961" style="stroke: #000000; stroke-width: 0.5"/>
      </g>
     </g>
     <g id="text_1">
      <!-- 0 -->
      <g transform="translate(33.987436 128.272867)scale(0.07 -0.07)">
       <defs>
        <path id="DejaVuSans-30" d="M 2034 4250 
Q 1547 4250 1301 3770 
Q 1056 3291 1056 2328 
Q 1056 1369 1301 889 
Q 1547 409 2034 409 
Q 2525 409 2770 889 
Q 3016 1369 3016 2328 
Q 3016 3291 2770 3770 
Q 2525 4250 2034 4250 
z
M 2034 4750 
Q 2819 4750 3233 4129 
Q 3647 3509 3647 2328 
Q 3647 1150 3233 529 
Q 2819 -91 2034 -91 
Q 1250 -91 836 529 
Q 422 1150 422 2328 
Q 422 3509 836 4129 
Q 1250 4750 2034 4750 
z
" transform="scale(0.015625)"/>
       </defs>
       <use xlink:href="#DejaVuSans-30"/>
      </g>
     </g>
    </g>
    <g id="xtick_2">
     <g id="line2d_3">
      <path d="M 67.800303 121.453961 
L 67.800303 9.859453 
" clip-path="url(#p85216a4ab7)" style="fill: none; stroke: #000000; stroke-opacity: 0.1; stroke-width: 0.5; stroke-linecap: square"/>
     </g>
     <g id="line2d_4">
      <g>
       <use xlink:href="#m39a9842f23" x="67.800303" y="121.453961" style="stroke: #000000; stroke-width: 0.5"/>
      </g>
     </g>
     <g id="text_2">
      <!-- 2 -->
      <g transform="translate(65.573428 128.272867)scale(0.07 -0.07)">
       <defs>
        <path id="DejaVuSans-32" d="M 1228 531 
L 3431 531 
L 3431 0 
L 469 0 
L 469 531 
Q 828 903 1448 1529 
Q 2069 2156 2228 2338 
Q 2531 2678 2651 2914 
Q 2772 3150 2772 3378 
Q 2772 3750 2511 3984 
Q 2250 4219 1831 4219 
Q 1534 4219 1204 4116 
Q 875 4013 500 3803 
L 500 4441 
Q 881 4594 1212 4672 
Q 1544 4750 1819 4750 
Q 2544 4750 2975 4387 
Q 3406 4025 3406 3419 
Q 3406 3131 3298 2873 
Q 3191 2616 2906 2266 
Q 2828 2175 2409 1742 
Q 1991 1309 1228 531 
z
" transform="scale(0.015625)"/>
       </defs>
       <use xlink:href="#DejaVuSans-32"/>
      </g>
     </g>
    </g>
    <g id="xtick_3">
     <g id="line2d_5">
      <path d="M 99.386296 121.453961 
L 99.386296 9.859453 
" clip-path="url(#p85216a4ab7)" style="fill: none; stroke: #000000; stroke-opacity: 0.1; stroke-width: 0.5; stroke-linecap: square"/>
     </g>
     <g id="line2d_6">
      <g>
       <use xlink:href="#m39a9842f23" x="99.386296" y="121.453961" style="stroke: #000000; stroke-width: 0.5"/>
      </g>
     </g>
     <g id="text_3">
      <!-- 4 -->
      <g transform="translate(97.159421 128.272867)scale(0.07 -0.07)">
       <defs>
        <path id="DejaVuSans-34" d="M 2419 4116 
L 825 1625 
L 2419 1625 
L 2419 4116 
z
M 2253 4666 
L 3047 4666 
L 3047 1625 
L 3713 1625 
L 3713 1100 
L 3047 1100 
L 3047 0 
L 2419 0 
L 2419 1100 
L 313 1100 
L 313 1709 
L 2253 4666 
z
" transform="scale(0.015625)"/>
       </defs>
       <use xlink:href="#DejaVuSans-34"/>
      </g>
     </g>
    </g>
    <g id="xtick_4">
     <g id="line2d_7">
      <path d="M 130.972288 121.453961 
L 130.972288 9.859453 
" clip-path="url(#p85216a4ab7)" style="fill: none; stroke: #000000; stroke-opacity: 0.1; stroke-width: 0.5; stroke-linecap: square"/>
     </g>
     <g id="line2d_8">
      <g>
       <use xlink:href="#m39a9842f23" x="130.972288" y="121.453961" style="stroke: #000000; stroke-width: 0.5"/>
      </g>
     </g>
     <g id="text_4">
      <!-- 6 -->
      <g transform="translate(128.745413 128.272867)scale(0.07 -0.07)">
       <defs>
        <path id="DejaVuSans-36" d="M 2113 2584 
Q 1688 2584 1439 2293 
Q 1191 2003 1191 1497 
Q 1191 994 1439 701 
Q 1688 409 2113 409 
Q 2538 409 2786 701 
Q 3034 994 3034 1497 
Q 3034 2003 2786 2293 
Q 2538 2584 2113 2584 
z
M 3366 4563 
L 3366 3988 
Q 3128 4100 2886 4159 
Q 2644 4219 2406 4219 
Q 1781 4219 1451 3797 
Q 1122 3375 1075 2522 
Q 1259 2794 1537 2939 
Q 1816 3084 2150 3084 
Q 2853 3084 3261 2657 
Q 3669 2231 3669 1497 
Q 3669 778 3244 343 
Q 2819 -91 2113 -91 
Q 1303 -91 875 529 
Q 447 1150 447 2328 
Q 447 3434 972 4092 
Q 1497 4750 2381 4750 
Q 2619 4750 2861 4703 
Q 3103 4656 3366 4563 
z
" transform="scale(0.015625)"/>
       </defs>
       <use xlink:href="#DejaVuSans-36"/>
      </g>
     </g>
    </g>
    <g id="xtick_5">
     <g id="line2d_9">
      <path d="M 162.55828 121.453961 
L 162.55828 9.859453 
" clip-path="url(#p85216a4ab7)" style="fill: none; stroke: #000000; stroke-opacity: 0.1; stroke-width: 0.5; stroke-linecap: square"/>
     </g>
     <g id="line2d_10">
      <g>
       <use xlink:href="#m39a9842f23" x="162.55828" y="121.453961" style="stroke: #000000; stroke-width: 0.5"/>
      </g>
     </g>
     <g id="text_5">
      <!-- 8 -->
      <g transform="translate(160.331405 128.272867)scale(0.07 -0.07)">
       <defs>
        <path id="DejaVuSans-38" d="M 2034 2216 
Q 1584 2216 1326 1975 
Q 1069 1734 1069 1313 
Q 1069 891 1326 650 
Q 1584 409 2034 409 
Q 2484 409 2743 651 
Q 3003 894 3003 1313 
Q 3003 1734 2745 1975 
Q 2488 2216 2034 2216 
z
M 1403 2484 
Q 997 2584 770 2862 
Q 544 3141 544 3541 
Q 544 4100 942 4425 
Q 1341 4750 2034 4750 
Q 2731 4750 3128 4425 
Q 3525 4100 3525 3541 
Q 3525 3141 3298 2862 
Q 3072 2584 2669 2484 
Q 3125 2378 3379 2068 
Q 3634 1759 3634 1313 
Q 3634 634 3220 271 
Q 2806 -91 2034 -91 
Q 1263 -91 848 271 
Q 434 634 434 1313 
Q 434 1759 690 2068 
Q 947 2378 1403 2484 
z
M 1172 3481 
Q 1172 3119 1398 2916 
Q 1625 2713 2034 2713 
Q 2441 2713 2670 2916 
Q 2900 3119 2900 3481 
Q 2900 3844 2670 4047 
Q 2441 4250 2034 4250 
Q 1625 4250 1398 4047 
Q 1172 3844 1172 3481 
z
" transform="scale(0.015625)"/>
       </defs>
       <use xlink:href="#DejaVuSans-38"/>
      </g>
     </g>
    </g>
    <g id="xtick_6">
     <g id="line2d_11">
      <path d="M 194.144273 121.453961 
L 194.144273 9.859453 
" clip-path="url(#p85216a4ab7)" style="fill: none; stroke: #000000; stroke-opacity: 0.1; stroke-width: 0.5; stroke-linecap: square"/>
     </g>
     <g id="line2d_12">
      <g>
       <use xlink:href="#m39a9842f23" x="194.144273" y="121.453961" style="stroke: #000000; stroke-width: 0.5"/>
      </g>
     </g>
     <g id="text_6">
      <!-- 10 -->
      <g transform="translate(189.690523 128.272867)scale(0.07 -0.07)">
       <defs>
        <path id="DejaVuSans-31" d="M 794 531 
L 1825 531 
L 1825 4091 
L 703 3866 
L 703 4441 
L 1819 4666 
L 2450 4666 
L 2450 531 
L 3481 531 
L 3481 0 
L 794 0 
L 794 531 
z
" transform="scale(0.015625)"/>
       </defs>
       <use xlink:href="#DejaVuSans-31"/>
       <use xlink:href="#DejaVuSans-30" x="63.623047"/>
      </g>
     </g>
    </g>
    <g id="text_7">
     <!-- time step $t$ -->
     <g transform="translate(90.789292 138.568648)scale(0.09 -0.09)">
      <defs>
       <path id="DejaVuSans-74" d="M 1172 4494 
L 1172 3500 
L 2356 3500 
L 2356 3053 
L 1172 3053 
L 1172 1153 
Q 1172 725 1289 603 
Q 1406 481 1766 481 
L 2356 481 
L 2356 0 
L 1766 0 
Q 1100 0 847 248 
Q 594 497 594 1153 
L 594 3053 
L 172 3053 
L 172 3500 
L 594 3500 
L 594 4494 
L 1172 4494 
z
" transform="scale(0.015625)"/>
       <path id="DejaVuSans-69" d="M 603 3500 
L 1178 3500 
L 1178 0 
L 603 0 
L 603 3500 
z
M 603 4863 
L 1178 4863 
L 1178 4134 
L 603 4134 
L 603 4863 
z
" transform="scale(0.015625)"/>
       <path id="DejaVuSans-6d" d="M 3328 2828 
Q 3544 3216 3844 3400 
Q 4144 3584 4550 3584 
Q 5097 3584 5394 3201 
Q 5691 2819 5691 2113 
L 5691 0 
L 5113 0 
L 5113 2094 
Q 5113 2597 4934 2840 
Q 4756 3084 4391 3084 
Q 3944 3084 3684 2787 
Q 3425 2491 3425 1978 
L 3425 0 
L 2847 0 
L 2847 2094 
Q 2847 2600 2669 2842 
Q 2491 3084 2119 3084 
Q 1678 3084 1418 2786 
Q 1159 2488 1159 1978 
L 1159 0 
L 581 0 
L 581 3500 
L 1159 3500 
L 1159 2956 
Q 1356 3278 1631 3431 
Q 1906 3584 2284 3584 
Q 2666 3584 2933 3390 
Q 3200 3197 3328 2828 
z
" transform="scale(0.015625)"/>
       <path id="DejaVuSans-65" d="M 3597 1894 
L 3597 1613 
L 953 1613 
Q 991 1019 1311 708 
Q 1631 397 2203 397 
Q 2534 397 2845 478 
Q 3156 559 3463 722 
L 3463 178 
Q 3153 47 2828 -22 
Q 2503 -91 2169 -91 
Q 1331 -91 842 396 
Q 353 884 353 1716 
Q 353 2575 817 3079 
Q 1281 3584 2069 3584 
Q 2775 3584 3186 3129 
Q 3597 2675 3597 1894 
z
M 3022 2063 
Q 3016 2534 2758 2815 
Q 2500 3097 2075 3097 
Q 1594 3097 1305 2825 
Q 1016 2553 972 2059 
L 3022 2063 
z
" transform="scale(0.015625)"/>
       <path id="DejaVuSans-20" transform="scale(0.015625)"/>
       <path id="DejaVuSans-73" d="M 2834 3397 
L 2834 2853 
Q 2591 2978 2328 3040 
Q 2066 3103 1784 3103 
Q 1356 3103 1142 2972 
Q 928 2841 928 2578 
Q 928 2378 1081 2264 
Q 1234 2150 1697 2047 
L 1894 2003 
Q 2506 1872 2764 1633 
Q 3022 1394 3022 966 
Q 3022 478 2636 193 
Q 2250 -91 1575 -91 
Q 1294 -91 989 -36 
Q 684 19 347 128 
L 347 722 
Q 666 556 975 473 
Q 1284 391 1588 391 
Q 1994 391 2212 530 
Q 2431 669 2431 922 
Q 2431 1156 2273 1281 
Q 2116 1406 1581 1522 
L 1381 1569 
Q 847 1681 609 1914 
Q 372 2147 372 2553 
Q 372 3047 722 3315 
Q 1072 3584 1716 3584 
Q 2034 3584 2315 3537 
Q 2597 3491 2834 3397 
z
" transform="scale(0.015625)"/>
       <path id="DejaVuSans-70" d="M 1159 525 
L 1159 -1331 
L 581 -1331 
L 581 3500 
L 1159 3500 
L 1159 2969 
Q 1341 3281 1617 3432 
Q 1894 3584 2278 3584 
Q 2916 3584 3314 3078 
Q 3713 2572 3713 1747 
Q 3713 922 3314 415 
Q 2916 -91 2278 -91 
Q 1894 -91 1617 61 
Q 1341 213 1159 525 
z
M 3116 1747 
Q 3116 2381 2855 2742 
Q 2594 3103 2138 3103 
Q 1681 3103 1420 2742 
Q 1159 2381 1159 1747 
Q 1159 1113 1420 752 
Q 1681 391 2138 391 
Q 2594 391 2855 752 
Q 3116 1113 3116 1747 
z
" transform="scale(0.015625)"/>
       <path id="Cmmi10-74" d="M 397 519 
Q 397 613 416 697 
L 878 2534 
L 206 2534 
Q 141 2534 141 2619 
Q 166 2759 225 2759 
L 934 2759 
L 1191 3803 
Q 1216 3888 1291 3947 
Q 1366 4006 1459 4006 
Q 1541 4006 1595 3957 
Q 1650 3909 1650 3828 
Q 1650 3809 1648 3798 
Q 1647 3788 1644 3775 
L 1388 2759 
L 2047 2759 
Q 2113 2759 2113 2675 
Q 2109 2659 2100 2621 
Q 2091 2584 2075 2559 
Q 2059 2534 2028 2534 
L 1331 2534 
L 872 684 
Q 825 503 825 372 
Q 825 97 1013 97 
Q 1294 97 1511 361 
Q 1728 625 1844 941 
Q 1869 978 1894 978 
L 1972 978 
Q 1997 978 2012 961 
Q 2028 944 2028 922 
Q 2028 909 2022 903 
Q 1881 516 1612 222 
Q 1344 -72 997 -72 
Q 744 -72 570 93 
Q 397 259 397 519 
z
" transform="scale(0.015625)"/>
      </defs>
      <use xlink:href="#DejaVuSans-74" transform="translate(0 0.015625)"/>
      <use xlink:href="#DejaVuSans-69" transform="translate(39.208984 0.015625)"/>
      <use xlink:href="#DejaVuSans-6d" transform="translate(66.992188 0.015625)"/>
      <use xlink:href="#DejaVuSans-65" transform="translate(164.404297 0.015625)"/>
      <use xlink:href="#DejaVuSans-20" transform="translate(225.927734 0.015625)"/>
      <use xlink:href="#DejaVuSans-73" transform="translate(257.714844 0.015625)"/>
      <use xlink:href="#DejaVuSans-74" transform="translate(309.814453 0.015625)"/>
      <use xlink:href="#DejaVuSans-65" transform="translate(349.023438 0.015625)"/>
      <use xlink:href="#DejaVuSans-70" transform="translate(410.546875 0.015625)"/>
      <use xlink:href="#DejaVuSans-20" transform="translate(474.023438 0.015625)"/>
      <use xlink:href="#Cmmi10-74" transform="translate(505.810547 0.015625)"/>
     </g>
    </g>
   </g>
   <g id="matplotlib.axis_2">
    <g id="ytick_1">
     <g id="line2d_13">
      <path d="M 28.317813 117.51376 
L 202.040771 117.51376 
" clip-path="url(#p85216a4ab7)" style="fill: none; stroke: #000000; stroke-opacity: 0.1; stroke-width: 0.5; stroke-linecap: square"/>
     </g>
     <g id="line2d_14">
      <defs>
       <path id="m392d95a324" d="M 0 0 
L 3 0 
" style="stroke: #000000; stroke-width: 0.5"/>
      </defs>
      <g>
       <use xlink:href="#m392d95a324" x="28.317813" y="117.51376" style="stroke: #000000; stroke-width: 0.5"/>
      </g>
     </g>
     <g id="text_8">
      <!-- 0 -->
      <g transform="translate(22.364063 120.173213)scale(0.07 -0.07)">
       <use xlink:href="#DejaVuSans-30"/>
      </g>
     </g>
    </g>
    <g id="ytick_2">
     <g id="line2d_15">
      <path d="M 28.317813 95.982899 
L 202.040771 95.982899 
" clip-path="url(#p85216a4ab7)" style="fill: none; stroke: #000000; stroke-opacity: 0.1; stroke-width: 0.5; stroke-linecap: square"/>
     </g>
     <g id="line2d_16">
      <g>
       <use xlink:href="#m392d95a324" x="28.317813" y="95.982899" style="stroke: #000000; stroke-width: 0.5"/>
      </g>
     </g>
     <g id="text_9">
      <!-- 10 -->
      <g transform="translate(17.910313 98.642352)scale(0.07 -0.07)">
       <use xlink:href="#DejaVuSans-31"/>
       <use xlink:href="#DejaVuSans-30" x="63.623047"/>
      </g>
     </g>
    </g>
    <g id="ytick_3">
     <g id="line2d_17">
      <path d="M 28.317813 74.452037 
L 202.040771 74.452037 
" clip-path="url(#p85216a4ab7)" style="fill: none; stroke: #000000; stroke-opacity: 0.1; stroke-width: 0.5; stroke-linecap: square"/>
     </g>
     <g id="line2d_18">
      <g>
       <use xlink:href="#m392d95a324" x="28.317813" y="74.452037" style="stroke: #000000; stroke-width: 0.5"/>
      </g>
     </g>
     <g id="text_10">
      <!-- 20 -->
      <g transform="translate(17.910313 77.11149)scale(0.07 -0.07)">
       <use xlink:href="#DejaVuSans-32"/>
       <use xlink:href="#DejaVuSans-30" x="63.623047"/>
      </g>
     </g>
    </g>
    <g id="ytick_4">
     <g id="line2d_19">
      <path d="M 28.317813 52.921176 
L 202.040771 52.921176 
" clip-path="url(#p85216a4ab7)" style="fill: none; stroke: #000000; stroke-opacity: 0.1; stroke-width: 0.5; stroke-linecap: square"/>
     </g>
     <g id="line2d_20">
      <g>
       <use xlink:href="#m392d95a324" x="28.317813" y="52.921176" style="stroke: #000000; stroke-width: 0.5"/>
      </g>
     </g>
     <g id="text_11">
      <!-- 30 -->
      <g transform="translate(17.910313 55.580629)scale(0.07 -0.07)">
       <defs>
        <path id="DejaVuSans-33" d="M 2597 2516 
Q 3050 2419 3304 2112 
Q 3559 1806 3559 1356 
Q 3559 666 3084 287 
Q 2609 -91 1734 -91 
Q 1441 -91 1130 -33 
Q 819 25 488 141 
L 488 750 
Q 750 597 1062 519 
Q 1375 441 1716 441 
Q 2309 441 2620 675 
Q 2931 909 2931 1356 
Q 2931 1769 2642 2001 
Q 2353 2234 1838 2234 
L 1294 2234 
L 1294 2753 
L 1863 2753 
Q 2328 2753 2575 2939 
Q 2822 3125 2822 3475 
Q 2822 3834 2567 4026 
Q 2313 4219 1838 4219 
Q 1578 4219 1281 4162 
Q 984 4106 628 3988 
L 628 4550 
Q 988 4650 1302 4700 
Q 1616 4750 1894 4750 
Q 2613 4750 3031 4423 
Q 3450 4097 3450 3541 
Q 3450 3153 3228 2886 
Q 3006 2619 2597 2516 
z
" transform="scale(0.015625)"/>
       </defs>
       <use xlink:href="#DejaVuSans-33"/>
       <use xlink:href="#DejaVuSans-30" x="63.623047"/>
      </g>
     </g>
    </g>
    <g id="ytick_5">
     <g id="line2d_21">
      <path d="M 28.317813 31.390314 
L 202.040771 31.390314 
" clip-path="url(#p85216a4ab7)" style="fill: none; stroke: #000000; stroke-opacity: 0.1; stroke-width: 0.5; stroke-linecap: square"/>
     </g>
     <g id="line2d_22">
      <g>
       <use xlink:href="#m392d95a324" x="28.317813" y="31.390314" style="stroke: #000000; stroke-width: 0.5"/>
      </g>
     </g>
     <g id="text_12">
      <!-- 40 -->
      <g transform="translate(17.910313 34.049768)scale(0.07 -0.07)">
       <use xlink:href="#DejaVuSans-34"/>
       <use xlink:href="#DejaVuSans-30" x="63.623047"/>
      </g>
     </g>
    </g>
    <g id="ytick_6">
     <g id="line2d_23">
      <path d="M 28.317813 9.859453 
L 202.040771 9.859453 
" clip-path="url(#p85216a4ab7)" style="fill: none; stroke: #000000; stroke-opacity: 0.1; stroke-width: 0.5; stroke-linecap: square"/>
     </g>
     <g id="line2d_24">
      <g>
       <use xlink:href="#m392d95a324" x="28.317813" y="9.859453" style="stroke: #000000; stroke-width: 0.5"/>
      </g>
     </g>
     <g id="text_13">
      <!-- 50 -->
      <g transform="translate(17.910313 12.518906)scale(0.07 -0.07)">
       <defs>
        <path id="DejaVuSans-35" d="M 691 4666 
L 3169 4666 
L 3169 4134 
L 1269 4134 
L 1269 2991 
Q 1406 3038 1543 3061 
Q 1681 3084 1819 3084 
Q 2600 3084 3056 2656 
Q 3513 2228 3513 1497 
Q 3513 744 3044 326 
Q 2575 -91 1722 -91 
Q 1428 -91 1123 -41 
Q 819 9 494 109 
L 494 744 
Q 775 591 1075 516 
Q 1375 441 1709 441 
Q 2250 441 2565 725 
Q 2881 1009 2881 1497 
Q 2881 1984 2565 2268 
Q 2250 2553 1709 2553 
Q 1456 2553 1204 2497 
Q 953 2441 691 2322 
L 691 4666 
z
" transform="scale(0.015625)"/>
       </defs>
       <use xlink:href="#DejaVuSans-35"/>
       <use xlink:href="#DejaVuSans-30" x="63.623047"/>
      </g>
     </g>
    </g>
    <g id="text_14">
     <!-- Risk [%] -->
     <g transform="translate(14.038594 84.200926)rotate(-90)scale(0.09 -0.09)">
      <defs>
       <path id="DejaVuSans-52" d="M 2841 2188 
Q 3044 2119 3236 1894 
Q 3428 1669 3622 1275 
L 4263 0 
L 3584 0 
L 2988 1197 
Q 2756 1666 2539 1819 
Q 2322 1972 1947 1972 
L 1259 1972 
L 1259 0 
L 628 0 
L 628 4666 
L 2053 4666 
Q 2853 4666 3247 4331 
Q 3641 3997 3641 3322 
Q 3641 2881 3436 2590 
Q 3231 2300 2841 2188 
z
M 1259 4147 
L 1259 2491 
L 2053 2491 
Q 2509 2491 2742 2702 
Q 2975 2913 2975 3322 
Q 2975 3731 2742 3939 
Q 2509 4147 2053 4147 
L 1259 4147 
z
" transform="scale(0.015625)"/>
       <path id="DejaVuSans-6b" d="M 581 4863 
L 1159 4863 
L 1159 1991 
L 2875 3500 
L 3609 3500 
L 1753 1863 
L 3688 0 
L 2938 0 
L 1159 1709 
L 1159 0 
L 581 0 
L 581 4863 
z
" transform="scale(0.015625)"/>
       <path id="DejaVuSans-5b" d="M 550 4863 
L 1875 4863 
L 1875 4416 
L 1125 4416 
L 1125 -397 
L 1875 -397 
L 1875 -844 
L 550 -844 
L 550 4863 
z
" transform="scale(0.015625)"/>
       <path id="DejaVuSans-25" d="M 4653 2053 
Q 4381 2053 4226 1822 
Q 4072 1591 4072 1178 
Q 4072 772 4226 539 
Q 4381 306 4653 306 
Q 4919 306 5073 539 
Q 5228 772 5228 1178 
Q 5228 1588 5073 1820 
Q 4919 2053 4653 2053 
z
M 4653 2450 
Q 5147 2450 5437 2106 
Q 5728 1763 5728 1178 
Q 5728 594 5436 251 
Q 5144 -91 4653 -91 
Q 4153 -91 3862 251 
Q 3572 594 3572 1178 
Q 3572 1766 3864 2108 
Q 4156 2450 4653 2450 
z
M 1428 4353 
Q 1159 4353 1004 4120 
Q 850 3888 850 3481 
Q 850 3069 1003 2837 
Q 1156 2606 1428 2606 
Q 1700 2606 1854 2837 
Q 2009 3069 2009 3481 
Q 2009 3884 1853 4118 
Q 1697 4353 1428 4353 
z
M 4250 4750 
L 4750 4750 
L 1831 -91 
L 1331 -91 
L 4250 4750 
z
M 1428 4750 
Q 1922 4750 2215 4408 
Q 2509 4066 2509 3481 
Q 2509 2891 2217 2550 
Q 1925 2209 1428 2209 
Q 931 2209 642 2551 
Q 353 2894 353 3481 
Q 353 4063 643 4406 
Q 934 4750 1428 4750 
z
" transform="scale(0.015625)"/>
       <path id="DejaVuSans-5d" d="M 1947 4863 
L 1947 -844 
L 622 -844 
L 622 -397 
L 1369 -397 
L 1369 4416 
L 622 4416 
L 622 4863 
L 1947 4863 
z
" transform="scale(0.015625)"/>
      </defs>
      <use xlink:href="#DejaVuSans-52"/>
      <use xlink:href="#DejaVuSans-69" x="69.482422"/>
      <use xlink:href="#DejaVuSans-73" x="97.265625"/>
      <use xlink:href="#DejaVuSans-6b" x="149.365234"/>
      <use xlink:href="#DejaVuSans-20" x="207.275391"/>
      <use xlink:href="#DejaVuSans-5b" x="239.0625"/>
      <use xlink:href="#DejaVuSans-25" x="278.076172"/>
      <use xlink:href="#DejaVuSans-5d" x="373.095703"/>
     </g>
    </g>
   </g>
   <g id="line2d_25">
    <path d="M 36.214311 117.51376 
L 52.007307 68.838602 
L 67.800303 46.016365 
L 83.593299 38.709739 
L 99.386296 40.269228 
L 115.179292 46.49523 
L 130.972288 54.800472 
L 146.765284 63.646481 
L 162.55828 72.166934 
L 178.351277 79.917934 
L 194.144273 86.714053 
" clip-path="url(#p85216a4ab7)" style="fill: none; stroke: #005ea8; stroke-linecap: square"/>
    <defs>
     <path id="md426d37820" d="M 0 1.5 
C 0.397805 1.5 0.77937 1.341951 1.06066 1.06066 
C 1.341951 0.77937 1.5 0.397805 1.5 0 
C 1.5 -0.397805 1.341951 -0.77937 1.06066 -1.06066 
C 0.77937 -1.341951 0.397805 -1.5 0 -1.5 
C -0.397805 -1.5 -0.77937 -1.341951 -1.06066 -1.06066 
C -1.341951 -0.77937 -1.5 -0.397805 -1.5 0 
C -1.5 0.397805 -1.341951 0.77937 -1.06066 1.06066 
C -0.77937 1.341951 -0.397805 1.5 0 1.5 
z
" style="stroke: #005ea8"/>
    </defs>
    <g clip-path="url(#p85216a4ab7)">
     <use xlink:href="#md426d37820" x="36.214311" y="117.51376" style="fill: #005ea8; stroke: #005ea8"/>
     <use xlink:href="#md426d37820" x="52.007307" y="68.838602" style="fill: #005ea8; stroke: #005ea8"/>
     <use xlink:href="#md426d37820" x="67.800303" y="46.016365" style="fill: #005ea8; stroke: #005ea8"/>
     <use xlink:href="#md426d37820" x="83.593299" y="38.709739" style="fill: #005ea8; stroke: #005ea8"/>
     <use xlink:href="#md426d37820" x="99.386296" y="40.269228" style="fill: #005ea8; stroke: #005ea8"/>
     <use xlink:href="#md426d37820" x="115.179292" y="46.49523" style="fill: #005ea8; stroke: #005ea8"/>
     <use xlink:href="#md426d37820" x="130.972288" y="54.800472" style="fill: #005ea8; stroke: #005ea8"/>
     <use xlink:href="#md426d37820" x="146.765284" y="63.646481" style="fill: #005ea8; stroke: #005ea8"/>
     <use xlink:href="#md426d37820" x="162.55828" y="72.166934" style="fill: #005ea8; stroke: #005ea8"/>
     <use xlink:href="#md426d37820" x="178.351277" y="79.917934" style="fill: #005ea8; stroke: #005ea8"/>
     <use xlink:href="#md426d37820" x="194.144273" y="86.714053" style="fill: #005ea8; stroke: #005ea8"/>
    </g>
   </g>
   <g id="line2d_26">
    <path d="M 36.214311 117.51376 
L 52.007307 112.236363 
L 67.800303 110.65445 
L 83.593299 110.810471 
L 99.386296 111.676346 
L 115.179292 112.73637 
L 130.972288 113.751193 
L 146.765284 114.625882 
L 162.55828 115.337381 
L 178.351277 115.895512 
L 194.144273 116.322706 
" clip-path="url(#p85216a4ab7)" style="fill: none; stroke: #f17900; stroke-linecap: square"/>
    <defs>
     <path id="m3754db11c6" d="M 0 1.5 
C 0.397805 1.5 0.77937 1.341951 1.06066 1.06066 
C 1.341951 0.77937 1.5 0.397805 1.5 0 
C 1.5 -0.397805 1.341951 -0.77937 1.06066 -1.06066 
C 0.77937 -1.341951 0.397805 -1.5 0 -1.5 
C -0.397805 -1.5 -0.77937 -1.341951 -1.06066 -1.06066 
C -1.341951 -0.77937 -1.5 -0.397805 -1.5 0 
C -1.5 0.397805 -1.341951 0.77937 -1.06066 1.06066 
C -0.77937 1.341951 -0.397805 1.5 0 1.5 
z
" style="stroke: #f17900"/>
    </defs>
    <g clip-path="url(#p85216a4ab7)">
     <use xlink:href="#m3754db11c6" x="36.214311" y="117.51376" style="fill: #f17900; stroke: #f17900"/>
     <use xlink:href="#m3754db11c6" x="52.007307" y="112.236363" style="fill: #f17900; stroke: #f17900"/>
     <use xlink:href="#m3754db11c6" x="67.800303" y="110.65445" style="fill: #f17900; stroke: #f17900"/>
     <use xlink:href="#m3754db11c6" x="83.593299" y="110.810471" style="fill: #f17900; stroke: #f17900"/>
     <use xlink:href="#m3754db11c6" x="99.386296" y="111.676346" style="fill: #f17900; stroke: #f17900"/>
     <use xlink:href="#m3754db11c6" x="115.179292" y="112.73637" style="fill: #f17900; stroke: #f17900"/>
     <use xlink:href="#m3754db11c6" x="130.972288" y="113.751193" style="fill: #f17900; stroke: #f17900"/>
     <use xlink:href="#m3754db11c6" x="146.765284" y="114.625882" style="fill: #f17900; stroke: #f17900"/>
     <use xlink:href="#m3754db11c6" x="162.55828" y="115.337381" style="fill: #f17900; stroke: #f17900"/>
     <use xlink:href="#m3754db11c6" x="178.351277" y="115.895512" style="fill: #f17900; stroke: #f17900"/>
     <use xlink:href="#m3754db11c6" x="194.144273" y="116.322706" style="fill: #f17900; stroke: #f17900"/>
    </g>
   </g>
   <g id="line2d_27">
    <path d="M 36.214311 117.51376 
L 52.007307 115.824314 
L 67.800303 104.164596 
L 83.593299 90.469498 
L 99.386296 78.539997 
L 115.179292 69.846561 
L 130.972288 64.616724 
L 146.765284 62.475913 
L 162.55828 62.812557 
L 178.351277 64.975644 
L 194.144273 68.372591 
" clip-path="url(#p85216a4ab7)" style="fill: none; stroke: #ae0060; stroke-linecap: square"/>
    <defs>
     <path id="m18f1370583" d="M 0 1.5 
C 0.397805 1.5 0.77937 1.341951 1.06066 1.06066 
C 1.341951 0.77937 1.5 0.397805 1.5 0 
C 1.5 -0.397805 1.341951 -0.77937 1.06066 -1.06066 
C 0.77937 -1.341951 0.397805 -1.5 0 -1.5 
C -0.397805 -1.5 -0.77937 -1.341951 -1.06066 -1.06066 
C -1.341951 -0.77937 -1.5 -0.397805 -1.5 0 
C -1.5 0.397805 -1.341951 0.77937 -1.06066 1.06066 
C -0.77937 1.341951 -0.397805 1.5 0 1.5 
z
" style="stroke: #ae0060"/>
    </defs>
    <g clip-path="url(#p85216a4ab7)">
     <use xlink:href="#m18f1370583" x="36.214311" y="117.51376" style="fill: #ae0060; stroke: #ae0060"/>
     <use xlink:href="#m18f1370583" x="52.007307" y="115.824314" style="fill: #ae0060; stroke: #ae0060"/>
     <use xlink:href="#m18f1370583" x="67.800303" y="104.164596" style="fill: #ae0060; stroke: #ae0060"/>
     <use xlink:href="#m18f1370583" x="83.593299" y="90.469498" style="fill: #ae0060; stroke: #ae0060"/>
     <use xlink:href="#m18f1370583" x="99.386296" y="78.539997" style="fill: #ae0060; stroke: #ae0060"/>
     <use xlink:href="#m18f1370583" x="115.179292" y="69.846561" style="fill: #ae0060; stroke: #ae0060"/>
     <use xlink:href="#m18f1370583" x="130.972288" y="64.616724" style="fill: #ae0060; stroke: #ae0060"/>
     <use xlink:href="#m18f1370583" x="146.765284" y="62.475913" style="fill: #ae0060; stroke: #ae0060"/>
     <use xlink:href="#m18f1370583" x="162.55828" y="62.812557" style="fill: #ae0060; stroke: #ae0060"/>
     <use xlink:href="#m18f1370583" x="178.351277" y="64.975644" style="fill: #ae0060; stroke: #ae0060"/>
     <use xlink:href="#m18f1370583" x="194.144273" y="68.372591" style="fill: #ae0060; stroke: #ae0060"/>
    </g>
   </g>
   <g id="line2d_28">
    <path d="M 36.214311 117.51376 
L 52.007307 114.67258 
L 67.800303 113.463444 
L 83.593299 113.183112 
L 99.386296 113.397748 
L 115.179292 113.846141 
L 130.972288 114.376321 
L 146.765284 114.904338 
L 162.55828 115.387722 
L 178.351277 115.808579 
L 194.144273 116.162971 
" clip-path="url(#p85216a4ab7)" style="fill: none; stroke: #00afa5; stroke-linecap: square"/>
    <defs>
     <path id="m4948f43d31" d="M 0 1.5 
C 0.397805 1.5 0.77937 1.341951 1.06066 1.06066 
C 1.341951 0.77937 1.5 0.397805 1.5 0 
C 1.5 -0.397805 1.341951 -0.77937 1.06066 -1.06066 
C 0.77937 -1.341951 0.397805 -1.5 0 -1.5 
C -0.397805 -1.5 -0.77937 -1.341951 -1.06066 -1.06066 
C -1.341951 -0.77937 -1.5 -0.397805 -1.5 0 
C -1.5 0.397805 -1.341951 0.77937 -1.06066 1.06066 
C -0.77937 1.341951 -0.397805 1.5 0 1.5 
z
" style="stroke: #00afa5"/>
    </defs>
    <g clip-path="url(#p85216a4ab7)">
     <use xlink:href="#m4948f43d31" x="36.214311" y="117.51376" style="fill: #00afa5; stroke: #00afa5"/>
     <use xlink:href="#m4948f43d31" x="52.007307" y="114.67258" style="fill: #00afa5; stroke: #00afa5"/>
     <use xlink:href="#m4948f43d31" x="67.800303" y="113.463444" style="fill: #00afa5; stroke: #00afa5"/>
     <use xlink:href="#m4948f43d31" x="83.593299" y="113.183112" style="fill: #00afa5; stroke: #00afa5"/>
     <use xlink:href="#m4948f43d31" x="99.386296" y="113.397748" style="fill: #00afa5; stroke: #00afa5"/>
     <use xlink:href="#m4948f43d31" x="115.179292" y="113.846141" style="fill: #00afa5; stroke: #00afa5"/>
     <use xlink:href="#m4948f43d31" x="130.972288" y="114.376321" style="fill: #00afa5; stroke: #00afa5"/>
     <use xlink:href="#m4948f43d31" x="146.765284" y="114.904338" style="fill: #00afa5; stroke: #00afa5"/>
     <use xlink:href="#m4948f43d31" x="162.55828" y="115.387722" style="fill: #00afa5; stroke: #00afa5"/>
     <use xlink:href="#m4948f43d31" x="178.351277" y="115.808579" style="fill: #00afa5; stroke: #00afa5"/>
     <use xlink:href="#m4948f43d31" x="194.144273" y="116.162971" style="fill: #00afa5; stroke: #00afa5"/>
    </g>
   </g>
   <g id="patch_3">
    <path d="M 28.317813 121.453961 
L 28.317813 9.859453 
" style="fill: none; stroke: #000000; stroke-width: 0.5; stroke-linejoin: miter; stroke-linecap: square"/>
   </g>
   <g id="patch_4">
    <path d="M 202.040771 121.453961 
L 202.040771 9.859453 
" style="fill: none; stroke: #000000; stroke-width: 0.5; stroke-linejoin: miter; stroke-linecap: square"/>
   </g>
   <g id="patch_5">
    <path d="M 28.317813 121.453961 
L 202.040771 121.453961 
" style="fill: none; stroke: #000000; stroke-width: 0.5; stroke-linejoin: miter; stroke-linecap: square"/>
   </g>
   <g id="patch_6">
    <path d="M 28.317813 9.859453 
L 202.040771 9.859453 
" style="fill: none; stroke: #000000; stroke-width: 0.5; stroke-linejoin: miter; stroke-linecap: square"/>
   </g>
   <g id="legend_1">
    <g id="patch_7">
     <path d="M 139.600771 46.535078 
L 197.140771 46.535078 
Q 198.540771 46.535078 198.540771 45.135078 
L 198.540771 14.759453 
Q 198.540771 13.359453 197.140771 13.359453 
L 139.600771 13.359453 
Q 138.200771 13.359453 138.200771 14.759453 
L 138.200771 45.135078 
Q 138.200771 46.535078 139.600771 46.535078 
z
" style="fill: #ffffff; opacity: 0.8; stroke: #cccccc; stroke-linejoin: miter"/>
    </g>
    <g id="line2d_29">
     <path d="M 139.600771 17.628359 
L 146.600771 17.628359 
L 153.600771 17.628359 
" style="fill: none; stroke: #005ea8; stroke-linecap: square"/>
     <defs>
      <path id="ma2f510b8f8" d="M 0 1.125 
C 0.298353 1.125 0.584527 1.006463 0.795495 0.795495 
C 1.006463 0.584527 1.125 0.298353 1.125 0 
C 1.125 -0.298353 1.006463 -0.584527 0.795495 -0.795495 
C 0.584527 -1.006463 0.298353 -1.125 0 -1.125 
C -0.298353 -1.125 -0.584527 -1.006463 -0.795495 -0.795495 
C -1.006463 -0.584527 -1.125 -0.298353 -1.125 0 
C -1.125 0.298353 -1.006463 0.584527 -0.795495 0.795495 
C -0.584527 1.006463 -0.298353 1.125 0 1.125 
z
" style="stroke: #005ea8"/>
     </defs>
     <g>
      <use xlink:href="#ma2f510b8f8" x="146.600771" y="17.628359" style="fill: #005ea8; stroke: #005ea8"/>
     </g>
    </g>
    <g id="text_15">
     <!-- $\xi_5=[0\ 1\ 0\ 0]$ -->
     <g transform="translate(159.200771 20.078359)scale(0.07 -0.07)">
      <defs>
       <path id="Cmmi10-bb" d="M 1044 -997 
Q 1053 -922 1131 -922 
Q 1138 -922 1252 -984 
Q 1366 -1047 1503 -1097 
Q 1641 -1147 1778 -1147 
Q 1897 -1147 1978 -1045 
Q 2059 -944 2059 -825 
Q 2059 -656 1881 -588 
L 794 -166 
Q 513 -56 330 161 
Q 147 378 147 653 
Q 147 900 278 1167 
Q 409 1434 615 1651 
Q 822 1869 1056 2003 
Q 869 2116 764 2292 
Q 659 2469 659 2681 
Q 659 2906 751 3100 
Q 844 3294 1003 3453 
Q 1163 3613 1359 3723 
Q 1556 3834 1759 3891 
Q 1728 4022 1728 4128 
Q 1728 4475 1863 4475 
Q 1897 4475 1922 4450 
Q 1947 4425 1947 4391 
Q 1947 4359 1930 4253 
Q 1913 4147 1913 4122 
Q 1913 4013 1941 3928 
Q 2106 3963 2259 3963 
Q 2847 3963 2847 3781 
Q 2847 3566 2194 3566 
Q 1994 3566 1869 3700 
Q 1684 3606 1528 3434 
Q 1372 3263 1284 3052 
Q 1197 2841 1197 2625 
Q 1197 2325 1369 2144 
Q 1597 2222 1825 2222 
Q 2413 2222 2413 2041 
Q 2413 1825 1759 1825 
Q 1494 1825 1259 1906 
Q 975 1753 737 1440 
Q 500 1128 500 838 
Q 500 650 636 508 
Q 772 366 972 281 
L 2106 -159 
Q 2253 -216 2345 -339 
Q 2438 -463 2438 -622 
Q 2438 -884 2236 -1098 
Q 2034 -1313 1772 -1313 
Q 1691 -1313 1506 -1269 
Q 1322 -1225 1183 -1153 
Q 1044 -1081 1044 -997 
z
M 1563 2022 
Q 1647 1991 1772 1991 
Q 2081 1991 2216 2028 
Q 2094 2053 1819 2053 
Q 1709 2053 1563 2022 
z
M 2053 3769 
Q 2109 3731 2209 3731 
Q 2516 3731 2650 3769 
L 2053 3769 
z
" transform="scale(0.015625)"/>
       <path id="Cmr10-35" d="M 556 728 
Q 622 541 758 387 
Q 894 234 1080 148 
Q 1266 63 1466 63 
Q 1928 63 2103 422 
Q 2278 781 2278 1294 
Q 2278 1516 2270 1667 
Q 2263 1819 2228 1959 
Q 2169 2184 2020 2353 
Q 1872 2522 1656 2522 
Q 1441 2522 1286 2456 
Q 1131 2391 1034 2303 
Q 938 2216 863 2119 
Q 788 2022 769 2016 
L 697 2016 
Q 681 2016 657 2036 
Q 634 2056 634 2075 
L 634 4213 
Q 634 4228 654 4245 
Q 675 4263 697 4263 
L 716 4263 
Q 1147 4056 1631 4056 
Q 2106 4056 2547 4263 
L 2566 4263 
Q 2588 4263 2606 4247 
Q 2625 4231 2625 4213 
L 2625 4153 
Q 2625 4122 2613 4122 
Q 2394 3831 2064 3668 
Q 1734 3506 1381 3506 
Q 1125 3506 856 3578 
L 856 2369 
Q 1069 2541 1236 2614 
Q 1403 2688 1663 2688 
Q 2016 2688 2295 2484 
Q 2575 2281 2725 1954 
Q 2875 1628 2875 1288 
Q 2875 903 2686 575 
Q 2497 247 2172 53 
Q 1847 -141 1466 -141 
Q 1150 -141 886 21 
Q 622 184 470 459 
Q 319 734 319 1044 
Q 319 1188 412 1278 
Q 506 1369 647 1369 
Q 788 1369 883 1276 
Q 978 1184 978 1044 
Q 978 906 883 811 
Q 788 716 647 716 
Q 625 716 597 720 
Q 569 725 556 728 
z
" transform="scale(0.015625)"/>
       <path id="Cmr10-3d" d="M 481 850 
Q 428 850 393 890 
Q 359 931 359 978 
Q 359 1031 393 1068 
Q 428 1106 481 1106 
L 4500 1106 
Q 4547 1106 4581 1068 
Q 4616 1031 4616 978 
Q 4616 931 4581 890 
Q 4547 850 4500 850 
L 481 850 
z
M 481 2094 
Q 428 2094 393 2131 
Q 359 2169 359 2222 
Q 359 2269 393 2309 
Q 428 2350 481 2350 
L 4500 2350 
Q 4547 2350 4581 2309 
Q 4616 2269 4616 2222 
Q 4616 2169 4581 2131 
Q 4547 2094 4500 2094 
L 481 2094 
z
" transform="scale(0.015625)"/>
       <path id="Cmr10-5b" d="M 756 -1600 
L 756 4800 
L 1631 4800 
L 1631 4544 
L 1013 4544 
L 1013 -1344 
L 1631 -1344 
L 1631 -1600 
L 756 -1600 
z
" transform="scale(0.015625)"/>
       <path id="Cmr10-30" d="M 1600 -141 
Q 816 -141 533 504 
Q 250 1150 250 2041 
Q 250 2597 351 3087 
Q 453 3578 754 3920 
Q 1056 4263 1600 4263 
Q 2022 4263 2290 4056 
Q 2559 3850 2700 3523 
Q 2841 3197 2892 2823 
Q 2944 2450 2944 2041 
Q 2944 1491 2842 1011 
Q 2741 531 2444 195 
Q 2147 -141 1600 -141 
z
M 1600 25 
Q 1956 25 2131 390 
Q 2306 756 2347 1200 
Q 2388 1644 2388 2144 
Q 2388 2625 2347 3031 
Q 2306 3438 2132 3767 
Q 1959 4097 1600 4097 
Q 1238 4097 1063 3765 
Q 888 3434 847 3029 
Q 806 2625 806 2144 
Q 806 1788 823 1472 
Q 841 1156 916 820 
Q 991 484 1158 254 
Q 1325 25 1600 25 
z
" transform="scale(0.015625)"/>
       <path id="Cmr10-31" d="M 594 0 
L 594 225 
Q 1394 225 1394 428 
L 1394 3788 
Q 1063 3628 556 3628 
L 556 3853 
Q 1341 3853 1741 4263 
L 1831 4263 
Q 1853 4263 1873 4245 
Q 1894 4228 1894 4206 
L 1894 428 
Q 1894 225 2694 225 
L 2694 0 
L 594 0 
z
" transform="scale(0.015625)"/>
       <path id="Cmr10-5d" d="M 141 -1600 
L 141 -1344 
L 763 -1344 
L 763 4544 
L 141 4544 
L 141 4800 
L 1019 4800 
L 1019 -1600 
L 141 -1600 
z
" transform="scale(0.015625)"/>
      </defs>
      <use xlink:href="#Cmmi10-bb"/>
      <use xlink:href="#Cmr10-35" transform="translate(43.701172 -17.00625)scale(0.7)"/>
      <use xlink:href="#Cmr10-3d" transform="translate(102.637109 0)"/>
      <use xlink:href="#Cmr10-5b" transform="translate(197.88125 0)"/>
      <use xlink:href="#Cmr10-30" transform="translate(225.566797 0)"/>
      <use xlink:href="#Cmr10-31" transform="translate(304.830827 0)"/>
      <use xlink:href="#Cmr10-30" transform="translate(384.094857 0)"/>
      <use xlink:href="#Cmr10-30" transform="translate(463.358888 0)"/>
      <use xlink:href="#Cmr10-5d" transform="translate(513.358888 0)"/>
     </g>
    </g>
    <g id="line2d_30">
     <path d="M 139.600771 25.397266 
L 146.600771 25.397266 
L 153.600771 25.397266 
" style="fill: none; stroke: #f17900; stroke-linecap: square"/>
     <defs>
      <path id="m2e66b9d189" d="M 0 1.125 
C 0.298353 1.125 0.584527 1.006463 0.795495 0.795495 
C 1.006463 0.584527 1.125 0.298353 1.125 0 
C 1.125 -0.298353 1.006463 -0.584527 0.795495 -0.795495 
C 0.584527 -1.006463 0.298353 -1.125 0 -1.125 
C -0.298353 -1.125 -0.584527 -1.006463 -0.795495 -0.795495 
C -1.006463 -0.584527 -1.125 -0.298353 -1.125 0 
C -1.125 0.298353 -1.006463 0.584527 -0.795495 0.795495 
C -0.584527 1.006463 -0.298353 1.125 0 1.125 
z
" style="stroke: #f17900"/>
     </defs>
     <g>
      <use xlink:href="#m2e66b9d189" x="146.600771" y="25.397266" style="fill: #f17900; stroke: #f17900"/>
     </g>
    </g>
    <g id="text_16">
     <!-- $\xi_3=[0\ 0\ 1\ 0]$ -->
     <g transform="translate(159.200771 27.847266)scale(0.07 -0.07)">
      <defs>
       <path id="Cmr10-33" d="M 609 494 
Q 759 275 1012 169 
Q 1266 63 1556 63 
Q 1928 63 2084 380 
Q 2241 697 2241 1100 
Q 2241 1281 2208 1462 
Q 2175 1644 2097 1800 
Q 2019 1956 1883 2050 
Q 1747 2144 1550 2144 
L 1125 2144 
Q 1069 2144 1069 2203 
L 1069 2259 
Q 1069 2309 1125 2309 
L 1478 2338 
Q 1703 2338 1851 2506 
Q 2000 2675 2069 2917 
Q 2138 3159 2138 3378 
Q 2138 3684 1994 3881 
Q 1850 4078 1556 4078 
Q 1313 4078 1091 3986 
Q 869 3894 738 3706 
Q 750 3709 759 3711 
Q 769 3713 781 3713 
Q 925 3713 1022 3613 
Q 1119 3513 1119 3372 
Q 1119 3234 1022 3134 
Q 925 3034 781 3034 
Q 641 3034 541 3134 
Q 441 3234 441 3372 
Q 441 3647 606 3850 
Q 772 4053 1033 4158 
Q 1294 4263 1556 4263 
Q 1750 4263 1965 4205 
Q 2181 4147 2356 4039 
Q 2531 3931 2642 3762 
Q 2753 3594 2753 3378 
Q 2753 3109 2633 2881 
Q 2513 2653 2303 2487 
Q 2094 2322 1844 2241 
Q 2122 2188 2372 2031 
Q 2622 1875 2773 1631 
Q 2925 1388 2925 1106 
Q 2925 753 2731 467 
Q 2538 181 2222 20 
Q 1906 -141 1556 -141 
Q 1256 -141 954 -26 
Q 653 88 461 316 
Q 269 544 269 863 
Q 269 1022 375 1128 
Q 481 1234 641 1234 
Q 744 1234 830 1186 
Q 916 1138 964 1050 
Q 1013 963 1013 863 
Q 1013 706 903 600 
Q 794 494 641 494 
L 609 494 
z
" transform="scale(0.015625)"/>
      </defs>
      <use xlink:href="#Cmmi10-bb"/>
      <use xlink:href="#Cmr10-33" transform="translate(43.701172 -17.00625)scale(0.7)"/>
      <use xlink:href="#Cmr10-3d" transform="translate(102.637109 0)"/>
      <use xlink:href="#Cmr10-5b" transform="translate(197.88125 0)"/>
      <use xlink:href="#Cmr10-30" transform="translate(225.566797 0)"/>
      <use xlink:href="#Cmr10-30" transform="translate(304.830827 0)"/>
      <use xlink:href="#Cmr10-31" transform="translate(384.094857 0)"/>
      <use xlink:href="#Cmr10-30" transform="translate(463.358888 0)"/>
      <use xlink:href="#Cmr10-5d" transform="translate(513.358888 0)"/>
     </g>
    </g>
    <g id="line2d_31">
     <path d="M 139.600771 33.166172 
L 146.600771 33.166172 
L 153.600771 33.166172 
" style="fill: none; stroke: #ae0060; stroke-linecap: square"/>
     <defs>
      <path id="mb373fce64c" d="M 0 1.125 
C 0.298353 1.125 0.584527 1.006463 0.795495 0.795495 
C 1.006463 0.584527 1.125 0.298353 1.125 0 
C 1.125 -0.298353 1.006463 -0.584527 0.795495 -0.795495 
C 0.584527 -1.006463 0.298353 -1.125 0 -1.125 
C -0.298353 -1.125 -0.584527 -1.006463 -0.795495 -0.795495 
C -1.006463 -0.584527 -1.125 -0.298353 -1.125 0 
C -1.125 0.298353 -1.006463 0.584527 -0.795495 0.795495 
C -0.584527 1.006463 -0.298353 1.125 0 1.125 
z
" style="stroke: #ae0060"/>
     </defs>
     <g>
      <use xlink:href="#mb373fce64c" x="146.600771" y="33.166172" style="fill: #ae0060; stroke: #ae0060"/>
     </g>
    </g>
    <g id="text_17">
     <!-- $\xi_7=[0\ 1\ 1\ 0]$ -->
     <g transform="translate(159.200771 35.616172)scale(0.07 -0.07)">
      <defs>
       <path id="Cmr10-37" d="M 1113 166 
Q 1113 522 1175 862 
Q 1238 1203 1358 1536 
Q 1478 1869 1648 2189 
Q 1819 2509 2022 2791 
L 2606 3603 
L 1875 3603 
Q 738 3603 703 3572 
Q 619 3469 544 2981 
L 359 2981 
L 569 4325 
L 756 4325 
L 756 4306 
Q 756 4191 1147 4156 
Q 1538 4122 1913 4122 
L 3103 4122 
L 3103 3956 
Q 3103 3950 3101 3947 
Q 3100 3944 3097 3938 
L 2216 2700 
Q 1891 2219 1809 1631 
Q 1728 1044 1728 166 
Q 1728 41 1637 -50 
Q 1547 -141 1422 -141 
Q 1294 -141 1203 -50 
Q 1113 41 1113 166 
z
" transform="scale(0.015625)"/>
      </defs>
      <use xlink:href="#Cmmi10-bb"/>
      <use xlink:href="#Cmr10-37" transform="translate(43.701172 -17.00625)scale(0.7)"/>
      <use xlink:href="#Cmr10-3d" transform="translate(102.637109 0)"/>
      <use xlink:href="#Cmr10-5b" transform="translate(197.88125 0)"/>
      <use xlink:href="#Cmr10-30" transform="translate(225.566797 0)"/>
      <use xlink:href="#Cmr10-31" transform="translate(304.830827 0)"/>
      <use xlink:href="#Cmr10-31" transform="translate(384.094857 0)"/>
      <use xlink:href="#Cmr10-30" transform="translate(463.358888 0)"/>
      <use xlink:href="#Cmr10-5d" transform="translate(513.358888 0)"/>
     </g>
    </g>
    <g id="line2d_32">
     <path d="M 139.600771 40.935078 
L 146.600771 40.935078 
L 153.600771 40.935078 
" style="fill: none; stroke: #00afa5; stroke-linecap: square"/>
     <defs>
      <path id="ma28c099793" d="M 0 1.125 
C 0.298353 1.125 0.584527 1.006463 0.795495 0.795495 
C 1.006463 0.584527 1.125 0.298353 1.125 0 
C 1.125 -0.298353 1.006463 -0.584527 0.795495 -0.795495 
C 0.584527 -1.006463 0.298353 -1.125 0 -1.125 
C -0.298353 -1.125 -0.584527 -1.006463 -0.795495 -0.795495 
C -1.006463 -0.584527 -1.125 -0.298353 -1.125 0 
C -1.125 0.298353 -1.006463 0.584527 -0.795495 0.795495 
C -0.584527 1.006463 -0.298353 1.125 0 1.125 
z
" style="stroke: #00afa5"/>
     </defs>
     <g>
      <use xlink:href="#ma28c099793" x="146.600771" y="40.935078" style="fill: #00afa5; stroke: #00afa5"/>
     </g>
    </g>
    <g id="text_18">
     <!-- $\xi_2=[0\ 0\ 0\ 1]$ -->
     <g transform="translate(159.200771 43.385078)scale(0.07 -0.07)">
      <defs>
       <path id="Cmr10-32" d="M 319 0 
L 319 172 
Q 319 188 331 206 
L 1325 1306 
Q 1550 1550 1690 1715 
Q 1831 1881 1968 2097 
Q 2106 2313 2186 2536 
Q 2266 2759 2266 3009 
Q 2266 3272 2169 3511 
Q 2072 3750 1880 3894 
Q 1688 4038 1416 4038 
Q 1138 4038 916 3870 
Q 694 3703 603 3438 
Q 628 3444 672 3444 
Q 816 3444 917 3347 
Q 1019 3250 1019 3097 
Q 1019 2950 917 2848 
Q 816 2747 672 2747 
Q 522 2747 420 2851 
Q 319 2956 319 3097 
Q 319 3338 409 3548 
Q 500 3759 670 3923 
Q 841 4088 1055 4175 
Q 1269 4263 1509 4263 
Q 1875 4263 2190 4108 
Q 2506 3953 2690 3670 
Q 2875 3388 2875 3009 
Q 2875 2731 2753 2481 
Q 2631 2231 2440 2026 
Q 2250 1822 1953 1562 
Q 1656 1303 1563 1216 
L 838 519 
L 1453 519 
Q 1906 519 2211 526 
Q 2516 534 2534 550 
Q 2609 631 2688 1141 
L 2875 1141 
L 2694 0 
L 319 0 
z
" transform="scale(0.015625)"/>
      </defs>
      <use xlink:href="#Cmmi10-bb"/>
      <use xlink:href="#Cmr10-32" transform="translate(43.701172 -17.00625)scale(0.7)"/>
      <use xlink:href="#Cmr10-3d" transform="translate(102.637109 0)"/>
      <use xlink:href="#Cmr10-5b" transform="translate(197.88125 0)"/>
      <use xlink:href="#Cmr10-30" transform="translate(225.566797 0)"/>
      <use xlink:href="#Cmr10-30" transform="translate(304.830827 0)"/>
      <use xlink:href="#Cmr10-30" transform="translate(384.094857 0)"/>
      <use xlink:href="#Cmr10-31" transform="translate(463.358888 0)"/>
      <use xlink:href="#Cmr10-5d" transform="translate(513.358888 0)"/>
     </g>
    </g>
   </g>
  </g>
  <g id="axes_2">
   <g id="patch_8">
    <path d="M 222.902501 121.453961 
L 396.62546 121.453961 
L 396.62546 9.859453 
L 222.902501 9.859453 
z
" style="fill: #ffffff"/>
   </g>
   <g id="matplotlib.axis_3">
    <g id="xtick_7">
     <g id="line2d_33">
      <path d="M 230.798999 121.453961 
L 230.798999 9.859453 
" clip-path="url(#p6435b0f624)" style="fill: none; stroke: #000000; stroke-opacity: 0.1; stroke-width: 0.5; stroke-linecap: square"/>
     </g>
     <g id="line2d_34">
      <g>
       <use xlink:href="#m39a9842f23" x="230.798999" y="121.453961" style="stroke: #000000; stroke-width: 0.5"/>
      </g>
     </g>
     <g id="text_19">
      <!-- 0 -->
      <g transform="translate(228.572124 128.272867)scale(0.07 -0.07)">
       <use xlink:href="#DejaVuSans-30"/>
      </g>
     </g>
    </g>
    <g id="xtick_8">
     <g id="line2d_35">
      <path d="M 262.384992 121.453961 
L 262.384992 9.859453 
" clip-path="url(#p6435b0f624)" style="fill: none; stroke: #000000; stroke-opacity: 0.1; stroke-width: 0.5; stroke-linecap: square"/>
     </g>
     <g id="line2d_36">
      <g>
       <use xlink:href="#m39a9842f23" x="262.384992" y="121.453961" style="stroke: #000000; stroke-width: 0.5"/>
      </g>
     </g>
     <g id="text_20">
      <!-- 2 -->
      <g transform="translate(260.158117 128.272867)scale(0.07 -0.07)">
       <use xlink:href="#DejaVuSans-32"/>
      </g>
     </g>
    </g>
    <g id="xtick_9">
     <g id="line2d_37">
      <path d="M 293.970984 121.453961 
L 293.970984 9.859453 
" clip-path="url(#p6435b0f624)" style="fill: none; stroke: #000000; stroke-opacity: 0.1; stroke-width: 0.5; stroke-linecap: square"/>
     </g>
     <g id="line2d_38">
      <g>
       <use xlink:href="#m39a9842f23" x="293.970984" y="121.453961" style="stroke: #000000; stroke-width: 0.5"/>
      </g>
     </g>
     <g id="text_21">
      <!-- 4 -->
      <g transform="translate(291.744109 128.272867)scale(0.07 -0.07)">
       <use xlink:href="#DejaVuSans-34"/>
      </g>
     </g>
    </g>
    <g id="xtick_10">
     <g id="line2d_39">
      <path d="M 325.556977 121.453961 
L 325.556977 9.859453 
" clip-path="url(#p6435b0f624)" style="fill: none; stroke: #000000; stroke-opacity: 0.1; stroke-width: 0.5; stroke-linecap: square"/>
     </g>
     <g id="line2d_40">
      <g>
       <use xlink:href="#m39a9842f23" x="325.556977" y="121.453961" style="stroke: #000000; stroke-width: 0.5"/>
      </g>
     </g>
     <g id="text_22">
      <!-- 6 -->
      <g transform="translate(323.330102 128.272867)scale(0.07 -0.07)">
       <use xlink:href="#DejaVuSans-36"/>
      </g>
     </g>
    </g>
    <g id="xtick_11">
     <g id="line2d_41">
      <path d="M 357.142969 121.453961 
L 357.142969 9.859453 
" clip-path="url(#p6435b0f624)" style="fill: none; stroke: #000000; stroke-opacity: 0.1; stroke-width: 0.5; stroke-linecap: square"/>
     </g>
     <g id="line2d_42">
      <g>
       <use xlink:href="#m39a9842f23" x="357.142969" y="121.453961" style="stroke: #000000; stroke-width: 0.5"/>
      </g>
     </g>
     <g id="text_23">
      <!-- 8 -->
      <g transform="translate(354.916094 128.272867)scale(0.07 -0.07)">
       <use xlink:href="#DejaVuSans-38"/>
      </g>
     </g>
    </g>
    <g id="xtick_12">
     <g id="line2d_43">
      <path d="M 388.728961 121.453961 
L 388.728961 9.859453 
" clip-path="url(#p6435b0f624)" style="fill: none; stroke: #000000; stroke-opacity: 0.1; stroke-width: 0.5; stroke-linecap: square"/>
     </g>
     <g id="line2d_44">
      <g>
       <use xlink:href="#m39a9842f23" x="388.728961" y="121.453961" style="stroke: #000000; stroke-width: 0.5"/>
      </g>
     </g>
     <g id="text_24">
      <!-- 10 -->
      <g transform="translate(384.275211 128.272867)scale(0.07 -0.07)">
       <use xlink:href="#DejaVuSans-31"/>
       <use xlink:href="#DejaVuSans-30" x="63.623047"/>
      </g>
     </g>
    </g>
    <g id="text_25">
     <!-- time step $t$ -->
     <g transform="translate(285.37398 138.568648)scale(0.09 -0.09)">
      <use xlink:href="#DejaVuSans-74" transform="translate(0 0.015625)"/>
      <use xlink:href="#DejaVuSans-69" transform="translate(39.208984 0.015625)"/>
      <use xlink:href="#DejaVuSans-6d" transform="translate(66.992188 0.015625)"/>
      <use xlink:href="#DejaVuSans-65" transform="translate(164.404297 0.015625)"/>
      <use xlink:href="#DejaVuSans-20" transform="translate(225.927734 0.015625)"/>
      <use xlink:href="#DejaVuSans-73" transform="translate(257.714844 0.015625)"/>
      <use xlink:href="#DejaVuSans-74" transform="translate(309.814453 0.015625)"/>
      <use xlink:href="#DejaVuSans-65" transform="translate(349.023438 0.015625)"/>
      <use xlink:href="#DejaVuSans-70" transform="translate(410.546875 0.015625)"/>
      <use xlink:href="#DejaVuSans-20" transform="translate(474.023438 0.015625)"/>
      <use xlink:href="#Cmmi10-74" transform="translate(505.810547 0.015625)"/>
     </g>
    </g>
   </g>
   <g id="matplotlib.axis_4">
    <g id="ytick_7">
     <g id="line2d_45">
      <path d="M 222.902501 116.421187 
L 396.62546 116.421187 
" clip-path="url(#p6435b0f624)" style="fill: none; stroke: #000000; stroke-opacity: 0.1; stroke-width: 0.5; stroke-linecap: square"/>
     </g>
     <g id="line2d_46">
      <g>
       <use xlink:href="#m392d95a324" x="222.902501" y="116.421187" style="stroke: #000000; stroke-width: 0.5"/>
      </g>
     </g>
     <g id="text_26">
      <!-- 0 -->
      <g transform="translate(216.948751 119.08064)scale(0.07 -0.07)">
       <use xlink:href="#DejaVuSans-30"/>
      </g>
     </g>
    </g>
    <g id="ytick_8">
     <g id="line2d_47">
      <path d="M 222.902501 95.10884 
L 396.62546 95.10884 
" clip-path="url(#p6435b0f624)" style="fill: none; stroke: #000000; stroke-opacity: 0.1; stroke-width: 0.5; stroke-linecap: square"/>
     </g>
     <g id="line2d_48">
      <g>
       <use xlink:href="#m392d95a324" x="222.902501" y="95.10884" style="stroke: #000000; stroke-width: 0.5"/>
      </g>
     </g>
     <g id="text_27">
      <!-- 20 -->
      <g transform="translate(212.495001 97.768294)scale(0.07 -0.07)">
       <use xlink:href="#DejaVuSans-32"/>
       <use xlink:href="#DejaVuSans-30" x="63.623047"/>
      </g>
     </g>
    </g>
    <g id="ytick_9">
     <g id="line2d_49">
      <path d="M 222.902501 73.796494 
L 396.62546 73.796494 
" clip-path="url(#p6435b0f624)" style="fill: none; stroke: #000000; stroke-opacity: 0.1; stroke-width: 0.5; stroke-linecap: square"/>
     </g>
     <g id="line2d_50">
      <g>
       <use xlink:href="#m392d95a324" x="222.902501" y="73.796494" style="stroke: #000000; stroke-width: 0.5"/>
      </g>
     </g>
     <g id="text_28">
      <!-- 40 -->
      <g transform="translate(212.495001 76.455947)scale(0.07 -0.07)">
       <use xlink:href="#DejaVuSans-34"/>
       <use xlink:href="#DejaVuSans-30" x="63.623047"/>
      </g>
     </g>
    </g>
    <g id="ytick_10">
     <g id="line2d_51">
      <path d="M 222.902501 52.484147 
L 396.62546 52.484147 
" clip-path="url(#p6435b0f624)" style="fill: none; stroke: #000000; stroke-opacity: 0.1; stroke-width: 0.5; stroke-linecap: square"/>
     </g>
     <g id="line2d_52">
      <g>
       <use xlink:href="#m392d95a324" x="222.902501" y="52.484147" style="stroke: #000000; stroke-width: 0.5"/>
      </g>
     </g>
     <g id="text_29">
      <!-- 60 -->
      <g transform="translate(212.495001 55.1436)scale(0.07 -0.07)">
       <use xlink:href="#DejaVuSans-36"/>
       <use xlink:href="#DejaVuSans-30" x="63.623047"/>
      </g>
     </g>
    </g>
    <g id="ytick_11">
     <g id="line2d_53">
      <path d="M 222.902501 31.1718 
L 396.62546 31.1718 
" clip-path="url(#p6435b0f624)" style="fill: none; stroke: #000000; stroke-opacity: 0.1; stroke-width: 0.5; stroke-linecap: square"/>
     </g>
     <g id="line2d_54">
      <g>
       <use xlink:href="#m392d95a324" x="222.902501" y="31.1718" style="stroke: #000000; stroke-width: 0.5"/>
      </g>
     </g>
     <g id="text_30">
      <!-- 80 -->
      <g transform="translate(212.495001 33.831253)scale(0.07 -0.07)">
       <use xlink:href="#DejaVuSans-38"/>
       <use xlink:href="#DejaVuSans-30" x="63.623047"/>
      </g>
     </g>
    </g>
    <g id="ytick_12">
     <g id="line2d_55">
      <path d="M 222.902501 9.859453 
L 396.62546 9.859453 
" clip-path="url(#p6435b0f624)" style="fill: none; stroke: #000000; stroke-opacity: 0.1; stroke-width: 0.5; stroke-linecap: square"/>
     </g>
     <g id="line2d_56">
      <g>
       <use xlink:href="#m392d95a324" x="222.902501" y="9.859453" style="stroke: #000000; stroke-width: 0.5"/>
      </g>
     </g>
     <g id="text_31">
      <!-- 100 -->
      <g transform="translate(208.041251 12.518906)scale(0.07 -0.07)">
       <use xlink:href="#DejaVuSans-31"/>
       <use xlink:href="#DejaVuSans-30" x="63.623047"/>
       <use xlink:href="#DejaVuSans-30" x="127.246094"/>
      </g>
     </g>
    </g>
   </g>
   <g id="line2d_57">
    <path d="M 230.798999 116.421187 
L 246.591995 90.580176 
L 262.384992 70.69942 
L 278.177988 55.552965 
L 293.970984 44.090999 
L 309.76398 35.4581 
L 325.556977 28.977652 
L 341.349973 24.124521 
L 357.142969 20.496236 
L 372.935965 17.78697 
L 388.728961 15.765715 
" clip-path="url(#p6435b0f624)" style="fill: none; stroke: #005ea8; stroke-linecap: square"/>
    <g clip-path="url(#p6435b0f624)">
     <use xlink:href="#md426d37820" x="230.798999" y="116.421187" style="fill: #005ea8; stroke: #005ea8"/>
     <use xlink:href="#md426d37820" x="246.591995" y="90.580176" style="fill: #005ea8; stroke: #005ea8"/>
     <use xlink:href="#md426d37820" x="262.384992" y="70.69942" style="fill: #005ea8; stroke: #005ea8"/>
     <use xlink:href="#md426d37820" x="278.177988" y="55.552965" style="fill: #005ea8; stroke: #005ea8"/>
     <use xlink:href="#md426d37820" x="293.970984" y="44.090999" style="fill: #005ea8; stroke: #005ea8"/>
     <use xlink:href="#md426d37820" x="309.76398" y="35.4581" style="fill: #005ea8; stroke: #005ea8"/>
     <use xlink:href="#md426d37820" x="325.556977" y="28.977652" style="fill: #005ea8; stroke: #005ea8"/>
     <use xlink:href="#md426d37820" x="341.349973" y="24.124521" style="fill: #005ea8; stroke: #005ea8"/>
     <use xlink:href="#md426d37820" x="357.142969" y="20.496236" style="fill: #005ea8; stroke: #005ea8"/>
     <use xlink:href="#md426d37820" x="372.935965" y="17.78697" style="fill: #005ea8; stroke: #005ea8"/>
     <use xlink:href="#md426d37820" x="388.728961" y="15.765715" style="fill: #005ea8; stroke: #005ea8"/>
    </g>
   </g>
   <g id="line2d_58">
    <path d="M 230.798999 116.421187 
L 246.591995 112.846648 
L 262.384992 105.001471 
L 278.177988 95.074052 
L 293.970984 84.486077 
L 309.76398 74.113443 
L 325.556977 64.456521 
L 341.349973 55.765593 
L 357.142969 48.13029 
L 372.935965 41.541673 
L 388.728961 35.934263 
" clip-path="url(#p6435b0f624)" style="fill: none; stroke: #f17900; stroke-linecap: square"/>
    <g clip-path="url(#p6435b0f624)">
     <use xlink:href="#m3754db11c6" x="230.798999" y="116.421187" style="fill: #f17900; stroke: #f17900"/>
     <use xlink:href="#m3754db11c6" x="246.591995" y="112.846648" style="fill: #f17900; stroke: #f17900"/>
     <use xlink:href="#m3754db11c6" x="262.384992" y="105.001471" style="fill: #f17900; stroke: #f17900"/>
     <use xlink:href="#m3754db11c6" x="278.177988" y="95.074052" style="fill: #f17900; stroke: #f17900"/>
     <use xlink:href="#m3754db11c6" x="293.970984" y="84.486077" style="fill: #f17900; stroke: #f17900"/>
     <use xlink:href="#m3754db11c6" x="309.76398" y="74.113443" style="fill: #f17900; stroke: #f17900"/>
     <use xlink:href="#m3754db11c6" x="325.556977" y="64.456521" style="fill: #f17900; stroke: #f17900"/>
     <use xlink:href="#m3754db11c6" x="341.349973" y="55.765593" style="fill: #f17900; stroke: #f17900"/>
     <use xlink:href="#m3754db11c6" x="357.142969" y="48.13029" style="fill: #f17900; stroke: #f17900"/>
     <use xlink:href="#m3754db11c6" x="372.935965" y="41.541673" style="fill: #f17900; stroke: #f17900"/>
     <use xlink:href="#m3754db11c6" x="388.728961" y="35.934263" style="fill: #f17900; stroke: #f17900"/>
    </g>
   </g>
   <g id="line2d_59">
    <path d="M 230.798999 116.421187 
L 246.591995 115.554368 
L 262.384992 109.014681 
L 278.177988 99.519803 
L 293.970984 88.853187 
L 309.76398 78.128347 
L 325.556977 67.995753 
L 341.349973 58.796324 
L 357.142969 50.671159 
L 372.935965 43.637765 
L 388.728961 37.641657 
" clip-path="url(#p6435b0f624)" style="fill: none; stroke: #ae0060; stroke-linecap: square"/>
    <g clip-path="url(#p6435b0f624)">
     <use xlink:href="#m18f1370583" x="230.798999" y="116.421187" style="fill: #ae0060; stroke: #ae0060"/>
     <use xlink:href="#m18f1370583" x="246.591995" y="115.554368" style="fill: #ae0060; stroke: #ae0060"/>
     <use xlink:href="#m18f1370583" x="262.384992" y="109.014681" style="fill: #ae0060; stroke: #ae0060"/>
     <use xlink:href="#m18f1370583" x="278.177988" y="99.519803" style="fill: #ae0060; stroke: #ae0060"/>
     <use xlink:href="#m18f1370583" x="293.970984" y="88.853187" style="fill: #ae0060; stroke: #ae0060"/>
     <use xlink:href="#m18f1370583" x="309.76398" y="78.128347" style="fill: #ae0060; stroke: #ae0060"/>
     <use xlink:href="#m18f1370583" x="325.556977" y="67.995753" style="fill: #ae0060; stroke: #ae0060"/>
     <use xlink:href="#m18f1370583" x="341.349973" y="58.796324" style="fill: #ae0060; stroke: #ae0060"/>
     <use xlink:href="#m18f1370583" x="357.142969" y="50.671159" style="fill: #ae0060; stroke: #ae0060"/>
     <use xlink:href="#m18f1370583" x="372.935965" y="43.637765" style="fill: #ae0060; stroke: #ae0060"/>
     <use xlink:href="#m18f1370583" x="388.728961" y="37.641657" style="fill: #ae0060; stroke: #ae0060"/>
    </g>
   </g>
   <g id="line2d_60">
    <path d="M 230.798999 116.421187 
L 246.591995 114.466503 
L 262.384992 111.901188 
L 278.177988 108.121057 
L 293.970984 103.066671 
L 309.76398 96.952317 
L 325.556977 90.100342 
L 341.349973 82.84638 
L 357.142969 75.490246 
L 372.935965 68.274981 
L 388.728961 61.382294 
" clip-path="url(#p6435b0f624)" style="fill: none; stroke: #00afa5; stroke-linecap: square"/>
    <g clip-path="url(#p6435b0f624)">
     <use xlink:href="#m4948f43d31" x="230.798999" y="116.421187" style="fill: #00afa5; stroke: #00afa5"/>
     <use xlink:href="#m4948f43d31" x="246.591995" y="114.466503" style="fill: #00afa5; stroke: #00afa5"/>
     <use xlink:href="#m4948f43d31" x="262.384992" y="111.901188" style="fill: #00afa5; stroke: #00afa5"/>
     <use xlink:href="#m4948f43d31" x="278.177988" y="108.121057" style="fill: #00afa5; stroke: #00afa5"/>
     <use xlink:href="#m4948f43d31" x="293.970984" y="103.066671" style="fill: #00afa5; stroke: #00afa5"/>
     <use xlink:href="#m4948f43d31" x="309.76398" y="96.952317" style="fill: #00afa5; stroke: #00afa5"/>
     <use xlink:href="#m4948f43d31" x="325.556977" y="90.100342" style="fill: #00afa5; stroke: #00afa5"/>
     <use xlink:href="#m4948f43d31" x="341.349973" y="82.84638" style="fill: #00afa5; stroke: #00afa5"/>
     <use xlink:href="#m4948f43d31" x="357.142969" y="75.490246" style="fill: #00afa5; stroke: #00afa5"/>
     <use xlink:href="#m4948f43d31" x="372.935965" y="68.274981" style="fill: #00afa5; stroke: #00afa5"/>
     <use xlink:href="#m4948f43d31" x="388.728961" y="61.382294" style="fill: #00afa5; stroke: #00afa5"/>
    </g>
   </g>
   <g id="patch_9">
    <path d="M 222.902501 121.453961 
L 222.902501 9.859453 
" style="fill: none; stroke: #000000; stroke-width: 0.5; stroke-linejoin: miter; stroke-linecap: square"/>
   </g>
   <g id="patch_10">
    <path d="M 396.62546 121.453961 
L 396.62546 9.859453 
" style="fill: none; stroke: #000000; stroke-width: 0.5; stroke-linejoin: miter; stroke-linecap: square"/>
   </g>
   <g id="patch_11">
    <path d="M 222.902501 121.453961 
L 396.62546 121.453961 
" style="fill: none; stroke: #000000; stroke-width: 0.5; stroke-linejoin: miter; stroke-linecap: square"/>
   </g>
   <g id="patch_12">
    <path d="M 222.902501 9.859453 
L 396.62546 9.859453 
" style="fill: none; stroke: #000000; stroke-width: 0.5; stroke-linejoin: miter; stroke-linecap: square"/>
   </g>
   <g id="legend_2">
    <g id="patch_13">
     <path d="M 227.802501 45.358203 
L 309.763751 45.358203 
Q 311.163751 45.358203 311.163751 43.958203 
L 311.163751 14.759453 
Q 311.163751 13.359453 309.763751 13.359453 
L 227.802501 13.359453 
Q 226.402501 13.359453 226.402501 14.759453 
L 226.402501 43.958203 
Q 226.402501 45.358203 227.802501 45.358203 
z
" style="fill: #ffffff; opacity: 0.8; stroke: #cccccc; stroke-linejoin: miter"/>
    </g>
    <g id="line2d_61">
     <path d="M 227.802501 17.628359 
L 234.802501 17.628359 
L 241.802501 17.628359 
" style="fill: none; stroke: #005ea8; stroke-linecap: square"/>
     <g>
      <use xlink:href="#ma2f510b8f8" x="234.802501" y="17.628359" style="fill: #005ea8; stroke: #005ea8"/>
     </g>
    </g>
    <g id="text_32">
     <!-- lvl II involved -->
     <g transform="translate(247.402501 20.078359)scale(0.07 -0.07)">
      <defs>
       <path id="DejaVuSans-6c" d="M 603 4863 
L 1178 4863 
L 1178 0 
L 603 0 
L 603 4863 
z
" transform="scale(0.015625)"/>
       <path id="DejaVuSans-76" d="M 191 3500 
L 800 3500 
L 1894 563 
L 2988 3500 
L 3597 3500 
L 2284 0 
L 1503 0 
L 191 3500 
z
" transform="scale(0.015625)"/>
       <path id="DejaVuSans-49" d="M 628 4666 
L 1259 4666 
L 1259 0 
L 628 0 
L 628 4666 
z
" transform="scale(0.015625)"/>
       <path id="DejaVuSans-6e" d="M 3513 2113 
L 3513 0 
L 2938 0 
L 2938 2094 
Q 2938 2591 2744 2837 
Q 2550 3084 2163 3084 
Q 1697 3084 1428 2787 
Q 1159 2491 1159 1978 
L 1159 0 
L 581 0 
L 581 3500 
L 1159 3500 
L 1159 2956 
Q 1366 3272 1645 3428 
Q 1925 3584 2291 3584 
Q 2894 3584 3203 3211 
Q 3513 2838 3513 2113 
z
" transform="scale(0.015625)"/>
       <path id="DejaVuSans-6f" d="M 1959 3097 
Q 1497 3097 1228 2736 
Q 959 2375 959 1747 
Q 959 1119 1226 758 
Q 1494 397 1959 397 
Q 2419 397 2687 759 
Q 2956 1122 2956 1747 
Q 2956 2369 2687 2733 
Q 2419 3097 1959 3097 
z
M 1959 3584 
Q 2709 3584 3137 3096 
Q 3566 2609 3566 1747 
Q 3566 888 3137 398 
Q 2709 -91 1959 -91 
Q 1206 -91 779 398 
Q 353 888 353 1747 
Q 353 2609 779 3096 
Q 1206 3584 1959 3584 
z
" transform="scale(0.015625)"/>
       <path id="DejaVuSans-64" d="M 2906 2969 
L 2906 4863 
L 3481 4863 
L 3481 0 
L 2906 0 
L 2906 525 
Q 2725 213 2448 61 
Q 2172 -91 1784 -91 
Q 1150 -91 751 415 
Q 353 922 353 1747 
Q 353 2572 751 3078 
Q 1150 3584 1784 3584 
Q 2172 3584 2448 3432 
Q 2725 3281 2906 2969 
z
M 947 1747 
Q 947 1113 1208 752 
Q 1469 391 1925 391 
Q 2381 391 2643 752 
Q 2906 1113 2906 1747 
Q 2906 2381 2643 2742 
Q 2381 3103 1925 3103 
Q 1469 3103 1208 2742 
Q 947 2381 947 1747 
z
" transform="scale(0.015625)"/>
      </defs>
      <use xlink:href="#DejaVuSans-6c"/>
      <use xlink:href="#DejaVuSans-76" x="27.783203"/>
      <use xlink:href="#DejaVuSans-6c" x="86.962891"/>
      <use xlink:href="#DejaVuSans-20" x="114.746094"/>
      <use xlink:href="#DejaVuSans-49" x="146.533203"/>
      <use xlink:href="#DejaVuSans-49" x="176.025391"/>
      <use xlink:href="#DejaVuSans-20" x="205.517578"/>
      <use xlink:href="#DejaVuSans-69" x="237.304688"/>
      <use xlink:href="#DejaVuSans-6e" x="265.087891"/>
      <use xlink:href="#DejaVuSans-76" x="328.466797"/>
      <use xlink:href="#DejaVuSans-6f" x="387.646484"/>
      <use xlink:href="#DejaVuSans-6c" x="448.828125"/>
      <use xlink:href="#DejaVuSans-76" x="476.611328"/>
      <use xlink:href="#DejaVuSans-65" x="535.791016"/>
      <use xlink:href="#DejaVuSans-64" x="597.314453"/>
     </g>
    </g>
    <g id="line2d_62">
     <path d="M 227.802501 25.103047 
L 234.802501 25.103047 
L 241.802501 25.103047 
" style="fill: none; stroke: #f17900; stroke-linecap: square"/>
     <g>
      <use xlink:href="#m2e66b9d189" x="234.802501" y="25.103047" style="fill: #f17900; stroke: #f17900"/>
     </g>
    </g>
    <g id="text_33">
     <!-- lvl III involved -->
     <g transform="translate(247.402501 27.553047)scale(0.07 -0.07)">
      <use xlink:href="#DejaVuSans-6c"/>
      <use xlink:href="#DejaVuSans-76" x="27.783203"/>
      <use xlink:href="#DejaVuSans-6c" x="86.962891"/>
      <use xlink:href="#DejaVuSans-20" x="114.746094"/>
      <use xlink:href="#DejaVuSans-49" x="146.533203"/>
      <use xlink:href="#DejaVuSans-49" x="176.025391"/>
      <use xlink:href="#DejaVuSans-49" x="205.517578"/>
      <use xlink:href="#DejaVuSans-20" x="235.009766"/>
      <use xlink:href="#DejaVuSans-69" x="266.796875"/>
      <use xlink:href="#DejaVuSans-6e" x="294.580078"/>
      <use xlink:href="#DejaVuSans-76" x="357.958984"/>
      <use xlink:href="#DejaVuSans-6f" x="417.138672"/>
      <use xlink:href="#DejaVuSans-6c" x="478.320312"/>
      <use xlink:href="#DejaVuSans-76" x="506.103516"/>
      <use xlink:href="#DejaVuSans-65" x="565.283203"/>
      <use xlink:href="#DejaVuSans-64" x="626.806641"/>
     </g>
    </g>
    <g id="line2d_63">
     <path d="M 227.802501 32.577734 
L 234.802501 32.577734 
L 241.802501 32.577734 
" style="fill: none; stroke: #ae0060; stroke-linecap: square"/>
     <g>
      <use xlink:href="#mb373fce64c" x="234.802501" y="32.577734" style="fill: #ae0060; stroke: #ae0060"/>
     </g>
    </g>
    <g id="text_34">
     <!-- lvl II &amp; III involved -->
     <g transform="translate(247.402501 35.027734)scale(0.07 -0.07)">
      <defs>
       <path id="DejaVuSans-26" d="M 1556 2509 
Q 1272 2256 1139 2004 
Q 1006 1753 1006 1478 
Q 1006 1022 1337 719 
Q 1669 416 2169 416 
Q 2466 416 2725 514 
Q 2984 613 3213 813 
L 1556 2509 
z
M 1997 2859 
L 3584 1234 
Q 3769 1513 3872 1830 
Q 3975 2147 3994 2503 
L 4575 2503 
Q 4538 2091 4375 1687 
Q 4213 1284 3922 891 
L 4794 0 
L 4006 0 
L 3559 459 
Q 3234 181 2878 45 
Q 2522 -91 2113 -91 
Q 1359 -91 881 339 
Q 403 769 403 1441 
Q 403 1841 612 2192 
Q 822 2544 1241 2853 
Q 1091 3050 1012 3245 
Q 934 3441 934 3628 
Q 934 4134 1281 4442 
Q 1628 4750 2203 4750 
Q 2463 4750 2720 4694 
Q 2978 4638 3244 4525 
L 3244 3956 
Q 2972 4103 2725 4179 
Q 2478 4256 2266 4256 
Q 1938 4256 1733 4082 
Q 1528 3909 1528 3634 
Q 1528 3475 1620 3314 
Q 1713 3153 1997 2859 
z
" transform="scale(0.015625)"/>
      </defs>
      <use xlink:href="#DejaVuSans-6c"/>
      <use xlink:href="#DejaVuSans-76" x="27.783203"/>
      <use xlink:href="#DejaVuSans-6c" x="86.962891"/>
      <use xlink:href="#DejaVuSans-20" x="114.746094"/>
      <use xlink:href="#DejaVuSans-49" x="146.533203"/>
      <use xlink:href="#DejaVuSans-49" x="176.025391"/>
      <use xlink:href="#DejaVuSans-20" x="205.517578"/>
      <use xlink:href="#DejaVuSans-26" x="237.304688"/>
      <use xlink:href="#DejaVuSans-20" x="315.283203"/>
      <use xlink:href="#DejaVuSans-49" x="347.070312"/>
      <use xlink:href="#DejaVuSans-49" x="376.5625"/>
      <use xlink:href="#DejaVuSans-49" x="406.054688"/>
      <use xlink:href="#DejaVuSans-20" x="435.546875"/>
      <use xlink:href="#DejaVuSans-69" x="467.333984"/>
      <use xlink:href="#DejaVuSans-6e" x="495.117188"/>
      <use xlink:href="#DejaVuSans-76" x="558.496094"/>
      <use xlink:href="#DejaVuSans-6f" x="617.675781"/>
      <use xlink:href="#DejaVuSans-6c" x="678.857422"/>
      <use xlink:href="#DejaVuSans-76" x="706.640625"/>
      <use xlink:href="#DejaVuSans-65" x="765.820312"/>
      <use xlink:href="#DejaVuSans-64" x="827.34375"/>
     </g>
    </g>
    <g id="line2d_64">
     <path d="M 227.802501 40.052422 
L 234.802501 40.052422 
L 241.802501 40.052422 
" style="fill: none; stroke: #00afa5; stroke-linecap: square"/>
     <g>
      <use xlink:href="#ma28c099793" x="234.802501" y="40.052422" style="fill: #00afa5; stroke: #00afa5"/>
     </g>
    </g>
    <g id="text_35">
     <!-- lvl IV involved -->
     <g transform="translate(247.402501 42.502422)scale(0.07 -0.07)">
      <defs>
       <path id="DejaVuSans-56" d="M 1831 0 
L 50 4666 
L 709 4666 
L 2188 738 
L 3669 4666 
L 4325 4666 
L 2547 0 
L 1831 0 
z
" transform="scale(0.015625)"/>
      </defs>
      <use xlink:href="#DejaVuSans-6c"/>
      <use xlink:href="#DejaVuSans-76" x="27.783203"/>
      <use xlink:href="#DejaVuSans-6c" x="86.962891"/>
      <use xlink:href="#DejaVuSans-20" x="114.746094"/>
      <use xlink:href="#DejaVuSans-49" x="146.533203"/>
      <use xlink:href="#DejaVuSans-56" x="176.025391"/>
      <use xlink:href="#DejaVuSans-20" x="244.433594"/>
      <use xlink:href="#DejaVuSans-69" x="276.220703"/>
      <use xlink:href="#DejaVuSans-6e" x="304.003906"/>
      <use xlink:href="#DejaVuSans-76" x="367.382812"/>
      <use xlink:href="#DejaVuSans-6f" x="426.5625"/>
      <use xlink:href="#DejaVuSans-6c" x="487.744141"/>
      <use xlink:href="#DejaVuSans-76" x="515.527344"/>
      <use xlink:href="#DejaVuSans-65" x="574.707031"/>
      <use xlink:href="#DejaVuSans-64" x="636.230469"/>
     </g>
    </g>
   </g>
  </g>
  <g id="axes_3">
   <g id="patch_14">
    <path d="M 402.62594 121.453961 
L 454.742827 121.453961 
L 454.742827 9.859453 
L 402.62594 9.859453 
z
" style="fill: #ffffff"/>
   </g>
   <g id="PolyCollection_1">
    <defs>
     <path id="m1abfaae43a" d="M 408.413769 -90.691535 
L 408.344436 -90.691535 
L 408.332442 -90.906149 
L 408.316302 -91.120763 
L 408.294821 -91.335376 
L 408.267543 -91.54999 
L 408.235372 -91.764604 
L 408.200701 -91.979217 
L 408.166752 -92.193831 
L 408.136266 -92.408445 
L 408.110148 -92.623059 
L 408.086813 -92.837672 
L 408.062627 -93.052286 
L 408.03323 -93.2669 
L 407.995022 -93.481514 
L 407.946082 -93.696127 
L 407.886162 -93.910741 
L 407.815972 -94.125355 
L 407.736397 -94.339968 
L 407.648247 -94.554582 
L 407.552691 -94.769196 
L 407.451962 -94.98381 
L 407.349666 -95.198423 
L 407.25034 -95.413037 
L 407.158381 -95.627651 
L 407.076807 -95.842265 
L 407.00629 -96.056878 
L 406.944656 -96.271492 
L 406.886901 -96.486106 
L 406.825782 -96.700719 
L 406.753075 -96.915333 
L 406.661569 -97.129947 
L 406.547576 -97.344561 
L 406.413153 -97.559174 
L 406.266676 -97.773788 
L 406.120697 -97.988402 
L 405.987306 -98.203015 
L 405.87308 -98.417629 
L 405.77642 -98.632243 
L 405.688983 -98.846857 
L 405.600489 -99.06147 
L 405.504236 -99.276084 
L 405.400408 -99.490698 
L 405.29574 -99.705312 
L 405.200088 -99.919925 
L 405.12197 -100.134539 
L 405.065328 -100.349153 
L 405.028889 -100.563766 
L 405.008014 -100.77838 
L 404.997685 -100.992994 
L 404.994889 -101.207608 
L 404.999313 -101.422221 
L 405.012451 -101.636835 
L 405.036091 -101.851449 
L 405.07115 -102.066063 
L 405.117191 -102.280676 
L 405.172347 -102.49529 
L 405.233428 -102.709904 
L 405.296492 -102.924517 
L 405.358247 -103.139131 
L 405.418015 -103.353745 
L 405.479068 -103.568359 
L 405.548053 -103.782972 
L 405.632286 -103.997586 
L 405.736158 -104.2122 
L 405.858623 -104.426814 
L 405.993103 -104.641427 
L 406.129761 -104.856041 
L 406.258875 -105.070655 
L 406.373796 -105.285268 
L 406.472508 -105.499882 
L 406.557662 -105.714496 
L 406.635516 -105.92911 
L 406.714285 -106.143723 
L 406.802141 -106.358337 
L 406.905039 -106.572951 
L 407.024766 -106.787564 
L 407.157942 -107.002178 
L 407.296667 -107.216792 
L 407.430841 -107.431406 
L 407.551348 -107.646019 
L 407.652741 -107.860633 
L 407.734351 -108.075247 
L 407.799558 -108.289861 
L 407.853808 -108.504474 
L 407.902371 -108.719088 
L 407.948703 -108.933702 
L 407.993828 -109.148315 
L 408.036761 -109.362929 
L 408.075621 -109.577543 
L 408.108874 -109.792157 
L 408.13621 -110.00677 
L 408.158741 -110.221384 
L 408.178586 -110.435998 
L 408.198087 -110.650612 
L 408.219019 -110.865225 
L 408.242049 -111.079839 
L 408.266619 -111.294453 
L 408.291254 -111.509066 
L 408.314144 -111.72368 
L 408.333758 -111.938294 
L 408.424447 -111.938294 
L 408.424447 -111.938294 
L 408.444061 -111.72368 
L 408.46695 -111.509066 
L 408.491585 -111.294453 
L 408.516156 -111.079839 
L 408.539186 -110.865225 
L 408.560118 -110.650612 
L 408.579619 -110.435998 
L 408.599464 -110.221384 
L 408.621995 -110.00677 
L 408.649331 -109.792157 
L 408.682584 -109.577543 
L 408.721444 -109.362929 
L 408.764377 -109.148315 
L 408.809501 -108.933702 
L 408.855834 -108.719088 
L 408.904397 -108.504474 
L 408.958647 -108.289861 
L 409.023854 -108.075247 
L 409.105464 -107.860633 
L 409.206857 -107.646019 
L 409.327364 -107.431406 
L 409.461538 -107.216792 
L 409.600263 -107.002178 
L 409.733439 -106.787564 
L 409.853166 -106.572951 
L 409.956064 -106.358337 
L 410.043919 -106.143723 
L 410.122689 -105.92911 
L 410.200543 -105.714496 
L 410.285697 -105.499882 
L 410.384409 -105.285268 
L 410.49933 -105.070655 
L 410.628444 -104.856041 
L 410.765102 -104.641427 
L 410.899582 -104.426814 
L 411.022047 -104.2122 
L 411.125919 -103.997586 
L 411.210152 -103.782972 
L 411.279137 -103.568359 
L 411.34019 -103.353745 
L 411.399958 -103.139131 
L 411.461713 -102.924517 
L 411.524777 -102.709904 
L 411.585858 -102.49529 
L 411.641014 -102.280676 
L 411.687055 -102.066063 
L 411.722113 -101.851449 
L 411.745753 -101.636835 
L 411.758892 -101.422221 
L 411.763316 -101.207608 
L 411.760519 -100.992994 
L 411.750191 -100.77838 
L 411.729316 -100.563766 
L 411.692877 -100.349153 
L 411.636235 -100.134539 
L 411.558117 -99.919925 
L 411.462465 -99.705312 
L 411.357796 -99.490698 
L 411.253969 -99.276084 
L 411.157715 -99.06147 
L 411.069222 -98.846857 
L 410.981785 -98.632243 
L 410.885125 -98.417629 
L 410.770899 -98.203015 
L 410.637508 -97.988402 
L 410.491529 -97.773788 
L 410.345052 -97.559174 
L 410.210628 -97.344561 
L 410.096636 -97.129947 
L 410.00513 -96.915333 
L 409.932423 -96.700719 
L 409.871304 -96.486106 
L 409.813549 -96.271492 
L 409.751915 -96.056878 
L 409.681398 -95.842265 
L 409.599824 -95.627651 
L 409.507864 -95.413037 
L 409.408539 -95.198423 
L 409.306243 -94.98381 
L 409.205514 -94.769196 
L 409.109958 -94.554582 
L 409.021808 -94.339968 
L 408.942233 -94.125355 
L 408.872043 -93.910741 
L 408.812123 -93.696127 
L 408.763183 -93.481514 
L 408.724975 -93.2669 
L 408.695577 -93.052286 
L 408.671392 -92.837672 
L 408.648057 -92.623059 
L 408.621939 -92.408445 
L 408.591453 -92.193831 
L 408.557504 -91.979217 
L 408.522833 -91.764604 
L 408.490662 -91.54999 
L 408.463384 -91.335376 
L 408.441903 -91.120763 
L 408.425763 -90.906149 
L 408.413769 -90.691535 
z
" style="stroke: #005ea8; stroke-opacity: 0.3"/>
    </defs>
    <g clip-path="url(#p22d0444d6f)">
     <use xlink:href="#m1abfaae43a" x="0" y="149.251479" style="fill: #005ea8; fill-opacity: 0.3; stroke: #005ea8; stroke-opacity: 0.3"/>
    </g>
   </g>
   <g id="PolyCollection_2">
    <defs>
     <path id="m4f803ff408" d="M 421.956334 -52.998867 
L 421.875579 -52.998867 
L 421.864767 -53.228992 
L 421.855666 -53.459117 
L 421.849067 -53.689241 
L 421.844707 -53.919366 
L 421.841375 -54.149491 
L 421.837342 -54.379616 
L 421.830716 -54.609741 
L 421.819508 -54.839866 
L 421.801647 -55.06999 
L 421.775369 -55.300115 
L 421.740103 -55.53024 
L 421.69732 -55.760365 
L 421.650541 -55.99049 
L 421.604061 -56.220615 
L 421.560827 -56.450739 
L 421.520632 -56.680864 
L 421.479743 -56.910989 
L 421.43237 -57.141114 
L 421.373386 -57.371239 
L 421.300991 -57.601364 
L 421.218005 -57.831488 
L 421.130959 -58.061613 
L 421.047235 -58.291738 
L 420.97148 -58.521863 
L 420.903057 -58.751988 
L 420.835753 -58.982113 
L 420.759867 -59.212237 
L 420.665613 -59.442362 
L 420.546285 -59.672487 
L 420.399938 -59.902612 
L 420.22917 -60.132737 
L 420.039553 -60.362862 
L 419.837812 -60.592986 
L 419.630789 -60.823111 
L 419.42549 -61.053236 
L 419.229657 -61.283361 
L 419.051732 -61.513486 
L 418.899442 -61.743611 
L 418.777422 -61.973735 
L 418.685471 -62.20386 
L 418.619121 -62.433985 
L 418.572719 -62.66411 
L 418.543182 -62.894235 
L 418.531743 -63.12436 
L 418.542231 -63.354484 
L 418.576846 -63.584609 
L 418.632271 -63.814734 
L 418.699032 -64.044859 
L 418.765183 -64.274984 
L 418.822679 -64.505109 
L 418.872744 -64.735233 
L 418.926648 -64.965358 
L 419.000878 -65.195483 
L 419.109063 -65.425608 
L 419.254888 -65.655733 
L 419.429395 -65.885858 
L 419.613483 -66.115982 
L 419.784054 -66.346107 
L 419.921273 -66.576232 
L 420.014616 -66.806357 
L 420.066064 -67.036482 
L 420.089437 -67.266607 
L 420.105845 -67.496731 
L 420.136456 -67.726856 
L 420.195128 -67.956981 
L 420.283868 -68.187106 
L 420.393208 -68.417231 
L 420.507327 -68.647356 
L 420.611466 -68.87748 
L 420.698082 -69.107605 
L 420.768999 -69.33773 
L 420.83292 -69.567855 
L 420.900116 -69.79798 
L 420.977383 -70.028105 
L 421.065888 -70.258229 
L 421.162292 -70.488354 
L 421.261396 -70.718479 
L 421.358066 -70.948604 
L 421.447664 -71.178729 
L 421.525861 -71.408854 
L 421.589022 -71.638978 
L 421.635334 -71.869103 
L 421.66576 -72.099228 
L 421.683898 -72.329353 
L 421.694599 -72.559478 
L 421.702084 -72.789603 
L 421.708637 -73.019727 
L 421.714626 -73.249852 
L 421.719747 -73.479977 
L 421.724589 -73.710102 
L 421.731313 -73.940227 
L 421.742869 -74.170352 
L 421.761251 -74.400476 
L 421.786032 -74.630601 
L 421.814254 -74.860726 
L 421.84175 -75.090851 
L 421.865001 -75.320976 
L 421.882361 -75.551101 
L 421.894115 -75.781225 
L 421.937798 -75.781225 
L 421.937798 -75.781225 
L 421.949552 -75.551101 
L 421.966912 -75.320976 
L 421.990163 -75.090851 
L 422.017659 -74.860726 
L 422.045881 -74.630601 
L 422.070662 -74.400476 
L 422.089044 -74.170352 
L 422.1006 -73.940227 
L 422.107323 -73.710102 
L 422.112166 -73.479977 
L 422.117287 -73.249852 
L 422.123275 -73.019727 
L 422.129829 -72.789603 
L 422.137314 -72.559478 
L 422.148015 -72.329353 
L 422.166152 -72.099228 
L 422.196578 -71.869103 
L 422.242891 -71.638978 
L 422.306052 -71.408854 
L 422.384248 -71.178729 
L 422.473847 -70.948604 
L 422.570517 -70.718479 
L 422.66962 -70.488354 
L 422.766025 -70.258229 
L 422.85453 -70.028105 
L 422.931797 -69.79798 
L 422.998993 -69.567855 
L 423.062914 -69.33773 
L 423.13383 -69.107605 
L 423.220447 -68.87748 
L 423.324586 -68.647356 
L 423.438705 -68.417231 
L 423.548045 -68.187106 
L 423.636785 -67.956981 
L 423.695456 -67.726856 
L 423.726068 -67.496731 
L 423.742475 -67.266607 
L 423.765849 -67.036482 
L 423.817296 -66.806357 
L 423.91064 -66.576232 
L 424.047859 -66.346107 
L 424.21843 -66.115982 
L 424.402518 -65.885858 
L 424.577025 -65.655733 
L 424.72285 -65.425608 
L 424.831035 -65.195483 
L 424.905265 -64.965358 
L 424.959169 -64.735233 
L 425.009233 -64.505109 
L 425.06673 -64.274984 
L 425.132881 -64.044859 
L 425.199642 -63.814734 
L 425.255066 -63.584609 
L 425.289681 -63.354484 
L 425.30017 -63.12436 
L 425.288731 -62.894235 
L 425.259193 -62.66411 
L 425.212792 -62.433985 
L 425.146442 -62.20386 
L 425.054491 -61.973735 
L 424.932471 -61.743611 
L 424.780181 -61.513486 
L 424.602255 -61.283361 
L 424.406422 -61.053236 
L 424.201124 -60.823111 
L 423.9941 -60.592986 
L 423.79236 -60.362862 
L 423.602742 -60.132737 
L 423.431975 -59.902612 
L 423.285628 -59.672487 
L 423.1663 -59.442362 
L 423.072046 -59.212237 
L 422.99616 -58.982113 
L 422.928856 -58.751988 
L 422.860433 -58.521863 
L 422.784678 -58.291738 
L 422.700953 -58.061613 
L 422.613908 -57.831488 
L 422.530921 -57.601364 
L 422.458527 -57.371239 
L 422.399542 -57.141114 
L 422.35217 -56.910989 
L 422.31128 -56.680864 
L 422.271086 -56.450739 
L 422.227852 -56.220615 
L 422.181372 -55.99049 
L 422.134593 -55.760365 
L 422.091809 -55.53024 
L 422.056543 -55.300115 
L 422.030266 -55.06999 
L 422.012405 -54.839866 
L 422.001197 -54.609741 
L 421.994571 -54.379616 
L 421.990537 -54.149491 
L 421.987205 -53.919366 
L 421.982846 -53.689241 
L 421.976247 -53.459117 
L 421.967146 -53.228992 
L 421.956334 -52.998867 
z
" style="stroke: #f17900; stroke-opacity: 0.3"/>
    </defs>
    <g clip-path="url(#p22d0444d6f)">
     <use xlink:href="#m4f803ff408" x="0" y="149.251479" style="fill: #f17900; fill-opacity: 0.3; stroke: #f17900; stroke-opacity: 0.3"/>
    </g>
   </g>
   <g id="PolyCollection_3">
    <defs>
     <path id="m7e0031340f" d="M 435.468995 -48.555684 
L 435.436626 -48.555684 
L 435.4301 -48.787261 
L 435.42232 -49.018838 
L 435.413214 -49.250415 
L 435.402644 -49.481992 
L 435.390661 -49.713568 
L 435.377892 -49.945145 
L 435.365676 -50.176722 
L 435.355638 -50.408299 
L 435.348821 -50.639876 
L 435.344888 -50.871453 
L 435.341919 -51.10303 
L 435.336869 -51.334606 
L 435.326303 -51.566183 
L 435.306966 -51.79776 
L 435.276054 -52.029337 
L 435.231531 -52.260914 
L 435.172956 -52.492491 
L 435.102821 -52.724068 
L 435.027417 -52.955645 
L 434.955823 -53.187221 
L 434.896447 -53.418798 
L 434.852658 -53.650375 
L 434.820523 -53.881952 
L 434.790752 -54.113529 
L 434.753683 -54.345106 
L 434.703488 -54.576683 
L 434.638559 -54.80826 
L 434.558892 -55.039836 
L 434.46409 -55.271413 
L 434.354166 -55.50299 
L 434.231496 -55.734567 
L 434.100592 -55.966144 
L 433.965046 -56.197721 
L 433.824631 -56.429298 
L 433.675798 -56.660874 
L 433.515312 -56.892451 
L 433.343656 -57.124028 
L 433.165253 -57.355605 
L 432.985797 -57.587182 
L 432.809552 -57.818759 
L 432.639144 -58.050336 
L 432.477757 -58.281913 
L 432.331472 -58.513489 
L 432.209443 -58.745066 
L 432.121408 -58.976643 
L 432.074051 -59.20822 
L 432.068597 -59.439797 
L 432.101093 -59.671374 
L 432.164839 -59.902951 
L 432.252861 -60.134528 
L 432.358686 -60.366104 
L 432.475428 -60.597681 
L 432.59485 -60.829258 
L 432.708046 -61.060835 
L 432.807915 -61.292412 
L 432.891698 -61.523989 
L 432.961425 -61.755566 
L 433.021794 -61.987142 
L 433.077356 -62.218719 
L 433.131394 -62.450296 
L 433.186699 -62.681873 
L 433.246189 -62.91345 
L 433.311929 -63.145027 
L 433.384118 -63.376604 
L 433.462686 -63.608181 
L 433.551091 -63.839757 
L 433.658154 -64.071334 
L 433.794294 -64.302911 
L 433.963636 -64.534488 
L 434.158036 -64.766065 
L 434.358163 -64.997642 
L 434.541401 -65.229219 
L 434.691271 -65.460795 
L 434.802509 -65.692372 
L 434.879667 -65.923949 
L 434.931797 -66.155526 
L 434.967629 -66.387103 
L 434.993895 -66.61868 
L 435.016031 -66.850257 
L 435.038864 -67.081834 
L 435.065969 -67.31341 
L 435.098534 -67.544987 
L 435.135315 -67.776564 
L 435.174052 -68.008141 
L 435.213114 -68.239718 
L 435.251928 -68.471295 
L 435.290013 -68.702872 
L 435.325827 -68.934449 
L 435.356701 -69.166025 
L 435.380028 -69.397602 
L 435.394723 -69.629179 
L 435.401883 -69.860756 
L 435.404293 -70.092333 
L 435.405189 -70.32391 
L 435.407024 -70.555487 
L 435.410815 -70.787063 
L 435.416306 -71.01864 
L 435.422635 -71.250217 
L 435.429006 -71.481794 
L 435.476614 -71.481794 
L 435.476614 -71.481794 
L 435.482985 -71.250217 
L 435.489315 -71.01864 
L 435.494805 -70.787063 
L 435.498597 -70.555487 
L 435.500431 -70.32391 
L 435.501328 -70.092333 
L 435.503738 -69.860756 
L 435.510898 -69.629179 
L 435.525592 -69.397602 
L 435.548919 -69.166025 
L 435.579794 -68.934449 
L 435.615608 -68.702872 
L 435.653693 -68.471295 
L 435.692507 -68.239718 
L 435.731569 -68.008141 
L 435.770306 -67.776564 
L 435.807087 -67.544987 
L 435.839651 -67.31341 
L 435.866756 -67.081834 
L 435.88959 -66.850257 
L 435.911726 -66.61868 
L 435.937992 -66.387103 
L 435.973824 -66.155526 
L 436.025953 -65.923949 
L 436.103112 -65.692372 
L 436.214349 -65.460795 
L 436.36422 -65.229219 
L 436.547458 -64.997642 
L 436.747584 -64.766065 
L 436.941984 -64.534488 
L 437.111326 -64.302911 
L 437.247466 -64.071334 
L 437.35453 -63.839757 
L 437.442934 -63.608181 
L 437.521502 -63.376604 
L 437.593692 -63.145027 
L 437.659431 -62.91345 
L 437.718922 -62.681873 
L 437.774227 -62.450296 
L 437.828264 -62.218719 
L 437.883827 -61.987142 
L 437.944196 -61.755566 
L 438.013923 -61.523989 
L 438.097705 -61.292412 
L 438.197575 -61.060835 
L 438.31077 -60.829258 
L 438.430192 -60.597681 
L 438.546935 -60.366104 
L 438.652759 -60.134528 
L 438.740782 -59.902951 
L 438.804528 -59.671374 
L 438.837024 -59.439797 
L 438.831569 -59.20822 
L 438.784213 -58.976643 
L 438.696178 -58.745066 
L 438.574148 -58.513489 
L 438.427864 -58.281913 
L 438.266477 -58.050336 
L 438.096068 -57.818759 
L 437.919823 -57.587182 
L 437.740367 -57.355605 
L 437.561965 -57.124028 
L 437.390309 -56.892451 
L 437.229823 -56.660874 
L 437.08099 -56.429298 
L 436.940575 -56.197721 
L 436.805028 -55.966144 
L 436.674125 -55.734567 
L 436.551455 -55.50299 
L 436.441531 -55.271413 
L 436.346728 -55.039836 
L 436.267062 -54.80826 
L 436.202132 -54.576683 
L 436.151938 -54.345106 
L 436.114869 -54.113529 
L 436.085097 -53.881952 
L 436.052963 -53.650375 
L 436.009174 -53.418798 
L 435.949797 -53.187221 
L 435.878203 -52.955645 
L 435.8028 -52.724068 
L 435.732665 -52.492491 
L 435.67409 -52.260914 
L 435.629566 -52.029337 
L 435.598655 -51.79776 
L 435.579317 -51.566183 
L 435.568751 -51.334606 
L 435.563701 -51.10303 
L 435.560733 -50.871453 
L 435.556799 -50.639876 
L 435.549982 -50.408299 
L 435.539945 -50.176722 
L 435.527728 -49.945145 
L 435.514959 -49.713568 
L 435.502977 -49.481992 
L 435.492407 -49.250415 
L 435.483301 -49.018838 
L 435.475521 -48.787261 
L 435.468995 -48.555684 
z
" style="stroke: #ae0060; stroke-opacity: 0.3"/>
    </defs>
    <g clip-path="url(#p22d0444d6f)">
     <use xlink:href="#m7e0031340f" x="0" y="149.251479" style="fill: #ae0060; fill-opacity: 0.3; stroke: #ae0060; stroke-opacity: 0.3"/>
    </g>
   </g>
   <g id="PolyCollection_4">
    <defs>
     <path id="m2bfb3fc239" d="M 449.08171 -40.11609 
L 448.897619 -40.11609 
L 448.885014 -40.279014 
L 448.8767 -40.441938 
L 448.870827 -40.604861 
L 448.863581 -40.767785 
L 448.850315 -40.930708 
L 448.826996 -41.093632 
L 448.791409 -41.256556 
L 448.743669 -41.419479 
L 448.685834 -41.582403 
L 448.620741 -41.745327 
L 448.550522 -41.90825 
L 448.475524 -42.071174 
L 448.394237 -42.234097 
L 448.304304 -42.397021 
L 448.204012 -42.559945 
L 448.093281 -42.722868 
L 447.973417 -42.885792 
L 447.845555 -43.048716 
L 447.708673 -43.211639 
L 447.558596 -43.374563 
L 447.38935 -43.537487 
L 447.19708 -43.70041 
L 446.984894 -43.863334 
L 446.765584 -44.026257 
L 446.55953 -44.189181 
L 446.387681 -44.352105 
L 446.26274 -44.515028 
L 446.183367 -44.677952 
L 446.134715 -44.840876 
L 446.095005 -45.003799 
L 446.044557 -45.166723 
L 445.972898 -45.329646 
L 445.881439 -45.49257 
L 445.781849 -45.655494 
L 445.691692 -45.818417 
L 445.628816 -45.981341 
L 445.605451 -46.144265 
L 445.623348 -46.307188 
L 445.672082 -46.470112 
L 445.732216 -46.633036 
L 445.782752 -46.795959 
L 445.809488 -46.958883 
L 445.810114 -47.121806 
L 445.793916 -47.28473 
L 445.777247 -47.447654 
L 445.777783 -47.610577 
L 445.810016 -47.773501 
L 445.882533 -47.936425 
L 445.996525 -48.099348 
L 446.145328 -48.262272 
L 446.315701 -48.425195 
L 446.491423 -48.588119 
L 446.658377 -48.751043 
L 446.808881 -48.913966 
L 446.943047 -49.07689 
L 447.066676 -49.239814 
L 447.18729 -49.402737 
L 447.31076 -49.565661 
L 447.43998 -49.728585 
L 447.575173 -49.891508 
L 447.714393 -50.054432 
L 447.853337 -50.217355 
L 447.985091 -50.380279 
L 448.10107 -50.543203 
L 448.193582 -50.706126 
L 448.25887 -50.86905 
L 448.298683 -51.031974 
L 448.319338 -51.194897 
L 448.32892 -51.357821 
L 448.334433 -51.520745 
L 448.340488 -51.683668 
L 448.349733 -51.846592 
L 448.364034 -52.009515 
L 448.385121 -52.172439 
L 448.414185 -52.335363 
L 448.450906 -52.498286 
L 448.49283 -52.66121 
L 448.535739 -52.824134 
L 448.574977 -52.987057 
L 448.607123 -53.149981 
L 448.631246 -53.312904 
L 448.649132 -53.475828 
L 448.664338 -53.638752 
L 448.680527 -53.801675 
L 448.699908 -53.964599 
L 448.722558 -54.127523 
L 448.74691 -54.290446 
L 448.770964 -54.45337 
L 448.793443 -54.616294 
L 448.814273 -54.779217 
L 448.834296 -54.942141 
L 448.85454 -55.105064 
L 448.875532 -55.267988 
L 448.896961 -55.430912 
L 448.917779 -55.593835 
L 448.936635 -55.756759 
L 448.952403 -55.919683 
L 448.964565 -56.082606 
L 448.973279 -56.24553 
L 449.006049 -56.24553 
L 449.006049 -56.24553 
L 449.014764 -56.082606 
L 449.026925 -55.919683 
L 449.042693 -55.756759 
L 449.061549 -55.593835 
L 449.082368 -55.430912 
L 449.103797 -55.267988 
L 449.124788 -55.105064 
L 449.145032 -54.942141 
L 449.165055 -54.779217 
L 449.185886 -54.616294 
L 449.208364 -54.45337 
L 449.232418 -54.290446 
L 449.25677 -54.127523 
L 449.27942 -53.964599 
L 449.298801 -53.801675 
L 449.314991 -53.638752 
L 449.330196 -53.475828 
L 449.348082 -53.312904 
L 449.372206 -53.149981 
L 449.404351 -52.987057 
L 449.443589 -52.824134 
L 449.486499 -52.66121 
L 449.528422 -52.498286 
L 449.565143 -52.335363 
L 449.594208 -52.172439 
L 449.615294 -52.009515 
L 449.629595 -51.846592 
L 449.63884 -51.683668 
L 449.644895 -51.520745 
L 449.650409 -51.357821 
L 449.65999 -51.194897 
L 449.680646 -51.031974 
L 449.720458 -50.86905 
L 449.785746 -50.706126 
L 449.878259 -50.543203 
L 449.994237 -50.380279 
L 450.125992 -50.217355 
L 450.264936 -50.054432 
L 450.404155 -49.891508 
L 450.539349 -49.728585 
L 450.668568 -49.565661 
L 450.792038 -49.402737 
L 450.912652 -49.239814 
L 451.036281 -49.07689 
L 451.170448 -48.913966 
L 451.320952 -48.751043 
L 451.487906 -48.588119 
L 451.663627 -48.425195 
L 451.834 -48.262272 
L 451.982803 -48.099348 
L 452.096796 -47.936425 
L 452.169312 -47.773501 
L 452.201545 -47.610577 
L 452.202082 -47.447654 
L 452.185413 -47.28473 
L 452.169215 -47.121806 
L 452.16984 -46.958883 
L 452.196576 -46.795959 
L 452.247112 -46.633036 
L 452.307246 -46.470112 
L 452.35598 -46.307188 
L 452.373878 -46.144265 
L 452.350512 -45.981341 
L 452.287637 -45.818417 
L 452.19748 -45.655494 
L 452.097889 -45.49257 
L 452.00643 -45.329646 
L 451.934771 -45.166723 
L 451.884323 -45.003799 
L 451.844614 -44.840876 
L 451.795961 -44.677952 
L 451.716588 -44.515028 
L 451.591647 -44.352105 
L 451.419798 -44.189181 
L 451.213745 -44.026257 
L 450.994434 -43.863334 
L 450.782249 -43.70041 
L 450.589979 -43.537487 
L 450.420732 -43.374563 
L 450.270655 -43.211639 
L 450.133773 -43.048716 
L 450.005912 -42.885792 
L 449.886047 -42.722868 
L 449.775317 -42.559945 
L 449.675024 -42.397021 
L 449.585092 -42.234097 
L 449.503805 -42.071174 
L 449.428807 -41.90825 
L 449.358588 -41.745327 
L 449.293494 -41.582403 
L 449.23566 -41.419479 
L 449.187919 -41.256556 
L 449.152332 -41.093632 
L 449.129013 -40.930708 
L 449.115747 -40.767785 
L 449.108502 -40.604861 
L 449.102628 -40.441938 
L 449.094315 -40.279014 
L 449.08171 -40.11609 
z
" style="stroke: #00afa5; stroke-opacity: 0.3"/>
    </defs>
    <g clip-path="url(#p22d0444d6f)">
     <use xlink:href="#m2bfb3fc239" x="0" y="149.251479" style="fill: #00afa5; fill-opacity: 0.3; stroke: #00afa5; stroke-opacity: 0.3"/>
    </g>
   </g>
   <g id="matplotlib.axis_5">
    <g id="xtick_13">
     <g id="line2d_65">
      <path d="M 408.379102 121.453961 
L 408.379102 9.859453 
" clip-path="url(#p22d0444d6f)" style="fill: none; stroke: #000000; stroke-opacity: 0.1; stroke-width: 0.5; stroke-linecap: square"/>
     </g>
     <g id="line2d_66">
      <g>
       <use xlink:href="#m39a9842f23" x="408.379102" y="121.453961" style="stroke: #000000; stroke-width: 0.5"/>
      </g>
     </g>
     <g id="text_36">
      <!-- II -->
      <g transform="translate(405.553106 126.714996)rotate(-315)scale(0.07 -0.07)">
       <use xlink:href="#DejaVuSans-49"/>
       <use xlink:href="#DejaVuSans-49" x="29.492188"/>
      </g>
     </g>
    </g>
    <g id="xtick_14">
     <g id="line2d_67">
      <path d="M 421.915956 121.453961 
L 421.915956 9.859453 
" clip-path="url(#p22d0444d6f)" style="fill: none; stroke: #000000; stroke-opacity: 0.1; stroke-width: 0.5; stroke-linecap: square"/>
     </g>
     <g id="line2d_68">
      <g>
       <use xlink:href="#m39a9842f23" x="421.915956" y="121.453961" style="stroke: #000000; stroke-width: 0.5"/>
      </g>
     </g>
     <g id="text_37">
      <!-- III -->
      <g transform="translate(418.359872 126.714996)rotate(-315)scale(0.07 -0.07)">
       <use xlink:href="#DejaVuSans-49"/>
       <use xlink:href="#DejaVuSans-49" x="29.492188"/>
       <use xlink:href="#DejaVuSans-49" x="58.984375"/>
      </g>
     </g>
    </g>
    <g id="xtick_15">
     <g id="line2d_69">
      <path d="M 435.45281 121.453961 
L 435.45281 9.859453 
" clip-path="url(#p22d0444d6f)" style="fill: none; stroke: #000000; stroke-opacity: 0.1; stroke-width: 0.5; stroke-linecap: square"/>
     </g>
     <g id="line2d_70">
      <g>
       <use xlink:href="#m39a9842f23" x="435.45281" y="121.453961" style="stroke: #000000; stroke-width: 0.5"/>
      </g>
     </g>
     <g id="text_38">
      <!-- II &amp; III -->
      <g transform="translate(426.933444 126.714996)rotate(-315)scale(0.07 -0.07)">
       <use xlink:href="#DejaVuSans-49"/>
       <use xlink:href="#DejaVuSans-49" x="29.492188"/>
       <use xlink:href="#DejaVuSans-20" x="58.984375"/>
       <use xlink:href="#DejaVuSans-26" x="90.771484"/>
       <use xlink:href="#DejaVuSans-20" x="168.75"/>
       <use xlink:href="#DejaVuSans-49" x="200.537109"/>
       <use xlink:href="#DejaVuSans-49" x="230.029297"/>
       <use xlink:href="#DejaVuSans-49" x="259.521484"/>
      </g>
     </g>
    </g>
    <g id="xtick_16">
     <g id="line2d_71">
      <path d="M 448.989664 121.453961 
L 448.989664 9.859453 
" clip-path="url(#p22d0444d6f)" style="fill: none; stroke: #000000; stroke-opacity: 0.1; stroke-width: 0.5; stroke-linecap: square"/>
     </g>
     <g id="line2d_72">
      <g>
       <use xlink:href="#m39a9842f23" x="448.989664" y="121.453961" style="stroke: #000000; stroke-width: 0.5"/>
      </g>
     </g>
     <g id="text_39">
      <!-- IV -->
      <g transform="translate(445.200787 126.714996)rotate(-315)scale(0.07 -0.07)">
       <use xlink:href="#DejaVuSans-49"/>
       <use xlink:href="#DejaVuSans-56" x="29.492188"/>
      </g>
     </g>
    </g>
   </g>
   <g id="matplotlib.axis_6">
    <g id="ytick_13">
     <g id="line2d_73">
      <path d="M 402.62594 116.421187 
L 454.742827 116.421187 
" clip-path="url(#p22d0444d6f)" style="fill: none; stroke: #000000; stroke-opacity: 0.1; stroke-width: 0.5; stroke-linecap: square"/>
     </g>
     <g id="line2d_74">
      <g>
       <use xlink:href="#m392d95a324" x="402.62594" y="116.421187" style="stroke: #000000; stroke-width: 0.5"/>
      </g>
     </g>
    </g>
    <g id="ytick_14">
     <g id="line2d_75">
      <path d="M 402.62594 95.10884 
L 454.742827 95.10884 
" clip-path="url(#p22d0444d6f)" style="fill: none; stroke: #000000; stroke-opacity: 0.1; stroke-width: 0.5; stroke-linecap: square"/>
     </g>
     <g id="line2d_76">
      <g>
       <use xlink:href="#m392d95a324" x="402.62594" y="95.10884" style="stroke: #000000; stroke-width: 0.5"/>
      </g>
     </g>
    </g>
    <g id="ytick_15">
     <g id="line2d_77">
      <path d="M 402.62594 73.796494 
L 454.742827 73.796494 
" clip-path="url(#p22d0444d6f)" style="fill: none; stroke: #000000; stroke-opacity: 0.1; stroke-width: 0.5; stroke-linecap: square"/>
     </g>
     <g id="line2d_78">
      <g>
       <use xlink:href="#m392d95a324" x="402.62594" y="73.796494" style="stroke: #000000; stroke-width: 0.5"/>
      </g>
     </g>
    </g>
    <g id="ytick_16">
     <g id="line2d_79">
      <path d="M 402.62594 52.484147 
L 454.742827 52.484147 
" clip-path="url(#p22d0444d6f)" style="fill: none; stroke: #000000; stroke-opacity: 0.1; stroke-width: 0.5; stroke-linecap: square"/>
     </g>
     <g id="line2d_80">
      <g>
       <use xlink:href="#m392d95a324" x="402.62594" y="52.484147" style="stroke: #000000; stroke-width: 0.5"/>
      </g>
     </g>
    </g>
    <g id="ytick_17">
     <g id="line2d_81">
      <path d="M 402.62594 31.1718 
L 454.742827 31.1718 
" clip-path="url(#p22d0444d6f)" style="fill: none; stroke: #000000; stroke-opacity: 0.1; stroke-width: 0.5; stroke-linecap: square"/>
     </g>
     <g id="line2d_82">
      <g>
       <use xlink:href="#m392d95a324" x="402.62594" y="31.1718" style="stroke: #000000; stroke-width: 0.5"/>
      </g>
     </g>
    </g>
    <g id="ytick_18">
     <g id="line2d_83">
      <path d="M 402.62594 9.859453 
L 454.742827 9.859453 
" clip-path="url(#p22d0444d6f)" style="fill: none; stroke: #000000; stroke-opacity: 0.1; stroke-width: 0.5; stroke-linecap: square"/>
     </g>
     <g id="line2d_84">
      <g>
       <use xlink:href="#m392d95a324" x="402.62594" y="9.859453" style="stroke: #000000; stroke-width: 0.5"/>
      </g>
     </g>
    </g>
   </g>
   <g id="LineCollection_1">
    <path d="M 406.686996 37.313185 
L 410.071209 37.313185 
" clip-path="url(#p22d0444d6f)" style="fill: none; stroke: #005ea8"/>
   </g>
   <g id="LineCollection_2">
    <path d="M 406.686996 58.559944 
L 410.071209 58.559944 
" clip-path="url(#p22d0444d6f)" style="fill: none; stroke: #005ea8"/>
   </g>
   <g id="LineCollection_3">
    <path d="M 408.379102 58.559944 
L 408.379102 37.313185 
" clip-path="url(#p22d0444d6f)" style="fill: none; stroke: #005ea8"/>
   </g>
   <g id="line2d_85">
    <path d="M 402.62594 48.27967 
L 454.742827 48.27967 
" clip-path="url(#p22d0444d6f)" style="fill: none; stroke-dasharray: 3.7,1.6; stroke-dashoffset: 0; stroke: #005ea8"/>
   </g>
   <g id="LineCollection_4">
    <path d="M 420.22385 73.470253 
L 423.608063 73.470253 
" clip-path="url(#p22d0444d6f)" style="fill: none; stroke: #f17900"/>
   </g>
   <g id="LineCollection_5">
    <path d="M 420.22385 96.252612 
L 423.608063 96.252612 
" clip-path="url(#p22d0444d6f)" style="fill: none; stroke: #f17900"/>
   </g>
   <g id="LineCollection_6">
    <path d="M 421.915956 96.252612 
L 421.915956 73.470253 
" clip-path="url(#p22d0444d6f)" style="fill: none; stroke: #f17900"/>
   </g>
   <g id="line2d_86">
    <path d="M 402.62594 85.974978 
L 454.742827 85.974978 
" clip-path="url(#p22d0444d6f)" style="fill: none; stroke-dasharray: 3.7,1.6; stroke-dashoffset: 0; stroke: #f17900"/>
   </g>
   <g id="LineCollection_7">
    <path d="M 433.760704 77.769685 
L 437.144917 77.769685 
" clip-path="url(#p22d0444d6f)" style="fill: none; stroke: #ae0060"/>
   </g>
   <g id="LineCollection_8">
    <path d="M 433.760704 100.695795 
L 437.144917 100.695795 
" clip-path="url(#p22d0444d6f)" style="fill: none; stroke: #ae0060"/>
   </g>
   <g id="LineCollection_9">
    <path d="M 435.45281 100.695795 
L 435.45281 77.769685 
" clip-path="url(#p22d0444d6f)" style="fill: none; stroke: #ae0060"/>
   </g>
   <g id="line2d_87">
    <path d="M 402.62594 89.599526 
L 454.742827 89.599526 
" clip-path="url(#p22d0444d6f)" style="fill: none; stroke-dasharray: 3.7,1.6; stroke-dashoffset: 0; stroke: #ae0060"/>
   </g>
   <g id="LineCollection_10">
    <path d="M 447.297557 93.005949 
L 450.681771 93.005949 
" clip-path="url(#p22d0444d6f)" style="fill: none; stroke: #00afa5"/>
   </g>
   <g id="LineCollection_11">
    <path d="M 447.297557 109.135388 
L 450.681771 109.135388 
" clip-path="url(#p22d0444d6f)" style="fill: none; stroke: #00afa5"/>
   </g>
   <g id="LineCollection_12">
    <path d="M 448.989664 109.135388 
L 448.989664 93.005949 
" clip-path="url(#p22d0444d6f)" style="fill: none; stroke: #00afa5"/>
   </g>
   <g id="line2d_88">
    <path d="M 402.62594 103.372812 
L 454.742827 103.372812 
" clip-path="url(#p22d0444d6f)" style="fill: none; stroke-dasharray: 3.7,1.6; stroke-dashoffset: 0; stroke: #00afa5"/>
   </g>
   <g id="patch_15">
    <path d="M 402.62594 121.453961 
L 402.62594 9.859453 
" style="fill: none; stroke: #000000; stroke-width: 0.5; stroke-linejoin: miter; stroke-linecap: square"/>
   </g>
   <g id="patch_16">
    <path d="M 454.742827 121.453961 
L 454.742827 9.859453 
" style="fill: none; stroke: #000000; stroke-width: 0.5; stroke-linejoin: miter; stroke-linecap: square"/>
   </g>
   <g id="patch_17">
    <path d="M 402.62594 121.453961 
L 454.742827 121.453961 
" style="fill: none; stroke: #000000; stroke-width: 0.5; stroke-linejoin: miter; stroke-linecap: square"/>
   </g>
   <g id="patch_18">
    <path d="M 402.62594 9.859453 
L 454.742827 9.859453 
" style="fill: none; stroke: #000000; stroke-width: 0.5; stroke-linejoin: miter; stroke-linecap: square"/>
   </g>
  </g>
 </g>
 <defs>
  <clipPath id="p85216a4ab7">
   <rect x="28.317813" y="9.859453" width="173.722959" height="111.594508"/>
  </clipPath>
  <clipPath id="p6435b0f624">
   <rect x="222.902501" y="9.859453" width="173.722959" height="111.594508"/>
  </clipPath>
  <clipPath id="p22d0444d6f">
   <rect x="402.62594" y="9.859453" width="52.116888" height="111.594508"/>
  </clipPath>
 </defs>
</svg>
