<?xml version="1.0" encoding="utf-8" standalone="no"?>
<!DOCTYPE svg PUBLIC "-//W3C//DTD SVG 1.1//EN"
  "http://www.w3.org/Graphics/SVG/1.1/DTD/svg11.dtd">
<svg xmlns:xlink="http://www.w3.org/1999/xlink" width="291.864087pt" height="183.593937pt" viewBox="0 0 291.864087 183.593937" xmlns="http://www.w3.org/2000/svg" version="1.1">
 <metadata>
  <rdf:RDF xmlns:dc="http://purl.org/dc/elements/1.1/" xmlns:cc="http://creativecommons.org/ns#" xmlns:rdf="http://www.w3.org/1999/02/22-rdf-syntax-ns#">
   <cc:Work>
    <dc:type rdf:resource="http://purl.org/dc/dcmitype/StillImage"/>
    <dc:date>2022-09-08T14:32:06.238151</dc:date>
    <dc:format>image/svg+xml</dc:format>
    <dc:creator>
     <cc:Agent>
      <dc:title>Matplotlib v3.5.3, https://matplotlib.org/</dc:title>
     </cc:Agent>
    </dc:creator>
   </cc:Work>
  </rdf:RDF>
 </metadata>
 <defs>
  <style type="text/css">*{stroke-linejoin: round; stroke-linecap: butt}</style>
 </defs>
 <g id="figure_1">
  <g id="patch_1">
   <path d="M 0 183.593937 
L 291.864087 183.593937 
L 291.864087 0 
L 0 0 
z
" style="fill: #ffffff"/>
  </g>
  <g id="axes_1">
   <g id="patch_2">
    <path d="M 35.285938 157.408937 
L 280.210337 157.408937 
L 280.210337 7.2 
L 35.285938 7.2 
z
" style="fill: #ffffff"/>
   </g>
   <g id="patch_3">
    <path d="M 35.285938 157.408937 
L 35.285938 157.408937 
L 40.284395 157.408937 
L 40.284395 157.408937 
L 45.282852 157.408937 
L 45.282852 157.408937 
L 50.281309 157.408937 
L 50.281309 157.408937 
L 55.279766 157.408937 
L 55.279766 157.408937 
L 60.278223 157.408937 
L 60.278223 157.408937 
L 65.27668 157.408937 
L 65.27668 157.021776 
L 70.275137 157.021776 
L 70.275137 156.441034 
L 75.273595 156.441034 
L 75.273595 153.730904 
L 80.272052 153.730904 
L 80.272052 145.406934 
L 85.270509 145.406934 
L 85.270509 120.628606 
L 90.268966 120.628606 
L 90.268966 89.849276 
L 95.267423 89.849276 
L 95.267423 56.746978 
L 100.26588 56.746978 
L 100.26588 14.352807 
L 105.264337 14.352807 
L 105.264337 31.968649 
L 110.262794 31.968649 
L 110.262794 55.779074 
L 115.261252 55.779074 
L 115.261252 83.267533 
L 120.259709 83.267533 
L 120.259709 109.013764 
L 125.258166 109.013764 
L 125.258166 125.080962 
L 130.256623 125.080962 
L 130.256623 143.664708 
L 135.25508 143.664708 
L 135.25508 150.827194 
L 140.253537 150.827194 
L 140.253537 152.956581 
L 145.251994 152.956581 
L 145.251994 156.441034 
L 150.250452 156.441034 
L 150.250452 157.021776 
L 155.248909 157.021776 
L 155.248909 156.634614 
L 160.247366 156.634614 
L 160.247366 157.021776 
L 165.245823 157.021776 
L 165.245823 157.408937 
L 170.24428 157.408937 
L 170.24428 157.408937 
L 175.242737 157.408937 
L 175.242737 157.408937 
L 180.241194 157.408937 
L 180.241194 157.408937 
L 185.239651 157.408937 
L 185.239651 157.408937 
L 190.238109 157.408937 
L 190.238109 157.408937 
L 195.236566 157.408937 
L 195.236566 157.408937 
L 200.235023 157.408937 
L 200.235023 157.408937 
L 205.23348 157.408937 
L 205.23348 157.408937 
L 210.231937 157.408937 
L 210.231937 157.408937 
L 215.230394 157.408937 
L 215.230394 157.408937 
L 220.228851 157.408937 
L 220.228851 157.408937 
L 225.227308 157.408937 
L 225.227308 157.408937 
L 230.225766 157.408937 
L 230.225766 157.408937 
L 235.224223 157.408937 
L 235.224223 157.408937 
L 240.22268 157.408937 
L 240.22268 157.408937 
L 245.221137 157.408937 
L 245.221137 157.408937 
L 250.219594 157.408937 
L 250.219594 157.408937 
L 255.218051 157.408937 
L 255.218051 157.408937 
L 260.216508 157.408937 
L 260.216508 157.408937 
L 265.214966 157.408937 
L 265.214966 157.408937 
L 270.213423 157.408937 
L 270.213423 157.408937 
L 275.21188 157.408937 
L 275.21188 157.408937 
L 280.210337 157.408937 
L 280.210337 157.408937 
L 275.21188 157.408937 
L 275.21188 157.408937 
L 270.213423 157.408937 
L 270.213423 157.408937 
L 265.214966 157.408937 
L 265.214966 157.408937 
L 260.216508 157.408937 
L 260.216508 157.408937 
L 255.218051 157.408937 
L 255.218051 157.408937 
L 250.219594 157.408937 
L 250.219594 157.408937 
L 245.221137 157.408937 
L 245.221137 157.408937 
L 240.22268 157.408937 
L 240.22268 157.408937 
L 235.224223 157.408937 
L 235.224223 157.408937 
L 230.225766 157.408937 
L 230.225766 157.408937 
L 225.227308 157.408937 
L 225.227308 157.408937 
L 220.228851 157.408937 
L 220.228851 157.408937 
L 215.230394 157.408937 
L 215.230394 157.408937 
L 210.231937 157.408937 
L 210.231937 157.408937 
L 205.23348 157.408937 
L 205.23348 157.408937 
L 200.235023 157.408937 
L 200.235023 157.408937 
L 195.236566 157.408937 
L 195.236566 157.408937 
L 190.238109 157.408937 
L 190.238109 157.408937 
L 185.239651 157.408937 
L 185.239651 157.408937 
L 180.241194 157.408937 
L 180.241194 157.408937 
L 175.242737 157.408937 
L 175.242737 157.408937 
L 170.24428 157.408937 
L 170.24428 157.408937 
L 165.245823 157.408937 
L 165.245823 157.408937 
L 160.247366 157.408937 
L 160.247366 157.408937 
L 155.248909 157.408937 
L 155.248909 157.408937 
L 150.250452 157.408937 
L 150.250452 157.408937 
L 145.251994 157.408937 
L 145.251994 157.408937 
L 140.253537 157.408937 
L 140.253537 157.408937 
L 135.25508 157.408937 
L 135.25508 157.408937 
L 130.256623 157.408937 
L 130.256623 157.408937 
L 125.258166 157.408937 
L 125.258166 157.408937 
L 120.259709 157.408937 
L 120.259709 157.408937 
L 115.261252 157.408937 
L 115.261252 157.408937 
L 110.262794 157.408937 
L 110.262794 157.408937 
L 105.264337 157.408937 
L 105.264337 157.408937 
L 100.26588 157.408937 
L 100.26588 157.408937 
L 95.267423 157.408937 
L 95.267423 157.408937 
L 90.268966 157.408937 
L 90.268966 157.408937 
L 85.270509 157.408937 
L 85.270509 157.408937 
L 80.272052 157.408937 
L 80.272052 157.408937 
L 75.273595 157.408937 
L 75.273595 157.408937 
L 70.275137 157.408937 
L 70.275137 157.408937 
L 65.27668 157.408937 
L 65.27668 157.408937 
L 60.278223 157.408937 
L 60.278223 157.408937 
L 55.279766 157.408937 
L 55.279766 157.408937 
L 50.281309 157.408937 
L 50.281309 157.408937 
L 45.282852 157.408937 
L 45.282852 157.408937 
L 40.284395 157.408937 
L 40.284395 157.408937 
z
" clip-path="url(#p60e23696a1)" style="fill: #00afa5"/>
   </g>
   <g id="patch_4">
    <path d="M 35.285938 157.408937 
L 35.285938 157.408937 
L 40.284395 157.408937 
L 40.284395 157.408937 
L 45.282852 157.408937 
L 45.282852 157.408937 
L 50.281309 157.408937 
L 50.281309 157.408937 
L 55.279766 157.408937 
L 55.279766 157.408937 
L 60.278223 157.408937 
L 60.278223 157.408937 
L 65.27668 157.408937 
L 65.27668 157.408937 
L 70.275137 157.408937 
L 70.275137 157.408937 
L 75.273595 157.408937 
L 75.273595 157.215356 
L 80.272052 157.215356 
L 80.272052 157.215356 
L 85.270509 157.215356 
L 85.270509 156.634614 
L 90.268966 156.634614 
L 90.268966 155.666711 
L 95.267423 155.666711 
L 95.267423 155.085969 
L 100.26588 155.085969 
L 100.26588 149.472129 
L 105.264337 149.472129 
L 105.264337 142.503224 
L 110.262794 142.503224 
L 110.262794 131.662705 
L 115.261252 131.662705 
L 115.261252 114.821185 
L 120.259709 114.821185 
L 120.259709 107.6587 
L 125.258166 107.6587 
L 125.258166 92.946567 
L 130.256623 92.946567 
L 130.256623 75.330724 
L 135.25508 75.330724 
L 135.25508 65.65169 
L 140.253537 65.65169 
L 140.253537 81.912468 
L 145.251994 81.912468 
L 145.251994 87.913469 
L 150.250452 87.913469 
L 150.250452 93.914471 
L 155.248909 93.914471 
L 155.248909 108.239442 
L 160.247366 108.239442 
L 160.247366 121.596509 
L 165.245823 121.596509 
L 165.245823 128.371833 
L 170.24428 128.371833 
L 170.24428 135.92148 
L 175.242737 135.92148 
L 175.242737 138.438029 
L 180.241194 138.438029 
L 180.241194 147.342741 
L 185.239651 147.342741 
L 185.239651 151.601516 
L 190.238109 151.601516 
L 190.238109 154.505227 
L 195.236566 154.505227 
L 195.236566 154.118065 
L 200.235023 154.118065 
L 200.235023 155.27955 
L 205.23348 155.27955 
L 205.23348 156.247453 
L 210.231937 156.247453 
L 210.231937 157.215356 
L 215.230394 157.215356 
L 215.230394 157.215356 
L 220.228851 157.215356 
L 220.228851 156.828195 
L 225.227308 156.828195 
L 225.227308 157.215356 
L 230.225766 157.215356 
L 230.225766 157.215356 
L 235.224223 157.215356 
L 235.224223 157.215356 
L 240.22268 157.215356 
L 240.22268 157.408937 
L 245.221137 157.408937 
L 245.221137 157.408937 
L 250.219594 157.408937 
L 250.219594 157.408937 
L 255.218051 157.408937 
L 255.218051 157.408937 
L 260.216508 157.408937 
L 260.216508 157.408937 
L 265.214966 157.408937 
L 265.214966 157.408937 
L 270.213423 157.408937 
L 270.213423 157.408937 
L 275.21188 157.408937 
L 275.21188 157.408937 
L 280.210337 157.408937 
L 280.210337 157.408937 
L 275.21188 157.408937 
L 275.21188 157.408937 
L 270.213423 157.408937 
L 270.213423 157.408937 
L 265.214966 157.408937 
L 265.214966 157.408937 
L 260.216508 157.408937 
L 260.216508 157.408937 
L 255.218051 157.408937 
L 255.218051 157.408937 
L 250.219594 157.408937 
L 250.219594 157.408937 
L 245.221137 157.408937 
L 245.221137 157.408937 
L 240.22268 157.408937 
L 240.22268 157.408937 
L 235.224223 157.408937 
L 235.224223 157.408937 
L 230.225766 157.408937 
L 230.225766 157.408937 
L 225.227308 157.408937 
L 225.227308 157.408937 
L 220.228851 157.408937 
L 220.228851 157.408937 
L 215.230394 157.408937 
L 215.230394 157.408937 
L 210.231937 157.408937 
L 210.231937 157.408937 
L 205.23348 157.408937 
L 205.23348 157.408937 
L 200.235023 157.408937 
L 200.235023 157.408937 
L 195.236566 157.408937 
L 195.236566 157.408937 
L 190.238109 157.408937 
L 190.238109 157.408937 
L 185.239651 157.408937 
L 185.239651 157.408937 
L 180.241194 157.408937 
L 180.241194 157.408937 
L 175.242737 157.408937 
L 175.242737 157.408937 
L 170.24428 157.408937 
L 170.24428 157.408937 
L 165.245823 157.408937 
L 165.245823 157.408937 
L 160.247366 157.408937 
L 160.247366 157.408937 
L 155.248909 157.408937 
L 155.248909 157.408937 
L 150.250452 157.408937 
L 150.250452 157.408937 
L 145.251994 157.408937 
L 145.251994 157.408937 
L 140.253537 157.408937 
L 140.253537 157.408937 
L 135.25508 157.408937 
L 135.25508 157.408937 
L 130.256623 157.408937 
L 130.256623 157.408937 
L 125.258166 157.408937 
L 125.258166 157.408937 
L 120.259709 157.408937 
L 120.259709 157.408937 
L 115.261252 157.408937 
L 115.261252 157.408937 
L 110.262794 157.408937 
L 110.262794 157.408937 
L 105.264337 157.408937 
L 105.264337 157.408937 
L 100.26588 157.408937 
L 100.26588 157.408937 
L 95.267423 157.408937 
L 95.267423 157.408937 
L 90.268966 157.408937 
L 90.268966 157.408937 
L 85.270509 157.408937 
L 85.270509 157.408937 
L 80.272052 157.408937 
L 80.272052 157.408937 
L 75.273595 157.408937 
L 75.273595 157.408937 
L 70.275137 157.408937 
L 70.275137 157.408937 
L 65.27668 157.408937 
L 65.27668 157.408937 
L 60.278223 157.408937 
L 60.278223 157.408937 
L 55.279766 157.408937 
L 55.279766 157.408937 
L 50.281309 157.408937 
L 50.281309 157.408937 
L 45.282852 157.408937 
L 45.282852 157.408937 
L 40.284395 157.408937 
L 40.284395 157.408937 
z
" clip-path="url(#p60e23696a1)" style="fill: #f17900; opacity: 0.8"/>
   </g>
   <g id="patch_5">
    <path d="M 35.285938 157.408937 
L 35.285938 157.408937 
L 40.284395 157.408937 
L 40.284395 157.408937 
L 45.282852 157.408937 
L 45.282852 157.408937 
L 50.281309 157.408937 
L 50.281309 157.408937 
L 55.279766 157.408937 
L 55.279766 157.408937 
L 60.278223 157.408937 
L 60.278223 157.408937 
L 65.27668 157.408937 
L 65.27668 157.408937 
L 70.275137 157.408937 
L 70.275137 157.408937 
L 75.273595 157.408937 
L 75.273595 157.408937 
L 80.272052 157.408937 
L 80.272052 157.408937 
L 85.270509 157.408937 
L 85.270509 157.408937 
L 90.268966 157.408937 
L 90.268966 157.215017 
L 95.267423 157.215017 
L 95.267423 157.021097 
L 100.26588 157.021097 
L 100.26588 157.021097 
L 105.264337 157.021097 
L 105.264337 157.021097 
L 110.262794 157.021097 
L 110.262794 155.469737 
L 115.261252 155.469737 
L 115.261252 155.275817 
L 120.259709 155.275817 
L 120.259709 152.560936 
L 125.258166 152.560936 
L 125.258166 150.621735 
L 130.256623 150.621735 
L 130.256623 144.804134 
L 135.25508 144.804134 
L 135.25508 139.956133 
L 140.253537 139.956133 
L 140.253537 131.03581 
L 145.251994 131.03581 
L 145.251994 127.933089 
L 150.250452 127.933089 
L 150.250452 124.248608 
L 155.248909 124.248608 
L 155.248909 118.043167 
L 160.247366 118.043167 
L 160.247366 104.080923 
L 165.245823 104.080923 
L 165.245823 98.069402 
L 170.24428 98.069402 
L 170.24428 104.662683 
L 175.242737 104.662683 
L 175.242737 95.354521 
L 180.241194 95.354521 
L 180.241194 103.693083 
L 185.239651 103.693083 
L 185.239651 110.092445 
L 190.238109 110.092445 
L 190.238109 107.571484 
L 195.236566 107.571484 
L 195.236566 119.400607 
L 200.235023 119.400607 
L 200.235023 120.176287 
L 205.23348 120.176287 
L 205.23348 131.81149 
L 210.231937 131.81149 
L 210.231937 133.168931 
L 215.230394 133.168931 
L 215.230394 135.108131 
L 220.228851 135.108131 
L 220.228851 140.537893 
L 225.227308 140.537893 
L 225.227308 143.640614 
L 230.225766 143.640614 
L 230.225766 142.864933 
L 235.224223 142.864933 
L 235.224223 150.815655 
L 240.22268 150.815655 
L 240.22268 151.203496 
L 245.221137 151.203496 
L 245.221137 152.948776 
L 250.219594 152.948776 
L 250.219594 155.275817 
L 255.218051 155.275817 
L 255.218051 154.694056 
L 260.216508 154.694056 
L 260.216508 155.469737 
L 265.214966 155.469737 
L 265.214966 155.663657 
L 270.213423 155.663657 
L 270.213423 156.051497 
L 275.21188 156.051497 
L 275.21188 156.633257 
L 280.210337 156.633257 
L 280.210337 157.408937 
L 275.21188 157.408937 
L 275.21188 157.408937 
L 270.213423 157.408937 
L 270.213423 157.408937 
L 265.214966 157.408937 
L 265.214966 157.408937 
L 260.216508 157.408937 
L 260.216508 157.408937 
L 255.218051 157.408937 
L 255.218051 157.408937 
L 250.219594 157.408937 
L 250.219594 157.408937 
L 245.221137 157.408937 
L 245.221137 157.408937 
L 240.22268 157.408937 
L 240.22268 157.408937 
L 235.224223 157.408937 
L 235.224223 157.408937 
L 230.225766 157.408937 
L 230.225766 157.408937 
L 225.227308 157.408937 
L 225.227308 157.408937 
L 220.228851 157.408937 
L 220.228851 157.408937 
L 215.230394 157.408937 
L 215.230394 157.408937 
L 210.231937 157.408937 
L 210.231937 157.408937 
L 205.23348 157.408937 
L 205.23348 157.408937 
L 200.235023 157.408937 
L 200.235023 157.408937 
L 195.236566 157.408937 
L 195.236566 157.408937 
L 190.238109 157.408937 
L 190.238109 157.408937 
L 185.239651 157.408937 
L 185.239651 157.408937 
L 180.241194 157.408937 
L 180.241194 157.408937 
L 175.242737 157.408937 
L 175.242737 157.408937 
L 170.24428 157.408937 
L 170.24428 157.408937 
L 165.245823 157.408937 
L 165.245823 157.408937 
L 160.247366 157.408937 
L 160.247366 157.408937 
L 155.248909 157.408937 
L 155.248909 157.408937 
L 150.250452 157.408937 
L 150.250452 157.408937 
L 145.251994 157.408937 
L 145.251994 157.408937 
L 140.253537 157.408937 
L 140.253537 157.408937 
L 135.25508 157.408937 
L 135.25508 157.408937 
L 130.256623 157.408937 
L 130.256623 157.408937 
L 125.258166 157.408937 
L 125.258166 157.408937 
L 120.259709 157.408937 
L 120.259709 157.408937 
L 115.261252 157.408937 
L 115.261252 157.408937 
L 110.262794 157.408937 
L 110.262794 157.408937 
L 105.264337 157.408937 
L 105.264337 157.408937 
L 100.26588 157.408937 
L 100.26588 157.408937 
L 95.267423 157.408937 
L 95.267423 157.408937 
L 90.268966 157.408937 
L 90.268966 157.408937 
L 85.270509 157.408937 
L 85.270509 157.408937 
L 80.272052 157.408937 
L 80.272052 157.408937 
L 75.273595 157.408937 
L 75.273595 157.408937 
L 70.275137 157.408937 
L 70.275137 157.408937 
L 65.27668 157.408937 
L 65.27668 157.408937 
L 60.278223 157.408937 
L 60.278223 157.408937 
L 55.279766 157.408937 
L 55.279766 157.408937 
L 50.281309 157.408937 
L 50.281309 157.408937 
L 45.282852 157.408937 
L 45.282852 157.408937 
L 40.284395 157.408937 
L 40.284395 157.408937 
z
" clip-path="url(#p60e23696a1)" style="fill: #ae0060; opacity: 0.8"/>
   </g>
   <g id="matplotlib.axis_1">
    <g id="xtick_1">
     <g id="line2d_1">
      <path d="M 35.285938 157.408937 
L 35.285938 7.2 
" clip-path="url(#p60e23696a1)" style="fill: none; stroke: #000000; stroke-opacity: 0.1; stroke-width: 0.5; stroke-linecap: square"/>
     </g>
     <g id="line2d_2">
      <defs>
       <path id="m096045fb83" d="M 0 0 
L 0 -3 
" style="stroke: #000000; stroke-width: 0.5"/>
      </defs>
      <g>
       <use xlink:href="#m096045fb83" x="35.285938" y="157.408937" style="stroke: #000000; stroke-width: 0.5"/>
      </g>
     </g>
     <g id="text_1">
      <!-- 0 -->
      <g transform="translate(33.059063 164.227843)scale(0.07 -0.07)">
       <defs>
        <path id="DejaVuSans-30" d="M 2034 4250 
Q 1547 4250 1301 3770 
Q 1056 3291 1056 2328 
Q 1056 1369 1301 889 
Q 1547 409 2034 409 
Q 2525 409 2770 889 
Q 3016 1369 3016 2328 
Q 3016 3291 2770 3770 
Q 2525 4250 2034 4250 
z
M 2034 4750 
Q 2819 4750 3233 4129 
Q 3647 3509 3647 2328 
Q 3647 1150 3233 529 
Q 2819 -91 2034 -91 
Q 1250 -91 836 529 
Q 422 1150 422 2328 
Q 422 3509 836 4129 
Q 1250 4750 2034 4750 
z
" transform="scale(0.015625)"/>
       </defs>
       <use xlink:href="#DejaVuSans-30"/>
      </g>
     </g>
    </g>
    <g id="xtick_2">
     <g id="line2d_3">
      <path d="M 70.275137 157.408937 
L 70.275137 7.2 
" clip-path="url(#p60e23696a1)" style="fill: none; stroke: #000000; stroke-opacity: 0.1; stroke-width: 0.5; stroke-linecap: square"/>
     </g>
     <g id="line2d_4">
      <g>
       <use xlink:href="#m096045fb83" x="70.275137" y="157.408937" style="stroke: #000000; stroke-width: 0.5"/>
      </g>
     </g>
     <g id="text_2">
      <!-- 5 -->
      <g transform="translate(68.048262 164.227843)scale(0.07 -0.07)">
       <defs>
        <path id="DejaVuSans-35" d="M 691 4666 
L 3169 4666 
L 3169 4134 
L 1269 4134 
L 1269 2991 
Q 1406 3038 1543 3061 
Q 1681 3084 1819 3084 
Q 2600 3084 3056 2656 
Q 3513 2228 3513 1497 
Q 3513 744 3044 326 
Q 2575 -91 1722 -91 
Q 1428 -91 1123 -41 
Q 819 9 494 109 
L 494 744 
Q 775 591 1075 516 
Q 1375 441 1709 441 
Q 2250 441 2565 725 
Q 2881 1009 2881 1497 
Q 2881 1984 2565 2268 
Q 2250 2553 1709 2553 
Q 1456 2553 1204 2497 
Q 953 2441 691 2322 
L 691 4666 
z
" transform="scale(0.015625)"/>
       </defs>
       <use xlink:href="#DejaVuSans-35"/>
      </g>
     </g>
    </g>
    <g id="xtick_3">
     <g id="line2d_5">
      <path d="M 105.264337 157.408937 
L 105.264337 7.2 
" clip-path="url(#p60e23696a1)" style="fill: none; stroke: #000000; stroke-opacity: 0.1; stroke-width: 0.5; stroke-linecap: square"/>
     </g>
     <g id="line2d_6">
      <g>
       <use xlink:href="#m096045fb83" x="105.264337" y="157.408937" style="stroke: #000000; stroke-width: 0.5"/>
      </g>
     </g>
     <g id="text_3">
      <!-- 10 -->
      <g transform="translate(100.810587 164.227843)scale(0.07 -0.07)">
       <defs>
        <path id="DejaVuSans-31" d="M 794 531 
L 1825 531 
L 1825 4091 
L 703 3866 
L 703 4441 
L 1819 4666 
L 2450 4666 
L 2450 531 
L 3481 531 
L 3481 0 
L 794 0 
L 794 531 
z
" transform="scale(0.015625)"/>
       </defs>
       <use xlink:href="#DejaVuSans-31"/>
       <use xlink:href="#DejaVuSans-30" x="63.623047"/>
      </g>
     </g>
    </g>
    <g id="xtick_4">
     <g id="line2d_7">
      <path d="M 140.253537 157.408937 
L 140.253537 7.2 
" clip-path="url(#p60e23696a1)" style="fill: none; stroke: #000000; stroke-opacity: 0.1; stroke-width: 0.5; stroke-linecap: square"/>
     </g>
     <g id="line2d_8">
      <g>
       <use xlink:href="#m096045fb83" x="140.253537" y="157.408937" style="stroke: #000000; stroke-width: 0.5"/>
      </g>
     </g>
     <g id="text_4">
      <!-- 15 -->
      <g transform="translate(135.799787 164.227843)scale(0.07 -0.07)">
       <use xlink:href="#DejaVuSans-31"/>
       <use xlink:href="#DejaVuSans-35" x="63.623047"/>
      </g>
     </g>
    </g>
    <g id="xtick_5">
     <g id="line2d_9">
      <path d="M 175.242737 157.408937 
L 175.242737 7.2 
" clip-path="url(#p60e23696a1)" style="fill: none; stroke: #000000; stroke-opacity: 0.1; stroke-width: 0.5; stroke-linecap: square"/>
     </g>
     <g id="line2d_10">
      <g>
       <use xlink:href="#m096045fb83" x="175.242737" y="157.408937" style="stroke: #000000; stroke-width: 0.5"/>
      </g>
     </g>
     <g id="text_5">
      <!-- 20 -->
      <g transform="translate(170.788987 164.227843)scale(0.07 -0.07)">
       <defs>
        <path id="DejaVuSans-32" d="M 1228 531 
L 3431 531 
L 3431 0 
L 469 0 
L 469 531 
Q 828 903 1448 1529 
Q 2069 2156 2228 2338 
Q 2531 2678 2651 2914 
Q 2772 3150 2772 3378 
Q 2772 3750 2511 3984 
Q 2250 4219 1831 4219 
Q 1534 4219 1204 4116 
Q 875 4013 500 3803 
L 500 4441 
Q 881 4594 1212 4672 
Q 1544 4750 1819 4750 
Q 2544 4750 2975 4387 
Q 3406 4025 3406 3419 
Q 3406 3131 3298 2873 
Q 3191 2616 2906 2266 
Q 2828 2175 2409 1742 
Q 1991 1309 1228 531 
z
" transform="scale(0.015625)"/>
       </defs>
       <use xlink:href="#DejaVuSans-32"/>
       <use xlink:href="#DejaVuSans-30" x="63.623047"/>
      </g>
     </g>
    </g>
    <g id="xtick_6">
     <g id="line2d_11">
      <path d="M 210.231937 157.408937 
L 210.231937 7.2 
" clip-path="url(#p60e23696a1)" style="fill: none; stroke: #000000; stroke-opacity: 0.1; stroke-width: 0.5; stroke-linecap: square"/>
     </g>
     <g id="line2d_12">
      <g>
       <use xlink:href="#m096045fb83" x="210.231937" y="157.408937" style="stroke: #000000; stroke-width: 0.5"/>
      </g>
     </g>
     <g id="text_6">
      <!-- 25 -->
      <g transform="translate(205.778187 164.227843)scale(0.07 -0.07)">
       <use xlink:href="#DejaVuSans-32"/>
       <use xlink:href="#DejaVuSans-35" x="63.623047"/>
      </g>
     </g>
    </g>
    <g id="xtick_7">
     <g id="line2d_13">
      <path d="M 245.221137 157.408937 
L 245.221137 7.2 
" clip-path="url(#p60e23696a1)" style="fill: none; stroke: #000000; stroke-opacity: 0.1; stroke-width: 0.5; stroke-linecap: square"/>
     </g>
     <g id="line2d_14">
      <g>
       <use xlink:href="#m096045fb83" x="245.221137" y="157.408937" style="stroke: #000000; stroke-width: 0.5"/>
      </g>
     </g>
     <g id="text_7">
      <!-- 30 -->
      <g transform="translate(240.767387 164.227843)scale(0.07 -0.07)">
       <defs>
        <path id="DejaVuSans-33" d="M 2597 2516 
Q 3050 2419 3304 2112 
Q 3559 1806 3559 1356 
Q 3559 666 3084 287 
Q 2609 -91 1734 -91 
Q 1441 -91 1130 -33 
Q 819 25 488 141 
L 488 750 
Q 750 597 1062 519 
Q 1375 441 1716 441 
Q 2309 441 2620 675 
Q 2931 909 2931 1356 
Q 2931 1769 2642 2001 
Q 2353 2234 1838 2234 
L 1294 2234 
L 1294 2753 
L 1863 2753 
Q 2328 2753 2575 2939 
Q 2822 3125 2822 3475 
Q 2822 3834 2567 4026 
Q 2313 4219 1838 4219 
Q 1578 4219 1281 4162 
Q 984 4106 628 3988 
L 628 4550 
Q 988 4650 1302 4700 
Q 1616 4750 1894 4750 
Q 2613 4750 3031 4423 
Q 3450 4097 3450 3541 
Q 3450 3153 3228 2886 
Q 3006 2619 2597 2516 
z
" transform="scale(0.015625)"/>
       </defs>
       <use xlink:href="#DejaVuSans-33"/>
       <use xlink:href="#DejaVuSans-30" x="63.623047"/>
      </g>
     </g>
    </g>
    <g id="xtick_8">
     <g id="line2d_15">
      <path d="M 280.210337 157.408937 
L 280.210337 7.2 
" clip-path="url(#p60e23696a1)" style="fill: none; stroke: #000000; stroke-opacity: 0.1; stroke-width: 0.5; stroke-linecap: square"/>
     </g>
     <g id="line2d_16">
      <g>
       <use xlink:href="#m096045fb83" x="280.210337" y="157.408937" style="stroke: #000000; stroke-width: 0.5"/>
      </g>
     </g>
     <g id="text_8">
      <!-- 35 -->
      <g transform="translate(275.756587 164.227843)scale(0.07 -0.07)">
       <use xlink:href="#DejaVuSans-33"/>
       <use xlink:href="#DejaVuSans-35" x="63.623047"/>
      </g>
     </g>
    </g>
    <g id="text_9">
     <!-- risk $R$ [%] -->
     <g transform="translate(135.608137 174.522218)scale(0.09 -0.09)">
      <defs>
       <path id="DejaVuSans-72" d="M 2631 2963 
Q 2534 3019 2420 3045 
Q 2306 3072 2169 3072 
Q 1681 3072 1420 2755 
Q 1159 2438 1159 1844 
L 1159 0 
L 581 0 
L 581 3500 
L 1159 3500 
L 1159 2956 
Q 1341 3275 1631 3429 
Q 1922 3584 2338 3584 
Q 2397 3584 2469 3576 
Q 2541 3569 2628 3553 
L 2631 2963 
z
" transform="scale(0.015625)"/>
       <path id="DejaVuSans-69" d="M 603 3500 
L 1178 3500 
L 1178 0 
L 603 0 
L 603 3500 
z
M 603 4863 
L 1178 4863 
L 1178 4134 
L 603 4134 
L 603 4863 
z
" transform="scale(0.015625)"/>
       <path id="DejaVuSans-73" d="M 2834 3397 
L 2834 2853 
Q 2591 2978 2328 3040 
Q 2066 3103 1784 3103 
Q 1356 3103 1142 2972 
Q 928 2841 928 2578 
Q 928 2378 1081 2264 
Q 1234 2150 1697 2047 
L 1894 2003 
Q 2506 1872 2764 1633 
Q 3022 1394 3022 966 
Q 3022 478 2636 193 
Q 2250 -91 1575 -91 
Q 1294 -91 989 -36 
Q 684 19 347 128 
L 347 722 
Q 666 556 975 473 
Q 1284 391 1588 391 
Q 1994 391 2212 530 
Q 2431 669 2431 922 
Q 2431 1156 2273 1281 
Q 2116 1406 1581 1522 
L 1381 1569 
Q 847 1681 609 1914 
Q 372 2147 372 2553 
Q 372 3047 722 3315 
Q 1072 3584 1716 3584 
Q 2034 3584 2315 3537 
Q 2597 3491 2834 3397 
z
" transform="scale(0.015625)"/>
       <path id="DejaVuSans-6b" d="M 581 4863 
L 1159 4863 
L 1159 1991 
L 2875 3500 
L 3609 3500 
L 1753 1863 
L 3688 0 
L 2938 0 
L 1159 1709 
L 1159 0 
L 581 0 
L 581 4863 
z
" transform="scale(0.015625)"/>
       <path id="DejaVuSans-20" transform="scale(0.015625)"/>
       <path id="Cmmi10-52" d="M 313 0 
Q 250 0 250 84 
Q 253 100 262 139 
Q 272 178 289 201 
Q 306 225 331 225 
Q 722 225 878 269 
Q 959 297 997 441 
L 1875 3956 
Q 1888 4019 1888 4044 
Q 1888 4113 1813 4122 
Q 1691 4147 1350 4147 
Q 1288 4147 1288 4231 
Q 1291 4247 1300 4286 
Q 1309 4325 1326 4348 
Q 1344 4372 1369 4372 
L 3309 4372 
Q 3541 4372 3791 4319 
Q 4041 4266 4250 4152 
Q 4459 4038 4593 3848 
Q 4728 3659 4728 3406 
Q 4728 3084 4515 2831 
Q 4303 2578 3978 2408 
Q 3653 2238 3347 2169 
Q 3597 2078 3756 1879 
Q 3916 1681 3916 1422 
Q 3916 1388 3914 1370 
Q 3913 1353 3909 1331 
L 3859 763 
Q 3853 638 3847 550 
Q 3841 463 3841 409 
Q 3841 234 3892 129 
Q 3944 25 4097 25 
Q 4297 25 4448 211 
Q 4600 397 4647 616 
Q 4675 672 4709 672 
L 4769 672 
Q 4831 672 4831 588 
Q 4784 403 4682 237 
Q 4581 72 4426 -34 
Q 4272 -141 4091 -141 
Q 3716 -141 3452 26 
Q 3188 194 3188 550 
Q 3188 684 3213 788 
L 3353 1356 
Q 3378 1434 3378 1538 
Q 3378 1803 3198 1954 
Q 3019 2106 2747 2106 
L 1959 2106 
L 1538 416 
Q 1522 363 1522 325 
Q 1522 259 1600 250 
Q 1722 225 2059 225 
Q 2125 225 2125 141 
Q 2103 50 2090 25 
Q 2078 0 2016 0 
L 313 0 
z
M 1997 2272 
L 2706 2272 
Q 3403 2272 3756 2625 
Q 3919 2788 4014 3039 
Q 4109 3291 4109 3541 
Q 4109 3778 3970 3912 
Q 3831 4047 3626 4097 
Q 3422 4147 3175 4147 
L 2747 4147 
Q 2572 4147 2515 4117 
Q 2459 4088 2413 3928 
L 1997 2272 
z
" transform="scale(0.015625)"/>
       <path id="DejaVuSans-5b" d="M 550 4863 
L 1875 4863 
L 1875 4416 
L 1125 4416 
L 1125 -397 
L 1875 -397 
L 1875 -844 
L 550 -844 
L 550 4863 
z
" transform="scale(0.015625)"/>
       <path id="DejaVuSans-25" d="M 4653 2053 
Q 4381 2053 4226 1822 
Q 4072 1591 4072 1178 
Q 4072 772 4226 539 
Q 4381 306 4653 306 
Q 4919 306 5073 539 
Q 5228 772 5228 1178 
Q 5228 1588 5073 1820 
Q 4919 2053 4653 2053 
z
M 4653 2450 
Q 5147 2450 5437 2106 
Q 5728 1763 5728 1178 
Q 5728 594 5436 251 
Q 5144 -91 4653 -91 
Q 4153 -91 3862 251 
Q 3572 594 3572 1178 
Q 3572 1766 3864 2108 
Q 4156 2450 4653 2450 
z
M 1428 4353 
Q 1159 4353 1004 4120 
Q 850 3888 850 3481 
Q 850 3069 1003 2837 
Q 1156 2606 1428 2606 
Q 1700 2606 1854 2837 
Q 2009 3069 2009 3481 
Q 2009 3884 1853 4118 
Q 1697 4353 1428 4353 
z
M 4250 4750 
L 4750 4750 
L 1831 -91 
L 1331 -91 
L 4250 4750 
z
M 1428 4750 
Q 1922 4750 2215 4408 
Q 2509 4066 2509 3481 
Q 2509 2891 2217 2550 
Q 1925 2209 1428 2209 
Q 931 2209 642 2551 
Q 353 2894 353 3481 
Q 353 4063 643 4406 
Q 934 4750 1428 4750 
z
" transform="scale(0.015625)"/>
       <path id="DejaVuSans-5d" d="M 1947 4863 
L 1947 -844 
L 622 -844 
L 622 -397 
L 1369 -397 
L 1369 4416 
L 622 4416 
L 622 4863 
L 1947 4863 
z
" transform="scale(0.015625)"/>
      </defs>
      <use xlink:href="#DejaVuSans-72" transform="translate(0 0.015625)"/>
      <use xlink:href="#DejaVuSans-69" transform="translate(41.113281 0.015625)"/>
      <use xlink:href="#DejaVuSans-73" transform="translate(68.896484 0.015625)"/>
      <use xlink:href="#DejaVuSans-6b" transform="translate(120.996094 0.015625)"/>
      <use xlink:href="#DejaVuSans-20" transform="translate(178.90625 0.015625)"/>
      <use xlink:href="#Cmmi10-52" transform="translate(210.693359 0.015625)"/>
      <use xlink:href="#DejaVuSans-20" transform="translate(286.572266 0.015625)"/>
      <use xlink:href="#DejaVuSans-5b" transform="translate(318.359375 0.015625)"/>
      <use xlink:href="#DejaVuSans-25" transform="translate(357.373047 0.015625)"/>
      <use xlink:href="#DejaVuSans-5d" transform="translate(452.392578 0.015625)"/>
     </g>
    </g>
   </g>
   <g id="matplotlib.axis_2">
    <g id="ytick_1">
     <g id="line2d_17">
      <path d="M 35.285938 157.408937 
L 280.210337 157.408937 
" clip-path="url(#p60e23696a1)" style="fill: none; stroke: #000000; stroke-opacity: 0.1; stroke-width: 0.5; stroke-linecap: square"/>
     </g>
     <g id="line2d_18">
      <defs>
       <path id="m05145ce4a4" d="M 0 0 
L 3 0 
" style="stroke: #000000; stroke-width: 0.5"/>
      </defs>
      <g>
       <use xlink:href="#m05145ce4a4" x="35.285938" y="157.408937" style="stroke: #000000; stroke-width: 0.5"/>
      </g>
     </g>
     <g id="text_10">
      <!-- 0.00 -->
      <g transform="translate(18.2 160.06839)scale(0.07 -0.07)">
       <defs>
        <path id="DejaVuSans-2e" d="M 684 794 
L 1344 794 
L 1344 0 
L 684 0 
L 684 794 
z
" transform="scale(0.015625)"/>
       </defs>
       <use xlink:href="#DejaVuSans-30"/>
       <use xlink:href="#DejaVuSans-2e" x="63.623047"/>
       <use xlink:href="#DejaVuSans-30" x="95.410156"/>
       <use xlink:href="#DejaVuSans-30" x="159.033203"/>
      </g>
     </g>
    </g>
    <g id="ytick_2">
     <g id="line2d_19">
      <path d="M 35.285938 129.754553 
L 280.210337 129.754553 
" clip-path="url(#p60e23696a1)" style="fill: none; stroke: #000000; stroke-opacity: 0.1; stroke-width: 0.5; stroke-linecap: square"/>
     </g>
     <g id="line2d_20">
      <g>
       <use xlink:href="#m05145ce4a4" x="35.285938" y="129.754553" style="stroke: #000000; stroke-width: 0.5"/>
      </g>
     </g>
     <g id="text_11">
      <!-- 0.05 -->
      <g transform="translate(18.2 132.414006)scale(0.07 -0.07)">
       <use xlink:href="#DejaVuSans-30"/>
       <use xlink:href="#DejaVuSans-2e" x="63.623047"/>
       <use xlink:href="#DejaVuSans-30" x="95.410156"/>
       <use xlink:href="#DejaVuSans-35" x="159.033203"/>
      </g>
     </g>
    </g>
    <g id="ytick_3">
     <g id="line2d_21">
      <path d="M 35.285938 102.100168 
L 280.210337 102.100168 
" clip-path="url(#p60e23696a1)" style="fill: none; stroke: #000000; stroke-opacity: 0.1; stroke-width: 0.5; stroke-linecap: square"/>
     </g>
     <g id="line2d_22">
      <g>
       <use xlink:href="#m05145ce4a4" x="35.285938" y="102.100168" style="stroke: #000000; stroke-width: 0.5"/>
      </g>
     </g>
     <g id="text_12">
      <!-- 0.10 -->
      <g transform="translate(18.2 104.759621)scale(0.07 -0.07)">
       <use xlink:href="#DejaVuSans-30"/>
       <use xlink:href="#DejaVuSans-2e" x="63.623047"/>
       <use xlink:href="#DejaVuSans-31" x="95.410156"/>
       <use xlink:href="#DejaVuSans-30" x="159.033203"/>
      </g>
     </g>
    </g>
    <g id="ytick_4">
     <g id="line2d_23">
      <path d="M 35.285938 74.445784 
L 280.210337 74.445784 
" clip-path="url(#p60e23696a1)" style="fill: none; stroke: #000000; stroke-opacity: 0.1; stroke-width: 0.5; stroke-linecap: square"/>
     </g>
     <g id="line2d_24">
      <g>
       <use xlink:href="#m05145ce4a4" x="35.285938" y="74.445784" style="stroke: #000000; stroke-width: 0.5"/>
      </g>
     </g>
     <g id="text_13">
      <!-- 0.15 -->
      <g transform="translate(18.2 77.105237)scale(0.07 -0.07)">
       <use xlink:href="#DejaVuSans-30"/>
       <use xlink:href="#DejaVuSans-2e" x="63.623047"/>
       <use xlink:href="#DejaVuSans-31" x="95.410156"/>
       <use xlink:href="#DejaVuSans-35" x="159.033203"/>
      </g>
     </g>
    </g>
    <g id="ytick_5">
     <g id="line2d_25">
      <path d="M 35.285938 46.791399 
L 280.210337 46.791399 
" clip-path="url(#p60e23696a1)" style="fill: none; stroke: #000000; stroke-opacity: 0.1; stroke-width: 0.5; stroke-linecap: square"/>
     </g>
     <g id="line2d_26">
      <g>
       <use xlink:href="#m05145ce4a4" x="35.285938" y="46.791399" style="stroke: #000000; stroke-width: 0.5"/>
      </g>
     </g>
     <g id="text_14">
      <!-- 0.20 -->
      <g transform="translate(18.2 49.450853)scale(0.07 -0.07)">
       <use xlink:href="#DejaVuSans-30"/>
       <use xlink:href="#DejaVuSans-2e" x="63.623047"/>
       <use xlink:href="#DejaVuSans-32" x="95.410156"/>
       <use xlink:href="#DejaVuSans-30" x="159.033203"/>
      </g>
     </g>
    </g>
    <g id="ytick_6">
     <g id="line2d_27">
      <path d="M 35.285938 19.137015 
L 280.210337 19.137015 
" clip-path="url(#p60e23696a1)" style="fill: none; stroke: #000000; stroke-opacity: 0.1; stroke-width: 0.5; stroke-linecap: square"/>
     </g>
     <g id="line2d_28">
      <g>
       <use xlink:href="#m05145ce4a4" x="35.285938" y="19.137015" style="stroke: #000000; stroke-width: 0.5"/>
      </g>
     </g>
     <g id="text_15">
      <!-- 0.25 -->
      <g transform="translate(18.2 21.796468)scale(0.07 -0.07)">
       <use xlink:href="#DejaVuSans-30"/>
       <use xlink:href="#DejaVuSans-2e" x="63.623047"/>
       <use xlink:href="#DejaVuSans-32" x="95.410156"/>
       <use xlink:href="#DejaVuSans-35" x="159.033203"/>
      </g>
     </g>
    </g>
    <g id="text_16">
     <!-- $p(R)$ -->
     <g transform="translate(13.95 91.484469)rotate(-90)scale(0.09 -0.09)">
      <defs>
       <path id="Cmmi10-70" d="M -159 -1241 
Q -219 -1241 -219 -1159 
Q -197 -1019 -134 -1019 
Q 66 -1019 145 -983 
Q 225 -947 269 -800 
L 991 2081 
Q 1038 2200 1038 2388 
Q 1038 2663 850 2663 
Q 650 2663 553 2423 
Q 456 2184 366 1819 
Q 366 1778 313 1778 
L 238 1778 
Q 222 1778 203 1801 
Q 184 1825 184 1844 
Q 253 2122 317 2315 
Q 381 2509 517 2668 
Q 653 2828 856 2828 
Q 1075 2828 1240 2704 
Q 1406 2581 1453 2369 
Q 1628 2572 1840 2700 
Q 2053 2828 2278 2828 
Q 2547 2828 2745 2684 
Q 2944 2541 3044 2308 
Q 3144 2075 3144 1806 
Q 3144 1394 2933 953 
Q 2722 513 2361 220 
Q 2000 -72 1588 -72 
Q 1400 -72 1248 34 
Q 1097 141 1013 313 
L 722 -825 
Q 706 -919 703 -934 
Q 703 -1019 1125 -1019 
Q 1191 -1019 1191 -1100 
Q 1169 -1184 1155 -1212 
Q 1141 -1241 1081 -1241 
L -159 -1241 
z
M 1594 97 
Q 1816 97 2006 280 
Q 2197 463 2316 691 
Q 2403 863 2479 1111 
Q 2556 1359 2612 1640 
Q 2669 1922 2669 2088 
Q 2669 2234 2630 2362 
Q 2591 2491 2502 2577 
Q 2413 2663 2266 2663 
Q 2031 2663 1823 2495 
Q 1616 2328 1447 2081 
L 1447 2059 
L 1094 647 
Q 1138 419 1263 258 
Q 1388 97 1594 97 
z
" transform="scale(0.015625)"/>
       <path id="Cmr10-28" d="M 1984 -1588 
Q 1628 -1306 1370 -942 
Q 1113 -578 948 -165 
Q 784 247 703 697 
Q 622 1147 622 1600 
Q 622 2059 703 2509 
Q 784 2959 951 3375 
Q 1119 3791 1378 4153 
Q 1638 4516 1984 4788 
Q 1984 4800 2016 4800 
L 2075 4800 
Q 2094 4800 2109 4783 
Q 2125 4766 2125 4744 
Q 2125 4716 2113 4703 
Q 1800 4397 1592 4047 
Q 1384 3697 1257 3301 
Q 1131 2906 1075 2482 
Q 1019 2059 1019 1600 
Q 1019 -434 2106 -1491 
Q 2125 -1509 2125 -1544 
Q 2125 -1559 2108 -1579 
Q 2091 -1600 2075 -1600 
L 2016 -1600 
Q 1984 -1600 1984 -1588 
z
" transform="scale(0.015625)"/>
       <path id="Cmr10-29" d="M 416 -1600 
Q 359 -1600 359 -1544 
Q 359 -1516 372 -1503 
Q 1466 -434 1466 1600 
Q 1466 3634 384 4691 
Q 359 4706 359 4744 
Q 359 4766 376 4783 
Q 394 4800 416 4800 
L 475 4800 
Q 494 4800 506 4788 
Q 966 4425 1272 3906 
Q 1578 3388 1720 2800 
Q 1863 2213 1863 1600 
Q 1863 1147 1786 708 
Q 1709 269 1542 -157 
Q 1375 -584 1119 -945 
Q 863 -1306 506 -1588 
Q 494 -1600 475 -1600 
L 416 -1600 
z
" transform="scale(0.015625)"/>
      </defs>
      <use xlink:href="#Cmmi10-70"/>
      <use xlink:href="#Cmr10-28" transform="translate(50.292969 0)"/>
      <use xlink:href="#Cmmi10-52" transform="translate(89.111328 0)"/>
      <use xlink:href="#Cmr10-29" transform="translate(164.990234 0)"/>
     </g>
    </g>
   </g>
   <g id="patch_6">
    <path d="M 35.285938 157.408937 
L 35.285938 157.408937 
L 40.284395 157.408937 
L 40.284395 157.408937 
L 45.282852 157.408937 
L 45.282852 157.408937 
L 50.281309 157.408937 
L 50.281309 157.408937 
L 55.279766 157.408937 
L 55.279766 157.408937 
L 60.278223 157.408937 
L 60.278223 157.408937 
L 65.27668 157.408937 
L 65.27668 157.408937 
L 70.275137 157.408937 
L 70.275137 157.021776 
L 75.273595 157.021776 
L 75.273595 153.343743 
L 80.272052 153.343743 
L 80.272052 144.826192 
L 85.270509 144.826192 
L 85.270509 116.17625 
L 90.268966 116.17625 
L 90.268966 84.235436 
L 95.267423 84.235436 
L 95.267423 42.228426 
L 100.26588 42.228426 
L 100.26588 18.03084 
L 105.264337 18.03084 
L 105.264337 33.130134 
L 110.262794 33.130134 
L 110.262794 54.61759 
L 115.261252 54.61759 
L 115.261252 87.526308 
L 120.259709 87.526308 
L 120.259709 114.046862 
L 125.258166 114.046862 
L 125.258166 133.211351 
L 130.256623 133.211351 
L 130.256623 145.019773 
L 135.25508 145.019773 
L 135.25508 150.633613 
L 140.253537 150.633613 
L 140.253537 155.085969 
L 145.251994 155.085969 
L 145.251994 156.053872 
L 150.250452 156.053872 
L 150.250452 156.634614 
L 155.248909 156.634614 
L 155.248909 157.408937 
L 160.247366 157.408937 
L 160.247366 157.215356 
L 165.245823 157.215356 
L 165.245823 157.408937 
L 170.24428 157.408937 
L 170.24428 157.408937 
L 175.242737 157.408937 
L 175.242737 157.408937 
L 180.241194 157.408937 
L 180.241194 157.408937 
L 185.239651 157.408937 
L 185.239651 157.408937 
L 190.238109 157.408937 
L 190.238109 157.408937 
L 195.236566 157.408937 
L 195.236566 157.408937 
L 200.235023 157.408937 
L 200.235023 157.408937 
L 205.23348 157.408937 
L 205.23348 157.408937 
L 210.231937 157.408937 
L 210.231937 157.408937 
L 215.230394 157.408937 
L 215.230394 157.408937 
L 220.228851 157.408937 
L 220.228851 157.408937 
L 225.227308 157.408937 
L 225.227308 157.408937 
L 230.225766 157.408937 
L 230.225766 157.408937 
L 235.224223 157.408937 
L 235.224223 157.408937 
L 240.22268 157.408937 
L 240.22268 157.408937 
L 245.221137 157.408937 
L 245.221137 157.408937 
L 250.219594 157.408937 
L 250.219594 157.408937 
L 255.218051 157.408937 
L 255.218051 157.408937 
L 260.216508 157.408937 
L 260.216508 157.408937 
L 265.214966 157.408937 
L 265.214966 157.408937 
L 270.213423 157.408937 
L 270.213423 157.408937 
L 275.21188 157.408937 
L 275.21188 157.408937 
L 280.210337 157.408937 
L 280.210337 157.408937 
" clip-path="url(#p60e23696a1)" style="fill: none; stroke: #005ea8; stroke-linejoin: miter"/>
   </g>
   <g id="patch_7">
    <path d="M 35.285938 157.408937 
L 35.285938 7.2 
" style="fill: none; stroke: #000000; stroke-width: 0.5; stroke-linejoin: miter; stroke-linecap: square"/>
   </g>
   <g id="patch_8">
    <path d="M 280.210337 157.408937 
L 280.210337 7.2 
" style="fill: none; stroke: #000000; stroke-width: 0.5; stroke-linejoin: miter; stroke-linecap: square"/>
   </g>
   <g id="patch_9">
    <path d="M 35.285938 157.408937 
L 280.210337 157.408937 
" style="fill: none; stroke: #000000; stroke-width: 0.5; stroke-linejoin: miter; stroke-linecap: square"/>
   </g>
   <g id="patch_10">
    <path d="M 35.285938 7.2 
L 280.210337 7.2 
" style="fill: none; stroke: #000000; stroke-width: 0.5; stroke-linejoin: miter; stroke-linecap: square"/>
   </g>
   <g id="legend_1">
    <g id="patch_11">
     <path d="M 193.199243 42.69875 
L 275.310337 42.69875 
Q 276.710337 42.69875 276.710337 41.29875 
L 276.710337 12.1 
Q 276.710337 10.7 275.310337 10.7 
L 193.199243 10.7 
Q 191.799243 10.7 191.799243 12.1 
L 191.799243 41.29875 
Q 191.799243 42.69875 193.199243 42.69875 
z
" style="fill: #ffffff; opacity: 0.8; stroke: #cccccc; stroke-linejoin: miter"/>
    </g>
    <g id="patch_12">
     <path d="M 193.199243 17.418906 
L 207.199243 17.418906 
L 207.199243 12.518906 
L 193.199243 12.518906 
z
" style="fill: #00afa5"/>
    </g>
    <g id="text_17">
     <!-- $p = 0.4$ -->
     <g transform="translate(212.799243 17.418906)scale(0.07 -0.07)">
      <defs>
       <path id="Cmr10-3d" d="M 481 850 
Q 428 850 393 890 
Q 359 931 359 978 
Q 359 1031 393 1068 
Q 428 1106 481 1106 
L 4500 1106 
Q 4547 1106 4581 1068 
Q 4616 1031 4616 978 
Q 4616 931 4581 890 
Q 4547 850 4500 850 
L 481 850 
z
M 481 2094 
Q 428 2094 393 2131 
Q 359 2169 359 2222 
Q 359 2269 393 2309 
Q 428 2350 481 2350 
L 4500 2350 
Q 4547 2350 4581 2309 
Q 4616 2269 4616 2222 
Q 4616 2169 4581 2131 
Q 4547 2094 4500 2094 
L 481 2094 
z
" transform="scale(0.015625)"/>
       <path id="Cmr10-30" d="M 1600 -141 
Q 816 -141 533 504 
Q 250 1150 250 2041 
Q 250 2597 351 3087 
Q 453 3578 754 3920 
Q 1056 4263 1600 4263 
Q 2022 4263 2290 4056 
Q 2559 3850 2700 3523 
Q 2841 3197 2892 2823 
Q 2944 2450 2944 2041 
Q 2944 1491 2842 1011 
Q 2741 531 2444 195 
Q 2147 -141 1600 -141 
z
M 1600 25 
Q 1956 25 2131 390 
Q 2306 756 2347 1200 
Q 2388 1644 2388 2144 
Q 2388 2625 2347 3031 
Q 2306 3438 2132 3767 
Q 1959 4097 1600 4097 
Q 1238 4097 1063 3765 
Q 888 3434 847 3029 
Q 806 2625 806 2144 
Q 806 1788 823 1472 
Q 841 1156 916 820 
Q 991 484 1158 254 
Q 1325 25 1600 25 
z
" transform="scale(0.015625)"/>
       <path id="Cmmi10-3a" d="M 538 353 
Q 538 497 644 600 
Q 750 703 891 703 
Q 978 703 1062 656 
Q 1147 609 1194 525 
Q 1241 441 1241 353 
Q 1241 213 1137 106 
Q 1034 0 891 0 
Q 750 0 644 106 
Q 538 213 538 353 
z
" transform="scale(0.015625)"/>
       <path id="Cmr10-34" d="M 178 1056 
L 178 1281 
L 2156 4231 
Q 2178 4263 2222 4263 
L 2316 4263 
Q 2388 4263 2388 4191 
L 2388 1281 
L 3016 1281 
L 3016 1056 
L 2388 1056 
L 2388 428 
Q 2388 297 2575 261 
Q 2763 225 3009 225 
L 3009 0 
L 1247 0 
L 1247 225 
Q 1494 225 1681 261 
Q 1869 297 1869 428 
L 1869 1056 
L 178 1056 
z
M 391 1281 
L 1906 1281 
L 1906 3547 
L 391 1281 
z
" transform="scale(0.015625)"/>
      </defs>
      <use xlink:href="#Cmmi10-70" transform="translate(0 0.390625)"/>
      <use xlink:href="#Cmr10-3d" transform="translate(67.851562 0.390625)"/>
      <use xlink:href="#Cmr10-30" transform="translate(163.095703 0.390625)"/>
      <use xlink:href="#Cmmi10-3a" transform="translate(213.095703 0.390625)"/>
      <use xlink:href="#Cmr10-34" transform="translate(240.78125 0.390625)"/>
     </g>
    </g>
    <g id="patch_13">
     <path d="M 193.199243 24.893594 
L 207.199243 24.893594 
L 207.199243 19.993594 
L 193.199243 19.993594 
z
" style="fill: #f17900; opacity: 0.8"/>
    </g>
    <g id="text_18">
     <!-- $p = 0.55$ -->
     <g transform="translate(212.799243 24.893594)scale(0.07 -0.07)">
      <defs>
       <path id="Cmr10-35" d="M 556 728 
Q 622 541 758 387 
Q 894 234 1080 148 
Q 1266 63 1466 63 
Q 1928 63 2103 422 
Q 2278 781 2278 1294 
Q 2278 1516 2270 1667 
Q 2263 1819 2228 1959 
Q 2169 2184 2020 2353 
Q 1872 2522 1656 2522 
Q 1441 2522 1286 2456 
Q 1131 2391 1034 2303 
Q 938 2216 863 2119 
Q 788 2022 769 2016 
L 697 2016 
Q 681 2016 657 2036 
Q 634 2056 634 2075 
L 634 4213 
Q 634 4228 654 4245 
Q 675 4263 697 4263 
L 716 4263 
Q 1147 4056 1631 4056 
Q 2106 4056 2547 4263 
L 2566 4263 
Q 2588 4263 2606 4247 
Q 2625 4231 2625 4213 
L 2625 4153 
Q 2625 4122 2613 4122 
Q 2394 3831 2064 3668 
Q 1734 3506 1381 3506 
Q 1125 3506 856 3578 
L 856 2369 
Q 1069 2541 1236 2614 
Q 1403 2688 1663 2688 
Q 2016 2688 2295 2484 
Q 2575 2281 2725 1954 
Q 2875 1628 2875 1288 
Q 2875 903 2686 575 
Q 2497 247 2172 53 
Q 1847 -141 1466 -141 
Q 1150 -141 886 21 
Q 622 184 470 459 
Q 319 734 319 1044 
Q 319 1188 412 1278 
Q 506 1369 647 1369 
Q 788 1369 883 1276 
Q 978 1184 978 1044 
Q 978 906 883 811 
Q 788 716 647 716 
Q 625 716 597 720 
Q 569 725 556 728 
z
" transform="scale(0.015625)"/>
      </defs>
      <use xlink:href="#Cmmi10-70" transform="translate(0 0.390625)"/>
      <use xlink:href="#Cmr10-3d" transform="translate(67.851562 0.390625)"/>
      <use xlink:href="#Cmr10-30" transform="translate(163.095703 0.390625)"/>
      <use xlink:href="#Cmmi10-3a" transform="translate(213.095703 0.390625)"/>
      <use xlink:href="#Cmr10-35" transform="translate(240.78125 0.390625)"/>
      <use xlink:href="#Cmr10-35" transform="translate(290.78125 0.390625)"/>
     </g>
    </g>
    <g id="patch_14">
     <path d="M 193.199243 32.368281 
L 207.199243 32.368281 
L 207.199243 27.468281 
L 193.199243 27.468281 
z
" style="fill: #ae0060; opacity: 0.8"/>
    </g>
    <g id="text_19">
     <!-- $p = 0.7$ -->
     <g transform="translate(212.799243 32.368281)scale(0.07 -0.07)">
      <defs>
       <path id="Cmr10-37" d="M 1113 166 
Q 1113 522 1175 862 
Q 1238 1203 1358 1536 
Q 1478 1869 1648 2189 
Q 1819 2509 2022 2791 
L 2606 3603 
L 1875 3603 
Q 738 3603 703 3572 
Q 619 3469 544 2981 
L 359 2981 
L 569 4325 
L 756 4325 
L 756 4306 
Q 756 4191 1147 4156 
Q 1538 4122 1913 4122 
L 3103 4122 
L 3103 3956 
Q 3103 3950 3101 3947 
Q 3100 3944 3097 3938 
L 2216 2700 
Q 1891 2219 1809 1631 
Q 1728 1044 1728 166 
Q 1728 41 1637 -50 
Q 1547 -141 1422 -141 
Q 1294 -141 1203 -50 
Q 1113 41 1113 166 
z
" transform="scale(0.015625)"/>
      </defs>
      <use xlink:href="#Cmmi10-70" transform="translate(0 0.421875)"/>
      <use xlink:href="#Cmr10-3d" transform="translate(67.851562 0.421875)"/>
      <use xlink:href="#Cmr10-30" transform="translate(163.095703 0.421875)"/>
      <use xlink:href="#Cmmi10-3a" transform="translate(213.095703 0.421875)"/>
      <use xlink:href="#Cmr10-37" transform="translate(240.78125 0.421875)"/>
     </g>
    </g>
    <g id="patch_15">
     <path d="M 193.199243 39.842969 
L 207.199243 39.842969 
L 207.199243 34.942969 
L 193.199243 34.942969 
L 193.199243 39.842969 
z
" style="fill: none; stroke: #005ea8; stroke-linejoin: miter"/>
    </g>
    <g id="text_20">
     <!-- Bayesian network -->
     <g transform="translate(212.799243 39.842969)scale(0.07 -0.07)">
      <defs>
       <path id="DejaVuSans-42" d="M 1259 2228 
L 1259 519 
L 2272 519 
Q 2781 519 3026 730 
Q 3272 941 3272 1375 
Q 3272 1813 3026 2020 
Q 2781 2228 2272 2228 
L 1259 2228 
z
M 1259 4147 
L 1259 2741 
L 2194 2741 
Q 2656 2741 2882 2914 
Q 3109 3088 3109 3444 
Q 3109 3797 2882 3972 
Q 2656 4147 2194 4147 
L 1259 4147 
z
M 628 4666 
L 2241 4666 
Q 2963 4666 3353 4366 
Q 3744 4066 3744 3513 
Q 3744 3084 3544 2831 
Q 3344 2578 2956 2516 
Q 3422 2416 3680 2098 
Q 3938 1781 3938 1306 
Q 3938 681 3513 340 
Q 3088 0 2303 0 
L 628 0 
L 628 4666 
z
" transform="scale(0.015625)"/>
       <path id="DejaVuSans-61" d="M 2194 1759 
Q 1497 1759 1228 1600 
Q 959 1441 959 1056 
Q 959 750 1161 570 
Q 1363 391 1709 391 
Q 2188 391 2477 730 
Q 2766 1069 2766 1631 
L 2766 1759 
L 2194 1759 
z
M 3341 1997 
L 3341 0 
L 2766 0 
L 2766 531 
Q 2569 213 2275 61 
Q 1981 -91 1556 -91 
Q 1019 -91 701 211 
Q 384 513 384 1019 
Q 384 1609 779 1909 
Q 1175 2209 1959 2209 
L 2766 2209 
L 2766 2266 
Q 2766 2663 2505 2880 
Q 2244 3097 1772 3097 
Q 1472 3097 1187 3025 
Q 903 2953 641 2809 
L 641 3341 
Q 956 3463 1253 3523 
Q 1550 3584 1831 3584 
Q 2591 3584 2966 3190 
Q 3341 2797 3341 1997 
z
" transform="scale(0.015625)"/>
       <path id="DejaVuSans-79" d="M 2059 -325 
Q 1816 -950 1584 -1140 
Q 1353 -1331 966 -1331 
L 506 -1331 
L 506 -850 
L 844 -850 
Q 1081 -850 1212 -737 
Q 1344 -625 1503 -206 
L 1606 56 
L 191 3500 
L 800 3500 
L 1894 763 
L 2988 3500 
L 3597 3500 
L 2059 -325 
z
" transform="scale(0.015625)"/>
       <path id="DejaVuSans-65" d="M 3597 1894 
L 3597 1613 
L 953 1613 
Q 991 1019 1311 708 
Q 1631 397 2203 397 
Q 2534 397 2845 478 
Q 3156 559 3463 722 
L 3463 178 
Q 3153 47 2828 -22 
Q 2503 -91 2169 -91 
Q 1331 -91 842 396 
Q 353 884 353 1716 
Q 353 2575 817 3079 
Q 1281 3584 2069 3584 
Q 2775 3584 3186 3129 
Q 3597 2675 3597 1894 
z
M 3022 2063 
Q 3016 2534 2758 2815 
Q 2500 3097 2075 3097 
Q 1594 3097 1305 2825 
Q 1016 2553 972 2059 
L 3022 2063 
z
" transform="scale(0.015625)"/>
       <path id="DejaVuSans-6e" d="M 3513 2113 
L 3513 0 
L 2938 0 
L 2938 2094 
Q 2938 2591 2744 2837 
Q 2550 3084 2163 3084 
Q 1697 3084 1428 2787 
Q 1159 2491 1159 1978 
L 1159 0 
L 581 0 
L 581 3500 
L 1159 3500 
L 1159 2956 
Q 1366 3272 1645 3428 
Q 1925 3584 2291 3584 
Q 2894 3584 3203 3211 
Q 3513 2838 3513 2113 
z
" transform="scale(0.015625)"/>
       <path id="DejaVuSans-74" d="M 1172 4494 
L 1172 3500 
L 2356 3500 
L 2356 3053 
L 1172 3053 
L 1172 1153 
Q 1172 725 1289 603 
Q 1406 481 1766 481 
L 2356 481 
L 2356 0 
L 1766 0 
Q 1100 0 847 248 
Q 594 497 594 1153 
L 594 3053 
L 172 3053 
L 172 3500 
L 594 3500 
L 594 4494 
L 1172 4494 
z
" transform="scale(0.015625)"/>
       <path id="DejaVuSans-77" d="M 269 3500 
L 844 3500 
L 1563 769 
L 2278 3500 
L 2956 3500 
L 3675 769 
L 4391 3500 
L 4966 3500 
L 4050 0 
L 3372 0 
L 2619 2869 
L 1863 0 
L 1184 0 
L 269 3500 
z
" transform="scale(0.015625)"/>
       <path id="DejaVuSans-6f" d="M 1959 3097 
Q 1497 3097 1228 2736 
Q 959 2375 959 1747 
Q 959 1119 1226 758 
Q 1494 397 1959 397 
Q 2419 397 2687 759 
Q 2956 1122 2956 1747 
Q 2956 2369 2687 2733 
Q 2419 3097 1959 3097 
z
M 1959 3584 
Q 2709 3584 3137 3096 
Q 3566 2609 3566 1747 
Q 3566 888 3137 398 
Q 2709 -91 1959 -91 
Q 1206 -91 779 398 
Q 353 888 353 1747 
Q 353 2609 779 3096 
Q 1206 3584 1959 3584 
z
" transform="scale(0.015625)"/>
      </defs>
      <use xlink:href="#DejaVuSans-42"/>
      <use xlink:href="#DejaVuSans-61" x="68.603516"/>
      <use xlink:href="#DejaVuSans-79" x="129.882812"/>
      <use xlink:href="#DejaVuSans-65" x="189.0625"/>
      <use xlink:href="#DejaVuSans-73" x="250.585938"/>
      <use xlink:href="#DejaVuSans-69" x="302.685547"/>
      <use xlink:href="#DejaVuSans-61" x="330.46875"/>
      <use xlink:href="#DejaVuSans-6e" x="391.748047"/>
      <use xlink:href="#DejaVuSans-20" x="455.126953"/>
      <use xlink:href="#DejaVuSans-6e" x="486.914062"/>
      <use xlink:href="#DejaVuSans-65" x="550.292969"/>
      <use xlink:href="#DejaVuSans-74" x="611.816406"/>
      <use xlink:href="#DejaVuSans-77" x="651.025391"/>
      <use xlink:href="#DejaVuSans-6f" x="732.8125"/>
      <use xlink:href="#DejaVuSans-72" x="793.994141"/>
      <use xlink:href="#DejaVuSans-6b" x="835.107422"/>
     </g>
    </g>
   </g>
  </g>
 </g>
 <defs>
  <clipPath id="p60e23696a1">
   <rect x="35.285938" y="7.2" width="244.924399" height="150.208937"/>
  </clipPath>
 </defs>
</svg>
