<?xml version="1.0" encoding="utf-8" standalone="no"?>
<!DOCTYPE svg PUBLIC "-//W3C//DTD SVG 1.1//EN"
  "http://www.w3.org/Graphics/SVG/1.1/DTD/svg11.dtd">
<svg xmlns:xlink="http://www.w3.org/1999/xlink" width="461.942827pt" height="170.379273pt" viewBox="0 0 461.942827 170.379273" xmlns="http://www.w3.org/2000/svg" version="1.1">
 <metadata>
  <rdf:RDF xmlns:dc="http://purl.org/dc/elements/1.1/" xmlns:cc="http://creativecommons.org/ns#" xmlns:rdf="http://www.w3.org/1999/02/22-rdf-syntax-ns#">
   <cc:Work>
    <dc:type rdf:resource="http://purl.org/dc/dcmitype/StillImage"/>
    <dc:date>2022-09-08T15:23:54.074578</dc:date>
    <dc:format>image/svg+xml</dc:format>
    <dc:creator>
     <cc:Agent>
      <dc:title>Matplotlib v3.5.3, https://matplotlib.org/</dc:title>
     </cc:Agent>
    </dc:creator>
   </cc:Work>
  </rdf:RDF>
 </metadata>
 <defs>
  <style type="text/css">*{stroke-linejoin: round; stroke-linecap: butt}</style>
 </defs>
 <g id="figure_1">
  <g id="patch_1">
   <path d="M 0 170.379273 
L 461.942827 170.379273 
L 461.942827 0 
L 0 0 
z
" style="fill: #ffffff"/>
  </g>
  <g id="axes_1">
   <g id="patch_2">
    <path d="M 32.002188 144.174585 
L 228.286174 144.174585 
L 228.286174 7.2 
L 32.002188 7.2 
z
" style="fill: #ffffff"/>
   </g>
   <g id="matplotlib.axis_1">
    <g id="xtick_1">
     <g id="line2d_1">
      <path d="M 38.544987 144.174585 
L 38.544987 7.2 
" clip-path="url(#pb130978663)" style="fill: none; stroke: #000000; stroke-opacity: 0.1; stroke-width: 0.5; stroke-linecap: square"/>
     </g>
     <g id="line2d_2">
      <defs>
       <path id="m41dca29bfa" d="M 0 0 
L 0 -3 
" style="stroke: #000000; stroke-width: 0.5"/>
      </defs>
      <g>
       <use xlink:href="#m41dca29bfa" x="38.544987" y="144.174585" style="stroke: #000000; stroke-width: 0.5"/>
      </g>
     </g>
     <g id="text_1">
      <!-- 1 -->
      <g transform="translate(36.318112 150.993491)scale(0.07 -0.07)">
       <defs>
        <path id="DejaVuSans-31" d="M 794 531 
L 1825 531 
L 1825 4091 
L 703 3866 
L 703 4441 
L 1819 4666 
L 2450 4666 
L 2450 531 
L 3481 531 
L 3481 0 
L 794 0 
L 794 531 
z
" transform="scale(0.015625)"/>
       </defs>
       <use xlink:href="#DejaVuSans-31"/>
      </g>
     </g>
    </g>
    <g id="xtick_2">
     <g id="line2d_3">
      <path d="M 64.716185 144.174585 
L 64.716185 7.2 
" clip-path="url(#pb130978663)" style="fill: none; stroke: #000000; stroke-opacity: 0.1; stroke-width: 0.5; stroke-linecap: square"/>
     </g>
     <g id="line2d_4">
      <g>
       <use xlink:href="#m41dca29bfa" x="64.716185" y="144.174585" style="stroke: #000000; stroke-width: 0.5"/>
      </g>
     </g>
     <g id="text_2">
      <!-- 3 -->
      <g transform="translate(62.48931 150.993491)scale(0.07 -0.07)">
       <defs>
        <path id="DejaVuSans-33" d="M 2597 2516 
Q 3050 2419 3304 2112 
Q 3559 1806 3559 1356 
Q 3559 666 3084 287 
Q 2609 -91 1734 -91 
Q 1441 -91 1130 -33 
Q 819 25 488 141 
L 488 750 
Q 750 597 1062 519 
Q 1375 441 1716 441 
Q 2309 441 2620 675 
Q 2931 909 2931 1356 
Q 2931 1769 2642 2001 
Q 2353 2234 1838 2234 
L 1294 2234 
L 1294 2753 
L 1863 2753 
Q 2328 2753 2575 2939 
Q 2822 3125 2822 3475 
Q 2822 3834 2567 4026 
Q 2313 4219 1838 4219 
Q 1578 4219 1281 4162 
Q 984 4106 628 3988 
L 628 4550 
Q 988 4650 1302 4700 
Q 1616 4750 1894 4750 
Q 2613 4750 3031 4423 
Q 3450 4097 3450 3541 
Q 3450 3153 3228 2886 
Q 3006 2619 2597 2516 
z
" transform="scale(0.015625)"/>
       </defs>
       <use xlink:href="#DejaVuSans-33"/>
      </g>
     </g>
    </g>
    <g id="xtick_3">
     <g id="line2d_5">
      <path d="M 90.887383 144.174585 
L 90.887383 7.2 
" clip-path="url(#pb130978663)" style="fill: none; stroke: #000000; stroke-opacity: 0.1; stroke-width: 0.5; stroke-linecap: square"/>
     </g>
     <g id="line2d_6">
      <g>
       <use xlink:href="#m41dca29bfa" x="90.887383" y="144.174585" style="stroke: #000000; stroke-width: 0.5"/>
      </g>
     </g>
     <g id="text_3">
      <!-- 5 -->
      <g transform="translate(88.660508 150.993491)scale(0.07 -0.07)">
       <defs>
        <path id="DejaVuSans-35" d="M 691 4666 
L 3169 4666 
L 3169 4134 
L 1269 4134 
L 1269 2991 
Q 1406 3038 1543 3061 
Q 1681 3084 1819 3084 
Q 2600 3084 3056 2656 
Q 3513 2228 3513 1497 
Q 3513 744 3044 326 
Q 2575 -91 1722 -91 
Q 1428 -91 1123 -41 
Q 819 9 494 109 
L 494 744 
Q 775 591 1075 516 
Q 1375 441 1709 441 
Q 2250 441 2565 725 
Q 2881 1009 2881 1497 
Q 2881 1984 2565 2268 
Q 2250 2553 1709 2553 
Q 1456 2553 1204 2497 
Q 953 2441 691 2322 
L 691 4666 
z
" transform="scale(0.015625)"/>
       </defs>
       <use xlink:href="#DejaVuSans-35"/>
      </g>
     </g>
    </g>
    <g id="xtick_4">
     <g id="line2d_7">
      <path d="M 117.058581 144.174585 
L 117.058581 7.2 
" clip-path="url(#pb130978663)" style="fill: none; stroke: #000000; stroke-opacity: 0.1; stroke-width: 0.5; stroke-linecap: square"/>
     </g>
     <g id="line2d_8">
      <g>
       <use xlink:href="#m41dca29bfa" x="117.058581" y="144.174585" style="stroke: #000000; stroke-width: 0.5"/>
      </g>
     </g>
     <g id="text_4">
      <!-- 7 -->
      <g transform="translate(114.831706 150.993491)scale(0.07 -0.07)">
       <defs>
        <path id="DejaVuSans-37" d="M 525 4666 
L 3525 4666 
L 3525 4397 
L 1831 0 
L 1172 0 
L 2766 4134 
L 525 4134 
L 525 4666 
z
" transform="scale(0.015625)"/>
       </defs>
       <use xlink:href="#DejaVuSans-37"/>
      </g>
     </g>
    </g>
    <g id="xtick_5">
     <g id="line2d_9">
      <path d="M 143.22978 144.174585 
L 143.22978 7.2 
" clip-path="url(#pb130978663)" style="fill: none; stroke: #000000; stroke-opacity: 0.1; stroke-width: 0.5; stroke-linecap: square"/>
     </g>
     <g id="line2d_10">
      <g>
       <use xlink:href="#m41dca29bfa" x="143.22978" y="144.174585" style="stroke: #000000; stroke-width: 0.5"/>
      </g>
     </g>
     <g id="text_5">
      <!-- 9 -->
      <g transform="translate(141.002905 150.993491)scale(0.07 -0.07)">
       <defs>
        <path id="DejaVuSans-39" d="M 703 97 
L 703 672 
Q 941 559 1184 500 
Q 1428 441 1663 441 
Q 2288 441 2617 861 
Q 2947 1281 2994 2138 
Q 2813 1869 2534 1725 
Q 2256 1581 1919 1581 
Q 1219 1581 811 2004 
Q 403 2428 403 3163 
Q 403 3881 828 4315 
Q 1253 4750 1959 4750 
Q 2769 4750 3195 4129 
Q 3622 3509 3622 2328 
Q 3622 1225 3098 567 
Q 2575 -91 1691 -91 
Q 1453 -91 1209 -44 
Q 966 3 703 97 
z
M 1959 2075 
Q 2384 2075 2632 2365 
Q 2881 2656 2881 3163 
Q 2881 3666 2632 3958 
Q 2384 4250 1959 4250 
Q 1534 4250 1286 3958 
Q 1038 3666 1038 3163 
Q 1038 2656 1286 2365 
Q 1534 2075 1959 2075 
z
" transform="scale(0.015625)"/>
       </defs>
       <use xlink:href="#DejaVuSans-39"/>
      </g>
     </g>
    </g>
    <g id="xtick_6">
     <g id="line2d_11">
      <path d="M 169.400978 144.174585 
L 169.400978 7.2 
" clip-path="url(#pb130978663)" style="fill: none; stroke: #000000; stroke-opacity: 0.1; stroke-width: 0.5; stroke-linecap: square"/>
     </g>
     <g id="line2d_12">
      <g>
       <use xlink:href="#m41dca29bfa" x="169.400978" y="144.174585" style="stroke: #000000; stroke-width: 0.5"/>
      </g>
     </g>
     <g id="text_6">
      <!-- 11 -->
      <g transform="translate(164.947228 150.993491)scale(0.07 -0.07)">
       <use xlink:href="#DejaVuSans-31"/>
       <use xlink:href="#DejaVuSans-31" x="63.623047"/>
      </g>
     </g>
    </g>
    <g id="xtick_7">
     <g id="line2d_13">
      <path d="M 195.572176 144.174585 
L 195.572176 7.2 
" clip-path="url(#pb130978663)" style="fill: none; stroke: #000000; stroke-opacity: 0.1; stroke-width: 0.5; stroke-linecap: square"/>
     </g>
     <g id="line2d_14">
      <g>
       <use xlink:href="#m41dca29bfa" x="195.572176" y="144.174585" style="stroke: #000000; stroke-width: 0.5"/>
      </g>
     </g>
     <g id="text_7">
      <!-- 13 -->
      <g transform="translate(191.118426 150.993491)scale(0.07 -0.07)">
       <use xlink:href="#DejaVuSans-31"/>
       <use xlink:href="#DejaVuSans-33" x="63.623047"/>
      </g>
     </g>
    </g>
    <g id="xtick_8">
     <g id="line2d_15">
      <path d="M 221.743374 144.174585 
L 221.743374 7.2 
" clip-path="url(#pb130978663)" style="fill: none; stroke: #000000; stroke-opacity: 0.1; stroke-width: 0.5; stroke-linecap: square"/>
     </g>
     <g id="line2d_16">
      <g>
       <use xlink:href="#m41dca29bfa" x="221.743374" y="144.174585" style="stroke: #000000; stroke-width: 0.5"/>
      </g>
     </g>
     <g id="text_8">
      <!-- 15 -->
      <g transform="translate(217.289624 150.993491)scale(0.07 -0.07)">
       <use xlink:href="#DejaVuSans-31"/>
       <use xlink:href="#DejaVuSans-35" x="63.623047"/>
      </g>
     </g>
    </g>
    <g id="text_9">
     <!-- length of prior $T$ -->
     <g transform="translate(93.964181 161.289273)scale(0.09 -0.09)">
      <defs>
       <path id="DejaVuSans-6c" d="M 603 4863 
L 1178 4863 
L 1178 0 
L 603 0 
L 603 4863 
z
" transform="scale(0.015625)"/>
       <path id="DejaVuSans-65" d="M 3597 1894 
L 3597 1613 
L 953 1613 
Q 991 1019 1311 708 
Q 1631 397 2203 397 
Q 2534 397 2845 478 
Q 3156 559 3463 722 
L 3463 178 
Q 3153 47 2828 -22 
Q 2503 -91 2169 -91 
Q 1331 -91 842 396 
Q 353 884 353 1716 
Q 353 2575 817 3079 
Q 1281 3584 2069 3584 
Q 2775 3584 3186 3129 
Q 3597 2675 3597 1894 
z
M 3022 2063 
Q 3016 2534 2758 2815 
Q 2500 3097 2075 3097 
Q 1594 3097 1305 2825 
Q 1016 2553 972 2059 
L 3022 2063 
z
" transform="scale(0.015625)"/>
       <path id="DejaVuSans-6e" d="M 3513 2113 
L 3513 0 
L 2938 0 
L 2938 2094 
Q 2938 2591 2744 2837 
Q 2550 3084 2163 3084 
Q 1697 3084 1428 2787 
Q 1159 2491 1159 1978 
L 1159 0 
L 581 0 
L 581 3500 
L 1159 3500 
L 1159 2956 
Q 1366 3272 1645 3428 
Q 1925 3584 2291 3584 
Q 2894 3584 3203 3211 
Q 3513 2838 3513 2113 
z
" transform="scale(0.015625)"/>
       <path id="DejaVuSans-67" d="M 2906 1791 
Q 2906 2416 2648 2759 
Q 2391 3103 1925 3103 
Q 1463 3103 1205 2759 
Q 947 2416 947 1791 
Q 947 1169 1205 825 
Q 1463 481 1925 481 
Q 2391 481 2648 825 
Q 2906 1169 2906 1791 
z
M 3481 434 
Q 3481 -459 3084 -895 
Q 2688 -1331 1869 -1331 
Q 1566 -1331 1297 -1286 
Q 1028 -1241 775 -1147 
L 775 -588 
Q 1028 -725 1275 -790 
Q 1522 -856 1778 -856 
Q 2344 -856 2625 -561 
Q 2906 -266 2906 331 
L 2906 616 
Q 2728 306 2450 153 
Q 2172 0 1784 0 
Q 1141 0 747 490 
Q 353 981 353 1791 
Q 353 2603 747 3093 
Q 1141 3584 1784 3584 
Q 2172 3584 2450 3431 
Q 2728 3278 2906 2969 
L 2906 3500 
L 3481 3500 
L 3481 434 
z
" transform="scale(0.015625)"/>
       <path id="DejaVuSans-74" d="M 1172 4494 
L 1172 3500 
L 2356 3500 
L 2356 3053 
L 1172 3053 
L 1172 1153 
Q 1172 725 1289 603 
Q 1406 481 1766 481 
L 2356 481 
L 2356 0 
L 1766 0 
Q 1100 0 847 248 
Q 594 497 594 1153 
L 594 3053 
L 172 3053 
L 172 3500 
L 594 3500 
L 594 4494 
L 1172 4494 
z
" transform="scale(0.015625)"/>
       <path id="DejaVuSans-68" d="M 3513 2113 
L 3513 0 
L 2938 0 
L 2938 2094 
Q 2938 2591 2744 2837 
Q 2550 3084 2163 3084 
Q 1697 3084 1428 2787 
Q 1159 2491 1159 1978 
L 1159 0 
L 581 0 
L 581 4863 
L 1159 4863 
L 1159 2956 
Q 1366 3272 1645 3428 
Q 1925 3584 2291 3584 
Q 2894 3584 3203 3211 
Q 3513 2838 3513 2113 
z
" transform="scale(0.015625)"/>
       <path id="DejaVuSans-20" transform="scale(0.015625)"/>
       <path id="DejaVuSans-6f" d="M 1959 3097 
Q 1497 3097 1228 2736 
Q 959 2375 959 1747 
Q 959 1119 1226 758 
Q 1494 397 1959 397 
Q 2419 397 2687 759 
Q 2956 1122 2956 1747 
Q 2956 2369 2687 2733 
Q 2419 3097 1959 3097 
z
M 1959 3584 
Q 2709 3584 3137 3096 
Q 3566 2609 3566 1747 
Q 3566 888 3137 398 
Q 2709 -91 1959 -91 
Q 1206 -91 779 398 
Q 353 888 353 1747 
Q 353 2609 779 3096 
Q 1206 3584 1959 3584 
z
" transform="scale(0.015625)"/>
       <path id="DejaVuSans-66" d="M 2375 4863 
L 2375 4384 
L 1825 4384 
Q 1516 4384 1395 4259 
Q 1275 4134 1275 3809 
L 1275 3500 
L 2222 3500 
L 2222 3053 
L 1275 3053 
L 1275 0 
L 697 0 
L 697 3053 
L 147 3053 
L 147 3500 
L 697 3500 
L 697 3744 
Q 697 4328 969 4595 
Q 1241 4863 1831 4863 
L 2375 4863 
z
" transform="scale(0.015625)"/>
       <path id="DejaVuSans-70" d="M 1159 525 
L 1159 -1331 
L 581 -1331 
L 581 3500 
L 1159 3500 
L 1159 2969 
Q 1341 3281 1617 3432 
Q 1894 3584 2278 3584 
Q 2916 3584 3314 3078 
Q 3713 2572 3713 1747 
Q 3713 922 3314 415 
Q 2916 -91 2278 -91 
Q 1894 -91 1617 61 
Q 1341 213 1159 525 
z
M 3116 1747 
Q 3116 2381 2855 2742 
Q 2594 3103 2138 3103 
Q 1681 3103 1420 2742 
Q 1159 2381 1159 1747 
Q 1159 1113 1420 752 
Q 1681 391 2138 391 
Q 2594 391 2855 752 
Q 3116 1113 3116 1747 
z
" transform="scale(0.015625)"/>
       <path id="DejaVuSans-72" d="M 2631 2963 
Q 2534 3019 2420 3045 
Q 2306 3072 2169 3072 
Q 1681 3072 1420 2755 
Q 1159 2438 1159 1844 
L 1159 0 
L 581 0 
L 581 3500 
L 1159 3500 
L 1159 2956 
Q 1341 3275 1631 3429 
Q 1922 3584 2338 3584 
Q 2397 3584 2469 3576 
Q 2541 3569 2628 3553 
L 2631 2963 
z
" transform="scale(0.015625)"/>
       <path id="DejaVuSans-69" d="M 603 3500 
L 1178 3500 
L 1178 0 
L 603 0 
L 603 3500 
z
M 603 4863 
L 1178 4863 
L 1178 4134 
L 603 4134 
L 603 4863 
z
" transform="scale(0.015625)"/>
       <path id="Cmmi10-54" d="M 294 84 
Q 297 100 308 140 
Q 319 181 336 203 
Q 353 225 384 225 
Q 934 225 1113 256 
Q 1284 300 1319 441 
L 2194 3956 
Q 2222 4034 2222 4097 
Q 2222 4147 1997 4147 
L 1625 4147 
Q 1197 4147 964 4015 
Q 731 3884 622 3668 
Q 513 3453 341 2963 
Q 319 2906 275 2906 
L 219 2906 
Q 153 2906 153 2988 
L 609 4313 
Q 622 4372 672 4372 
L 4453 4372 
Q 4519 4372 4519 4288 
L 4306 2963 
Q 4306 2944 4284 2925 
Q 4263 2906 4244 2906 
L 4184 2906 
Q 4122 2906 4122 2988 
Q 4191 3441 4191 3628 
Q 4191 3853 4097 3968 
Q 4003 4084 3853 4115 
Q 3703 4147 3463 4147 
L 3084 4147 
Q 2913 4147 2853 4115 
Q 2794 4084 2753 3928 
L 1875 416 
Q 1872 403 1870 390 
Q 1869 378 1863 359 
Q 1863 278 1959 256 
Q 2125 225 2669 225 
Q 2731 225 2731 141 
Q 2709 50 2696 25 
Q 2684 0 2625 0 
L 359 0 
Q 294 0 294 84 
z
" transform="scale(0.015625)"/>
      </defs>
      <use xlink:href="#DejaVuSans-6c" transform="translate(0 0.015625)"/>
      <use xlink:href="#DejaVuSans-65" transform="translate(27.783203 0.015625)"/>
      <use xlink:href="#DejaVuSans-6e" transform="translate(89.306641 0.015625)"/>
      <use xlink:href="#DejaVuSans-67" transform="translate(152.685547 0.015625)"/>
      <use xlink:href="#DejaVuSans-74" transform="translate(216.162109 0.015625)"/>
      <use xlink:href="#DejaVuSans-68" transform="translate(255.371094 0.015625)"/>
      <use xlink:href="#DejaVuSans-20" transform="translate(318.75 0.015625)"/>
      <use xlink:href="#DejaVuSans-6f" transform="translate(350.537109 0.015625)"/>
      <use xlink:href="#DejaVuSans-66" transform="translate(411.71875 0.015625)"/>
      <use xlink:href="#DejaVuSans-20" transform="translate(446.923828 0.015625)"/>
      <use xlink:href="#DejaVuSans-70" transform="translate(478.710938 0.015625)"/>
      <use xlink:href="#DejaVuSans-72" transform="translate(542.1875 0.015625)"/>
      <use xlink:href="#DejaVuSans-69" transform="translate(583.300781 0.015625)"/>
      <use xlink:href="#DejaVuSans-6f" transform="translate(611.083984 0.015625)"/>
      <use xlink:href="#DejaVuSans-72" transform="translate(672.265625 0.015625)"/>
      <use xlink:href="#DejaVuSans-20" transform="translate(713.378906 0.015625)"/>
      <use xlink:href="#Cmmi10-54" transform="translate(745.166016 0.015625)"/>
     </g>
    </g>
   </g>
   <g id="matplotlib.axis_2">
    <g id="ytick_1">
     <g id="line2d_17">
      <path d="M 32.002188 139.514038 
L 228.286174 139.514038 
" clip-path="url(#pb130978663)" style="fill: none; stroke: #000000; stroke-opacity: 0.1; stroke-width: 0.5; stroke-linecap: square"/>
     </g>
     <g id="line2d_18">
      <defs>
       <path id="m2639660539" d="M 0 0 
L 3 0 
" style="stroke: #000000; stroke-width: 0.5"/>
      </defs>
      <g>
       <use xlink:href="#m2639660539" x="32.002188" y="139.514038" style="stroke: #000000; stroke-width: 0.5"/>
      </g>
     </g>
     <g id="text_10">
      <!-- 0.0 -->
      <g transform="translate(19.37 142.173491)scale(0.07 -0.07)">
       <defs>
        <path id="DejaVuSans-30" d="M 2034 4250 
Q 1547 4250 1301 3770 
Q 1056 3291 1056 2328 
Q 1056 1369 1301 889 
Q 1547 409 2034 409 
Q 2525 409 2770 889 
Q 3016 1369 3016 2328 
Q 3016 3291 2770 3770 
Q 2525 4250 2034 4250 
z
M 2034 4750 
Q 2819 4750 3233 4129 
Q 3647 3509 3647 2328 
Q 3647 1150 3233 529 
Q 2819 -91 2034 -91 
Q 1250 -91 836 529 
Q 422 1150 422 2328 
Q 422 3509 836 4129 
Q 1250 4750 2034 4750 
z
" transform="scale(0.015625)"/>
        <path id="DejaVuSans-2e" d="M 684 794 
L 1344 794 
L 1344 0 
L 684 0 
L 684 794 
z
" transform="scale(0.015625)"/>
       </defs>
       <use xlink:href="#DejaVuSans-30"/>
       <use xlink:href="#DejaVuSans-2e" x="63.623047"/>
       <use xlink:href="#DejaVuSans-30" x="95.410156"/>
      </g>
     </g>
    </g>
    <g id="ytick_2">
     <g id="line2d_19">
      <path d="M 32.002188 119.796033 
L 228.286174 119.796033 
" clip-path="url(#pb130978663)" style="fill: none; stroke: #000000; stroke-opacity: 0.1; stroke-width: 0.5; stroke-linecap: square"/>
     </g>
     <g id="line2d_20">
      <g>
       <use xlink:href="#m2639660539" x="32.002188" y="119.796033" style="stroke: #000000; stroke-width: 0.5"/>
      </g>
     </g>
     <g id="text_11">
      <!-- 0.1 -->
      <g transform="translate(19.37 122.455486)scale(0.07 -0.07)">
       <use xlink:href="#DejaVuSans-30"/>
       <use xlink:href="#DejaVuSans-2e" x="63.623047"/>
       <use xlink:href="#DejaVuSans-31" x="95.410156"/>
      </g>
     </g>
    </g>
    <g id="ytick_3">
     <g id="line2d_21">
      <path d="M 32.002188 100.078029 
L 228.286174 100.078029 
" clip-path="url(#pb130978663)" style="fill: none; stroke: #000000; stroke-opacity: 0.1; stroke-width: 0.5; stroke-linecap: square"/>
     </g>
     <g id="line2d_22">
      <g>
       <use xlink:href="#m2639660539" x="32.002188" y="100.078029" style="stroke: #000000; stroke-width: 0.5"/>
      </g>
     </g>
     <g id="text_12">
      <!-- 0.2 -->
      <g transform="translate(19.37 102.737482)scale(0.07 -0.07)">
       <defs>
        <path id="DejaVuSans-32" d="M 1228 531 
L 3431 531 
L 3431 0 
L 469 0 
L 469 531 
Q 828 903 1448 1529 
Q 2069 2156 2228 2338 
Q 2531 2678 2651 2914 
Q 2772 3150 2772 3378 
Q 2772 3750 2511 3984 
Q 2250 4219 1831 4219 
Q 1534 4219 1204 4116 
Q 875 4013 500 3803 
L 500 4441 
Q 881 4594 1212 4672 
Q 1544 4750 1819 4750 
Q 2544 4750 2975 4387 
Q 3406 4025 3406 3419 
Q 3406 3131 3298 2873 
Q 3191 2616 2906 2266 
Q 2828 2175 2409 1742 
Q 1991 1309 1228 531 
z
" transform="scale(0.015625)"/>
       </defs>
       <use xlink:href="#DejaVuSans-30"/>
       <use xlink:href="#DejaVuSans-2e" x="63.623047"/>
       <use xlink:href="#DejaVuSans-32" x="95.410156"/>
      </g>
     </g>
    </g>
    <g id="ytick_4">
     <g id="line2d_23">
      <path d="M 32.002188 80.360024 
L 228.286174 80.360024 
" clip-path="url(#pb130978663)" style="fill: none; stroke: #000000; stroke-opacity: 0.1; stroke-width: 0.5; stroke-linecap: square"/>
     </g>
     <g id="line2d_24">
      <g>
       <use xlink:href="#m2639660539" x="32.002188" y="80.360024" style="stroke: #000000; stroke-width: 0.5"/>
      </g>
     </g>
     <g id="text_13">
      <!-- 0.3 -->
      <g transform="translate(19.37 83.019477)scale(0.07 -0.07)">
       <use xlink:href="#DejaVuSans-30"/>
       <use xlink:href="#DejaVuSans-2e" x="63.623047"/>
       <use xlink:href="#DejaVuSans-33" x="95.410156"/>
      </g>
     </g>
    </g>
    <g id="ytick_5">
     <g id="line2d_25">
      <path d="M 32.002188 60.64202 
L 228.286174 60.64202 
" clip-path="url(#pb130978663)" style="fill: none; stroke: #000000; stroke-opacity: 0.1; stroke-width: 0.5; stroke-linecap: square"/>
     </g>
     <g id="line2d_26">
      <g>
       <use xlink:href="#m2639660539" x="32.002188" y="60.64202" style="stroke: #000000; stroke-width: 0.5"/>
      </g>
     </g>
     <g id="text_14">
      <!-- 0.4 -->
      <g transform="translate(19.37 63.301473)scale(0.07 -0.07)">
       <defs>
        <path id="DejaVuSans-34" d="M 2419 4116 
L 825 1625 
L 2419 1625 
L 2419 4116 
z
M 2253 4666 
L 3047 4666 
L 3047 1625 
L 3713 1625 
L 3713 1100 
L 3047 1100 
L 3047 0 
L 2419 0 
L 2419 1100 
L 313 1100 
L 313 1709 
L 2253 4666 
z
" transform="scale(0.015625)"/>
       </defs>
       <use xlink:href="#DejaVuSans-30"/>
       <use xlink:href="#DejaVuSans-2e" x="63.623047"/>
       <use xlink:href="#DejaVuSans-34" x="95.410156"/>
      </g>
     </g>
    </g>
    <g id="ytick_6">
     <g id="line2d_27">
      <path d="M 32.002188 40.924015 
L 228.286174 40.924015 
" clip-path="url(#pb130978663)" style="fill: none; stroke: #000000; stroke-opacity: 0.1; stroke-width: 0.5; stroke-linecap: square"/>
     </g>
     <g id="line2d_28">
      <g>
       <use xlink:href="#m2639660539" x="32.002188" y="40.924015" style="stroke: #000000; stroke-width: 0.5"/>
      </g>
     </g>
     <g id="text_15">
      <!-- 0.5 -->
      <g transform="translate(19.37 43.583468)scale(0.07 -0.07)">
       <use xlink:href="#DejaVuSans-30"/>
       <use xlink:href="#DejaVuSans-2e" x="63.623047"/>
       <use xlink:href="#DejaVuSans-35" x="95.410156"/>
      </g>
     </g>
    </g>
    <g id="ytick_7">
     <g id="line2d_29">
      <path d="M 32.002188 21.20601 
L 228.286174 21.20601 
" clip-path="url(#pb130978663)" style="fill: none; stroke: #000000; stroke-opacity: 0.1; stroke-width: 0.5; stroke-linecap: square"/>
     </g>
     <g id="line2d_30">
      <g>
       <use xlink:href="#m2639660539" x="32.002188" y="21.20601" style="stroke: #000000; stroke-width: 0.5"/>
      </g>
     </g>
     <g id="text_16">
      <!-- 0.6 -->
      <g transform="translate(19.37 23.865464)scale(0.07 -0.07)">
       <defs>
        <path id="DejaVuSans-36" d="M 2113 2584 
Q 1688 2584 1439 2293 
Q 1191 2003 1191 1497 
Q 1191 994 1439 701 
Q 1688 409 2113 409 
Q 2538 409 2786 701 
Q 3034 994 3034 1497 
Q 3034 2003 2786 2293 
Q 2538 2584 2113 2584 
z
M 3366 4563 
L 3366 3988 
Q 3128 4100 2886 4159 
Q 2644 4219 2406 4219 
Q 1781 4219 1451 3797 
Q 1122 3375 1075 2522 
Q 1259 2794 1537 2939 
Q 1816 3084 2150 3084 
Q 2853 3084 3261 2657 
Q 3669 2231 3669 1497 
Q 3669 778 3244 343 
Q 2819 -91 2113 -91 
Q 1303 -91 875 529 
Q 447 1150 447 2328 
Q 447 3434 972 4092 
Q 1497 4750 2381 4750 
Q 2619 4750 2861 4703 
Q 3103 4656 3366 4563 
z
" transform="scale(0.015625)"/>
       </defs>
       <use xlink:href="#DejaVuSans-30"/>
       <use xlink:href="#DejaVuSans-2e" x="63.623047"/>
       <use xlink:href="#DejaVuSans-36" x="95.410156"/>
      </g>
     </g>
    </g>
    <g id="text_17">
     <!-- Base Probability Rate $\tilde{b}$ -->
     <g transform="translate(15.48 127.257293)rotate(-90)scale(0.09 -0.09)">
      <defs>
       <path id="DejaVuSans-42" d="M 1259 2228 
L 1259 519 
L 2272 519 
Q 2781 519 3026 730 
Q 3272 941 3272 1375 
Q 3272 1813 3026 2020 
Q 2781 2228 2272 2228 
L 1259 2228 
z
M 1259 4147 
L 1259 2741 
L 2194 2741 
Q 2656 2741 2882 2914 
Q 3109 3088 3109 3444 
Q 3109 3797 2882 3972 
Q 2656 4147 2194 4147 
L 1259 4147 
z
M 628 4666 
L 2241 4666 
Q 2963 4666 3353 4366 
Q 3744 4066 3744 3513 
Q 3744 3084 3544 2831 
Q 3344 2578 2956 2516 
Q 3422 2416 3680 2098 
Q 3938 1781 3938 1306 
Q 3938 681 3513 340 
Q 3088 0 2303 0 
L 628 0 
L 628 4666 
z
" transform="scale(0.015625)"/>
       <path id="DejaVuSans-61" d="M 2194 1759 
Q 1497 1759 1228 1600 
Q 959 1441 959 1056 
Q 959 750 1161 570 
Q 1363 391 1709 391 
Q 2188 391 2477 730 
Q 2766 1069 2766 1631 
L 2766 1759 
L 2194 1759 
z
M 3341 1997 
L 3341 0 
L 2766 0 
L 2766 531 
Q 2569 213 2275 61 
Q 1981 -91 1556 -91 
Q 1019 -91 701 211 
Q 384 513 384 1019 
Q 384 1609 779 1909 
Q 1175 2209 1959 2209 
L 2766 2209 
L 2766 2266 
Q 2766 2663 2505 2880 
Q 2244 3097 1772 3097 
Q 1472 3097 1187 3025 
Q 903 2953 641 2809 
L 641 3341 
Q 956 3463 1253 3523 
Q 1550 3584 1831 3584 
Q 2591 3584 2966 3190 
Q 3341 2797 3341 1997 
z
" transform="scale(0.015625)"/>
       <path id="DejaVuSans-73" d="M 2834 3397 
L 2834 2853 
Q 2591 2978 2328 3040 
Q 2066 3103 1784 3103 
Q 1356 3103 1142 2972 
Q 928 2841 928 2578 
Q 928 2378 1081 2264 
Q 1234 2150 1697 2047 
L 1894 2003 
Q 2506 1872 2764 1633 
Q 3022 1394 3022 966 
Q 3022 478 2636 193 
Q 2250 -91 1575 -91 
Q 1294 -91 989 -36 
Q 684 19 347 128 
L 347 722 
Q 666 556 975 473 
Q 1284 391 1588 391 
Q 1994 391 2212 530 
Q 2431 669 2431 922 
Q 2431 1156 2273 1281 
Q 2116 1406 1581 1522 
L 1381 1569 
Q 847 1681 609 1914 
Q 372 2147 372 2553 
Q 372 3047 722 3315 
Q 1072 3584 1716 3584 
Q 2034 3584 2315 3537 
Q 2597 3491 2834 3397 
z
" transform="scale(0.015625)"/>
       <path id="DejaVuSans-50" d="M 1259 4147 
L 1259 2394 
L 2053 2394 
Q 2494 2394 2734 2622 
Q 2975 2850 2975 3272 
Q 2975 3691 2734 3919 
Q 2494 4147 2053 4147 
L 1259 4147 
z
M 628 4666 
L 2053 4666 
Q 2838 4666 3239 4311 
Q 3641 3956 3641 3272 
Q 3641 2581 3239 2228 
Q 2838 1875 2053 1875 
L 1259 1875 
L 1259 0 
L 628 0 
L 628 4666 
z
" transform="scale(0.015625)"/>
       <path id="DejaVuSans-62" d="M 3116 1747 
Q 3116 2381 2855 2742 
Q 2594 3103 2138 3103 
Q 1681 3103 1420 2742 
Q 1159 2381 1159 1747 
Q 1159 1113 1420 752 
Q 1681 391 2138 391 
Q 2594 391 2855 752 
Q 3116 1113 3116 1747 
z
M 1159 2969 
Q 1341 3281 1617 3432 
Q 1894 3584 2278 3584 
Q 2916 3584 3314 3078 
Q 3713 2572 3713 1747 
Q 3713 922 3314 415 
Q 2916 -91 2278 -91 
Q 1894 -91 1617 61 
Q 1341 213 1159 525 
L 1159 0 
L 581 0 
L 581 4863 
L 1159 4863 
L 1159 2969 
z
" transform="scale(0.015625)"/>
       <path id="DejaVuSans-79" d="M 2059 -325 
Q 1816 -950 1584 -1140 
Q 1353 -1331 966 -1331 
L 506 -1331 
L 506 -850 
L 844 -850 
Q 1081 -850 1212 -737 
Q 1344 -625 1503 -206 
L 1606 56 
L 191 3500 
L 800 3500 
L 1894 763 
L 2988 3500 
L 3597 3500 
L 2059 -325 
z
" transform="scale(0.015625)"/>
       <path id="DejaVuSans-52" d="M 2841 2188 
Q 3044 2119 3236 1894 
Q 3428 1669 3622 1275 
L 4263 0 
L 3584 0 
L 2988 1197 
Q 2756 1666 2539 1819 
Q 2322 1972 1947 1972 
L 1259 1972 
L 1259 0 
L 628 0 
L 628 4666 
L 2053 4666 
Q 2853 4666 3247 4331 
Q 3641 3997 3641 3322 
Q 3641 2881 3436 2590 
Q 3231 2300 2841 2188 
z
M 1259 4147 
L 1259 2491 
L 2053 2491 
Q 2509 2491 2742 2702 
Q 2975 2913 2975 3322 
Q 2975 3731 2742 3939 
Q 2509 4147 2053 4147 
L 1259 4147 
z
" transform="scale(0.015625)"/>
       <path id="Cmr10-7e" d="M 531 3769 
L 716 3988 
Q 966 4275 1216 4275 
Q 1338 4275 1483 4203 
Q 1628 4131 1773 4059 
Q 1919 3988 2041 3988 
Q 2297 3988 2534 4275 
L 2663 4166 
L 2478 3950 
Q 2225 3659 1978 3659 
Q 1856 3659 1711 3732 
Q 1566 3806 1420 3878 
Q 1275 3950 1153 3950 
Q 897 3950 659 3659 
L 531 3769 
z
" transform="scale(0.015625)"/>
       <path id="Cmmi10-62" d="M 1106 -72 
Q 719 -72 503 231 
Q 288 534 288 941 
Q 288 1000 317 1173 
Q 347 1347 347 1388 
L 966 3872 
Q 991 3981 997 4044 
Q 997 4147 581 4147 
Q 519 4147 519 4231 
Q 522 4247 533 4287 
Q 544 4328 561 4350 
Q 578 4372 609 4372 
L 1472 4441 
Q 1550 4441 1550 4359 
L 1075 2472 
Q 1438 2828 1806 2828 
Q 2078 2828 2273 2684 
Q 2469 2541 2566 2306 
Q 2663 2072 2663 1806 
Q 2663 1497 2542 1167 
Q 2422 838 2209 555 
Q 1997 272 1712 100 
Q 1428 -72 1106 -72 
z
M 1119 97 
Q 1338 97 1528 280 
Q 1719 463 1838 691 
Q 1966 947 2077 1386 
Q 2188 1825 2188 2088 
Q 2188 2316 2092 2489 
Q 1997 2663 1791 2663 
Q 1559 2663 1348 2492 
Q 1138 2322 978 2088 
L 800 1363 
Q 697 959 691 716 
Q 691 475 795 286 
Q 900 97 1119 97 
z
" transform="scale(0.015625)"/>
      </defs>
      <use xlink:href="#DejaVuSans-42" transform="translate(0 0.484375)"/>
      <use xlink:href="#DejaVuSans-61" transform="translate(68.603516 0.484375)"/>
      <use xlink:href="#DejaVuSans-73" transform="translate(129.882812 0.484375)"/>
      <use xlink:href="#DejaVuSans-65" transform="translate(181.982422 0.484375)"/>
      <use xlink:href="#DejaVuSans-20" transform="translate(243.505859 0.484375)"/>
      <use xlink:href="#DejaVuSans-50" transform="translate(275.292969 0.484375)"/>
      <use xlink:href="#DejaVuSans-72" transform="translate(335.595703 0.484375)"/>
      <use xlink:href="#DejaVuSans-6f" transform="translate(376.708984 0.484375)"/>
      <use xlink:href="#DejaVuSans-62" transform="translate(437.890625 0.484375)"/>
      <use xlink:href="#DejaVuSans-61" transform="translate(501.367188 0.484375)"/>
      <use xlink:href="#DejaVuSans-62" transform="translate(562.646484 0.484375)"/>
      <use xlink:href="#DejaVuSans-69" transform="translate(626.123047 0.484375)"/>
      <use xlink:href="#DejaVuSans-6c" transform="translate(653.90625 0.484375)"/>
      <use xlink:href="#DejaVuSans-69" transform="translate(681.689453 0.484375)"/>
      <use xlink:href="#DejaVuSans-74" transform="translate(709.472656 0.484375)"/>
      <use xlink:href="#DejaVuSans-79" transform="translate(748.681641 0.484375)"/>
      <use xlink:href="#DejaVuSans-20" transform="translate(807.861328 0.484375)"/>
      <use xlink:href="#DejaVuSans-52" transform="translate(839.648438 0.484375)"/>
      <use xlink:href="#DejaVuSans-61" transform="translate(909.130859 0.484375)"/>
      <use xlink:href="#DejaVuSans-74" transform="translate(970.410156 0.484375)"/>
      <use xlink:href="#DejaVuSans-65" transform="translate(1009.619141 0.484375)"/>
      <use xlink:href="#DejaVuSans-20" transform="translate(1071.142578 0.484375)"/>
      <use xlink:href="#Cmr10-7e" transform="translate(1104.362793 25.203125)"/>
      <use xlink:href="#Cmmi10-62" transform="translate(1102.929688 0.484375)"/>
     </g>
    </g>
   </g>
   <g id="line2d_31">
    <defs>
     <path id="m66ee9a8470" d="M 0 2 
C 0.530406 2 1.03916 1.789267 1.414214 1.414214 
C 1.789267 1.03916 2 0.530406 2 0 
C 2 -0.530406 1.789267 -1.03916 1.414214 -1.414214 
C 1.03916 -1.789267 0.530406 -2 0 -2 
C -0.530406 -2 -1.03916 -1.789267 -1.414214 -1.414214 
C -1.789267 -1.03916 -2 -0.530406 -2 0 
C -2 0.530406 -1.789267 1.03916 -1.414214 1.414214 
C -1.03916 1.789267 -0.530406 2 0 2 
z
" style="stroke: #005ea8"/>
    </defs>
    <g clip-path="url(#pb130978663)">
     <use xlink:href="#m66ee9a8470" x="38.544987" y="126.465614" style="fill-opacity: 0; stroke: #005ea8"/>
     <use xlink:href="#m66ee9a8470" x="51.630586" y="130.676805" style="fill-opacity: 0; stroke: #005ea8"/>
     <use xlink:href="#m66ee9a8470" x="64.716185" y="132.782648" style="fill-opacity: 0; stroke: #005ea8"/>
     <use xlink:href="#m66ee9a8470" x="77.801784" y="134.062292" style="fill-opacity: 0; stroke: #005ea8"/>
     <use xlink:href="#m66ee9a8470" x="90.887383" y="134.945709" style="fill-opacity: 0; stroke: #005ea8"/>
     <use xlink:href="#m66ee9a8470" x="103.972982" y="135.62905" style="fill-opacity: 0; stroke: #005ea8"/>
     <use xlink:href="#m66ee9a8470" x="117.058581" y="136.069952" style="fill-opacity: 0; stroke: #005ea8"/>
     <use xlink:href="#m66ee9a8470" x="130.144181" y="136.456193" style="fill-opacity: 0; stroke: #005ea8"/>
     <use xlink:href="#m66ee9a8470" x="143.22978" y="136.743582" style="fill-opacity: 0; stroke: #005ea8"/>
     <use xlink:href="#m66ee9a8470" x="156.315379" y="136.996865" style="fill-opacity: 0; stroke: #005ea8"/>
     <use xlink:href="#m66ee9a8470" x="169.400978" y="137.195142" style="fill-opacity: 0; stroke: #005ea8"/>
     <use xlink:href="#m66ee9a8470" x="182.486577" y="137.369649" style="fill-opacity: 0; stroke: #005ea8"/>
     <use xlink:href="#m66ee9a8470" x="195.572176" y="137.52968" style="fill-opacity: 0; stroke: #005ea8"/>
     <use xlink:href="#m66ee9a8470" x="208.657775" y="137.666621" style="fill-opacity: 0; stroke: #005ea8"/>
     <use xlink:href="#m66ee9a8470" x="221.743374" y="137.779301" style="fill-opacity: 0; stroke: #005ea8"/>
    </g>
   </g>
   <g id="line2d_32">
    <defs>
     <path id="me39376abf6" d="M 0 2 
C 0.530406 2 1.03916 1.789267 1.414214 1.414214 
C 1.789267 1.03916 2 0.530406 2 0 
C 2 -0.530406 1.789267 -1.03916 1.414214 -1.414214 
C 1.03916 -1.789267 0.530406 -2 0 -2 
C -0.530406 -2 -1.03916 -1.789267 -1.414214 -1.414214 
C -1.789267 -1.03916 -2 -0.530406 -2 0 
C -2 0.530406 -1.789267 1.03916 -1.414214 1.414214 
C -1.03916 1.789267 -0.530406 2 0 2 
z
" style="stroke: #f17900"/>
    </defs>
    <g clip-path="url(#pb130978663)">
     <use xlink:href="#me39376abf6" x="38.544987" y="13.79044" style="fill-opacity: 0; stroke: #f17900"/>
     <use xlink:href="#me39376abf6" x="51.630586" y="37.644633" style="fill-opacity: 0; stroke: #f17900"/>
     <use xlink:href="#me39376abf6" x="64.716185" y="54.462165" style="fill-opacity: 0; stroke: #f17900"/>
     <use xlink:href="#me39376abf6" x="77.801784" y="66.614774" style="fill-opacity: 0; stroke: #f17900"/>
     <use xlink:href="#me39376abf6" x="90.887383" y="75.688754" style="fill-opacity: 0; stroke: #f17900"/>
     <use xlink:href="#me39376abf6" x="103.972982" y="82.628552" style="fill-opacity: 0; stroke: #f17900"/>
     <use xlink:href="#me39376abf6" x="117.058581" y="88.321574" style="fill-opacity: 0; stroke: #f17900"/>
     <use xlink:href="#me39376abf6" x="130.144181" y="92.967066" style="fill-opacity: 0; stroke: #f17900"/>
     <use xlink:href="#me39376abf6" x="143.22978" y="96.828338" style="fill-opacity: 0; stroke: #f17900"/>
     <use xlink:href="#me39376abf6" x="156.315379" y="100.092957" style="fill-opacity: 0; stroke: #f17900"/>
     <use xlink:href="#me39376abf6" x="169.400978" y="102.865698" style="fill-opacity: 0; stroke: #f17900"/>
     <use xlink:href="#me39376abf6" x="182.486577" y="105.22338" style="fill-opacity: 0; stroke: #f17900"/>
     <use xlink:href="#me39376abf6" x="195.572176" y="107.435083" style="fill-opacity: 0; stroke: #f17900"/>
     <use xlink:href="#me39376abf6" x="208.657775" y="109.288635" style="fill-opacity: 0; stroke: #f17900"/>
     <use xlink:href="#me39376abf6" x="221.743374" y="110.951048" style="fill-opacity: 0; stroke: #f17900"/>
    </g>
   </g>
   <g id="line2d_33">
    <defs>
     <path id="m23d94013d3" d="M 0 2 
C 0.530406 2 1.03916 1.789267 1.414214 1.414214 
C 1.789267 1.03916 2 0.530406 2 0 
C 2 -0.530406 1.789267 -1.03916 1.414214 -1.414214 
C 1.03916 -1.789267 0.530406 -2 0 -2 
C -0.530406 -2 -1.03916 -1.789267 -1.414214 -1.414214 
C -1.789267 -1.03916 -2 -0.530406 -2 0 
C -2 0.530406 -1.789267 1.03916 -1.414214 1.414214 
C -1.03916 1.789267 -0.530406 2 0 2 
z
" style="stroke: #ae0060"/>
    </defs>
    <g clip-path="url(#pb130978663)">
     <use xlink:href="#m23d94013d3" x="38.544987" y="82.845084" style="fill-opacity: 0; stroke: #ae0060"/>
     <use xlink:href="#m23d94013d3" x="51.630586" y="119.176063" style="fill-opacity: 0; stroke: #ae0060"/>
     <use xlink:href="#m23d94013d3" x="64.716185" y="126.516212" style="fill-opacity: 0; stroke: #ae0060"/>
     <use xlink:href="#m23d94013d3" x="77.801784" y="128.430917" style="fill-opacity: 0; stroke: #ae0060"/>
     <use xlink:href="#m23d94013d3" x="90.887383" y="129.834694" style="fill-opacity: 0; stroke: #ae0060"/>
     <use xlink:href="#m23d94013d3" x="103.972982" y="130.937029" style="fill-opacity: 0; stroke: #ae0060"/>
     <use xlink:href="#m23d94013d3" x="117.058581" y="131.82341" style="fill-opacity: 0; stroke: #ae0060"/>
     <use xlink:href="#m23d94013d3" x="130.144181" y="132.518158" style="fill-opacity: 0; stroke: #ae0060"/>
     <use xlink:href="#m23d94013d3" x="143.22978" y="133.056249" style="fill-opacity: 0; stroke: #ae0060"/>
     <use xlink:href="#m23d94013d3" x="156.315379" y="133.602412" style="fill-opacity: 0; stroke: #ae0060"/>
     <use xlink:href="#m23d94013d3" x="169.400978" y="134.095562" style="fill-opacity: 0; stroke: #ae0060"/>
     <use xlink:href="#m23d94013d3" x="182.486577" y="134.364082" style="fill-opacity: 0; stroke: #ae0060"/>
     <use xlink:href="#m23d94013d3" x="195.572176" y="134.76494" style="fill-opacity: 0; stroke: #ae0060"/>
     <use xlink:href="#m23d94013d3" x="208.657775" y="135.024136" style="fill-opacity: 0; stroke: #ae0060"/>
     <use xlink:href="#m23d94013d3" x="221.743374" y="135.282668" style="fill-opacity: 0; stroke: #ae0060"/>
    </g>
   </g>
   <g id="line2d_34">
    <defs>
     <path id="m268a95c85a" d="M 0 2 
C 0.530406 2 1.03916 1.789267 1.414214 1.414214 
C 1.789267 1.03916 2 0.530406 2 0 
C 2 -0.530406 1.789267 -1.03916 1.414214 -1.414214 
C 1.03916 -1.789267 0.530406 -2 0 -2 
C -0.530406 -2 -1.03916 -1.789267 -1.414214 -1.414214 
C -1.789267 -1.03916 -2 -0.530406 -2 0 
C -2 0.530406 -1.789267 1.03916 -1.414214 1.414214 
C -1.03916 1.789267 -0.530406 2 0 2 
z
" style="stroke: #00afa5"/>
    </defs>
    <g clip-path="url(#pb130978663)">
     <use xlink:href="#m268a95c85a" x="38.544987" y="114.597965" style="fill-opacity: 0; stroke: #00afa5"/>
     <use xlink:href="#m268a95c85a" x="51.630586" y="127.660739" style="fill-opacity: 0; stroke: #00afa5"/>
     <use xlink:href="#m268a95c85a" x="64.716185" y="132.085861" style="fill-opacity: 0; stroke: #00afa5"/>
     <use xlink:href="#m268a95c85a" x="77.801784" y="133.533043" style="fill-opacity: 0; stroke: #00afa5"/>
     <use xlink:href="#m268a95c85a" x="90.887383" y="134.497097" style="fill-opacity: 0; stroke: #00afa5"/>
     <use xlink:href="#m268a95c85a" x="103.972982" y="135.134388" style="fill-opacity: 0; stroke: #00afa5"/>
     <use xlink:href="#m268a95c85a" x="117.058581" y="135.73166" style="fill-opacity: 0; stroke: #00afa5"/>
     <use xlink:href="#m268a95c85a" x="130.144181" y="136.103523" style="fill-opacity: 0; stroke: #00afa5"/>
     <use xlink:href="#m268a95c85a" x="143.22978" y="136.419994" style="fill-opacity: 0; stroke: #00afa5"/>
     <use xlink:href="#m268a95c85a" x="156.315379" y="136.717887" style="fill-opacity: 0; stroke: #00afa5"/>
     <use xlink:href="#m268a95c85a" x="169.400978" y="136.932037" style="fill-opacity: 0; stroke: #00afa5"/>
     <use xlink:href="#m268a95c85a" x="182.486577" y="137.129961" style="fill-opacity: 0; stroke: #00afa5"/>
     <use xlink:href="#m268a95c85a" x="195.572176" y="137.280554" style="fill-opacity: 0; stroke: #00afa5"/>
     <use xlink:href="#m268a95c85a" x="208.657775" y="137.446306" style="fill-opacity: 0; stroke: #00afa5"/>
     <use xlink:href="#m268a95c85a" x="221.743374" y="137.547401" style="fill-opacity: 0; stroke: #00afa5"/>
    </g>
   </g>
   <g id="line2d_35">
    <path d="M 38.544987 127.44179 
L 51.630586 131.353289 
L 64.716185 133.350475 
L 77.801784 134.562343 
L 90.887383 135.375973 
L 103.972982 135.95996 
L 117.058581 136.399504 
L 130.144181 136.742295 
L 143.22978 137.017111 
L 156.315379 137.242348 
L 169.400978 137.430313 
L 182.486577 137.589549 
L 195.572176 137.726176 
L 208.657775 137.844689 
L 221.743374 137.948468 
" clip-path="url(#pb130978663)" style="fill: none; stroke: #005ea8; stroke-opacity: 0.5; stroke-linecap: square"/>
   </g>
   <g id="line2d_36">
    <path d="M 38.544987 13.426118 
L 51.630586 38.052718 
L 64.716185 54.824046 
L 77.801784 66.897855 
L 90.887383 75.982676 
L 103.972982 83.058235 
L 117.058581 88.721433 
L 130.144181 93.355236 
L 143.22978 97.216139 
L 156.315379 100.4822 
L 169.400978 103.280804 
L 182.486577 105.705455 
L 195.572176 107.826314 
L 208.657775 109.697048 
L 221.743374 111.359398 
" clip-path="url(#pb130978663)" style="fill: none; stroke: #f17900; stroke-opacity: 0.5; stroke-linecap: square"/>
   </g>
   <g id="patch_3">
    <path d="M 32.002188 144.174585 
L 32.002188 7.2 
" style="fill: none; stroke: #000000; stroke-width: 0.5; stroke-linejoin: miter; stroke-linecap: square"/>
   </g>
   <g id="patch_4">
    <path d="M 228.286174 144.174585 
L 228.286174 7.2 
" style="fill: none; stroke: #000000; stroke-width: 0.5; stroke-linejoin: miter; stroke-linecap: square"/>
   </g>
   <g id="patch_5">
    <path d="M 32.002188 144.174585 
L 228.286174 144.174585 
" style="fill: none; stroke: #000000; stroke-width: 0.5; stroke-linejoin: miter; stroke-linecap: square"/>
   </g>
   <g id="patch_6">
    <path d="M 32.002188 7.2 
L 228.286174 7.2 
" style="fill: none; stroke: #000000; stroke-width: 0.5; stroke-linejoin: miter; stroke-linecap: square"/>
   </g>
   <g id="legend_1">
    <g id="patch_7">
     <path d="M 165.426174 64.46 
L 223.386174 64.46 
Q 224.786174 64.46 224.786174 63.06 
L 224.786174 12.1 
Q 224.786174 10.7 223.386174 10.7 
L 165.426174 10.7 
Q 164.026174 10.7 164.026174 12.1 
L 164.026174 63.06 
Q 164.026174 64.46 165.426174 64.46 
z
" style="fill: #ffffff; opacity: 0.8; stroke: #cccccc; stroke-linejoin: miter"/>
    </g>
    <g id="line2d_37">
     <defs>
      <path id="m254a377ad6" d="M 0 1.5 
C 0.397805 1.5 0.77937 1.341951 1.06066 1.06066 
C 1.341951 0.77937 1.5 0.397805 1.5 0 
C 1.5 -0.397805 1.341951 -0.77937 1.06066 -1.06066 
C 0.77937 -1.341951 0.397805 -1.5 0 -1.5 
C -0.397805 -1.5 -0.77937 -1.341951 -1.06066 -1.06066 
C -1.341951 -0.77937 -1.5 -0.397805 -1.5 0 
C -1.5 0.397805 -1.341951 0.77937 -1.06066 1.06066 
C -0.77937 1.341951 -0.397805 1.5 0 1.5 
z
" style="stroke: #005ea8"/>
     </defs>
     <g>
      <use xlink:href="#m254a377ad6" x="172.426174" y="16.09" style="fill-opacity: 0; stroke: #005ea8"/>
     </g>
    </g>
    <g id="text_18">
     <!-- $\tilde{b}_{1}$ sampled -->
     <g transform="translate(185.026174 18.54)scale(0.07 -0.07)">
      <defs>
       <path id="Cmr10-31" d="M 594 0 
L 594 225 
Q 1394 225 1394 428 
L 1394 3788 
Q 1063 3628 556 3628 
L 556 3853 
Q 1341 3853 1741 4263 
L 1831 4263 
Q 1853 4263 1873 4245 
Q 1894 4228 1894 4206 
L 1894 428 
Q 1894 225 2694 225 
L 2694 0 
L 594 0 
z
" transform="scale(0.015625)"/>
       <path id="DejaVuSans-6d" d="M 3328 2828 
Q 3544 3216 3844 3400 
Q 4144 3584 4550 3584 
Q 5097 3584 5394 3201 
Q 5691 2819 5691 2113 
L 5691 0 
L 5113 0 
L 5113 2094 
Q 5113 2597 4934 2840 
Q 4756 3084 4391 3084 
Q 3944 3084 3684 2787 
Q 3425 2491 3425 1978 
L 3425 0 
L 2847 0 
L 2847 2094 
Q 2847 2600 2669 2842 
Q 2491 3084 2119 3084 
Q 1678 3084 1418 2786 
Q 1159 2488 1159 1978 
L 1159 0 
L 581 0 
L 581 3500 
L 1159 3500 
L 1159 2956 
Q 1356 3278 1631 3431 
Q 1906 3584 2284 3584 
Q 2666 3584 2933 3390 
Q 3200 3197 3328 2828 
z
" transform="scale(0.015625)"/>
       <path id="DejaVuSans-64" d="M 2906 2969 
L 2906 4863 
L 3481 4863 
L 3481 0 
L 2906 0 
L 2906 525 
Q 2725 213 2448 61 
Q 2172 -91 1784 -91 
Q 1150 -91 751 415 
Q 353 922 353 1747 
Q 353 2572 751 3078 
Q 1150 3584 1784 3584 
Q 2172 3584 2448 3432 
Q 2725 3281 2906 2969 
z
M 947 1747 
Q 947 1113 1208 752 
Q 1469 391 1925 391 
Q 2381 391 2643 752 
Q 2906 1113 2906 1747 
Q 2906 2381 2643 2742 
Q 2381 3103 1925 3103 
Q 1469 3103 1208 2742 
Q 947 2381 947 1747 
z
" transform="scale(0.015625)"/>
      </defs>
      <use xlink:href="#Cmr10-7e" transform="translate(1.433105 25.203125)"/>
      <use xlink:href="#Cmmi10-62" transform="translate(0 0.484375)"/>
      <use xlink:href="#Cmr10-31" transform="translate(47.384062 -16.521875)scale(0.7)"/>
      <use xlink:href="#DejaVuSans-20" transform="translate(88.761406 0.484375)"/>
      <use xlink:href="#DejaVuSans-73" transform="translate(120.548516 0.484375)"/>
      <use xlink:href="#DejaVuSans-61" transform="translate(172.648125 0.484375)"/>
      <use xlink:href="#DejaVuSans-6d" transform="translate(233.927422 0.484375)"/>
      <use xlink:href="#DejaVuSans-70" transform="translate(331.339531 0.484375)"/>
      <use xlink:href="#DejaVuSans-6c" transform="translate(394.816094 0.484375)"/>
      <use xlink:href="#DejaVuSans-65" transform="translate(422.599297 0.484375)"/>
      <use xlink:href="#DejaVuSans-64" transform="translate(484.122734 0.484375)"/>
     </g>
    </g>
    <g id="line2d_38">
     <defs>
      <path id="m6c27d9b752" d="M 0 1.5 
C 0.397805 1.5 0.77937 1.341951 1.06066 1.06066 
C 1.341951 0.77937 1.5 0.397805 1.5 0 
C 1.5 -0.397805 1.341951 -0.77937 1.06066 -1.06066 
C 0.77937 -1.341951 0.397805 -1.5 0 -1.5 
C -0.397805 -1.5 -0.77937 -1.341951 -1.06066 -1.06066 
C -1.341951 -0.77937 -1.5 -0.397805 -1.5 0 
C -1.5 0.397805 -1.341951 0.77937 -1.06066 1.06066 
C -0.77937 1.341951 -0.397805 1.5 0 1.5 
z
" style="stroke: #f17900"/>
     </defs>
     <g>
      <use xlink:href="#m6c27d9b752" x="172.426174" y="24.7" style="fill-opacity: 0; stroke: #f17900"/>
     </g>
    </g>
    <g id="text_19">
     <!-- $\tilde{b}_{2}$ sampled -->
     <g transform="translate(185.026174 27.15)scale(0.07 -0.07)">
      <defs>
       <path id="Cmr10-32" d="M 319 0 
L 319 172 
Q 319 188 331 206 
L 1325 1306 
Q 1550 1550 1690 1715 
Q 1831 1881 1968 2097 
Q 2106 2313 2186 2536 
Q 2266 2759 2266 3009 
Q 2266 3272 2169 3511 
Q 2072 3750 1880 3894 
Q 1688 4038 1416 4038 
Q 1138 4038 916 3870 
Q 694 3703 603 3438 
Q 628 3444 672 3444 
Q 816 3444 917 3347 
Q 1019 3250 1019 3097 
Q 1019 2950 917 2848 
Q 816 2747 672 2747 
Q 522 2747 420 2851 
Q 319 2956 319 3097 
Q 319 3338 409 3548 
Q 500 3759 670 3923 
Q 841 4088 1055 4175 
Q 1269 4263 1509 4263 
Q 1875 4263 2190 4108 
Q 2506 3953 2690 3670 
Q 2875 3388 2875 3009 
Q 2875 2731 2753 2481 
Q 2631 2231 2440 2026 
Q 2250 1822 1953 1562 
Q 1656 1303 1563 1216 
L 838 519 
L 1453 519 
Q 1906 519 2211 526 
Q 2516 534 2534 550 
Q 2609 631 2688 1141 
L 2875 1141 
L 2694 0 
L 319 0 
z
" transform="scale(0.015625)"/>
      </defs>
      <use xlink:href="#Cmr10-7e" transform="translate(1.433105 25.203125)"/>
      <use xlink:href="#Cmmi10-62" transform="translate(0 0.484375)"/>
      <use xlink:href="#Cmr10-32" transform="translate(47.384062 -16.521875)scale(0.7)"/>
      <use xlink:href="#DejaVuSans-20" transform="translate(88.761406 0.484375)"/>
      <use xlink:href="#DejaVuSans-73" transform="translate(120.548516 0.484375)"/>
      <use xlink:href="#DejaVuSans-61" transform="translate(172.648125 0.484375)"/>
      <use xlink:href="#DejaVuSans-6d" transform="translate(233.927422 0.484375)"/>
      <use xlink:href="#DejaVuSans-70" transform="translate(331.339531 0.484375)"/>
      <use xlink:href="#DejaVuSans-6c" transform="translate(394.816094 0.484375)"/>
      <use xlink:href="#DejaVuSans-65" transform="translate(422.599297 0.484375)"/>
      <use xlink:href="#DejaVuSans-64" transform="translate(484.122734 0.484375)"/>
     </g>
    </g>
    <g id="line2d_39">
     <defs>
      <path id="m21ef8345f1" d="M 0 1.5 
C 0.397805 1.5 0.77937 1.341951 1.06066 1.06066 
C 1.341951 0.77937 1.5 0.397805 1.5 0 
C 1.5 -0.397805 1.341951 -0.77937 1.06066 -1.06066 
C 0.77937 -1.341951 0.397805 -1.5 0 -1.5 
C -0.397805 -1.5 -0.77937 -1.341951 -1.06066 -1.06066 
C -1.341951 -0.77937 -1.5 -0.397805 -1.5 0 
C -1.5 0.397805 -1.341951 0.77937 -1.06066 1.06066 
C -0.77937 1.341951 -0.397805 1.5 0 1.5 
z
" style="stroke: #ae0060"/>
     </defs>
     <g>
      <use xlink:href="#m21ef8345f1" x="172.426174" y="33.31" style="fill-opacity: 0; stroke: #ae0060"/>
     </g>
    </g>
    <g id="text_20">
     <!-- $\tilde{b}_{3}$ sampled -->
     <g transform="translate(185.026174 35.76)scale(0.07 -0.07)">
      <defs>
       <path id="Cmr10-33" d="M 609 494 
Q 759 275 1012 169 
Q 1266 63 1556 63 
Q 1928 63 2084 380 
Q 2241 697 2241 1100 
Q 2241 1281 2208 1462 
Q 2175 1644 2097 1800 
Q 2019 1956 1883 2050 
Q 1747 2144 1550 2144 
L 1125 2144 
Q 1069 2144 1069 2203 
L 1069 2259 
Q 1069 2309 1125 2309 
L 1478 2338 
Q 1703 2338 1851 2506 
Q 2000 2675 2069 2917 
Q 2138 3159 2138 3378 
Q 2138 3684 1994 3881 
Q 1850 4078 1556 4078 
Q 1313 4078 1091 3986 
Q 869 3894 738 3706 
Q 750 3709 759 3711 
Q 769 3713 781 3713 
Q 925 3713 1022 3613 
Q 1119 3513 1119 3372 
Q 1119 3234 1022 3134 
Q 925 3034 781 3034 
Q 641 3034 541 3134 
Q 441 3234 441 3372 
Q 441 3647 606 3850 
Q 772 4053 1033 4158 
Q 1294 4263 1556 4263 
Q 1750 4263 1965 4205 
Q 2181 4147 2356 4039 
Q 2531 3931 2642 3762 
Q 2753 3594 2753 3378 
Q 2753 3109 2633 2881 
Q 2513 2653 2303 2487 
Q 2094 2322 1844 2241 
Q 2122 2188 2372 2031 
Q 2622 1875 2773 1631 
Q 2925 1388 2925 1106 
Q 2925 753 2731 467 
Q 2538 181 2222 20 
Q 1906 -141 1556 -141 
Q 1256 -141 954 -26 
Q 653 88 461 316 
Q 269 544 269 863 
Q 269 1022 375 1128 
Q 481 1234 641 1234 
Q 744 1234 830 1186 
Q 916 1138 964 1050 
Q 1013 963 1013 863 
Q 1013 706 903 600 
Q 794 494 641 494 
L 609 494 
z
" transform="scale(0.015625)"/>
      </defs>
      <use xlink:href="#Cmr10-7e" transform="translate(1.433105 25.203125)"/>
      <use xlink:href="#Cmmi10-62" transform="translate(0 0.484375)"/>
      <use xlink:href="#Cmr10-33" transform="translate(47.384062 -16.521875)scale(0.7)"/>
      <use xlink:href="#DejaVuSans-20" transform="translate(88.761406 0.484375)"/>
      <use xlink:href="#DejaVuSans-73" transform="translate(120.548516 0.484375)"/>
      <use xlink:href="#DejaVuSans-61" transform="translate(172.648125 0.484375)"/>
      <use xlink:href="#DejaVuSans-6d" transform="translate(233.927422 0.484375)"/>
      <use xlink:href="#DejaVuSans-70" transform="translate(331.339531 0.484375)"/>
      <use xlink:href="#DejaVuSans-6c" transform="translate(394.816094 0.484375)"/>
      <use xlink:href="#DejaVuSans-65" transform="translate(422.599297 0.484375)"/>
      <use xlink:href="#DejaVuSans-64" transform="translate(484.122734 0.484375)"/>
     </g>
    </g>
    <g id="line2d_40">
     <defs>
      <path id="mdefa96bf1c" d="M 0 1.5 
C 0.397805 1.5 0.77937 1.341951 1.06066 1.06066 
C 1.341951 0.77937 1.5 0.397805 1.5 0 
C 1.5 -0.397805 1.341951 -0.77937 1.06066 -1.06066 
C 0.77937 -1.341951 0.397805 -1.5 0 -1.5 
C -0.397805 -1.5 -0.77937 -1.341951 -1.06066 -1.06066 
C -1.341951 -0.77937 -1.5 -0.397805 -1.5 0 
C -1.5 0.397805 -1.341951 0.77937 -1.06066 1.06066 
C -0.77937 1.341951 -0.397805 1.5 0 1.5 
z
" style="stroke: #00afa5"/>
     </defs>
     <g>
      <use xlink:href="#mdefa96bf1c" x="172.426174" y="41.92" style="fill-opacity: 0; stroke: #00afa5"/>
     </g>
    </g>
    <g id="text_21">
     <!-- $\tilde{b}_{4}$ sampled -->
     <g transform="translate(185.026174 44.37)scale(0.07 -0.07)">
      <defs>
       <path id="Cmr10-34" d="M 178 1056 
L 178 1281 
L 2156 4231 
Q 2178 4263 2222 4263 
L 2316 4263 
Q 2388 4263 2388 4191 
L 2388 1281 
L 3016 1281 
L 3016 1056 
L 2388 1056 
L 2388 428 
Q 2388 297 2575 261 
Q 2763 225 3009 225 
L 3009 0 
L 1247 0 
L 1247 225 
Q 1494 225 1681 261 
Q 1869 297 1869 428 
L 1869 1056 
L 178 1056 
z
M 391 1281 
L 1906 1281 
L 1906 3547 
L 391 1281 
z
" transform="scale(0.015625)"/>
      </defs>
      <use xlink:href="#Cmr10-7e" transform="translate(1.433105 25.203125)"/>
      <use xlink:href="#Cmmi10-62" transform="translate(0 0.484375)"/>
      <use xlink:href="#Cmr10-34" transform="translate(47.384062 -16.521875)scale(0.7)"/>
      <use xlink:href="#DejaVuSans-20" transform="translate(88.761406 0.484375)"/>
      <use xlink:href="#DejaVuSans-73" transform="translate(120.548516 0.484375)"/>
      <use xlink:href="#DejaVuSans-61" transform="translate(172.648125 0.484375)"/>
      <use xlink:href="#DejaVuSans-6d" transform="translate(233.927422 0.484375)"/>
      <use xlink:href="#DejaVuSans-70" transform="translate(331.339531 0.484375)"/>
      <use xlink:href="#DejaVuSans-6c" transform="translate(394.816094 0.484375)"/>
      <use xlink:href="#DejaVuSans-65" transform="translate(422.599297 0.484375)"/>
      <use xlink:href="#DejaVuSans-64" transform="translate(484.122734 0.484375)"/>
     </g>
    </g>
    <g id="line2d_41">
     <path d="M 165.426174 50.53 
L 172.426174 50.53 
L 179.426174 50.53 
" style="fill: none; stroke: #005ea8; stroke-opacity: 0.5; stroke-linecap: square"/>
    </g>
    <g id="text_22">
     <!-- $\tilde{b}_{1}$ theory -->
     <g transform="translate(185.026174 52.98)scale(0.07 -0.07)">
      <use xlink:href="#Cmr10-7e" transform="translate(1.433105 25.203125)"/>
      <use xlink:href="#Cmmi10-62" transform="translate(0 0.484375)"/>
      <use xlink:href="#Cmr10-31" transform="translate(47.384062 -16.521875)scale(0.7)"/>
      <use xlink:href="#DejaVuSans-20" transform="translate(88.761406 0.484375)"/>
      <use xlink:href="#DejaVuSans-74" transform="translate(120.548516 0.484375)"/>
      <use xlink:href="#DejaVuSans-68" transform="translate(159.7575 0.484375)"/>
      <use xlink:href="#DejaVuSans-65" transform="translate(223.136406 0.484375)"/>
      <use xlink:href="#DejaVuSans-6f" transform="translate(284.659844 0.484375)"/>
      <use xlink:href="#DejaVuSans-72" transform="translate(345.841484 0.484375)"/>
      <use xlink:href="#DejaVuSans-79" transform="translate(386.954766 0.484375)"/>
     </g>
    </g>
    <g id="line2d_42">
     <path d="M 165.426174 59.14 
L 172.426174 59.14 
L 179.426174 59.14 
" style="fill: none; stroke: #f17900; stroke-opacity: 0.5; stroke-linecap: square"/>
    </g>
    <g id="text_23">
     <!-- $\tilde{b}_{2}$ theory -->
     <g transform="translate(185.026174 61.59)scale(0.07 -0.07)">
      <use xlink:href="#Cmr10-7e" transform="translate(1.433105 25.203125)"/>
      <use xlink:href="#Cmmi10-62" transform="translate(0 0.484375)"/>
      <use xlink:href="#Cmr10-32" transform="translate(47.384062 -16.521875)scale(0.7)"/>
      <use xlink:href="#DejaVuSans-20" transform="translate(88.761406 0.484375)"/>
      <use xlink:href="#DejaVuSans-74" transform="translate(120.548516 0.484375)"/>
      <use xlink:href="#DejaVuSans-68" transform="translate(159.7575 0.484375)"/>
      <use xlink:href="#DejaVuSans-65" transform="translate(223.136406 0.484375)"/>
      <use xlink:href="#DejaVuSans-6f" transform="translate(284.659844 0.484375)"/>
      <use xlink:href="#DejaVuSans-72" transform="translate(345.841484 0.484375)"/>
      <use xlink:href="#DejaVuSans-79" transform="translate(386.954766 0.484375)"/>
     </g>
    </g>
   </g>
  </g>
  <g id="axes_2">
   <g id="patch_8">
    <path d="M 258.458841 144.174585 
L 454.742827 144.174585 
L 454.742827 7.2 
L 258.458841 7.2 
z
" style="fill: #ffffff"/>
   </g>
   <g id="matplotlib.axis_3">
    <g id="xtick_9">
     <g id="line2d_43">
      <path d="M 265.001641 144.174585 
L 265.001641 7.2 
" clip-path="url(#p4b820c9fd7)" style="fill: none; stroke: #000000; stroke-opacity: 0.1; stroke-width: 0.5; stroke-linecap: square"/>
     </g>
     <g id="line2d_44">
      <g>
       <use xlink:href="#m41dca29bfa" x="265.001641" y="144.174585" style="stroke: #000000; stroke-width: 0.5"/>
      </g>
     </g>
     <g id="text_24">
      <!-- 1 -->
      <g transform="translate(262.774766 150.993491)scale(0.07 -0.07)">
       <use xlink:href="#DejaVuSans-31"/>
      </g>
     </g>
    </g>
    <g id="xtick_10">
     <g id="line2d_45">
      <path d="M 291.172839 144.174585 
L 291.172839 7.2 
" clip-path="url(#p4b820c9fd7)" style="fill: none; stroke: #000000; stroke-opacity: 0.1; stroke-width: 0.5; stroke-linecap: square"/>
     </g>
     <g id="line2d_46">
      <g>
       <use xlink:href="#m41dca29bfa" x="291.172839" y="144.174585" style="stroke: #000000; stroke-width: 0.5"/>
      </g>
     </g>
     <g id="text_25">
      <!-- 3 -->
      <g transform="translate(288.945964 150.993491)scale(0.07 -0.07)">
       <use xlink:href="#DejaVuSans-33"/>
      </g>
     </g>
    </g>
    <g id="xtick_11">
     <g id="line2d_47">
      <path d="M 317.344037 144.174585 
L 317.344037 7.2 
" clip-path="url(#p4b820c9fd7)" style="fill: none; stroke: #000000; stroke-opacity: 0.1; stroke-width: 0.5; stroke-linecap: square"/>
     </g>
     <g id="line2d_48">
      <g>
       <use xlink:href="#m41dca29bfa" x="317.344037" y="144.174585" style="stroke: #000000; stroke-width: 0.5"/>
      </g>
     </g>
     <g id="text_26">
      <!-- 5 -->
      <g transform="translate(315.117162 150.993491)scale(0.07 -0.07)">
       <use xlink:href="#DejaVuSans-35"/>
      </g>
     </g>
    </g>
    <g id="xtick_12">
     <g id="line2d_49">
      <path d="M 343.515235 144.174585 
L 343.515235 7.2 
" clip-path="url(#p4b820c9fd7)" style="fill: none; stroke: #000000; stroke-opacity: 0.1; stroke-width: 0.5; stroke-linecap: square"/>
     </g>
     <g id="line2d_50">
      <g>
       <use xlink:href="#m41dca29bfa" x="343.515235" y="144.174585" style="stroke: #000000; stroke-width: 0.5"/>
      </g>
     </g>
     <g id="text_27">
      <!-- 7 -->
      <g transform="translate(341.28836 150.993491)scale(0.07 -0.07)">
       <use xlink:href="#DejaVuSans-37"/>
      </g>
     </g>
    </g>
    <g id="xtick_13">
     <g id="line2d_51">
      <path d="M 369.686433 144.174585 
L 369.686433 7.2 
" clip-path="url(#p4b820c9fd7)" style="fill: none; stroke: #000000; stroke-opacity: 0.1; stroke-width: 0.5; stroke-linecap: square"/>
     </g>
     <g id="line2d_52">
      <g>
       <use xlink:href="#m41dca29bfa" x="369.686433" y="144.174585" style="stroke: #000000; stroke-width: 0.5"/>
      </g>
     </g>
     <g id="text_28">
      <!-- 9 -->
      <g transform="translate(367.459558 150.993491)scale(0.07 -0.07)">
       <use xlink:href="#DejaVuSans-39"/>
      </g>
     </g>
    </g>
    <g id="xtick_14">
     <g id="line2d_53">
      <path d="M 395.857631 144.174585 
L 395.857631 7.2 
" clip-path="url(#p4b820c9fd7)" style="fill: none; stroke: #000000; stroke-opacity: 0.1; stroke-width: 0.5; stroke-linecap: square"/>
     </g>
     <g id="line2d_54">
      <g>
       <use xlink:href="#m41dca29bfa" x="395.857631" y="144.174585" style="stroke: #000000; stroke-width: 0.5"/>
      </g>
     </g>
     <g id="text_29">
      <!-- 11 -->
      <g transform="translate(391.403881 150.993491)scale(0.07 -0.07)">
       <use xlink:href="#DejaVuSans-31"/>
       <use xlink:href="#DejaVuSans-31" x="63.623047"/>
      </g>
     </g>
    </g>
    <g id="xtick_15">
     <g id="line2d_55">
      <path d="M 422.028829 144.174585 
L 422.028829 7.2 
" clip-path="url(#p4b820c9fd7)" style="fill: none; stroke: #000000; stroke-opacity: 0.1; stroke-width: 0.5; stroke-linecap: square"/>
     </g>
     <g id="line2d_56">
      <g>
       <use xlink:href="#m41dca29bfa" x="422.028829" y="144.174585" style="stroke: #000000; stroke-width: 0.5"/>
      </g>
     </g>
     <g id="text_30">
      <!-- 13 -->
      <g transform="translate(417.575079 150.993491)scale(0.07 -0.07)">
       <use xlink:href="#DejaVuSans-31"/>
       <use xlink:href="#DejaVuSans-33" x="63.623047"/>
      </g>
     </g>
    </g>
    <g id="xtick_16">
     <g id="line2d_57">
      <path d="M 448.200028 144.174585 
L 448.200028 7.2 
" clip-path="url(#p4b820c9fd7)" style="fill: none; stroke: #000000; stroke-opacity: 0.1; stroke-width: 0.5; stroke-linecap: square"/>
     </g>
     <g id="line2d_58">
      <g>
       <use xlink:href="#m41dca29bfa" x="448.200028" y="144.174585" style="stroke: #000000; stroke-width: 0.5"/>
      </g>
     </g>
     <g id="text_31">
      <!-- 15 -->
      <g transform="translate(443.746278 150.993491)scale(0.07 -0.07)">
       <use xlink:href="#DejaVuSans-31"/>
       <use xlink:href="#DejaVuSans-35" x="63.623047"/>
      </g>
     </g>
    </g>
    <g id="text_32">
     <!-- length of prior $T$ -->
     <g transform="translate(320.420834 161.289273)scale(0.09 -0.09)">
      <use xlink:href="#DejaVuSans-6c" transform="translate(0 0.015625)"/>
      <use xlink:href="#DejaVuSans-65" transform="translate(27.783203 0.015625)"/>
      <use xlink:href="#DejaVuSans-6e" transform="translate(89.306641 0.015625)"/>
      <use xlink:href="#DejaVuSans-67" transform="translate(152.685547 0.015625)"/>
      <use xlink:href="#DejaVuSans-74" transform="translate(216.162109 0.015625)"/>
      <use xlink:href="#DejaVuSans-68" transform="translate(255.371094 0.015625)"/>
      <use xlink:href="#DejaVuSans-20" transform="translate(318.75 0.015625)"/>
      <use xlink:href="#DejaVuSans-6f" transform="translate(350.537109 0.015625)"/>
      <use xlink:href="#DejaVuSans-66" transform="translate(411.71875 0.015625)"/>
      <use xlink:href="#DejaVuSans-20" transform="translate(446.923828 0.015625)"/>
      <use xlink:href="#DejaVuSans-70" transform="translate(478.710938 0.015625)"/>
      <use xlink:href="#DejaVuSans-72" transform="translate(542.1875 0.015625)"/>
      <use xlink:href="#DejaVuSans-69" transform="translate(583.300781 0.015625)"/>
      <use xlink:href="#DejaVuSans-6f" transform="translate(611.083984 0.015625)"/>
      <use xlink:href="#DejaVuSans-72" transform="translate(672.265625 0.015625)"/>
      <use xlink:href="#DejaVuSans-20" transform="translate(713.378906 0.015625)"/>
      <use xlink:href="#Cmmi10-54" transform="translate(745.166016 0.015625)"/>
     </g>
    </g>
   </g>
   <g id="matplotlib.axis_4">
    <g id="ytick_8">
     <g id="line2d_59">
      <path d="M 258.458841 131.033853 
L 454.742827 131.033853 
" clip-path="url(#p4b820c9fd7)" style="fill: none; stroke: #000000; stroke-opacity: 0.1; stroke-width: 0.5; stroke-linecap: square"/>
     </g>
     <g id="line2d_60">
      <g>
       <use xlink:href="#m2639660539" x="258.458841" y="131.033853" style="stroke: #000000; stroke-width: 0.5"/>
      </g>
     </g>
     <g id="text_33">
      <!-- 0.1 -->
      <g transform="translate(245.826654 133.693306)scale(0.07 -0.07)">
       <use xlink:href="#DejaVuSans-30"/>
       <use xlink:href="#DejaVuSans-2e" x="63.623047"/>
       <use xlink:href="#DejaVuSans-31" x="95.410156"/>
      </g>
     </g>
    </g>
    <g id="ytick_9">
     <g id="line2d_61">
      <path d="M 258.458841 112.420276 
L 454.742827 112.420276 
" clip-path="url(#p4b820c9fd7)" style="fill: none; stroke: #000000; stroke-opacity: 0.1; stroke-width: 0.5; stroke-linecap: square"/>
     </g>
     <g id="line2d_62">
      <g>
       <use xlink:href="#m2639660539" x="258.458841" y="112.420276" style="stroke: #000000; stroke-width: 0.5"/>
      </g>
     </g>
     <g id="text_34">
      <!-- 0.2 -->
      <g transform="translate(245.826654 115.079729)scale(0.07 -0.07)">
       <use xlink:href="#DejaVuSans-30"/>
       <use xlink:href="#DejaVuSans-2e" x="63.623047"/>
       <use xlink:href="#DejaVuSans-32" x="95.410156"/>
      </g>
     </g>
    </g>
    <g id="ytick_10">
     <g id="line2d_63">
      <path d="M 258.458841 93.806699 
L 454.742827 93.806699 
" clip-path="url(#p4b820c9fd7)" style="fill: none; stroke: #000000; stroke-opacity: 0.1; stroke-width: 0.5; stroke-linecap: square"/>
     </g>
     <g id="line2d_64">
      <g>
       <use xlink:href="#m2639660539" x="258.458841" y="93.806699" style="stroke: #000000; stroke-width: 0.5"/>
      </g>
     </g>
     <g id="text_35">
      <!-- 0.3 -->
      <g transform="translate(245.826654 96.466152)scale(0.07 -0.07)">
       <use xlink:href="#DejaVuSans-30"/>
       <use xlink:href="#DejaVuSans-2e" x="63.623047"/>
       <use xlink:href="#DejaVuSans-33" x="95.410156"/>
      </g>
     </g>
    </g>
    <g id="ytick_11">
     <g id="line2d_65">
      <path d="M 258.458841 75.193122 
L 454.742827 75.193122 
" clip-path="url(#p4b820c9fd7)" style="fill: none; stroke: #000000; stroke-opacity: 0.1; stroke-width: 0.5; stroke-linecap: square"/>
     </g>
     <g id="line2d_66">
      <g>
       <use xlink:href="#m2639660539" x="258.458841" y="75.193122" style="stroke: #000000; stroke-width: 0.5"/>
      </g>
     </g>
     <g id="text_36">
      <!-- 0.4 -->
      <g transform="translate(245.826654 77.852575)scale(0.07 -0.07)">
       <use xlink:href="#DejaVuSans-30"/>
       <use xlink:href="#DejaVuSans-2e" x="63.623047"/>
       <use xlink:href="#DejaVuSans-34" x="95.410156"/>
      </g>
     </g>
    </g>
    <g id="ytick_12">
     <g id="line2d_67">
      <path d="M 258.458841 56.579545 
L 454.742827 56.579545 
" clip-path="url(#p4b820c9fd7)" style="fill: none; stroke: #000000; stroke-opacity: 0.1; stroke-width: 0.5; stroke-linecap: square"/>
     </g>
     <g id="line2d_68">
      <g>
       <use xlink:href="#m2639660539" x="258.458841" y="56.579545" style="stroke: #000000; stroke-width: 0.5"/>
      </g>
     </g>
     <g id="text_37">
      <!-- 0.5 -->
      <g transform="translate(245.826654 59.238998)scale(0.07 -0.07)">
       <use xlink:href="#DejaVuSans-30"/>
       <use xlink:href="#DejaVuSans-2e" x="63.623047"/>
       <use xlink:href="#DejaVuSans-35" x="95.410156"/>
      </g>
     </g>
    </g>
    <g id="ytick_13">
     <g id="line2d_69">
      <path d="M 258.458841 37.965968 
L 454.742827 37.965968 
" clip-path="url(#p4b820c9fd7)" style="fill: none; stroke: #000000; stroke-opacity: 0.1; stroke-width: 0.5; stroke-linecap: square"/>
     </g>
     <g id="line2d_70">
      <g>
       <use xlink:href="#m2639660539" x="258.458841" y="37.965968" style="stroke: #000000; stroke-width: 0.5"/>
      </g>
     </g>
     <g id="text_38">
      <!-- 0.6 -->
      <g transform="translate(245.826654 40.625421)scale(0.07 -0.07)">
       <use xlink:href="#DejaVuSans-30"/>
       <use xlink:href="#DejaVuSans-2e" x="63.623047"/>
       <use xlink:href="#DejaVuSans-36" x="95.410156"/>
      </g>
     </g>
    </g>
    <g id="ytick_14">
     <g id="line2d_71">
      <path d="M 258.458841 19.352391 
L 454.742827 19.352391 
" clip-path="url(#p4b820c9fd7)" style="fill: none; stroke: #000000; stroke-opacity: 0.1; stroke-width: 0.5; stroke-linecap: square"/>
     </g>
     <g id="line2d_72">
      <g>
       <use xlink:href="#m2639660539" x="258.458841" y="19.352391" style="stroke: #000000; stroke-width: 0.5"/>
      </g>
     </g>
     <g id="text_39">
      <!-- 0.7 -->
      <g transform="translate(245.826654 22.011844)scale(0.07 -0.07)">
       <use xlink:href="#DejaVuSans-30"/>
       <use xlink:href="#DejaVuSans-2e" x="63.623047"/>
       <use xlink:href="#DejaVuSans-37" x="95.410156"/>
      </g>
     </g>
    </g>
    <g id="text_40">
     <!-- Transition Probability Rate $\tilde{t}$ -->
     <g transform="translate(241.936654 138.417293)rotate(-90)scale(0.09 -0.09)">
      <defs>
       <path id="DejaVuSans-54" d="M -19 4666 
L 3928 4666 
L 3928 4134 
L 2272 4134 
L 2272 0 
L 1638 0 
L 1638 4134 
L -19 4134 
L -19 4666 
z
" transform="scale(0.015625)"/>
       <path id="Cmmi10-74" d="M 397 519 
Q 397 613 416 697 
L 878 2534 
L 206 2534 
Q 141 2534 141 2619 
Q 166 2759 225 2759 
L 934 2759 
L 1191 3803 
Q 1216 3888 1291 3947 
Q 1366 4006 1459 4006 
Q 1541 4006 1595 3957 
Q 1650 3909 1650 3828 
Q 1650 3809 1648 3798 
Q 1647 3788 1644 3775 
L 1388 2759 
L 2047 2759 
Q 2113 2759 2113 2675 
Q 2109 2659 2100 2621 
Q 2091 2584 2075 2559 
Q 2059 2534 2028 2534 
L 1331 2534 
L 872 684 
Q 825 503 825 372 
Q 825 97 1013 97 
Q 1294 97 1511 361 
Q 1728 625 1844 941 
Q 1869 978 1894 978 
L 1972 978 
Q 1997 978 2012 961 
Q 2028 944 2028 922 
Q 2028 909 2022 903 
Q 1881 516 1612 222 
Q 1344 -72 997 -72 
Q 744 -72 570 93 
Q 397 259 397 519 
z
" transform="scale(0.015625)"/>
      </defs>
      <use xlink:href="#DejaVuSans-54" transform="translate(0 0.28125)"/>
      <use xlink:href="#DejaVuSans-72" transform="translate(61.083984 0.28125)"/>
      <use xlink:href="#DejaVuSans-61" transform="translate(102.197266 0.28125)"/>
      <use xlink:href="#DejaVuSans-6e" transform="translate(163.476562 0.28125)"/>
      <use xlink:href="#DejaVuSans-73" transform="translate(226.855469 0.28125)"/>
      <use xlink:href="#DejaVuSans-69" transform="translate(278.955078 0.28125)"/>
      <use xlink:href="#DejaVuSans-74" transform="translate(306.738281 0.28125)"/>
      <use xlink:href="#DejaVuSans-69" transform="translate(345.947266 0.28125)"/>
      <use xlink:href="#DejaVuSans-6f" transform="translate(373.730469 0.28125)"/>
      <use xlink:href="#DejaVuSans-6e" transform="translate(434.912109 0.28125)"/>
      <use xlink:href="#DejaVuSans-20" transform="translate(498.291016 0.28125)"/>
      <use xlink:href="#DejaVuSans-50" transform="translate(530.078125 0.28125)"/>
      <use xlink:href="#DejaVuSans-72" transform="translate(590.380859 0.28125)"/>
      <use xlink:href="#DejaVuSans-6f" transform="translate(631.494141 0.28125)"/>
      <use xlink:href="#DejaVuSans-62" transform="translate(692.675781 0.28125)"/>
      <use xlink:href="#DejaVuSans-61" transform="translate(756.152344 0.28125)"/>
      <use xlink:href="#DejaVuSans-62" transform="translate(817.431641 0.28125)"/>
      <use xlink:href="#DejaVuSans-69" transform="translate(880.908203 0.28125)"/>
      <use xlink:href="#DejaVuSans-6c" transform="translate(908.691406 0.28125)"/>
      <use xlink:href="#DejaVuSans-69" transform="translate(936.474609 0.28125)"/>
      <use xlink:href="#DejaVuSans-74" transform="translate(964.257812 0.28125)"/>
      <use xlink:href="#DejaVuSans-79" transform="translate(1003.466797 0.28125)"/>
      <use xlink:href="#DejaVuSans-20" transform="translate(1062.646484 0.28125)"/>
      <use xlink:href="#DejaVuSans-52" transform="translate(1094.433594 0.28125)"/>
      <use xlink:href="#DejaVuSans-61" transform="translate(1163.916016 0.28125)"/>
      <use xlink:href="#DejaVuSans-74" transform="translate(1225.195312 0.28125)"/>
      <use xlink:href="#DejaVuSans-65" transform="translate(1264.404297 0.28125)"/>
      <use xlink:href="#DejaVuSans-20" transform="translate(1325.927734 0.28125)"/>
      <use xlink:href="#Cmr10-7e" transform="translate(1355.438965 18.203125)"/>
      <use xlink:href="#Cmmi10-74" transform="translate(1357.714844 0.28125)"/>
     </g>
    </g>
   </g>
   <g id="line2d_73">
    <g clip-path="url(#p4b820c9fd7)">
     <use xlink:href="#m66ee9a8470" x="278.08724" y="69.223264" style="fill-opacity: 0; stroke: #005ea8"/>
     <use xlink:href="#m66ee9a8470" x="291.172839" y="74.688735" style="fill-opacity: 0; stroke: #005ea8"/>
     <use xlink:href="#m66ee9a8470" x="304.258438" y="81.093802" style="fill-opacity: 0; stroke: #005ea8"/>
     <use xlink:href="#m66ee9a8470" x="317.344037" y="86.502709" style="fill-opacity: 0; stroke: #005ea8"/>
     <use xlink:href="#m66ee9a8470" x="330.429636" y="93.712977" style="fill-opacity: 0; stroke: #005ea8"/>
     <use xlink:href="#m66ee9a8470" x="343.515235" y="97.323463" style="fill-opacity: 0; stroke: #005ea8"/>
     <use xlink:href="#m66ee9a8470" x="356.600834" y="101.628876" style="fill-opacity: 0; stroke: #005ea8"/>
     <use xlink:href="#m66ee9a8470" x="369.686433" y="104.89885" style="fill-opacity: 0; stroke: #005ea8"/>
     <use xlink:href="#m66ee9a8470" x="382.772032" y="109.237152" style="fill-opacity: 0; stroke: #005ea8"/>
     <use xlink:href="#m66ee9a8470" x="395.857631" y="110.407268" style="fill-opacity: 0; stroke: #005ea8"/>
     <use xlink:href="#m66ee9a8470" x="408.94323" y="113.958802" style="fill-opacity: 0; stroke: #005ea8"/>
     <use xlink:href="#m66ee9a8470" x="422.028829" y="116.142949" style="fill-opacity: 0; stroke: #005ea8"/>
     <use xlink:href="#m66ee9a8470" x="435.114428" y="119.03257" style="fill-opacity: 0; stroke: #005ea8"/>
     <use xlink:href="#m66ee9a8470" x="448.200028" y="119.344405" style="fill-opacity: 0; stroke: #005ea8"/>
    </g>
   </g>
   <g id="line2d_74">
    <g clip-path="url(#p4b820c9fd7)">
     <use xlink:href="#me39376abf6" x="278.08724" y="17.920116" style="fill-opacity: 0; stroke: #f17900"/>
     <use xlink:href="#me39376abf6" x="291.172839" y="63.963838" style="fill-opacity: 0; stroke: #f17900"/>
     <use xlink:href="#me39376abf6" x="304.258438" y="91.317387" style="fill-opacity: 0; stroke: #f17900"/>
     <use xlink:href="#me39376abf6" x="317.344037" y="105.691452" style="fill-opacity: 0; stroke: #f17900"/>
     <use xlink:href="#me39376abf6" x="330.429636" y="114.567907" style="fill-opacity: 0; stroke: #f17900"/>
     <use xlink:href="#me39376abf6" x="343.515235" y="120.478627" style="fill-opacity: 0; stroke: #f17900"/>
     <use xlink:href="#me39376abf6" x="356.600834" y="124.773685" style="fill-opacity: 0; stroke: #f17900"/>
     <use xlink:href="#me39376abf6" x="369.686433" y="128.136125" style="fill-opacity: 0; stroke: #f17900"/>
     <use xlink:href="#me39376abf6" x="382.772032" y="130.450689" style="fill-opacity: 0; stroke: #f17900"/>
     <use xlink:href="#me39376abf6" x="395.857631" y="132.394791" style="fill-opacity: 0; stroke: #f17900"/>
     <use xlink:href="#me39376abf6" x="408.94323" y="134.155395" style="fill-opacity: 0; stroke: #f17900"/>
     <use xlink:href="#me39376abf6" x="422.028829" y="135.404244" style="fill-opacity: 0; stroke: #f17900"/>
     <use xlink:href="#me39376abf6" x="435.114428" y="136.548031" style="fill-opacity: 0; stroke: #f17900"/>
     <use xlink:href="#me39376abf6" x="448.200028" y="137.459206" style="fill-opacity: 0; stroke: #f17900"/>
    </g>
   </g>
   <g id="line2d_75">
    <g clip-path="url(#p4b820c9fd7)">
     <use xlink:href="#m23d94013d3" x="278.08724" y="13.426118" style="fill-opacity: 0; stroke: #ae0060"/>
     <use xlink:href="#m23d94013d3" x="291.172839" y="55.439048" style="fill-opacity: 0; stroke: #ae0060"/>
     <use xlink:href="#m23d94013d3" x="304.258438" y="90.383288" style="fill-opacity: 0; stroke: #ae0060"/>
     <use xlink:href="#m23d94013d3" x="317.344037" y="106.037382" style="fill-opacity: 0; stroke: #ae0060"/>
     <use xlink:href="#m23d94013d3" x="330.429636" y="115.3552" style="fill-opacity: 0; stroke: #ae0060"/>
     <use xlink:href="#m23d94013d3" x="343.515235" y="121.200296" style="fill-opacity: 0; stroke: #ae0060"/>
     <use xlink:href="#m23d94013d3" x="356.600834" y="125.650323" style="fill-opacity: 0; stroke: #ae0060"/>
     <use xlink:href="#m23d94013d3" x="369.686433" y="128.689822" style="fill-opacity: 0; stroke: #ae0060"/>
     <use xlink:href="#m23d94013d3" x="382.772032" y="131.204217" style="fill-opacity: 0; stroke: #ae0060"/>
     <use xlink:href="#m23d94013d3" x="395.857631" y="133.024749" style="fill-opacity: 0; stroke: #ae0060"/>
     <use xlink:href="#m23d94013d3" x="408.94323" y="134.60234" style="fill-opacity: 0; stroke: #ae0060"/>
     <use xlink:href="#m23d94013d3" x="422.028829" y="135.854757" style="fill-opacity: 0; stroke: #ae0060"/>
     <use xlink:href="#m23d94013d3" x="435.114428" y="136.961634" style="fill-opacity: 0; stroke: #ae0060"/>
     <use xlink:href="#m23d94013d3" x="448.200028" y="137.948468" style="fill-opacity: 0; stroke: #ae0060"/>
    </g>
   </g>
   <g id="patch_9">
    <path d="M 258.458841 144.174585 
L 258.458841 7.2 
" style="fill: none; stroke: #000000; stroke-width: 0.5; stroke-linejoin: miter; stroke-linecap: square"/>
   </g>
   <g id="patch_10">
    <path d="M 454.742827 144.174585 
L 454.742827 7.2 
" style="fill: none; stroke: #000000; stroke-width: 0.5; stroke-linejoin: miter; stroke-linecap: square"/>
   </g>
   <g id="patch_11">
    <path d="M 258.458841 144.174585 
L 454.742827 144.174585 
" style="fill: none; stroke: #000000; stroke-width: 0.5; stroke-linejoin: miter; stroke-linecap: square"/>
   </g>
   <g id="patch_12">
    <path d="M 258.458841 7.2 
L 454.742827 7.2 
" style="fill: none; stroke: #000000; stroke-width: 0.5; stroke-linejoin: miter; stroke-linecap: square"/>
   </g>
   <g id="legend_2">
    <g id="patch_13">
     <path d="M 392.372827 37.16 
L 449.842827 37.16 
Q 451.242827 37.16 451.242827 35.76 
L 451.242827 12.1 
Q 451.242827 10.7 449.842827 10.7 
L 392.372827 10.7 
Q 390.972827 10.7 390.972827 12.1 
L 390.972827 35.76 
Q 390.972827 37.16 392.372827 37.16 
z
" style="fill: #ffffff; opacity: 0.8; stroke: #cccccc; stroke-linejoin: miter"/>
    </g>
    <g id="line2d_76">
     <g>
      <use xlink:href="#m254a377ad6" x="399.372827" y="15.6" style="fill-opacity: 0; stroke: #005ea8"/>
     </g>
    </g>
    <g id="text_41">
     <!-- $\tilde{t}_{1}$ sampled -->
     <g transform="translate(411.972827 18.05)scale(0.07 -0.07)">
      <use xlink:href="#Cmr10-7e" transform="translate(-2.275879 18.203125)"/>
      <use xlink:href="#Cmmi10-74" transform="translate(0 0.28125)"/>
      <use xlink:href="#Cmr10-31" transform="translate(40.548125 -16.725)scale(0.7)"/>
      <use xlink:href="#DejaVuSans-20" transform="translate(81.925469 0.28125)"/>
      <use xlink:href="#DejaVuSans-73" transform="translate(113.712578 0.28125)"/>
      <use xlink:href="#DejaVuSans-61" transform="translate(165.812187 0.28125)"/>
      <use xlink:href="#DejaVuSans-6d" transform="translate(227.091484 0.28125)"/>
      <use xlink:href="#DejaVuSans-70" transform="translate(324.503594 0.28125)"/>
      <use xlink:href="#DejaVuSans-6c" transform="translate(387.980156 0.28125)"/>
      <use xlink:href="#DejaVuSans-65" transform="translate(415.763359 0.28125)"/>
      <use xlink:href="#DejaVuSans-64" transform="translate(477.286797 0.28125)"/>
     </g>
    </g>
    <g id="line2d_77">
     <g>
      <use xlink:href="#m6c27d9b752" x="399.372827" y="23.72" style="fill-opacity: 0; stroke: #f17900"/>
     </g>
    </g>
    <g id="text_42">
     <!-- $\tilde{t}_{2}$ sampled -->
     <g transform="translate(411.972827 26.17)scale(0.07 -0.07)">
      <use xlink:href="#Cmr10-7e" transform="translate(-2.275879 18.203125)"/>
      <use xlink:href="#Cmmi10-74" transform="translate(0 0.28125)"/>
      <use xlink:href="#Cmr10-32" transform="translate(40.548125 -16.725)scale(0.7)"/>
      <use xlink:href="#DejaVuSans-20" transform="translate(81.925469 0.28125)"/>
      <use xlink:href="#DejaVuSans-73" transform="translate(113.712578 0.28125)"/>
      <use xlink:href="#DejaVuSans-61" transform="translate(165.812187 0.28125)"/>
      <use xlink:href="#DejaVuSans-6d" transform="translate(227.091484 0.28125)"/>
      <use xlink:href="#DejaVuSans-70" transform="translate(324.503594 0.28125)"/>
      <use xlink:href="#DejaVuSans-6c" transform="translate(387.980156 0.28125)"/>
      <use xlink:href="#DejaVuSans-65" transform="translate(415.763359 0.28125)"/>
      <use xlink:href="#DejaVuSans-64" transform="translate(477.286797 0.28125)"/>
     </g>
    </g>
    <g id="line2d_78">
     <g>
      <use xlink:href="#m21ef8345f1" x="399.372827" y="31.84" style="fill-opacity: 0; stroke: #ae0060"/>
     </g>
    </g>
    <g id="text_43">
     <!-- $\tilde{t}_{3}$ sampled -->
     <g transform="translate(411.972827 34.29)scale(0.07 -0.07)">
      <use xlink:href="#Cmr10-7e" transform="translate(-2.275879 18.203125)"/>
      <use xlink:href="#Cmmi10-74" transform="translate(0 0.28125)"/>
      <use xlink:href="#Cmr10-33" transform="translate(40.548125 -16.725)scale(0.7)"/>
      <use xlink:href="#DejaVuSans-20" transform="translate(81.925469 0.28125)"/>
      <use xlink:href="#DejaVuSans-73" transform="translate(113.712578 0.28125)"/>
      <use xlink:href="#DejaVuSans-61" transform="translate(165.812187 0.28125)"/>
      <use xlink:href="#DejaVuSans-6d" transform="translate(227.091484 0.28125)"/>
      <use xlink:href="#DejaVuSans-70" transform="translate(324.503594 0.28125)"/>
      <use xlink:href="#DejaVuSans-6c" transform="translate(387.980156 0.28125)"/>
      <use xlink:href="#DejaVuSans-65" transform="translate(415.763359 0.28125)"/>
      <use xlink:href="#DejaVuSans-64" transform="translate(477.286797 0.28125)"/>
     </g>
    </g>
   </g>
  </g>
 </g>
 <defs>
  <clipPath id="pb130978663">
   <rect x="32.002188" y="7.2" width="196.283986" height="136.974585"/>
  </clipPath>
  <clipPath id="p4b820c9fd7">
   <rect x="258.458841" y="7.2" width="196.283986" height="136.974585"/>
  </clipPath>
 </defs>
</svg>
