<?xml version="1.0" encoding="utf-8" standalone="no"?>
<!DOCTYPE svg PUBLIC "-//W3C//DTD SVG 1.1//EN"
  "http://www.w3.org/Graphics/SVG/1.1/DTD/svg11.dtd">
<svg height="163.360658pt" version="1.1" viewBox="0 0 258.469978 163.360658" width="258.469978pt" xmlns="http://www.w3.org/2000/svg" xmlns:xlink="http://www.w3.org/1999/xlink">
 <metadata>
  <rdf:RDF xmlns:cc="http://creativecommons.org/ns#" xmlns:dc="http://purl.org/dc/elements/1.1/" xmlns:rdf="http://www.w3.org/1999/02/22-rdf-syntax-ns#">
   <cc:Work>
    <dc:type rdf:resource="http://purl.org/dc/dcmitype/StillImage"/>
    <dc:date>2021-09-09T11:33:08.302590</dc:date>
    <dc:format>image/svg+xml</dc:format>
    <dc:creator>
     <cc:Agent>
      <dc:title>Matplotlib v3.4.3, https://matplotlib.org/</dc:title>
     </cc:Agent>
    </dc:creator>
   </cc:Work>
  </rdf:RDF>
 </metadata>
 <defs>
  <style type="text/css">*{stroke-linecap:butt;stroke-linejoin:round;}</style>
 </defs>
 <g id="figure_1">
  <g id="patch_1">
   <path d="M 0 163.360658
L 258.469978 163.360658
L 258.469978 0
L 0 0
z
" style="fill:none;"/>
  </g>
  <g id="axes_1">
   <g id="patch_2">
    <path d="M 31.584939 139.471785
L 251.269978 139.471785
L 251.269978 7.2
L 31.584939 7.2
z
" style="fill:#ffffff;"/>
   </g>
   <g id="matplotlib.axis_1">
    <g id="xtick_1">
     <g id="line2d_1">
      <path clip-path="url(#pb8155ecaa7)" d="M 45.315254 139.471785
L 45.315254 7.2
" style="fill:none;stroke:#000000;stroke-linecap:square;stroke-opacity:0.1;stroke-width:0.5;"/>
     </g>
     <g id="line2d_2">
      <defs>
       <path d="M 0 0
L 0 -3
" id="md7f59144f5" style="stroke:#000000;stroke-width:0.5;"/>
      </defs>
      <g>
       <use style="stroke:#000000;stroke-width:0.5;" x="45.315254" xlink:href="#md7f59144f5" y="139.471785"/>
      </g>
     </g>
     <g id="text_1">
      <!-- 1 -->
      <g transform="translate(43.732283 145.220041)scale(0.06246 -0.06246)">
       <defs>
        <path d="M 2897 213
Q 2897 153 2887 112
Q 2878 72 2862 47
Q 2847 22 2826 11
Q 2806 0 2784 0
L 672 0
Q 650 0 631 11
Q 613 22 595 47
Q 578 72 568 112
Q 559 153 559 213
Q 559 269 568 309
Q 578 350 592 376
Q 606 403 626 417
Q 647 431 672 431
L 1516 431
L 1516 3506
L 734 3041
Q 675 3009 639 3003
Q 603 2997 581 3017
Q 559 3038 551 3084
Q 544 3131 544 3203
Q 544 3256 548 3293
Q 553 3331 562 3356
Q 572 3381 589 3400
Q 606 3419 634 3438
L 1566 4034
Q 1578 4044 1597 4050
Q 1616 4056 1644 4062
Q 1672 4069 1709 4070
Q 1747 4072 1803 4072
Q 1878 4072 1928 4065
Q 1978 4059 2006 4048
Q 2034 4038 2043 4020
Q 2053 4003 2053 3984
L 2053 431
L 2784 431
Q 2809 431 2831 417
Q 2853 403 2867 376
Q 2881 350 2889 309
Q 2897 269 2897 213
z
" id="Calibri-31" transform="scale(0.015625)"/>
       </defs>
       <use xlink:href="#Calibri-31"/>
      </g>
     </g>
    </g>
    <g id="xtick_2">
     <g id="line2d_3">
      <path clip-path="url(#pb8155ecaa7)" d="M 72.775884 139.471785
L 72.775884 7.2
" style="fill:none;stroke:#000000;stroke-linecap:square;stroke-opacity:0.1;stroke-width:0.5;"/>
     </g>
     <g id="line2d_4">
      <g>
       <use style="stroke:#000000;stroke-width:0.5;" x="72.775884" xlink:href="#md7f59144f5" y="139.471785"/>
      </g>
     </g>
     <g id="text_2">
      <!-- 3 -->
      <g transform="translate(71.192913 145.220041)scale(0.06246 -0.06246)">
       <defs>
        <path d="M 2856 1156
Q 2856 878 2759 654
Q 2663 431 2481 272
Q 2300 113 2034 27
Q 1769 -59 1434 -59
Q 1231 -59 1054 -26
Q 878 6 740 51
Q 603 97 512 145
Q 422 194 398 216
Q 375 238 362 259
Q 350 281 340 312
Q 331 344 326 389
Q 322 434 322 500
Q 322 613 344 656
Q 366 700 406 700
Q 434 700 517 650
Q 600 600 729 542
Q 859 484 1032 434
Q 1206 384 1419 384
Q 1625 384 1781 437
Q 1938 491 2044 587
Q 2150 684 2203 817
Q 2256 950 2256 1106
Q 2256 1278 2189 1415
Q 2122 1553 1992 1653
Q 1863 1753 1673 1806
Q 1484 1859 1244 1859
L 859 1859
Q 834 1859 811 1870
Q 788 1881 770 1906
Q 753 1931 742 1972
Q 731 2013 731 2078
Q 731 2138 740 2177
Q 750 2216 767 2239
Q 784 2263 806 2273
Q 828 2284 856 2284
L 1209 2284
Q 1416 2284 1580 2337
Q 1744 2391 1858 2491
Q 1972 2591 2033 2730
Q 2094 2869 2094 3041
Q 2094 3166 2053 3280
Q 2013 3394 1931 3478
Q 1850 3563 1723 3611
Q 1597 3659 1431 3659
Q 1250 3659 1098 3604
Q 947 3550 828 3487
Q 709 3425 631 3370
Q 553 3316 522 3316
Q 500 3316 483 3323
Q 466 3331 455 3354
Q 444 3378 439 3420
Q 434 3463 434 3531
Q 434 3578 437 3614
Q 441 3650 450 3676
Q 459 3703 471 3725
Q 484 3747 514 3776
Q 544 3806 634 3862
Q 725 3919 858 3973
Q 991 4028 1164 4065
Q 1338 4103 1538 4103
Q 1819 4103 2031 4031
Q 2244 3959 2386 3828
Q 2528 3697 2598 3514
Q 2669 3331 2669 3109
Q 2669 2919 2619 2755
Q 2569 2591 2472 2464
Q 2375 2338 2234 2248
Q 2094 2159 1909 2125
L 1909 2119
Q 2119 2097 2292 2014
Q 2466 1931 2591 1806
Q 2716 1681 2786 1514
Q 2856 1347 2856 1156
z
" id="Calibri-33" transform="scale(0.015625)"/>
       </defs>
       <use xlink:href="#Calibri-33"/>
      </g>
     </g>
    </g>
    <g id="xtick_3">
     <g id="line2d_5">
      <path clip-path="url(#pb8155ecaa7)" d="M 100.236514 139.471785
L 100.236514 7.2
" style="fill:none;stroke:#000000;stroke-linecap:square;stroke-opacity:0.1;stroke-width:0.5;"/>
     </g>
     <g id="line2d_6">
      <g>
       <use style="stroke:#000000;stroke-width:0.5;" x="100.236514" xlink:href="#md7f59144f5" y="139.471785"/>
      </g>
     </g>
     <g id="text_3">
      <!-- 5 -->
      <g transform="translate(98.653543 145.220041)scale(0.06246 -0.06246)">
       <defs>
        <path d="M 2869 1300
Q 2869 975 2759 722
Q 2650 469 2450 295
Q 2250 122 1973 31
Q 1697 -59 1359 -59
Q 1172 -59 1003 -32
Q 834 -6 703 33
Q 572 72 487 109
Q 403 147 379 169
Q 356 191 347 209
Q 338 228 330 254
Q 322 281 319 322
Q 316 363 316 419
Q 316 472 320 514
Q 325 556 337 582
Q 350 609 367 621
Q 384 634 406 634
Q 438 634 503 595
Q 569 556 680 511
Q 791 466 955 425
Q 1119 384 1344 384
Q 1553 384 1728 434
Q 1903 484 2029 590
Q 2156 697 2228 858
Q 2300 1019 2300 1250
Q 2300 1444 2239 1592
Q 2178 1741 2051 1839
Q 1925 1938 1731 1986
Q 1538 2034 1269 2034
Q 1078 2034 940 2015
Q 803 1997 684 1997
Q 597 1997 559 2037
Q 522 2078 522 2194
L 522 3841
Q 522 3944 570 3994
Q 619 4044 709 4044
L 2500 4044
Q 2525 4044 2548 4030
Q 2572 4016 2587 3987
Q 2603 3959 2611 3915
Q 2619 3872 2619 3813
Q 2619 3700 2587 3637
Q 2556 3575 2500 3575
L 991 3575
L 991 2441
Q 1100 2456 1214 2459
Q 1328 2463 1478 2463
Q 1825 2463 2084 2380
Q 2344 2297 2517 2145
Q 2691 1994 2780 1778
Q 2869 1563 2869 1300
z
" id="Calibri-35" transform="scale(0.015625)"/>
       </defs>
       <use xlink:href="#Calibri-35"/>
      </g>
     </g>
    </g>
    <g id="xtick_4">
     <g id="line2d_7">
      <path clip-path="url(#pb8155ecaa7)" d="M 127.697143 139.471785
L 127.697143 7.2
" style="fill:none;stroke:#000000;stroke-linecap:square;stroke-opacity:0.1;stroke-width:0.5;"/>
     </g>
     <g id="line2d_8">
      <g>
       <use style="stroke:#000000;stroke-width:0.5;" x="127.697143" xlink:href="#md7f59144f5" y="139.471785"/>
      </g>
     </g>
     <g id="text_4">
      <!-- 7 -->
      <g transform="translate(126.114173 145.220041)scale(0.06246 -0.06246)">
       <defs>
        <path d="M 2947 3813
Q 2947 3756 2942 3711
Q 2938 3666 2930 3623
Q 2922 3581 2908 3542
Q 2894 3503 2875 3459
L 1419 103
Q 1403 66 1379 42
Q 1356 19 1320 5
Q 1284 -9 1228 -14
Q 1172 -19 1091 -19
Q 984 -19 925 -9
Q 866 0 839 20
Q 813 41 816 70
Q 819 100 838 141
L 2369 3572
L 428 3572
Q 369 3572 339 3634
Q 309 3697 309 3809
Q 309 3869 317 3912
Q 325 3956 340 3986
Q 356 4016 378 4030
Q 400 4044 428 4044
L 2784 4044
Q 2828 4044 2861 4034
Q 2894 4025 2911 3997
Q 2928 3969 2937 3925
Q 2947 3881 2947 3813
z
" id="Calibri-37" transform="scale(0.015625)"/>
       </defs>
       <use xlink:href="#Calibri-37"/>
      </g>
     </g>
    </g>
    <g id="xtick_5">
     <g id="line2d_9">
      <path clip-path="url(#pb8155ecaa7)" d="M 155.157773 139.471785
L 155.157773 7.2
" style="fill:none;stroke:#000000;stroke-linecap:square;stroke-opacity:0.1;stroke-width:0.5;"/>
     </g>
     <g id="line2d_10">
      <g>
       <use style="stroke:#000000;stroke-width:0.5;" x="155.157773" xlink:href="#md7f59144f5" y="139.471785"/>
      </g>
     </g>
     <g id="text_5">
      <!-- 9 -->
      <g transform="translate(153.574803 145.220041)scale(0.06246 -0.06246)">
       <defs>
        <path d="M 2919 2181
Q 2919 1919 2887 1650
Q 2856 1381 2781 1132
Q 2706 884 2579 667
Q 2453 450 2261 287
Q 2069 125 1805 33
Q 1541 -59 1191 -59
Q 1056 -59 929 -42
Q 803 -25 701 0
Q 600 25 531 53
Q 463 81 431 109
Q 400 138 386 186
Q 372 234 372 316
Q 372 384 376 425
Q 381 466 390 487
Q 400 509 417 517
Q 434 525 459 525
Q 494 525 556 501
Q 619 478 714 450
Q 809 422 937 398
Q 1066 375 1225 375
Q 1528 375 1745 492
Q 1963 609 2100 806
Q 2238 1003 2306 1262
Q 2375 1522 2381 1809
Q 2216 1713 1984 1638
Q 1753 1563 1453 1563
Q 1116 1563 886 1655
Q 656 1747 517 1906
Q 378 2066 317 2284
Q 256 2503 256 2763
Q 256 3031 334 3273
Q 413 3516 578 3700
Q 744 3884 1000 3993
Q 1256 4103 1613 4103
Q 1866 4103 2061 4039
Q 2256 3975 2400 3854
Q 2544 3734 2644 3564
Q 2744 3394 2805 3178
Q 2866 2963 2892 2711
Q 2919 2459 2919 2181
z
M 2372 2241
Q 2372 2641 2319 2914
Q 2266 3188 2162 3356
Q 2059 3525 1909 3600
Q 1759 3675 1563 3675
Q 1359 3675 1215 3601
Q 1072 3528 980 3404
Q 888 3281 844 3125
Q 800 2969 800 2803
Q 800 2619 839 2466
Q 878 2313 965 2206
Q 1053 2100 1193 2042
Q 1334 1984 1541 1984
Q 1775 1984 1994 2054
Q 2213 2125 2372 2241
z
" id="Calibri-39" transform="scale(0.015625)"/>
       </defs>
       <use xlink:href="#Calibri-39"/>
      </g>
     </g>
    </g>
    <g id="xtick_6">
     <g id="line2d_11">
      <path clip-path="url(#pb8155ecaa7)" d="M 182.618403 139.471785
L 182.618403 7.2
" style="fill:none;stroke:#000000;stroke-linecap:square;stroke-opacity:0.1;stroke-width:0.5;"/>
     </g>
     <g id="line2d_12">
      <g>
       <use style="stroke:#000000;stroke-width:0.5;" x="182.618403" xlink:href="#md7f59144f5" y="139.471785"/>
      </g>
     </g>
     <g id="text_6">
      <!-- 11 -->
      <g transform="translate(179.452462 145.220041)scale(0.06246 -0.06246)">
       <use xlink:href="#Calibri-31"/>
       <use x="50.683594" xlink:href="#Calibri-31"/>
      </g>
     </g>
    </g>
    <g id="xtick_7">
     <g id="line2d_13">
      <path clip-path="url(#pb8155ecaa7)" d="M 210.079033 139.471785
L 210.079033 7.2
" style="fill:none;stroke:#000000;stroke-linecap:square;stroke-opacity:0.1;stroke-width:0.5;"/>
     </g>
     <g id="line2d_14">
      <g>
       <use style="stroke:#000000;stroke-width:0.5;" x="210.079033" xlink:href="#md7f59144f5" y="139.471785"/>
      </g>
     </g>
     <g id="text_7">
      <!-- 13 -->
      <g transform="translate(206.913092 145.220041)scale(0.06246 -0.06246)">
       <use xlink:href="#Calibri-31"/>
       <use x="50.683594" xlink:href="#Calibri-33"/>
      </g>
     </g>
    </g>
    <g id="xtick_8">
     <g id="line2d_15">
      <path clip-path="url(#pb8155ecaa7)" d="M 237.539663 139.471785
L 237.539663 7.2
" style="fill:none;stroke:#000000;stroke-linecap:square;stroke-opacity:0.1;stroke-width:0.5;"/>
     </g>
     <g id="line2d_16">
      <g>
       <use style="stroke:#000000;stroke-width:0.5;" x="237.539663" xlink:href="#md7f59144f5" y="139.471785"/>
      </g>
     </g>
     <g id="text_8">
      <!-- 15 -->
      <g transform="translate(234.373722 145.220041)scale(0.06246 -0.06246)">
       <use xlink:href="#Calibri-31"/>
       <use x="50.683594" xlink:href="#Calibri-35"/>
      </g>
     </g>
    </g>
    <g id="text_9">
     <!-- length of prior $T$ -->
     <g transform="translate(111.502458 154.540658)scale(0.09 -0.09)">
      <defs>
       <path d="M 994 78
Q 994 53 981 36
Q 969 19 941 6
Q 913 -6 863 -12
Q 813 -19 734 -19
Q 659 -19 609 -12
Q 559 -6 529 6
Q 500 19 489 36
Q 478 53 478 78
L 478 4253
Q 478 4278 489 4297
Q 500 4316 529 4328
Q 559 4341 609 4347
Q 659 4353 734 4353
Q 813 4353 863 4347
Q 913 4341 941 4328
Q 969 4316 981 4297
Q 994 4278 994 4253
L 994 78
z
" id="Calibri-6c" transform="scale(0.015625)"/>
       <path d="M 2878 1606
Q 2878 1484 2817 1432
Q 2756 1381 2678 1381
L 834 1381
Q 834 1147 881 959
Q 928 772 1037 637
Q 1147 503 1322 431
Q 1497 359 1750 359
Q 1950 359 2106 392
Q 2263 425 2377 465
Q 2491 506 2564 539
Q 2638 572 2675 572
Q 2697 572 2714 561
Q 2731 550 2740 528
Q 2750 506 2754 467
Q 2759 428 2759 372
Q 2759 331 2756 301
Q 2753 272 2748 248
Q 2744 225 2733 206
Q 2722 188 2705 170
Q 2688 153 2603 114
Q 2519 75 2384 37
Q 2250 0 2073 -29
Q 1897 -59 1697 -59
Q 1350 -59 1089 37
Q 828 134 650 325
Q 472 516 381 803
Q 291 1091 291 1472
Q 291 1834 384 2123
Q 478 2413 654 2614
Q 831 2816 1081 2923
Q 1331 3031 1641 3031
Q 1972 3031 2205 2925
Q 2438 2819 2588 2639
Q 2738 2459 2808 2217
Q 2878 1975 2878 1700
L 2878 1606
z
M 2359 1759
Q 2369 2166 2180 2397
Q 1991 2628 1619 2628
Q 1428 2628 1284 2556
Q 1141 2484 1044 2365
Q 947 2247 894 2089
Q 841 1931 834 1759
L 2359 1759
z
" id="Calibri-65" transform="scale(0.015625)"/>
       <path d="M 2900 78
Q 2900 53 2887 36
Q 2875 19 2847 6
Q 2819 -6 2769 -12
Q 2719 -19 2644 -19
Q 2566 -19 2516 -12
Q 2466 -6 2437 6
Q 2409 19 2396 36
Q 2384 53 2384 78
L 2384 1725
Q 2384 1966 2346 2112
Q 2309 2259 2237 2365
Q 2166 2472 2052 2528
Q 1938 2584 1788 2584
Q 1594 2584 1400 2446
Q 1206 2309 994 2044
L 994 78
Q 994 53 981 36
Q 969 19 941 6
Q 913 -6 863 -12
Q 813 -19 734 -19
Q 659 -19 609 -12
Q 559 -6 529 6
Q 500 19 489 36
Q 478 53 478 78
L 478 2891
Q 478 2916 487 2933
Q 497 2950 525 2964
Q 553 2978 597 2983
Q 641 2988 713 2988
Q 781 2988 826 2983
Q 872 2978 897 2964
Q 922 2950 933 2933
Q 944 2916 944 2891
L 944 2519
Q 1181 2784 1417 2907
Q 1653 3031 1894 3031
Q 2175 3031 2367 2936
Q 2559 2841 2678 2681
Q 2797 2522 2848 2308
Q 2900 2094 2900 1794
L 2900 78
z
" id="Calibri-6e" transform="scale(0.015625)"/>
       <path d="M 2828 2763
Q 2828 2653 2798 2604
Q 2769 2556 2722 2556
L 2319 2556
Q 2428 2444 2472 2308
Q 2516 2172 2516 2025
Q 2516 1781 2437 1593
Q 2359 1406 2214 1276
Q 2069 1147 1869 1078
Q 1669 1009 1425 1009
Q 1253 1009 1098 1054
Q 944 1100 859 1169
Q 803 1113 767 1041
Q 731 969 731 875
Q 731 766 832 694
Q 934 622 1103 616
L 1838 584
Q 2047 578 2222 526
Q 2397 475 2525 379
Q 2653 284 2725 145
Q 2797 6 2797 -178
Q 2797 -372 2715 -547
Q 2634 -722 2467 -855
Q 2300 -988 2040 -1064
Q 1781 -1141 1428 -1141
Q 1088 -1141 848 -1083
Q 609 -1025 456 -925
Q 303 -825 234 -686
Q 166 -547 166 -384
Q 166 -281 191 -184
Q 216 -88 267 0
Q 319 88 395 167
Q 472 247 572 325
Q 419 403 345 522
Q 272 641 272 778
Q 272 969 350 1119
Q 428 1269 544 1388
Q 447 1503 390 1648
Q 334 1794 334 2000
Q 334 2241 415 2431
Q 497 2622 640 2753
Q 784 2884 986 2954
Q 1188 3025 1425 3025
Q 1553 3025 1664 3011
Q 1775 2997 1872 2972
L 2722 2972
Q 2775 2972 2801 2920
Q 2828 2869 2828 2763
z
M 2022 2022
Q 2022 2309 1864 2470
Q 1706 2631 1416 2631
Q 1266 2631 1155 2581
Q 1044 2531 970 2443
Q 897 2356 861 2242
Q 825 2128 825 2003
Q 825 1725 983 1565
Q 1141 1406 1425 1406
Q 1578 1406 1690 1454
Q 1803 1503 1876 1589
Q 1950 1675 1986 1787
Q 2022 1900 2022 2022
z
M 2281 -206
Q 2281 -25 2132 73
Q 1984 172 1731 178
L 1003 203
Q 903 125 839 54
Q 775 -16 737 -80
Q 700 -144 686 -206
Q 672 -269 672 -334
Q 672 -538 878 -642
Q 1084 -747 1453 -747
Q 1688 -747 1845 -701
Q 2003 -656 2100 -581
Q 2197 -506 2239 -409
Q 2281 -313 2281 -206
z
" id="Calibri-67" transform="scale(0.015625)"/>
       <path d="M 1941 284
Q 1941 194 1928 141
Q 1916 88 1891 63
Q 1866 38 1816 16
Q 1766 -6 1702 -20
Q 1638 -34 1566 -43
Q 1494 -53 1422 -53
Q 1203 -53 1047 5
Q 891 63 791 180
Q 691 297 645 476
Q 600 656 600 900
L 600 2544
L 206 2544
Q 159 2544 131 2594
Q 103 2644 103 2756
Q 103 2816 111 2856
Q 119 2897 131 2923
Q 144 2950 164 2961
Q 184 2972 209 2972
L 600 2972
L 600 3641
Q 600 3663 611 3681
Q 622 3700 651 3714
Q 681 3728 731 3734
Q 781 3741 856 3741
Q 934 3741 984 3734
Q 1034 3728 1062 3714
Q 1091 3700 1103 3681
Q 1116 3663 1116 3641
L 1116 2972
L 1838 2972
Q 1863 2972 1881 2961
Q 1900 2950 1914 2923
Q 1928 2897 1934 2856
Q 1941 2816 1941 2756
Q 1941 2644 1912 2594
Q 1884 2544 1838 2544
L 1116 2544
L 1116 975
Q 1116 684 1202 536
Q 1288 388 1509 388
Q 1581 388 1637 402
Q 1694 416 1737 431
Q 1781 447 1812 461
Q 1844 475 1869 475
Q 1884 475 1898 467
Q 1913 459 1920 437
Q 1928 416 1934 378
Q 1941 341 1941 284
z
" id="Calibri-74" transform="scale(0.015625)"/>
       <path d="M 2900 78
Q 2900 53 2887 36
Q 2875 19 2847 6
Q 2819 -6 2769 -12
Q 2719 -19 2644 -19
Q 2566 -19 2516 -12
Q 2466 -6 2437 6
Q 2409 19 2396 36
Q 2384 53 2384 78
L 2384 1725
Q 2384 1966 2346 2112
Q 2309 2259 2237 2365
Q 2166 2472 2052 2528
Q 1938 2584 1788 2584
Q 1594 2584 1400 2446
Q 1206 2309 994 2044
L 994 78
Q 994 53 981 36
Q 969 19 941 6
Q 913 -6 863 -12
Q 813 -19 734 -19
Q 659 -19 609 -12
Q 559 -6 529 6
Q 500 19 489 36
Q 478 53 478 78
L 478 4253
Q 478 4278 489 4297
Q 500 4316 529 4328
Q 559 4341 609 4347
Q 659 4353 734 4353
Q 813 4353 863 4347
Q 913 4341 941 4328
Q 969 4316 981 4297
Q 994 4278 994 4253
L 994 2569
Q 1216 2803 1441 2917
Q 1666 3031 1894 3031
Q 2175 3031 2367 2936
Q 2559 2841 2678 2681
Q 2797 2522 2848 2308
Q 2900 2094 2900 1791
L 2900 78
z
" id="Calibri-68" transform="scale(0.015625)"/>
       <path id="Calibri-20" transform="scale(0.015625)"/>
       <path d="M 3094 1516
Q 3094 1172 3003 883
Q 2913 594 2733 384
Q 2553 175 2283 58
Q 2013 -59 1656 -59
Q 1309 -59 1051 44
Q 794 147 622 344
Q 450 541 365 822
Q 281 1103 281 1459
Q 281 1803 370 2092
Q 459 2381 639 2590
Q 819 2800 1087 2915
Q 1356 3031 1716 3031
Q 2063 3031 2320 2928
Q 2578 2825 2750 2628
Q 2922 2431 3008 2150
Q 3094 1869 3094 1516
z
M 2550 1481
Q 2550 1709 2508 1912
Q 2466 2116 2369 2269
Q 2272 2422 2106 2511
Q 1941 2600 1694 2600
Q 1466 2600 1302 2519
Q 1138 2438 1031 2289
Q 925 2141 873 1937
Q 822 1734 822 1494
Q 822 1263 864 1059
Q 906 856 1004 704
Q 1103 553 1268 464
Q 1434 375 1681 375
Q 1906 375 2072 456
Q 2238 538 2344 684
Q 2450 831 2500 1034
Q 2550 1238 2550 1481
z
" id="Calibri-6f" transform="scale(0.015625)"/>
       <path d="M 2019 4047
Q 2019 3988 2012 3952
Q 2006 3916 1998 3894
Q 1991 3872 1978 3864
Q 1966 3856 1947 3856
Q 1925 3856 1892 3870
Q 1859 3884 1812 3901
Q 1766 3919 1702 3933
Q 1638 3947 1553 3947
Q 1438 3947 1356 3909
Q 1275 3872 1225 3792
Q 1175 3713 1153 3586
Q 1131 3459 1131 3278
L 1131 2972
L 1759 2972
Q 1784 2972 1801 2961
Q 1819 2950 1833 2923
Q 1847 2897 1855 2856
Q 1863 2816 1863 2756
Q 1863 2644 1834 2594
Q 1806 2544 1759 2544
L 1131 2544
L 1131 78
Q 1131 53 1118 36
Q 1106 19 1076 6
Q 1047 -6 997 -12
Q 947 -19 872 -19
Q 797 -19 747 -12
Q 697 -6 667 6
Q 638 19 625 36
Q 613 53 613 78
L 613 2544
L 216 2544
Q 166 2544 141 2594
Q 116 2644 116 2756
Q 116 2816 122 2856
Q 128 2897 140 2923
Q 153 2950 172 2961
Q 191 2972 216 2972
L 613 2972
L 613 3263
Q 613 3556 667 3767
Q 722 3978 834 4112
Q 947 4247 1117 4311
Q 1288 4375 1519 4375
Q 1628 4375 1731 4354
Q 1834 4334 1890 4311
Q 1947 4288 1965 4269
Q 1984 4250 1996 4220
Q 2009 4191 2014 4148
Q 2019 4106 2019 4047
z
" id="Calibri-66" transform="scale(0.015625)"/>
       <path d="M 3066 1528
Q 3066 1159 2986 865
Q 2906 572 2751 367
Q 2597 163 2369 52
Q 2141 -59 1847 -59
Q 1722 -59 1615 -34
Q 1509 -9 1407 44
Q 1306 97 1206 178
Q 1106 259 994 369
L 994 -1038
Q 994 -1063 981 -1081
Q 969 -1100 941 -1112
Q 913 -1125 863 -1131
Q 813 -1138 734 -1138
Q 659 -1138 609 -1131
Q 559 -1125 529 -1112
Q 500 -1100 489 -1081
Q 478 -1063 478 -1038
L 478 2891
Q 478 2919 487 2936
Q 497 2953 525 2965
Q 553 2978 597 2983
Q 641 2988 703 2988
Q 769 2988 811 2983
Q 853 2978 881 2965
Q 909 2953 920 2936
Q 931 2919 931 2891
L 931 2513
Q 1059 2644 1178 2741
Q 1297 2838 1417 2902
Q 1538 2966 1664 2998
Q 1791 3031 1931 3031
Q 2238 3031 2453 2912
Q 2669 2794 2805 2587
Q 2941 2381 3003 2107
Q 3066 1834 3066 1528
z
M 2522 1469
Q 2522 1684 2489 1886
Q 2456 2088 2376 2244
Q 2297 2400 2162 2494
Q 2028 2588 1828 2588
Q 1728 2588 1631 2558
Q 1534 2528 1434 2464
Q 1334 2400 1225 2295
Q 1116 2191 994 2038
L 994 919
Q 1206 659 1397 521
Q 1588 384 1797 384
Q 1991 384 2130 478
Q 2269 572 2355 728
Q 2441 884 2481 1078
Q 2522 1272 2522 1469
z
" id="Calibri-70" transform="scale(0.015625)"/>
       <path d="M 2122 2706
Q 2122 2638 2119 2591
Q 2116 2544 2106 2517
Q 2097 2491 2083 2477
Q 2069 2463 2044 2463
Q 2019 2463 1983 2477
Q 1947 2491 1901 2505
Q 1856 2519 1800 2531
Q 1744 2544 1678 2544
Q 1600 2544 1525 2512
Q 1450 2481 1367 2409
Q 1284 2338 1193 2219
Q 1103 2100 994 1928
L 994 78
Q 994 53 981 36
Q 969 19 941 6
Q 913 -6 863 -12
Q 813 -19 734 -19
Q 659 -19 609 -12
Q 559 -6 529 6
Q 500 19 489 36
Q 478 53 478 78
L 478 2891
Q 478 2916 487 2933
Q 497 2950 525 2964
Q 553 2978 597 2983
Q 641 2988 713 2988
Q 781 2988 826 2983
Q 872 2978 897 2964
Q 922 2950 933 2933
Q 944 2916 944 2891
L 944 2481
Q 1059 2650 1161 2756
Q 1263 2863 1353 2923
Q 1444 2984 1533 3007
Q 1622 3031 1713 3031
Q 1753 3031 1804 3026
Q 1856 3022 1912 3009
Q 1969 2997 2014 2981
Q 2059 2966 2078 2950
Q 2097 2934 2103 2920
Q 2109 2906 2114 2884
Q 2119 2863 2120 2820
Q 2122 2778 2122 2706
z
" id="Calibri-72" transform="scale(0.015625)"/>
       <path d="M 994 78
Q 994 53 981 36
Q 969 19 941 6
Q 913 -6 863 -12
Q 813 -19 734 -19
Q 659 -19 609 -12
Q 559 -6 529 6
Q 500 19 489 36
Q 478 53 478 78
L 478 2891
Q 478 2913 489 2931
Q 500 2950 529 2962
Q 559 2975 609 2981
Q 659 2988 734 2988
Q 813 2988 863 2981
Q 913 2975 941 2962
Q 969 2950 981 2931
Q 994 2913 994 2891
L 994 78
z
M 1053 3841
Q 1053 3659 984 3593
Q 916 3528 731 3528
Q 550 3528 483 3592
Q 416 3656 416 3834
Q 416 4016 484 4081
Q 553 4147 738 4147
Q 919 4147 986 4083
Q 1053 4019 1053 3841
z
" id="Calibri-69" transform="scale(0.015625)"/>
       <path d="M 2225 0
L 909 0
L 944 153
Q 1066 169 1125 201
Q 1184 234 1229 300
Q 1275 366 1322 505
Q 1369 644 1431 931
L 2100 3991
L 1703 3991
Q 1509 3991 1393 3934
Q 1278 3878 1162 3725
Q 1047 3572 881 3213
L 581 3213
L 816 4266
L 4078 4266
L 3834 3166
L 3534 3166
Q 3534 3469 3518 3620
Q 3503 3772 3459 3851
Q 3416 3931 3352 3961
Q 3288 3991 3125 3991
L 2663 3991
L 1984 909
Q 1956 788 1945 716
Q 1934 644 1926 564
Q 1919 484 1919 422
Q 1919 325 1950 270
Q 1981 216 2043 191
Q 2106 166 2259 153
L 2225 0
z
" id="Cambria-Italic-54" transform="scale(0.015625)"/>
      </defs>
      <use transform="translate(0 0.640625)" xlink:href="#Calibri-6c"/>
      <use transform="translate(22.949219 0.640625)" xlink:href="#Calibri-65"/>
      <use transform="translate(72.705078 0.640625)" xlink:href="#Calibri-6e"/>
      <use transform="translate(125.244141 0.640625)" xlink:href="#Calibri-67"/>
      <use transform="translate(172.314453 0.640625)" xlink:href="#Calibri-74"/>
      <use transform="translate(205.810547 0.640625)" xlink:href="#Calibri-68"/>
      <use transform="translate(258.349609 0.640625)" xlink:href="#Calibri-20"/>
      <use transform="translate(280.957031 0.640625)" xlink:href="#Calibri-6f"/>
      <use transform="translate(333.691406 0.640625)" xlink:href="#Calibri-66"/>
      <use transform="translate(364.208984 0.640625)" xlink:href="#Calibri-20"/>
      <use transform="translate(386.816406 0.640625)" xlink:href="#Calibri-70"/>
      <use transform="translate(439.355469 0.640625)" xlink:href="#Calibri-72"/>
      <use transform="translate(474.21875 0.640625)" xlink:href="#Calibri-69"/>
      <use transform="translate(497.167969 0.640625)" xlink:href="#Calibri-6f"/>
      <use transform="translate(549.902344 0.640625)" xlink:href="#Calibri-72"/>
      <use transform="translate(584.765625 0.640625)" xlink:href="#Calibri-20"/>
      <use transform="translate(607.373047 0.640625)" xlink:href="#Cambria-Italic-54"/>
     </g>
    </g>
   </g>
   <g id="matplotlib.axis_2">
    <g id="ytick_1">
     <g id="line2d_17">
      <path clip-path="url(#pb8155ecaa7)" d="M 31.584939 121.566216
L 251.269978 121.566216
" style="fill:none;stroke:#000000;stroke-linecap:square;stroke-opacity:0.1;stroke-width:0.5;"/>
     </g>
     <g id="line2d_18">
      <defs>
       <path d="M 0 0
L 3 0
" id="mfa1452fdcd" style="stroke:#000000;stroke-width:0.5;"/>
      </defs>
      <g>
       <use style="stroke:#000000;stroke-width:0.5;" x="31.584939" xlink:href="#mfa1452fdcd" y="121.566216"/>
      </g>
     </g>
     <g id="text_10">
      <!-- 0.10 -->
      <g transform="translate(19.01 123.690344)scale(0.06246 -0.06246)">
       <defs>
        <path d="M 3022 2031
Q 3022 1566 2948 1181
Q 2875 797 2704 520
Q 2534 244 2259 92
Q 1984 -59 1581 -59
Q 1200 -59 939 77
Q 678 213 518 477
Q 359 741 292 1127
Q 225 1513 225 2013
Q 225 2475 300 2861
Q 375 3247 544 3523
Q 713 3800 988 3951
Q 1263 4103 1663 4103
Q 2047 4103 2308 3967
Q 2569 3831 2728 3567
Q 2888 3303 2955 2917
Q 3022 2531 3022 2031
z
M 2472 1994
Q 2472 2297 2450 2537
Q 2428 2778 2386 2962
Q 2344 3147 2276 3280
Q 2209 3413 2115 3498
Q 2022 3584 1901 3623
Q 1781 3663 1631 3663
Q 1366 3663 1200 3538
Q 1034 3413 939 3194
Q 844 2975 809 2681
Q 775 2388 775 2050
Q 775 1597 822 1280
Q 869 963 970 763
Q 1072 563 1230 472
Q 1388 381 1613 381
Q 1788 381 1920 437
Q 2053 494 2148 598
Q 2244 703 2306 850
Q 2369 997 2406 1175
Q 2444 1353 2458 1561
Q 2472 1769 2472 1994
z
" id="Calibri-30" transform="scale(0.015625)"/>
        <path d="M 1144 341
Q 1144 119 1070 45
Q 997 -28 803 -28
Q 616 -28 544 44
Q 472 116 472 331
Q 472 553 545 626
Q 619 700 813 700
Q 1000 700 1072 628
Q 1144 556 1144 341
z
" id="Calibri-2e" transform="scale(0.015625)"/>
       </defs>
       <use xlink:href="#Calibri-30"/>
       <use x="50.683594" xlink:href="#Calibri-2e"/>
       <use x="75.927734" xlink:href="#Calibri-31"/>
       <use x="126.611328" xlink:href="#Calibri-30"/>
      </g>
     </g>
    </g>
    <g id="ytick_2">
     <g id="line2d_19">
      <path clip-path="url(#pb8155ecaa7)" d="M 31.584939 103.507239
L 251.269978 103.507239
" style="fill:none;stroke:#000000;stroke-linecap:square;stroke-opacity:0.1;stroke-width:0.5;"/>
     </g>
     <g id="line2d_20">
      <g>
       <use style="stroke:#000000;stroke-width:0.5;" x="31.584939" xlink:href="#mfa1452fdcd" y="103.507239"/>
      </g>
     </g>
     <g id="text_11">
      <!-- 0.15 -->
      <g transform="translate(19.01 105.631367)scale(0.06246 -0.06246)">
       <use xlink:href="#Calibri-30"/>
       <use x="50.683594" xlink:href="#Calibri-2e"/>
       <use x="75.927734" xlink:href="#Calibri-31"/>
       <use x="126.611328" xlink:href="#Calibri-35"/>
      </g>
     </g>
    </g>
    <g id="ytick_3">
     <g id="line2d_21">
      <path clip-path="url(#pb8155ecaa7)" d="M 31.584939 85.448262
L 251.269978 85.448262
" style="fill:none;stroke:#000000;stroke-linecap:square;stroke-opacity:0.1;stroke-width:0.5;"/>
     </g>
     <g id="line2d_22">
      <g>
       <use style="stroke:#000000;stroke-width:0.5;" x="31.584939" xlink:href="#mfa1452fdcd" y="85.448262"/>
      </g>
     </g>
     <g id="text_12">
      <!-- 0.20 -->
      <g transform="translate(19.01 87.57239)scale(0.06246 -0.06246)">
       <defs>
        <path d="M 2888 231
Q 2888 175 2880 131
Q 2872 88 2858 58
Q 2844 28 2820 14
Q 2797 0 2769 0
L 534 0
Q 491 0 458 11
Q 425 22 401 47
Q 378 72 367 119
Q 356 166 356 234
Q 356 297 361 344
Q 366 391 381 427
Q 397 463 420 498
Q 444 534 481 575
L 1266 1406
Q 1538 1694 1702 1922
Q 1866 2150 1955 2337
Q 2044 2525 2072 2678
Q 2100 2831 2100 2966
Q 2100 3100 2056 3220
Q 2013 3341 1930 3431
Q 1847 3522 1722 3575
Q 1597 3628 1434 3628
Q 1244 3628 1092 3575
Q 941 3522 827 3459
Q 713 3397 636 3344
Q 559 3291 522 3291
Q 500 3291 483 3303
Q 466 3316 455 3344
Q 444 3372 437 3419
Q 431 3466 431 3531
Q 431 3578 434 3612
Q 438 3647 445 3672
Q 453 3697 465 3719
Q 478 3741 515 3773
Q 553 3806 645 3862
Q 738 3919 877 3973
Q 1016 4028 1183 4065
Q 1350 4103 1534 4103
Q 1828 4103 2048 4020
Q 2269 3938 2414 3794
Q 2559 3650 2631 3459
Q 2703 3269 2703 3053
Q 2703 2859 2668 2667
Q 2634 2475 2523 2251
Q 2413 2028 2203 1754
Q 1994 1481 1647 1125
L 1006 456
L 2766 456
Q 2791 456 2814 442
Q 2838 428 2855 400
Q 2872 372 2880 330
Q 2888 288 2888 231
z
" id="Calibri-32" transform="scale(0.015625)"/>
       </defs>
       <use xlink:href="#Calibri-30"/>
       <use x="50.683594" xlink:href="#Calibri-2e"/>
       <use x="75.927734" xlink:href="#Calibri-32"/>
       <use x="126.611328" xlink:href="#Calibri-30"/>
      </g>
     </g>
    </g>
    <g id="ytick_4">
     <g id="line2d_23">
      <path clip-path="url(#pb8155ecaa7)" d="M 31.584939 67.389285
L 251.269978 67.389285
" style="fill:none;stroke:#000000;stroke-linecap:square;stroke-opacity:0.1;stroke-width:0.5;"/>
     </g>
     <g id="line2d_24">
      <g>
       <use style="stroke:#000000;stroke-width:0.5;" x="31.584939" xlink:href="#mfa1452fdcd" y="67.389285"/>
      </g>
     </g>
     <g id="text_13">
      <!-- 0.25 -->
      <g transform="translate(19.01 69.513413)scale(0.06246 -0.06246)">
       <use xlink:href="#Calibri-30"/>
       <use x="50.683594" xlink:href="#Calibri-2e"/>
       <use x="75.927734" xlink:href="#Calibri-32"/>
       <use x="126.611328" xlink:href="#Calibri-35"/>
      </g>
     </g>
    </g>
    <g id="ytick_5">
     <g id="line2d_25">
      <path clip-path="url(#pb8155ecaa7)" d="M 31.584939 49.330308
L 251.269978 49.330308
" style="fill:none;stroke:#000000;stroke-linecap:square;stroke-opacity:0.1;stroke-width:0.5;"/>
     </g>
     <g id="line2d_26">
      <g>
       <use style="stroke:#000000;stroke-width:0.5;" x="31.584939" xlink:href="#mfa1452fdcd" y="49.330308"/>
      </g>
     </g>
     <g id="text_14">
      <!-- 0.30 -->
      <g transform="translate(19.01 51.454436)scale(0.06246 -0.06246)">
       <use xlink:href="#Calibri-30"/>
       <use x="50.683594" xlink:href="#Calibri-2e"/>
       <use x="75.927734" xlink:href="#Calibri-33"/>
       <use x="126.611328" xlink:href="#Calibri-30"/>
      </g>
     </g>
    </g>
    <g id="ytick_6">
     <g id="line2d_27">
      <path clip-path="url(#pb8155ecaa7)" d="M 31.584939 31.271331
L 251.269978 31.271331
" style="fill:none;stroke:#000000;stroke-linecap:square;stroke-opacity:0.1;stroke-width:0.5;"/>
     </g>
     <g id="line2d_28">
      <g>
       <use style="stroke:#000000;stroke-width:0.5;" x="31.584939" xlink:href="#mfa1452fdcd" y="31.271331"/>
      </g>
     </g>
     <g id="text_15">
      <!-- 0.35 -->
      <g transform="translate(19.01 33.395459)scale(0.06246 -0.06246)">
       <use xlink:href="#Calibri-30"/>
       <use x="50.683594" xlink:href="#Calibri-2e"/>
       <use x="75.927734" xlink:href="#Calibri-33"/>
       <use x="126.611328" xlink:href="#Calibri-35"/>
      </g>
     </g>
    </g>
    <g id="ytick_7">
     <g id="line2d_29">
      <path clip-path="url(#pb8155ecaa7)" d="M 31.584939 13.212354
L 251.269978 13.212354
" style="fill:none;stroke:#000000;stroke-linecap:square;stroke-opacity:0.1;stroke-width:0.5;"/>
     </g>
     <g id="line2d_30">
      <g>
       <use style="stroke:#000000;stroke-width:0.5;" x="31.584939" xlink:href="#mfa1452fdcd" y="13.212354"/>
      </g>
     </g>
     <g id="text_16">
      <!-- 0.40 -->
      <g transform="translate(19.01 15.336482)scale(0.06246 -0.06246)">
       <defs>
        <path d="M 3059 1150
Q 3059 1047 3028 987
Q 2997 928 2941 928
L 2484 928
L 2484 78
Q 2484 53 2471 36
Q 2459 19 2428 6
Q 2397 -6 2347 -12
Q 2297 -19 2219 -19
Q 2144 -19 2094 -12
Q 2044 -6 2014 6
Q 1984 19 1973 36
Q 1963 53 1963 78
L 1963 928
L 294 928
Q 256 928 231 937
Q 206 947 186 972
Q 166 997 158 1044
Q 150 1091 150 1166
Q 150 1225 153 1272
Q 156 1319 165 1358
Q 175 1397 190 1433
Q 206 1469 228 1509
L 1684 3966
Q 1700 3991 1729 4009
Q 1759 4028 1806 4040
Q 1853 4053 1922 4058
Q 1991 4063 2084 4063
Q 2188 4063 2264 4055
Q 2341 4047 2387 4034
Q 2434 4022 2459 4001
Q 2484 3981 2484 3953
L 2484 1372
L 2941 1372
Q 2994 1372 3026 1317
Q 3059 1263 3059 1150
z
M 1963 3591
L 1956 3591
L 641 1372
L 1963 1372
L 1963 3591
z
" id="Calibri-34" transform="scale(0.015625)"/>
       </defs>
       <use xlink:href="#Calibri-30"/>
       <use x="50.683594" xlink:href="#Calibri-2e"/>
       <use x="75.927734" xlink:href="#Calibri-34"/>
       <use x="126.611328" xlink:href="#Calibri-30"/>
      </g>
     </g>
    </g>
    <g id="text_17">
     <!-- solution for $\tilde{b}_1$ -->
     <g transform="translate(15.409688 99.750892)rotate(-90)scale(0.09 -0.09)">
      <defs>
       <path d="M 2244 844
Q 2244 628 2164 459
Q 2084 291 1937 175
Q 1791 59 1587 0
Q 1384 -59 1141 -59
Q 991 -59 855 -36
Q 719 -13 611 23
Q 503 59 428 98
Q 353 138 318 169
Q 284 200 268 256
Q 253 313 253 409
Q 253 469 259 509
Q 266 550 275 575
Q 284 600 301 611
Q 319 622 341 622
Q 375 622 442 580
Q 509 538 607 488
Q 706 438 840 395
Q 975 353 1150 353
Q 1281 353 1387 381
Q 1494 409 1572 464
Q 1650 519 1692 603
Q 1734 688 1734 803
Q 1734 922 1673 1003
Q 1613 1084 1513 1146
Q 1413 1209 1288 1257
Q 1163 1306 1030 1359
Q 897 1413 770 1480
Q 644 1547 544 1644
Q 444 1741 383 1875
Q 322 2009 322 2197
Q 322 2363 386 2514
Q 450 2666 578 2780
Q 706 2894 898 2962
Q 1091 3031 1347 3031
Q 1459 3031 1571 3012
Q 1684 2994 1775 2966
Q 1866 2938 1930 2905
Q 1994 2872 2026 2847
Q 2059 2822 2070 2803
Q 2081 2784 2086 2761
Q 2091 2738 2095 2703
Q 2100 2669 2100 2619
Q 2100 2566 2095 2527
Q 2091 2488 2080 2463
Q 2069 2438 2053 2427
Q 2038 2416 2019 2416
Q 1991 2416 1937 2450
Q 1884 2484 1800 2523
Q 1716 2563 1602 2597
Q 1488 2631 1341 2631
Q 1209 2631 1109 2601
Q 1009 2572 945 2517
Q 881 2463 848 2388
Q 816 2313 816 2225
Q 816 2103 878 2020
Q 941 1938 1041 1875
Q 1141 1813 1269 1763
Q 1397 1713 1530 1659
Q 1663 1606 1792 1540
Q 1922 1475 2022 1381
Q 2122 1288 2183 1156
Q 2244 1025 2244 844
z
" id="Calibri-73" transform="scale(0.015625)"/>
       <path d="M 2888 78
Q 2888 53 2877 36
Q 2866 19 2837 6
Q 2809 -6 2764 -12
Q 2719 -19 2653 -19
Q 2581 -19 2536 -12
Q 2491 -6 2464 6
Q 2438 19 2428 36
Q 2419 53 2419 78
L 2419 450
Q 2178 184 1943 62
Q 1709 -59 1469 -59
Q 1188 -59 995 34
Q 803 128 684 289
Q 566 450 514 664
Q 463 878 463 1184
L 463 2891
Q 463 2916 473 2933
Q 484 2950 515 2964
Q 547 2978 597 2983
Q 647 2988 722 2988
Q 797 2988 847 2983
Q 897 2978 926 2964
Q 956 2950 968 2933
Q 981 2916 981 2891
L 981 1253
Q 981 1006 1017 857
Q 1053 709 1126 604
Q 1200 500 1312 442
Q 1425 384 1575 384
Q 1769 384 1961 521
Q 2153 659 2369 925
L 2369 2891
Q 2369 2916 2380 2933
Q 2391 2950 2422 2964
Q 2453 2978 2501 2983
Q 2550 2988 2628 2988
Q 2703 2988 2753 2983
Q 2803 2978 2831 2964
Q 2859 2950 2873 2933
Q 2888 2916 2888 2891
L 2888 78
z
" id="Calibri-75" transform="scale(0.015625)"/>
       <path d="M -100 4269
L 144 4163
Q 25 3906 -83 3767
Q -191 3628 -289 3576
Q -388 3525 -513 3525
Q -597 3525 -659 3542
Q -722 3559 -783 3592
Q -844 3625 -972 3713
Q -1056 3769 -1104 3800
Q -1153 3831 -1206 3851
Q -1259 3872 -1319 3872
Q -1400 3872 -1454 3840
Q -1509 3809 -1565 3731
Q -1622 3653 -1681 3525
L -1925 3631
Q -1775 3931 -1681 4048
Q -1588 4166 -1489 4217
Q -1391 4269 -1253 4269
Q -1178 4269 -1117 4251
Q -1056 4234 -1004 4206
Q -953 4178 -828 4094
Q -738 4031 -684 3997
Q -631 3963 -575 3942
Q -519 3922 -447 3922
Q -347 3922 -269 3998
Q -191 4075 -100 4269
z
" id="Cambria-303" transform="scale(0.015625)"/>
       <path d="M 728 153
L 441 -50
L 241 0
L 1050 3572
Q 1069 3650 1095 3797
Q 1122 3944 1122 4034
Q 1122 4166 1042 4219
Q 963 4272 756 4278
L 794 4441
L 1584 4469
L 1766 4469
L 1216 2281
L 1256 2269
Q 1559 2675 1825 2856
Q 2091 3038 2356 3038
Q 2697 3038 2886 2778
Q 3075 2519 3075 2047
Q 3075 1709 2983 1368
Q 2891 1028 2727 753
Q 2563 478 2361 301
Q 2159 125 1936 37
Q 1713 -50 1466 -50
Q 1050 -50 728 153
z
M 1003 1088
Q 972 947 964 848
Q 956 750 956 663
Q 956 416 1064 306
Q 1172 197 1422 197
Q 1584 197 1718 259
Q 1853 322 1973 442
Q 2094 563 2192 734
Q 2291 906 2366 1126
Q 2441 1347 2480 1583
Q 2519 1819 2519 2022
Q 2519 2347 2426 2509
Q 2334 2672 2131 2672
Q 1981 2672 1836 2576
Q 1691 2481 1512 2261
Q 1334 2041 1221 1809
Q 1109 1578 1031 1219
L 1003 1088
z
" id="Cambria-Italic-62" transform="scale(0.015625)"/>
       <path d="M 2172 816
Q 2172 634 2192 542
Q 2213 450 2264 392
Q 2316 334 2412 301
Q 2509 269 2656 251
Q 2803 234 3044 228
L 3044 0
L 734 0
L 734 228
Q 1081 244 1229 270
Q 1378 297 1456 350
Q 1534 403 1570 500
Q 1606 597 1606 816
L 1606 3350
Q 1606 3475 1562 3533
Q 1519 3591 1434 3591
Q 1334 3591 1150 3487
Q 966 3384 694 3203
L 556 3444
L 2019 4316
L 2191 4316
Q 2172 4016 2172 3484
L 2172 816
z
" id="Cambria-31" transform="scale(0.015625)"/>
      </defs>
      <use transform="translate(0 0.046875)" xlink:href="#Calibri-73"/>
      <use transform="translate(39.111328 0.046875)" xlink:href="#Calibri-6f"/>
      <use transform="translate(91.845703 0.046875)" xlink:href="#Calibri-6c"/>
      <use transform="translate(114.794922 0.046875)" xlink:href="#Calibri-75"/>
      <use transform="translate(167.333984 0.046875)" xlink:href="#Calibri-74"/>
      <use transform="translate(200.830078 0.046875)" xlink:href="#Calibri-69"/>
      <use transform="translate(223.779297 0.046875)" xlink:href="#Calibri-6f"/>
      <use transform="translate(276.513672 0.046875)" xlink:href="#Calibri-6e"/>
      <use transform="translate(329.052734 0.046875)" xlink:href="#Calibri-20"/>
      <use transform="translate(351.660156 0.046875)" xlink:href="#Calibri-66"/>
      <use transform="translate(382.177734 0.046875)" xlink:href="#Calibri-6f"/>
      <use transform="translate(434.912109 0.046875)" xlink:href="#Calibri-72"/>
      <use transform="translate(469.775391 0.046875)" xlink:href="#Calibri-20"/>
      <use transform="translate(538.48584 27.296875)" xlink:href="#Cambria-303"/>
      <use transform="translate(492.382812 0.046875)" xlink:href="#Cambria-Italic-62"/>
      <use transform="translate(545.299453 -13.959375)scale(0.7)" xlink:href="#Cambria-31"/>
     </g>
    </g>
   </g>
   <g id="line2d_31">
    <path clip-path="url(#pb8155ecaa7)" d="M 45.315254 13.212354
L 59.045569 50.832619
L 72.775884 72.982028
L 86.506199 87.546427
L 100.236514 97.844895
L 113.966829 105.509741
L 127.697143 111.435675
L 141.427458 116.153711
L 155.157773 119.998778
L 168.888088 123.192522
L 182.618403 125.887446
L 196.348718 128.191906
L 210.079033 130.185005
L 223.809348 131.925836
L 237.539663 133.459431
" style="fill:none;stroke:#005ea8;stroke-dasharray:3.7,1.6;stroke-dashoffset:0;"/>
    <defs>
     <path d="M 0 1.5
C 0.397805 1.5 0.77937 1.341951 1.06066 1.06066
C 1.341951 0.77937 1.5 0.397805 1.5 0
C 1.5 -0.397805 1.341951 -0.77937 1.06066 -1.06066
C 0.77937 -1.341951 0.397805 -1.5 0 -1.5
C -0.397805 -1.5 -0.77937 -1.341951 -1.06066 -1.06066
C -1.341951 -0.77937 -1.5 -0.397805 -1.5 0
C -1.5 0.397805 -1.341951 0.77937 -1.06066 1.06066
C -0.77937 1.341951 -0.397805 1.5 0 1.5
z
" id="m1d0fe6b53a" style="stroke:#005ea8;"/>
    </defs>
    <g clip-path="url(#pb8155ecaa7)">
     <use style="fill:#005ea8;stroke:#005ea8;" x="45.315254" xlink:href="#m1d0fe6b53a" y="13.212354"/>
     <use style="fill:#005ea8;stroke:#005ea8;" x="59.045569" xlink:href="#m1d0fe6b53a" y="50.832619"/>
     <use style="fill:#005ea8;stroke:#005ea8;" x="72.775884" xlink:href="#m1d0fe6b53a" y="72.982028"/>
     <use style="fill:#005ea8;stroke:#005ea8;" x="86.506199" xlink:href="#m1d0fe6b53a" y="87.546427"/>
     <use style="fill:#005ea8;stroke:#005ea8;" x="100.236514" xlink:href="#m1d0fe6b53a" y="97.844895"/>
     <use style="fill:#005ea8;stroke:#005ea8;" x="113.966829" xlink:href="#m1d0fe6b53a" y="105.509741"/>
     <use style="fill:#005ea8;stroke:#005ea8;" x="127.697143" xlink:href="#m1d0fe6b53a" y="111.435675"/>
     <use style="fill:#005ea8;stroke:#005ea8;" x="141.427458" xlink:href="#m1d0fe6b53a" y="116.153711"/>
     <use style="fill:#005ea8;stroke:#005ea8;" x="155.157773" xlink:href="#m1d0fe6b53a" y="119.998778"/>
     <use style="fill:#005ea8;stroke:#005ea8;" x="168.888088" xlink:href="#m1d0fe6b53a" y="123.192522"/>
     <use style="fill:#005ea8;stroke:#005ea8;" x="182.618403" xlink:href="#m1d0fe6b53a" y="125.887446"/>
     <use style="fill:#005ea8;stroke:#005ea8;" x="196.348718" xlink:href="#m1d0fe6b53a" y="128.191906"/>
     <use style="fill:#005ea8;stroke:#005ea8;" x="210.079033" xlink:href="#m1d0fe6b53a" y="130.185005"/>
     <use style="fill:#005ea8;stroke:#005ea8;" x="223.809348" xlink:href="#m1d0fe6b53a" y="131.925836"/>
     <use style="fill:#005ea8;stroke:#005ea8;" x="237.539663" xlink:href="#m1d0fe6b53a" y="133.459431"/>
    </g>
   </g>
   <g id="patch_3">
    <path d="M 31.584939 139.471785
L 31.584939 7.2
" style="fill:none;stroke:#000000;stroke-linecap:square;stroke-linejoin:miter;stroke-width:0.5;"/>
   </g>
   <g id="patch_4">
    <path d="M 251.269978 139.471785
L 251.269978 7.2
" style="fill:none;stroke:#000000;stroke-linecap:square;stroke-linejoin:miter;stroke-width:0.5;"/>
   </g>
   <g id="patch_5">
    <path d="M 31.584939 139.471785
L 251.269978 139.471785
" style="fill:none;stroke:#000000;stroke-linecap:square;stroke-linejoin:miter;stroke-width:0.5;"/>
   </g>
   <g id="patch_6">
    <path d="M 31.584939 7.2
L 251.269978 7.2
" style="fill:none;stroke:#000000;stroke-linecap:square;stroke-linejoin:miter;stroke-width:0.5;"/>
   </g>
  </g>
 </g>
 <defs>
  <clipPath id="pb8155ecaa7">
   <rect height="132.271785" width="219.685039" x="31.584939" y="7.2"/>
  </clipPath>
 </defs>
</svg>
