<?xml version="1.0" encoding="utf-8" standalone="no"?>
<!DOCTYPE svg PUBLIC "-//W3C//DTD SVG 1.1//EN"
  "http://www.w3.org/Graphics/SVG/1.1/DTD/svg11.dtd">
<svg xmlns:xlink="http://www.w3.org/1999/xlink" width="461.942827pt" height="183.370897pt" viewBox="0 0 461.942827 183.370897" xmlns="http://www.w3.org/2000/svg" version="1.1">
 <metadata>
  <rdf:RDF xmlns:dc="http://purl.org/dc/elements/1.1/" xmlns:cc="http://creativecommons.org/ns#" xmlns:rdf="http://www.w3.org/1999/02/22-rdf-syntax-ns#">
   <cc:Work>
    <dc:type rdf:resource="http://purl.org/dc/dcmitype/StillImage"/>
    <dc:date>2022-09-08T14:37:26.795743</dc:date>
    <dc:format>image/svg+xml</dc:format>
    <dc:creator>
     <cc:Agent>
      <dc:title>Matplotlib v3.5.3, https://matplotlib.org/</dc:title>
     </cc:Agent>
    </dc:creator>
   </cc:Work>
  </rdf:RDF>
 </metadata>
 <defs>
  <style type="text/css">*{stroke-linejoin: round; stroke-linecap: butt}</style>
 </defs>
 <g id="figure_1">
  <g id="patch_1">
   <path d="M 0 183.370897 
L 461.942827 183.370897 
L 461.942827 0 
L 0 0 
z
" style="fill: #ffffff"/>
  </g>
  <g id="axes_1">
   <g id="patch_2">
    <path d="M 13.15375 157.16621 
L 214.678205 157.16621 
L 214.678205 7.2 
L 13.15375 7.2 
z
" style="fill: #ffffff"/>
   </g>
   <g id="patch_3">
    <path d="M 22.313952 157.16621 
L 22.313952 157.103381 
L 26.894054 157.103381 
L 26.894054 156.83636 
L 31.474155 156.83636 
L 31.474155 156.647874 
L 36.054256 156.647874 
L 36.054256 155.658325 
L 40.634357 155.658325 
L 40.634357 154.111172 
L 45.214459 154.111172 
L 45.214459 149.477568 
L 49.79456 149.477568 
L 49.79456 142.228726 
L 54.374661 142.228726 
L 54.374661 133.181417 
L 58.954762 133.181417 
L 58.954762 119.186362 
L 63.534864 119.186362 
L 63.534864 99.246156 
L 68.114965 99.246156 
L 68.114965 76.667152 
L 72.695066 76.667152 
L 72.695066 56.185051 
L 77.275167 56.185051 
L 77.275167 36.95952 
L 81.855269 36.95952 
L 81.855269 24.817906 
L 86.43537 24.817906 
L 86.43537 20.922537 
L 91.015471 20.922537 
L 91.015471 14.341248 
L 95.595572 14.341248 
L 95.595572 20.953951 
L 100.175674 20.953951 
L 100.175674 37.870534 
L 104.755775 37.870534 
L 104.755775 52.203293 
L 109.335876 52.203293 
L 109.335876 66.457516 
L 113.915977 66.457516 
L 113.915977 86.091432 
L 118.496079 86.091432 
L 118.496079 102.466119 
L 123.07618 102.466119 
L 123.07618 116.53971 
L 127.656281 116.53971 
L 127.656281 128.461424 
L 132.236382 128.461424 
L 132.236382 135.898752 
L 136.816484 135.898752 
L 136.816484 143.768025 
L 141.396585 143.768025 
L 141.396585 146.815209 
L 145.976686 146.815209 
L 145.976686 151.213206 
L 150.556787 151.213206 
L 150.556787 153.647812 
L 155.136889 153.647812 
L 155.136889 154.064051 
L 159.71699 154.064051 
L 159.71699 155.014333 
L 164.297091 155.014333 
L 164.297091 155.838957 
L 168.877192 155.838957 
L 168.877192 156.184514 
L 173.457294 156.184514 
L 173.457294 156.820653 
L 178.037395 156.820653 
L 178.037395 156.962017 
L 182.617496 156.962017 
L 182.617496 156.867774 
L 187.197597 156.867774 
L 187.197597 157.079821 
L 191.777699 157.079821 
L 191.777699 157.087674 
L 196.3578 157.087674 
L 196.3578 157.05626 
L 200.937901 157.05626 
L 200.937901 157.001285 
L 205.518002 157.001285 
L 205.518002 157.16621 
L 200.937901 157.16621 
L 200.937901 157.16621 
L 196.3578 157.16621 
L 196.3578 157.16621 
L 191.777699 157.16621 
L 191.777699 157.16621 
L 187.197597 157.16621 
L 187.197597 157.16621 
L 182.617496 157.16621 
L 182.617496 157.16621 
L 178.037395 157.16621 
L 178.037395 157.16621 
L 173.457294 157.16621 
L 173.457294 157.16621 
L 168.877192 157.16621 
L 168.877192 157.16621 
L 164.297091 157.16621 
L 164.297091 157.16621 
L 159.71699 157.16621 
L 159.71699 157.16621 
L 155.136889 157.16621 
L 155.136889 157.16621 
L 150.556787 157.16621 
L 150.556787 157.16621 
L 145.976686 157.16621 
L 145.976686 157.16621 
L 141.396585 157.16621 
L 141.396585 157.16621 
L 136.816484 157.16621 
L 136.816484 157.16621 
L 132.236382 157.16621 
L 132.236382 157.16621 
L 127.656281 157.16621 
L 127.656281 157.16621 
L 123.07618 157.16621 
L 123.07618 157.16621 
L 118.496079 157.16621 
L 118.496079 157.16621 
L 113.915977 157.16621 
L 113.915977 157.16621 
L 109.335876 157.16621 
L 109.335876 157.16621 
L 104.755775 157.16621 
L 104.755775 157.16621 
L 100.175674 157.16621 
L 100.175674 157.16621 
L 95.595572 157.16621 
L 95.595572 157.16621 
L 91.015471 157.16621 
L 91.015471 157.16621 
L 86.43537 157.16621 
L 86.43537 157.16621 
L 81.855269 157.16621 
L 81.855269 157.16621 
L 77.275167 157.16621 
L 77.275167 157.16621 
L 72.695066 157.16621 
L 72.695066 157.16621 
L 68.114965 157.16621 
L 68.114965 157.16621 
L 63.534864 157.16621 
L 63.534864 157.16621 
L 58.954762 157.16621 
L 58.954762 157.16621 
L 54.374661 157.16621 
L 54.374661 157.16621 
L 49.79456 157.16621 
L 49.79456 157.16621 
L 45.214459 157.16621 
L 45.214459 157.16621 
L 40.634357 157.16621 
L 40.634357 157.16621 
L 36.054256 157.16621 
L 36.054256 157.16621 
L 31.474155 157.16621 
L 31.474155 157.16621 
L 26.894054 157.16621 
L 26.894054 157.16621 
z
" clip-path="url(#p9317d68ee4)" style="fill: #ae0060"/>
   </g>
   <g id="matplotlib.axis_1">
    <g id="xtick_1">
     <g id="line2d_1">
      <path d="M 41.643699 157.16621 
L 41.643699 7.2 
" clip-path="url(#p9317d68ee4)" style="fill: none; stroke: #000000; stroke-opacity: 0.1; stroke-width: 0.5; stroke-linecap: square"/>
     </g>
     <g id="line2d_2">
      <defs>
       <path id="ma4b1c1de7a" d="M 0 0 
L 0 -3 
" style="stroke: #000000; stroke-width: 0.5"/>
      </defs>
      <g>
       <use xlink:href="#ma4b1c1de7a" x="41.643699" y="157.16621" style="stroke: #000000; stroke-width: 0.5"/>
      </g>
     </g>
     <g id="text_1">
      <!-- 0.4 -->
      <g transform="translate(36.077605 163.985116)scale(0.07 -0.07)">
       <defs>
        <path id="DejaVuSans-30" d="M 2034 4250 
Q 1547 4250 1301 3770 
Q 1056 3291 1056 2328 
Q 1056 1369 1301 889 
Q 1547 409 2034 409 
Q 2525 409 2770 889 
Q 3016 1369 3016 2328 
Q 3016 3291 2770 3770 
Q 2525 4250 2034 4250 
z
M 2034 4750 
Q 2819 4750 3233 4129 
Q 3647 3509 3647 2328 
Q 3647 1150 3233 529 
Q 2819 -91 2034 -91 
Q 1250 -91 836 529 
Q 422 1150 422 2328 
Q 422 3509 836 4129 
Q 1250 4750 2034 4750 
z
" transform="scale(0.015625)"/>
        <path id="DejaVuSans-2e" d="M 684 794 
L 1344 794 
L 1344 0 
L 684 0 
L 684 794 
z
" transform="scale(0.015625)"/>
        <path id="DejaVuSans-34" d="M 2419 4116 
L 825 1625 
L 2419 1625 
L 2419 4116 
z
M 2253 4666 
L 3047 4666 
L 3047 1625 
L 3713 1625 
L 3713 1100 
L 3047 1100 
L 3047 0 
L 2419 0 
L 2419 1100 
L 313 1100 
L 313 1709 
L 2253 4666 
z
" transform="scale(0.015625)"/>
       </defs>
       <use xlink:href="#DejaVuSans-30"/>
       <use xlink:href="#DejaVuSans-2e" x="63.623047"/>
       <use xlink:href="#DejaVuSans-34" x="95.410156"/>
      </g>
     </g>
    </g>
    <g id="xtick_2">
     <g id="line2d_3">
      <path d="M 71.902687 157.16621 
L 71.902687 7.2 
" clip-path="url(#p9317d68ee4)" style="fill: none; stroke: #000000; stroke-opacity: 0.1; stroke-width: 0.5; stroke-linecap: square"/>
     </g>
     <g id="line2d_4">
      <g>
       <use xlink:href="#ma4b1c1de7a" x="71.902687" y="157.16621" style="stroke: #000000; stroke-width: 0.5"/>
      </g>
     </g>
     <g id="text_2">
      <!-- 0.5 -->
      <g transform="translate(66.336593 163.985116)scale(0.07 -0.07)">
       <defs>
        <path id="DejaVuSans-35" d="M 691 4666 
L 3169 4666 
L 3169 4134 
L 1269 4134 
L 1269 2991 
Q 1406 3038 1543 3061 
Q 1681 3084 1819 3084 
Q 2600 3084 3056 2656 
Q 3513 2228 3513 1497 
Q 3513 744 3044 326 
Q 2575 -91 1722 -91 
Q 1428 -91 1123 -41 
Q 819 9 494 109 
L 494 744 
Q 775 591 1075 516 
Q 1375 441 1709 441 
Q 2250 441 2565 725 
Q 2881 1009 2881 1497 
Q 2881 1984 2565 2268 
Q 2250 2553 1709 2553 
Q 1456 2553 1204 2497 
Q 953 2441 691 2322 
L 691 4666 
z
" transform="scale(0.015625)"/>
       </defs>
       <use xlink:href="#DejaVuSans-30"/>
       <use xlink:href="#DejaVuSans-2e" x="63.623047"/>
       <use xlink:href="#DejaVuSans-35" x="95.410156"/>
      </g>
     </g>
    </g>
    <g id="xtick_3">
     <g id="line2d_5">
      <path d="M 102.161675 157.16621 
L 102.161675 7.2 
" clip-path="url(#p9317d68ee4)" style="fill: none; stroke: #000000; stroke-opacity: 0.1; stroke-width: 0.5; stroke-linecap: square"/>
     </g>
     <g id="line2d_6">
      <g>
       <use xlink:href="#ma4b1c1de7a" x="102.161675" y="157.16621" style="stroke: #000000; stroke-width: 0.5"/>
      </g>
     </g>
     <g id="text_3">
      <!-- 0.6 -->
      <g transform="translate(96.595581 163.985116)scale(0.07 -0.07)">
       <defs>
        <path id="DejaVuSans-36" d="M 2113 2584 
Q 1688 2584 1439 2293 
Q 1191 2003 1191 1497 
Q 1191 994 1439 701 
Q 1688 409 2113 409 
Q 2538 409 2786 701 
Q 3034 994 3034 1497 
Q 3034 2003 2786 2293 
Q 2538 2584 2113 2584 
z
M 3366 4563 
L 3366 3988 
Q 3128 4100 2886 4159 
Q 2644 4219 2406 4219 
Q 1781 4219 1451 3797 
Q 1122 3375 1075 2522 
Q 1259 2794 1537 2939 
Q 1816 3084 2150 3084 
Q 2853 3084 3261 2657 
Q 3669 2231 3669 1497 
Q 3669 778 3244 343 
Q 2819 -91 2113 -91 
Q 1303 -91 875 529 
Q 447 1150 447 2328 
Q 447 3434 972 4092 
Q 1497 4750 2381 4750 
Q 2619 4750 2861 4703 
Q 3103 4656 3366 4563 
z
" transform="scale(0.015625)"/>
       </defs>
       <use xlink:href="#DejaVuSans-30"/>
       <use xlink:href="#DejaVuSans-2e" x="63.623047"/>
       <use xlink:href="#DejaVuSans-36" x="95.410156"/>
      </g>
     </g>
    </g>
    <g id="xtick_4">
     <g id="line2d_7">
      <path d="M 132.420663 157.16621 
L 132.420663 7.2 
" clip-path="url(#p9317d68ee4)" style="fill: none; stroke: #000000; stroke-opacity: 0.1; stroke-width: 0.5; stroke-linecap: square"/>
     </g>
     <g id="line2d_8">
      <g>
       <use xlink:href="#ma4b1c1de7a" x="132.420663" y="157.16621" style="stroke: #000000; stroke-width: 0.5"/>
      </g>
     </g>
     <g id="text_4">
      <!-- 0.7 -->
      <g transform="translate(126.854569 163.985116)scale(0.07 -0.07)">
       <defs>
        <path id="DejaVuSans-37" d="M 525 4666 
L 3525 4666 
L 3525 4397 
L 1831 0 
L 1172 0 
L 2766 4134 
L 525 4134 
L 525 4666 
z
" transform="scale(0.015625)"/>
       </defs>
       <use xlink:href="#DejaVuSans-30"/>
       <use xlink:href="#DejaVuSans-2e" x="63.623047"/>
       <use xlink:href="#DejaVuSans-37" x="95.410156"/>
      </g>
     </g>
    </g>
    <g id="xtick_5">
     <g id="line2d_9">
      <path d="M 162.679651 157.16621 
L 162.679651 7.2 
" clip-path="url(#p9317d68ee4)" style="fill: none; stroke: #000000; stroke-opacity: 0.1; stroke-width: 0.5; stroke-linecap: square"/>
     </g>
     <g id="line2d_10">
      <g>
       <use xlink:href="#ma4b1c1de7a" x="162.679651" y="157.16621" style="stroke: #000000; stroke-width: 0.5"/>
      </g>
     </g>
     <g id="text_5">
      <!-- 0.8 -->
      <g transform="translate(157.113557 163.985116)scale(0.07 -0.07)">
       <defs>
        <path id="DejaVuSans-38" d="M 2034 2216 
Q 1584 2216 1326 1975 
Q 1069 1734 1069 1313 
Q 1069 891 1326 650 
Q 1584 409 2034 409 
Q 2484 409 2743 651 
Q 3003 894 3003 1313 
Q 3003 1734 2745 1975 
Q 2488 2216 2034 2216 
z
M 1403 2484 
Q 997 2584 770 2862 
Q 544 3141 544 3541 
Q 544 4100 942 4425 
Q 1341 4750 2034 4750 
Q 2731 4750 3128 4425 
Q 3525 4100 3525 3541 
Q 3525 3141 3298 2862 
Q 3072 2584 2669 2484 
Q 3125 2378 3379 2068 
Q 3634 1759 3634 1313 
Q 3634 634 3220 271 
Q 2806 -91 2034 -91 
Q 1263 -91 848 271 
Q 434 634 434 1313 
Q 434 1759 690 2068 
Q 947 2378 1403 2484 
z
M 1172 3481 
Q 1172 3119 1398 2916 
Q 1625 2713 2034 2713 
Q 2441 2713 2670 2916 
Q 2900 3119 2900 3481 
Q 2900 3844 2670 4047 
Q 2441 4250 2034 4250 
Q 1625 4250 1398 4047 
Q 1172 3844 1172 3481 
z
" transform="scale(0.015625)"/>
       </defs>
       <use xlink:href="#DejaVuSans-30"/>
       <use xlink:href="#DejaVuSans-2e" x="63.623047"/>
       <use xlink:href="#DejaVuSans-38" x="95.410156"/>
      </g>
     </g>
    </g>
    <g id="xtick_6">
     <g id="line2d_11">
      <path d="M 192.938639 157.16621 
L 192.938639 7.2 
" clip-path="url(#p9317d68ee4)" style="fill: none; stroke: #000000; stroke-opacity: 0.1; stroke-width: 0.5; stroke-linecap: square"/>
     </g>
     <g id="line2d_12">
      <g>
       <use xlink:href="#ma4b1c1de7a" x="192.938639" y="157.16621" style="stroke: #000000; stroke-width: 0.5"/>
      </g>
     </g>
     <g id="text_6">
      <!-- 0.9 -->
      <g transform="translate(187.372545 163.985116)scale(0.07 -0.07)">
       <defs>
        <path id="DejaVuSans-39" d="M 703 97 
L 703 672 
Q 941 559 1184 500 
Q 1428 441 1663 441 
Q 2288 441 2617 861 
Q 2947 1281 2994 2138 
Q 2813 1869 2534 1725 
Q 2256 1581 1919 1581 
Q 1219 1581 811 2004 
Q 403 2428 403 3163 
Q 403 3881 828 4315 
Q 1253 4750 1959 4750 
Q 2769 4750 3195 4129 
Q 3622 3509 3622 2328 
Q 3622 1225 3098 567 
Q 2575 -91 1691 -91 
Q 1453 -91 1209 -44 
Q 966 3 703 97 
z
M 1959 2075 
Q 2384 2075 2632 2365 
Q 2881 2656 2881 3163 
Q 2881 3666 2632 3958 
Q 2384 4250 1959 4250 
Q 1534 4250 1286 3958 
Q 1038 3666 1038 3163 
Q 1038 2656 1286 2365 
Q 1534 2075 1959 2075 
z
" transform="scale(0.015625)"/>
       </defs>
       <use xlink:href="#DejaVuSans-30"/>
       <use xlink:href="#DejaVuSans-2e" x="63.623047"/>
       <use xlink:href="#DejaVuSans-39" x="95.410156"/>
      </g>
     </g>
    </g>
    <g id="text_7">
     <!-- Binomial parameter $p$ -->
     <g transform="translate(65.405977 174.280897)scale(0.09 -0.09)">
      <defs>
       <path id="DejaVuSans-42" d="M 1259 2228 
L 1259 519 
L 2272 519 
Q 2781 519 3026 730 
Q 3272 941 3272 1375 
Q 3272 1813 3026 2020 
Q 2781 2228 2272 2228 
L 1259 2228 
z
M 1259 4147 
L 1259 2741 
L 2194 2741 
Q 2656 2741 2882 2914 
Q 3109 3088 3109 3444 
Q 3109 3797 2882 3972 
Q 2656 4147 2194 4147 
L 1259 4147 
z
M 628 4666 
L 2241 4666 
Q 2963 4666 3353 4366 
Q 3744 4066 3744 3513 
Q 3744 3084 3544 2831 
Q 3344 2578 2956 2516 
Q 3422 2416 3680 2098 
Q 3938 1781 3938 1306 
Q 3938 681 3513 340 
Q 3088 0 2303 0 
L 628 0 
L 628 4666 
z
" transform="scale(0.015625)"/>
       <path id="DejaVuSans-69" d="M 603 3500 
L 1178 3500 
L 1178 0 
L 603 0 
L 603 3500 
z
M 603 4863 
L 1178 4863 
L 1178 4134 
L 603 4134 
L 603 4863 
z
" transform="scale(0.015625)"/>
       <path id="DejaVuSans-6e" d="M 3513 2113 
L 3513 0 
L 2938 0 
L 2938 2094 
Q 2938 2591 2744 2837 
Q 2550 3084 2163 3084 
Q 1697 3084 1428 2787 
Q 1159 2491 1159 1978 
L 1159 0 
L 581 0 
L 581 3500 
L 1159 3500 
L 1159 2956 
Q 1366 3272 1645 3428 
Q 1925 3584 2291 3584 
Q 2894 3584 3203 3211 
Q 3513 2838 3513 2113 
z
" transform="scale(0.015625)"/>
       <path id="DejaVuSans-6f" d="M 1959 3097 
Q 1497 3097 1228 2736 
Q 959 2375 959 1747 
Q 959 1119 1226 758 
Q 1494 397 1959 397 
Q 2419 397 2687 759 
Q 2956 1122 2956 1747 
Q 2956 2369 2687 2733 
Q 2419 3097 1959 3097 
z
M 1959 3584 
Q 2709 3584 3137 3096 
Q 3566 2609 3566 1747 
Q 3566 888 3137 398 
Q 2709 -91 1959 -91 
Q 1206 -91 779 398 
Q 353 888 353 1747 
Q 353 2609 779 3096 
Q 1206 3584 1959 3584 
z
" transform="scale(0.015625)"/>
       <path id="DejaVuSans-6d" d="M 3328 2828 
Q 3544 3216 3844 3400 
Q 4144 3584 4550 3584 
Q 5097 3584 5394 3201 
Q 5691 2819 5691 2113 
L 5691 0 
L 5113 0 
L 5113 2094 
Q 5113 2597 4934 2840 
Q 4756 3084 4391 3084 
Q 3944 3084 3684 2787 
Q 3425 2491 3425 1978 
L 3425 0 
L 2847 0 
L 2847 2094 
Q 2847 2600 2669 2842 
Q 2491 3084 2119 3084 
Q 1678 3084 1418 2786 
Q 1159 2488 1159 1978 
L 1159 0 
L 581 0 
L 581 3500 
L 1159 3500 
L 1159 2956 
Q 1356 3278 1631 3431 
Q 1906 3584 2284 3584 
Q 2666 3584 2933 3390 
Q 3200 3197 3328 2828 
z
" transform="scale(0.015625)"/>
       <path id="DejaVuSans-61" d="M 2194 1759 
Q 1497 1759 1228 1600 
Q 959 1441 959 1056 
Q 959 750 1161 570 
Q 1363 391 1709 391 
Q 2188 391 2477 730 
Q 2766 1069 2766 1631 
L 2766 1759 
L 2194 1759 
z
M 3341 1997 
L 3341 0 
L 2766 0 
L 2766 531 
Q 2569 213 2275 61 
Q 1981 -91 1556 -91 
Q 1019 -91 701 211 
Q 384 513 384 1019 
Q 384 1609 779 1909 
Q 1175 2209 1959 2209 
L 2766 2209 
L 2766 2266 
Q 2766 2663 2505 2880 
Q 2244 3097 1772 3097 
Q 1472 3097 1187 3025 
Q 903 2953 641 2809 
L 641 3341 
Q 956 3463 1253 3523 
Q 1550 3584 1831 3584 
Q 2591 3584 2966 3190 
Q 3341 2797 3341 1997 
z
" transform="scale(0.015625)"/>
       <path id="DejaVuSans-6c" d="M 603 4863 
L 1178 4863 
L 1178 0 
L 603 0 
L 603 4863 
z
" transform="scale(0.015625)"/>
       <path id="DejaVuSans-20" transform="scale(0.015625)"/>
       <path id="DejaVuSans-70" d="M 1159 525 
L 1159 -1331 
L 581 -1331 
L 581 3500 
L 1159 3500 
L 1159 2969 
Q 1341 3281 1617 3432 
Q 1894 3584 2278 3584 
Q 2916 3584 3314 3078 
Q 3713 2572 3713 1747 
Q 3713 922 3314 415 
Q 2916 -91 2278 -91 
Q 1894 -91 1617 61 
Q 1341 213 1159 525 
z
M 3116 1747 
Q 3116 2381 2855 2742 
Q 2594 3103 2138 3103 
Q 1681 3103 1420 2742 
Q 1159 2381 1159 1747 
Q 1159 1113 1420 752 
Q 1681 391 2138 391 
Q 2594 391 2855 752 
Q 3116 1113 3116 1747 
z
" transform="scale(0.015625)"/>
       <path id="DejaVuSans-72" d="M 2631 2963 
Q 2534 3019 2420 3045 
Q 2306 3072 2169 3072 
Q 1681 3072 1420 2755 
Q 1159 2438 1159 1844 
L 1159 0 
L 581 0 
L 581 3500 
L 1159 3500 
L 1159 2956 
Q 1341 3275 1631 3429 
Q 1922 3584 2338 3584 
Q 2397 3584 2469 3576 
Q 2541 3569 2628 3553 
L 2631 2963 
z
" transform="scale(0.015625)"/>
       <path id="DejaVuSans-65" d="M 3597 1894 
L 3597 1613 
L 953 1613 
Q 991 1019 1311 708 
Q 1631 397 2203 397 
Q 2534 397 2845 478 
Q 3156 559 3463 722 
L 3463 178 
Q 3153 47 2828 -22 
Q 2503 -91 2169 -91 
Q 1331 -91 842 396 
Q 353 884 353 1716 
Q 353 2575 817 3079 
Q 1281 3584 2069 3584 
Q 2775 3584 3186 3129 
Q 3597 2675 3597 1894 
z
M 3022 2063 
Q 3016 2534 2758 2815 
Q 2500 3097 2075 3097 
Q 1594 3097 1305 2825 
Q 1016 2553 972 2059 
L 3022 2063 
z
" transform="scale(0.015625)"/>
       <path id="DejaVuSans-74" d="M 1172 4494 
L 1172 3500 
L 2356 3500 
L 2356 3053 
L 1172 3053 
L 1172 1153 
Q 1172 725 1289 603 
Q 1406 481 1766 481 
L 2356 481 
L 2356 0 
L 1766 0 
Q 1100 0 847 248 
Q 594 497 594 1153 
L 594 3053 
L 172 3053 
L 172 3500 
L 594 3500 
L 594 4494 
L 1172 4494 
z
" transform="scale(0.015625)"/>
       <path id="Cmmi10-70" d="M -159 -1241 
Q -219 -1241 -219 -1159 
Q -197 -1019 -134 -1019 
Q 66 -1019 145 -983 
Q 225 -947 269 -800 
L 991 2081 
Q 1038 2200 1038 2388 
Q 1038 2663 850 2663 
Q 650 2663 553 2423 
Q 456 2184 366 1819 
Q 366 1778 313 1778 
L 238 1778 
Q 222 1778 203 1801 
Q 184 1825 184 1844 
Q 253 2122 317 2315 
Q 381 2509 517 2668 
Q 653 2828 856 2828 
Q 1075 2828 1240 2704 
Q 1406 2581 1453 2369 
Q 1628 2572 1840 2700 
Q 2053 2828 2278 2828 
Q 2547 2828 2745 2684 
Q 2944 2541 3044 2308 
Q 3144 2075 3144 1806 
Q 3144 1394 2933 953 
Q 2722 513 2361 220 
Q 2000 -72 1588 -72 
Q 1400 -72 1248 34 
Q 1097 141 1013 313 
L 722 -825 
Q 706 -919 703 -934 
Q 703 -1019 1125 -1019 
Q 1191 -1019 1191 -1100 
Q 1169 -1184 1155 -1212 
Q 1141 -1241 1081 -1241 
L -159 -1241 
z
M 1594 97 
Q 1816 97 2006 280 
Q 2197 463 2316 691 
Q 2403 863 2479 1111 
Q 2556 1359 2612 1640 
Q 2669 1922 2669 2088 
Q 2669 2234 2630 2362 
Q 2591 2491 2502 2577 
Q 2413 2663 2266 2663 
Q 2031 2663 1823 2495 
Q 1616 2328 1447 2081 
L 1447 2059 
L 1094 647 
Q 1138 419 1263 258 
Q 1388 97 1594 97 
z
" transform="scale(0.015625)"/>
      </defs>
      <use xlink:href="#DejaVuSans-42" transform="translate(0 0.015625)"/>
      <use xlink:href="#DejaVuSans-69" transform="translate(68.603516 0.015625)"/>
      <use xlink:href="#DejaVuSans-6e" transform="translate(96.386719 0.015625)"/>
      <use xlink:href="#DejaVuSans-6f" transform="translate(159.765625 0.015625)"/>
      <use xlink:href="#DejaVuSans-6d" transform="translate(220.947266 0.015625)"/>
      <use xlink:href="#DejaVuSans-69" transform="translate(318.359375 0.015625)"/>
      <use xlink:href="#DejaVuSans-61" transform="translate(346.142578 0.015625)"/>
      <use xlink:href="#DejaVuSans-6c" transform="translate(407.421875 0.015625)"/>
      <use xlink:href="#DejaVuSans-20" transform="translate(435.205078 0.015625)"/>
      <use xlink:href="#DejaVuSans-70" transform="translate(466.992188 0.015625)"/>
      <use xlink:href="#DejaVuSans-61" transform="translate(530.46875 0.015625)"/>
      <use xlink:href="#DejaVuSans-72" transform="translate(591.748047 0.015625)"/>
      <use xlink:href="#DejaVuSans-61" transform="translate(632.861328 0.015625)"/>
      <use xlink:href="#DejaVuSans-6d" transform="translate(694.140625 0.015625)"/>
      <use xlink:href="#DejaVuSans-65" transform="translate(791.552734 0.015625)"/>
      <use xlink:href="#DejaVuSans-74" transform="translate(853.076172 0.015625)"/>
      <use xlink:href="#DejaVuSans-65" transform="translate(892.285156 0.015625)"/>
      <use xlink:href="#DejaVuSans-72" transform="translate(953.808594 0.015625)"/>
      <use xlink:href="#DejaVuSans-20" transform="translate(994.921875 0.015625)"/>
      <use xlink:href="#Cmmi10-70" transform="translate(1026.708984 0.015625)"/>
     </g>
    </g>
   </g>
   <g id="matplotlib.axis_2">
    <g id="ytick_1">
     <g id="line2d_13">
      <path d="M 13.15375 157.16621 
L 214.678205 157.16621 
" clip-path="url(#p9317d68ee4)" style="fill: none; stroke: #000000; stroke-opacity: 0.1; stroke-width: 0.5; stroke-linecap: square"/>
     </g>
     <g id="line2d_14">
      <defs>
       <path id="m2bbe2ce6d2" d="M 0 0 
L 3 0 
" style="stroke: #000000; stroke-width: 0.5"/>
      </defs>
      <g>
       <use xlink:href="#m2bbe2ce6d2" x="13.15375" y="157.16621" style="stroke: #000000; stroke-width: 0.5"/>
      </g>
     </g>
     <g id="text_8">
      <!-- 0 -->
      <g transform="translate(7.2 159.825663)scale(0.07 -0.07)">
       <use xlink:href="#DejaVuSans-30"/>
      </g>
     </g>
    </g>
    <g id="ytick_2">
     <g id="line2d_15">
      <path d="M 13.15375 133.39137 
L 214.678205 133.39137 
" clip-path="url(#p9317d68ee4)" style="fill: none; stroke: #000000; stroke-opacity: 0.1; stroke-width: 0.5; stroke-linecap: square"/>
     </g>
     <g id="line2d_16">
      <g>
       <use xlink:href="#m2bbe2ce6d2" x="13.15375" y="133.39137" style="stroke: #000000; stroke-width: 0.5"/>
      </g>
     </g>
     <g id="text_9">
      <!-- 1 -->
      <g transform="translate(7.2 136.050823)scale(0.07 -0.07)">
       <defs>
        <path id="DejaVuSans-31" d="M 794 531 
L 1825 531 
L 1825 4091 
L 703 3866 
L 703 4441 
L 1819 4666 
L 2450 4666 
L 2450 531 
L 3481 531 
L 3481 0 
L 794 0 
L 794 531 
z
" transform="scale(0.015625)"/>
       </defs>
       <use xlink:href="#DejaVuSans-31"/>
      </g>
     </g>
    </g>
    <g id="ytick_3">
     <g id="line2d_17">
      <path d="M 13.15375 109.61653 
L 214.678205 109.61653 
" clip-path="url(#p9317d68ee4)" style="fill: none; stroke: #000000; stroke-opacity: 0.1; stroke-width: 0.5; stroke-linecap: square"/>
     </g>
     <g id="line2d_18">
      <g>
       <use xlink:href="#m2bbe2ce6d2" x="13.15375" y="109.61653" style="stroke: #000000; stroke-width: 0.5"/>
      </g>
     </g>
     <g id="text_10">
      <!-- 2 -->
      <g transform="translate(7.2 112.275983)scale(0.07 -0.07)">
       <defs>
        <path id="DejaVuSans-32" d="M 1228 531 
L 3431 531 
L 3431 0 
L 469 0 
L 469 531 
Q 828 903 1448 1529 
Q 2069 2156 2228 2338 
Q 2531 2678 2651 2914 
Q 2772 3150 2772 3378 
Q 2772 3750 2511 3984 
Q 2250 4219 1831 4219 
Q 1534 4219 1204 4116 
Q 875 4013 500 3803 
L 500 4441 
Q 881 4594 1212 4672 
Q 1544 4750 1819 4750 
Q 2544 4750 2975 4387 
Q 3406 4025 3406 3419 
Q 3406 3131 3298 2873 
Q 3191 2616 2906 2266 
Q 2828 2175 2409 1742 
Q 1991 1309 1228 531 
z
" transform="scale(0.015625)"/>
       </defs>
       <use xlink:href="#DejaVuSans-32"/>
      </g>
     </g>
    </g>
    <g id="ytick_4">
     <g id="line2d_19">
      <path d="M 13.15375 85.84169 
L 214.678205 85.84169 
" clip-path="url(#p9317d68ee4)" style="fill: none; stroke: #000000; stroke-opacity: 0.1; stroke-width: 0.5; stroke-linecap: square"/>
     </g>
     <g id="line2d_20">
      <g>
       <use xlink:href="#m2bbe2ce6d2" x="13.15375" y="85.84169" style="stroke: #000000; stroke-width: 0.5"/>
      </g>
     </g>
     <g id="text_11">
      <!-- 3 -->
      <g transform="translate(7.2 88.501143)scale(0.07 -0.07)">
       <defs>
        <path id="DejaVuSans-33" d="M 2597 2516 
Q 3050 2419 3304 2112 
Q 3559 1806 3559 1356 
Q 3559 666 3084 287 
Q 2609 -91 1734 -91 
Q 1441 -91 1130 -33 
Q 819 25 488 141 
L 488 750 
Q 750 597 1062 519 
Q 1375 441 1716 441 
Q 2309 441 2620 675 
Q 2931 909 2931 1356 
Q 2931 1769 2642 2001 
Q 2353 2234 1838 2234 
L 1294 2234 
L 1294 2753 
L 1863 2753 
Q 2328 2753 2575 2939 
Q 2822 3125 2822 3475 
Q 2822 3834 2567 4026 
Q 2313 4219 1838 4219 
Q 1578 4219 1281 4162 
Q 984 4106 628 3988 
L 628 4550 
Q 988 4650 1302 4700 
Q 1616 4750 1894 4750 
Q 2613 4750 3031 4423 
Q 3450 4097 3450 3541 
Q 3450 3153 3228 2886 
Q 3006 2619 2597 2516 
z
" transform="scale(0.015625)"/>
       </defs>
       <use xlink:href="#DejaVuSans-33"/>
      </g>
     </g>
    </g>
    <g id="ytick_5">
     <g id="line2d_21">
      <path d="M 13.15375 62.06685 
L 214.678205 62.06685 
" clip-path="url(#p9317d68ee4)" style="fill: none; stroke: #000000; stroke-opacity: 0.1; stroke-width: 0.5; stroke-linecap: square"/>
     </g>
     <g id="line2d_22">
      <g>
       <use xlink:href="#m2bbe2ce6d2" x="13.15375" y="62.06685" style="stroke: #000000; stroke-width: 0.5"/>
      </g>
     </g>
     <g id="text_12">
      <!-- 4 -->
      <g transform="translate(7.2 64.726303)scale(0.07 -0.07)">
       <use xlink:href="#DejaVuSans-34"/>
      </g>
     </g>
    </g>
    <g id="ytick_6">
     <g id="line2d_23">
      <path d="M 13.15375 38.29201 
L 214.678205 38.29201 
" clip-path="url(#p9317d68ee4)" style="fill: none; stroke: #000000; stroke-opacity: 0.1; stroke-width: 0.5; stroke-linecap: square"/>
     </g>
     <g id="line2d_24">
      <g>
       <use xlink:href="#m2bbe2ce6d2" x="13.15375" y="38.29201" style="stroke: #000000; stroke-width: 0.5"/>
      </g>
     </g>
     <g id="text_13">
      <!-- 5 -->
      <g transform="translate(7.2 40.951463)scale(0.07 -0.07)">
       <use xlink:href="#DejaVuSans-35"/>
      </g>
     </g>
    </g>
    <g id="ytick_7">
     <g id="line2d_25">
      <path d="M 13.15375 14.51717 
L 214.678205 14.51717 
" clip-path="url(#p9317d68ee4)" style="fill: none; stroke: #000000; stroke-opacity: 0.1; stroke-width: 0.5; stroke-linecap: square"/>
     </g>
     <g id="line2d_26">
      <g>
       <use xlink:href="#m2bbe2ce6d2" x="13.15375" y="14.51717" style="stroke: #000000; stroke-width: 0.5"/>
      </g>
     </g>
     <g id="text_14">
      <!-- 6 -->
      <g transform="translate(7.2 17.176623)scale(0.07 -0.07)">
       <use xlink:href="#DejaVuSans-36"/>
      </g>
     </g>
    </g>
   </g>
   <g id="line2d_27">
    <path d="M 41.643699 157.16621 
L 41.643699 7.2 
" clip-path="url(#p9317d68ee4)" style="fill: none; stroke: #005ea8; stroke-width: 2; stroke-linecap: square"/>
   </g>
   <g id="patch_4">
    <path d="M 13.15375 157.16621 
L 13.15375 7.2 
" style="fill: none; stroke: #000000; stroke-width: 0.5; stroke-linejoin: miter; stroke-linecap: square"/>
   </g>
   <g id="patch_5">
    <path d="M 214.678205 157.16621 
L 214.678205 7.2 
" style="fill: none; stroke: #000000; stroke-width: 0.5; stroke-linejoin: miter; stroke-linecap: square"/>
   </g>
   <g id="patch_6">
    <path d="M 13.15375 157.16621 
L 214.678205 157.16621 
" style="fill: none; stroke: #000000; stroke-width: 0.5; stroke-linejoin: miter; stroke-linecap: square"/>
   </g>
   <g id="patch_7">
    <path d="M 13.15375 7.2 
L 214.678205 7.2 
" style="fill: none; stroke: #000000; stroke-width: 0.5; stroke-linejoin: miter; stroke-linecap: square"/>
   </g>
   <g id="legend_1">
    <g id="patch_8">
     <path d="M 150.698205 28.534688 
L 209.778205 28.534688 
Q 211.178205 28.534688 211.178205 27.134688 
L 211.178205 12.1 
Q 211.178205 10.7 209.778205 10.7 
L 150.698205 10.7 
Q 149.298205 10.7 149.298205 12.1 
L 149.298205 27.134688 
Q 149.298205 28.534688 150.698205 28.534688 
z
" style="fill: #ffffff; opacity: 0.8; stroke: #cccccc; stroke-linejoin: miter"/>
    </g>
    <g id="line2d_28">
     <path d="M 150.698205 14.97 
L 157.698205 14.97 
L 164.698205 14.97 
" style="fill: none; stroke: #005ea8; stroke-width: 2; stroke-linecap: square"/>
    </g>
    <g id="text_15">
     <!-- $p_{\mathrm{early}}$ (fixed) -->
     <g transform="translate(170.298205 17.42)scale(0.07 -0.07)">
      <defs>
       <path id="Cmr10-65" d="M 1594 -72 
Q 1203 -72 876 133 
Q 550 338 364 680 
Q 178 1022 178 1403 
Q 178 1778 348 2115 
Q 519 2453 823 2661 
Q 1128 2869 1503 2869 
Q 1797 2869 2014 2770 
Q 2231 2672 2372 2497 
Q 2513 2322 2584 2084 
Q 2656 1847 2656 1563 
Q 2656 1478 2591 1478 
L 738 1478 
L 738 1409 
Q 738 878 952 497 
Q 1166 116 1650 116 
Q 1847 116 2014 203 
Q 2181 291 2304 447 
Q 2428 603 2472 781 
Q 2478 803 2495 820 
Q 2513 838 2534 838 
L 2591 838 
Q 2656 838 2656 756 
Q 2566 394 2266 161 
Q 1966 -72 1594 -72 
z
M 744 1638 
L 2203 1638 
Q 2203 1878 2136 2125 
Q 2069 2372 1912 2536 
Q 1756 2700 1503 2700 
Q 1141 2700 942 2361 
Q 744 2022 744 1638 
z
" transform="scale(0.015625)"/>
       <path id="Cmr10-61" d="M 256 628 
Q 256 1009 556 1248 
Q 856 1488 1276 1586 
Q 1697 1684 2075 1684 
L 2075 1947 
Q 2075 2131 1994 2304 
Q 1913 2478 1759 2589 
Q 1606 2700 1422 2700 
Q 997 2700 775 2509 
Q 897 2509 976 2417 
Q 1056 2325 1056 2203 
Q 1056 2075 965 1984 
Q 875 1894 750 1894 
Q 622 1894 531 1984 
Q 441 2075 441 2203 
Q 441 2541 747 2705 
Q 1053 2869 1422 2869 
Q 1681 2869 1943 2758 
Q 2206 2647 2373 2440 
Q 2541 2234 2541 1959 
L 2541 519 
Q 2541 394 2594 289 
Q 2647 184 2759 184 
Q 2866 184 2917 290 
Q 2969 397 2969 519 
L 2969 928 
L 3156 928 
L 3156 519 
Q 3156 375 3081 245 
Q 3006 116 2879 39 
Q 2753 -38 2606 -38 
Q 2419 -38 2283 107 
Q 2147 253 2131 453 
Q 2013 213 1781 70 
Q 1550 -72 1288 -72 
Q 1044 -72 808 0 
Q 572 72 414 226 
Q 256 381 256 628 
z
M 775 628 
Q 775 403 940 250 
Q 1106 97 1331 97 
Q 1538 97 1706 200 
Q 1875 303 1975 481 
Q 2075 659 2075 856 
L 2075 1522 
Q 1784 1522 1479 1426 
Q 1175 1331 975 1128 
Q 775 925 775 628 
z
" transform="scale(0.015625)"/>
       <path id="Cmr10-72" d="M 166 0 
L 166 225 
Q 384 225 525 259 
Q 666 294 666 428 
L 666 2175 
Q 666 2347 614 2423 
Q 563 2500 466 2517 
Q 369 2534 166 2534 
L 166 2759 
L 1081 2828 
L 1081 2203 
Q 1184 2481 1375 2654 
Q 1566 2828 1838 2828 
Q 2028 2828 2178 2715 
Q 2328 2603 2328 2419 
Q 2328 2303 2245 2217 
Q 2163 2131 2041 2131 
Q 1922 2131 1837 2215 
Q 1753 2300 1753 2419 
Q 1753 2591 1875 2663 
L 1838 2663 
Q 1578 2663 1414 2475 
Q 1250 2288 1181 2009 
Q 1113 1731 1113 1478 
L 1113 428 
Q 1113 225 1734 225 
L 1734 0 
L 166 0 
z
" transform="scale(0.015625)"/>
       <path id="Cmr10-6c" d="M 197 0 
L 197 225 
Q 416 225 556 259 
Q 697 294 697 428 
L 697 3788 
Q 697 3959 645 4036 
Q 594 4113 497 4130 
Q 400 4147 197 4147 
L 197 4372 
L 1147 4441 
L 1147 428 
Q 1147 294 1287 259 
Q 1428 225 1644 225 
L 1644 0 
L 197 0 
z
" transform="scale(0.015625)"/>
       <path id="Cmr10-79" d="M 441 -1050 
Q 563 -1147 709 -1147 
Q 1113 -1147 1369 -538 
L 1588 0 
L 628 2350 
Q 569 2469 447 2501 
Q 325 2534 122 2534 
L 122 2759 
L 1466 2759 
L 1466 2534 
Q 1113 2534 1113 2381 
Q 1113 2356 1119 2344 
L 1831 594 
L 2472 2169 
Q 2491 2219 2491 2278 
Q 2491 2356 2448 2414 
Q 2406 2472 2339 2503 
Q 2272 2534 2188 2534 
L 2188 2759 
L 3250 2759 
L 3250 2534 
Q 3053 2534 2904 2443 
Q 2756 2353 2675 2175 
L 1569 -538 
Q 1481 -744 1364 -917 
Q 1247 -1091 1078 -1202 
Q 909 -1313 709 -1313 
Q 475 -1313 298 -1158 
Q 122 -1003 122 -775 
Q 122 -656 203 -575 
Q 284 -494 403 -494 
Q 484 -494 548 -530 
Q 613 -566 648 -628 
Q 684 -691 684 -775 
Q 684 -878 615 -959 
Q 547 -1041 441 -1050 
z
" transform="scale(0.015625)"/>
       <path id="DejaVuSans-28" d="M 1984 4856 
Q 1566 4138 1362 3434 
Q 1159 2731 1159 2009 
Q 1159 1288 1364 580 
Q 1569 -128 1984 -844 
L 1484 -844 
Q 1016 -109 783 600 
Q 550 1309 550 2009 
Q 550 2706 781 3412 
Q 1013 4119 1484 4856 
L 1984 4856 
z
" transform="scale(0.015625)"/>
       <path id="DejaVuSans-66" d="M 2375 4863 
L 2375 4384 
L 1825 4384 
Q 1516 4384 1395 4259 
Q 1275 4134 1275 3809 
L 1275 3500 
L 2222 3500 
L 2222 3053 
L 1275 3053 
L 1275 0 
L 697 0 
L 697 3053 
L 147 3053 
L 147 3500 
L 697 3500 
L 697 3744 
Q 697 4328 969 4595 
Q 1241 4863 1831 4863 
L 2375 4863 
z
" transform="scale(0.015625)"/>
       <path id="DejaVuSans-78" d="M 3513 3500 
L 2247 1797 
L 3578 0 
L 2900 0 
L 1881 1375 
L 863 0 
L 184 0 
L 1544 1831 
L 300 3500 
L 978 3500 
L 1906 2253 
L 2834 3500 
L 3513 3500 
z
" transform="scale(0.015625)"/>
       <path id="DejaVuSans-64" d="M 2906 2969 
L 2906 4863 
L 3481 4863 
L 3481 0 
L 2906 0 
L 2906 525 
Q 2725 213 2448 61 
Q 2172 -91 1784 -91 
Q 1150 -91 751 415 
Q 353 922 353 1747 
Q 353 2572 751 3078 
Q 1150 3584 1784 3584 
Q 2172 3584 2448 3432 
Q 2725 3281 2906 2969 
z
M 947 1747 
Q 947 1113 1208 752 
Q 1469 391 1925 391 
Q 2381 391 2643 752 
Q 2906 1113 2906 1747 
Q 2906 2381 2643 2742 
Q 2381 3103 1925 3103 
Q 1469 3103 1208 2742 
Q 947 2381 947 1747 
z
" transform="scale(0.015625)"/>
       <path id="DejaVuSans-29" d="M 513 4856 
L 1013 4856 
Q 1481 4119 1714 3412 
Q 1947 2706 1947 2009 
Q 1947 1309 1714 600 
Q 1481 -109 1013 -844 
L 513 -844 
Q 928 -128 1133 580 
Q 1338 1288 1338 2009 
Q 1338 2731 1133 3434 
Q 928 4138 513 4856 
z
" transform="scale(0.015625)"/>
      </defs>
      <use xlink:href="#Cmmi10-70" transform="translate(0 0.015625)"/>
      <use xlink:href="#Cmr10-65" transform="translate(50.292969 -16.990625)scale(0.7)"/>
      <use xlink:href="#Cmr10-61" transform="translate(81.362305 -16.990625)scale(0.7)"/>
      <use xlink:href="#Cmr10-72" transform="translate(116.362305 -16.990625)scale(0.7)"/>
      <use xlink:href="#Cmr10-6c" transform="translate(143.740234 -16.990625)scale(0.7)"/>
      <use xlink:href="#Cmr10-79" transform="translate(163.120117 -16.990625)scale(0.7)"/>
      <use xlink:href="#DejaVuSans-20" transform="translate(206.377344 0.015625)"/>
      <use xlink:href="#DejaVuSans-28" transform="translate(238.164453 0.015625)"/>
      <use xlink:href="#DejaVuSans-66" transform="translate(277.178125 0.015625)"/>
      <use xlink:href="#DejaVuSans-69" transform="translate(312.383203 0.015625)"/>
      <use xlink:href="#DejaVuSans-78" transform="translate(340.166406 0.015625)"/>
      <use xlink:href="#DejaVuSans-65" transform="translate(399.346094 0.015625)"/>
      <use xlink:href="#DejaVuSans-64" transform="translate(460.869531 0.015625)"/>
      <use xlink:href="#DejaVuSans-29" transform="translate(524.346094 0.015625)"/>
     </g>
    </g>
    <g id="patch_9">
     <path d="M 150.698205 25.678906 
L 164.698205 25.678906 
L 164.698205 20.778906 
L 150.698205 20.778906 
z
" style="fill: #ae0060"/>
    </g>
    <g id="text_16">
     <!-- $p_{\mathrm{late}}$ -->
     <g transform="translate(170.298205 25.678906)scale(0.07 -0.07)">
      <defs>
       <path id="Cmr10-74" d="M 653 769 
L 653 2534 
L 122 2534 
L 122 2700 
Q 541 2700 737 3090 
Q 934 3481 934 3938 
L 1119 3938 
L 1119 2759 
L 2022 2759 
L 2022 2534 
L 1119 2534 
L 1119 781 
Q 1119 516 1208 316 
Q 1297 116 1528 116 
Q 1747 116 1844 327 
Q 1941 538 1941 781 
L 1941 1159 
L 2125 1159 
L 2125 769 
Q 2125 569 2051 373 
Q 1978 178 1834 53 
Q 1691 -72 1484 -72 
Q 1100 -72 876 158 
Q 653 388 653 769 
z
" transform="scale(0.015625)"/>
      </defs>
      <use xlink:href="#Cmmi10-70" transform="translate(0 0.8125)"/>
      <use xlink:href="#Cmr10-6c" transform="translate(50.292969 -16.19375)scale(0.7)"/>
      <use xlink:href="#Cmr10-61" transform="translate(69.672852 -16.19375)scale(0.7)"/>
      <use xlink:href="#Cmr10-74" transform="translate(104.672852 -16.19375)scale(0.7)"/>
      <use xlink:href="#Cmr10-65" transform="translate(131.845703 -16.19375)scale(0.7)"/>
     </g>
    </g>
   </g>
  </g>
  <g id="axes_2">
   <g id="patch_10">
    <path d="M 248.764622 157.16621 
L 450.289077 157.16621 
L 450.289077 7.2 
L 248.764622 7.2 
z
" style="fill: #ffffff"/>
   </g>
   <g id="matplotlib.axis_3">
    <g id="xtick_7">
     <g id="line2d_29">
      <path d="M 248.764622 157.16621 
L 248.764622 7.2 
" clip-path="url(#paec9f8c6cc)" style="fill: none; stroke: #000000; stroke-opacity: 0.1; stroke-width: 0.5; stroke-linecap: square"/>
     </g>
     <g id="line2d_30">
      <g>
       <use xlink:href="#ma4b1c1de7a" x="248.764622" y="157.16621" style="stroke: #000000; stroke-width: 0.5"/>
      </g>
     </g>
     <g id="text_17">
      <!-- 1 -->
      <g transform="translate(246.537747 163.985116)scale(0.07 -0.07)">
       <use xlink:href="#DejaVuSans-31"/>
      </g>
     </g>
    </g>
    <g id="xtick_8">
     <g id="line2d_31">
      <path d="M 271.156228 157.16621 
L 271.156228 7.2 
" clip-path="url(#paec9f8c6cc)" style="fill: none; stroke: #000000; stroke-opacity: 0.1; stroke-width: 0.5; stroke-linecap: square"/>
     </g>
     <g id="line2d_32">
      <g>
       <use xlink:href="#ma4b1c1de7a" x="271.156228" y="157.16621" style="stroke: #000000; stroke-width: 0.5"/>
      </g>
     </g>
     <g id="text_18">
      <!-- 2 -->
      <g transform="translate(268.929353 163.985116)scale(0.07 -0.07)">
       <use xlink:href="#DejaVuSans-32"/>
      </g>
     </g>
    </g>
    <g id="xtick_9">
     <g id="line2d_33">
      <path d="M 293.547834 157.16621 
L 293.547834 7.2 
" clip-path="url(#paec9f8c6cc)" style="fill: none; stroke: #000000; stroke-opacity: 0.1; stroke-width: 0.5; stroke-linecap: square"/>
     </g>
     <g id="line2d_34">
      <g>
       <use xlink:href="#ma4b1c1de7a" x="293.547834" y="157.16621" style="stroke: #000000; stroke-width: 0.5"/>
      </g>
     </g>
     <g id="text_19">
      <!-- 3 -->
      <g transform="translate(291.320959 163.985116)scale(0.07 -0.07)">
       <use xlink:href="#DejaVuSans-33"/>
      </g>
     </g>
    </g>
    <g id="xtick_10">
     <g id="line2d_35">
      <path d="M 315.939441 157.16621 
L 315.939441 7.2 
" clip-path="url(#paec9f8c6cc)" style="fill: none; stroke: #000000; stroke-opacity: 0.1; stroke-width: 0.5; stroke-linecap: square"/>
     </g>
     <g id="line2d_36">
      <g>
       <use xlink:href="#ma4b1c1de7a" x="315.939441" y="157.16621" style="stroke: #000000; stroke-width: 0.5"/>
      </g>
     </g>
     <g id="text_20">
      <!-- 4 -->
      <g transform="translate(313.712566 163.985116)scale(0.07 -0.07)">
       <use xlink:href="#DejaVuSans-34"/>
      </g>
     </g>
    </g>
    <g id="xtick_11">
     <g id="line2d_37">
      <path d="M 338.331047 157.16621 
L 338.331047 7.2 
" clip-path="url(#paec9f8c6cc)" style="fill: none; stroke: #000000; stroke-opacity: 0.1; stroke-width: 0.5; stroke-linecap: square"/>
     </g>
     <g id="line2d_38">
      <g>
       <use xlink:href="#ma4b1c1de7a" x="338.331047" y="157.16621" style="stroke: #000000; stroke-width: 0.5"/>
      </g>
     </g>
     <g id="text_21">
      <!-- 5 -->
      <g transform="translate(336.104172 163.985116)scale(0.07 -0.07)">
       <use xlink:href="#DejaVuSans-35"/>
      </g>
     </g>
    </g>
    <g id="xtick_12">
     <g id="line2d_39">
      <path d="M 360.722653 157.16621 
L 360.722653 7.2 
" clip-path="url(#paec9f8c6cc)" style="fill: none; stroke: #000000; stroke-opacity: 0.1; stroke-width: 0.5; stroke-linecap: square"/>
     </g>
     <g id="line2d_40">
      <g>
       <use xlink:href="#ma4b1c1de7a" x="360.722653" y="157.16621" style="stroke: #000000; stroke-width: 0.5"/>
      </g>
     </g>
     <g id="text_22">
      <!-- 6 -->
      <g transform="translate(358.495778 163.985116)scale(0.07 -0.07)">
       <use xlink:href="#DejaVuSans-36"/>
      </g>
     </g>
    </g>
    <g id="xtick_13">
     <g id="line2d_41">
      <path d="M 383.114259 157.16621 
L 383.114259 7.2 
" clip-path="url(#paec9f8c6cc)" style="fill: none; stroke: #000000; stroke-opacity: 0.1; stroke-width: 0.5; stroke-linecap: square"/>
     </g>
     <g id="line2d_42">
      <g>
       <use xlink:href="#ma4b1c1de7a" x="383.114259" y="157.16621" style="stroke: #000000; stroke-width: 0.5"/>
      </g>
     </g>
     <g id="text_23">
      <!-- 7 -->
      <g transform="translate(380.887384 163.985116)scale(0.07 -0.07)">
       <use xlink:href="#DejaVuSans-37"/>
      </g>
     </g>
    </g>
    <g id="xtick_14">
     <g id="line2d_43">
      <path d="M 405.505865 157.16621 
L 405.505865 7.2 
" clip-path="url(#paec9f8c6cc)" style="fill: none; stroke: #000000; stroke-opacity: 0.1; stroke-width: 0.5; stroke-linecap: square"/>
     </g>
     <g id="line2d_44">
      <g>
       <use xlink:href="#ma4b1c1de7a" x="405.505865" y="157.16621" style="stroke: #000000; stroke-width: 0.5"/>
      </g>
     </g>
     <g id="text_24">
      <!-- 8 -->
      <g transform="translate(403.27899 163.985116)scale(0.07 -0.07)">
       <use xlink:href="#DejaVuSans-38"/>
      </g>
     </g>
    </g>
    <g id="xtick_15">
     <g id="line2d_45">
      <path d="M 427.897471 157.16621 
L 427.897471 7.2 
" clip-path="url(#paec9f8c6cc)" style="fill: none; stroke: #000000; stroke-opacity: 0.1; stroke-width: 0.5; stroke-linecap: square"/>
     </g>
     <g id="line2d_46">
      <g>
       <use xlink:href="#ma4b1c1de7a" x="427.897471" y="157.16621" style="stroke: #000000; stroke-width: 0.5"/>
      </g>
     </g>
     <g id="text_25">
      <!-- 9 -->
      <g transform="translate(425.670596 163.985116)scale(0.07 -0.07)">
       <use xlink:href="#DejaVuSans-39"/>
      </g>
     </g>
    </g>
    <g id="xtick_16">
     <g id="line2d_47">
      <path d="M 450.289077 157.16621 
L 450.289077 7.2 
" clip-path="url(#paec9f8c6cc)" style="fill: none; stroke: #000000; stroke-opacity: 0.1; stroke-width: 0.5; stroke-linecap: square"/>
     </g>
     <g id="line2d_48">
      <g>
       <use xlink:href="#ma4b1c1de7a" x="450.289077" y="157.16621" style="stroke: #000000; stroke-width: 0.5"/>
      </g>
     </g>
     <g id="text_26">
      <!-- 10 -->
      <g transform="translate(445.835327 163.985116)scale(0.07 -0.07)">
       <use xlink:href="#DejaVuSans-31"/>
       <use xlink:href="#DejaVuSans-30" x="63.623047"/>
      </g>
     </g>
    </g>
    <g id="text_27">
     <!-- Time step $t$ -->
     <g transform="translate(324.14685 174.280897)scale(0.09 -0.09)">
      <defs>
       <path id="DejaVuSans-54" d="M -19 4666 
L 3928 4666 
L 3928 4134 
L 2272 4134 
L 2272 0 
L 1638 0 
L 1638 4134 
L -19 4134 
L -19 4666 
z
" transform="scale(0.015625)"/>
       <path id="DejaVuSans-73" d="M 2834 3397 
L 2834 2853 
Q 2591 2978 2328 3040 
Q 2066 3103 1784 3103 
Q 1356 3103 1142 2972 
Q 928 2841 928 2578 
Q 928 2378 1081 2264 
Q 1234 2150 1697 2047 
L 1894 2003 
Q 2506 1872 2764 1633 
Q 3022 1394 3022 966 
Q 3022 478 2636 193 
Q 2250 -91 1575 -91 
Q 1294 -91 989 -36 
Q 684 19 347 128 
L 347 722 
Q 666 556 975 473 
Q 1284 391 1588 391 
Q 1994 391 2212 530 
Q 2431 669 2431 922 
Q 2431 1156 2273 1281 
Q 2116 1406 1581 1522 
L 1381 1569 
Q 847 1681 609 1914 
Q 372 2147 372 2553 
Q 372 3047 722 3315 
Q 1072 3584 1716 3584 
Q 2034 3584 2315 3537 
Q 2597 3491 2834 3397 
z
" transform="scale(0.015625)"/>
       <path id="Cmmi10-74" d="M 397 519 
Q 397 613 416 697 
L 878 2534 
L 206 2534 
Q 141 2534 141 2619 
Q 166 2759 225 2759 
L 934 2759 
L 1191 3803 
Q 1216 3888 1291 3947 
Q 1366 4006 1459 4006 
Q 1541 4006 1595 3957 
Q 1650 3909 1650 3828 
Q 1650 3809 1648 3798 
Q 1647 3788 1644 3775 
L 1388 2759 
L 2047 2759 
Q 2113 2759 2113 2675 
Q 2109 2659 2100 2621 
Q 2091 2584 2075 2559 
Q 2059 2534 2028 2534 
L 1331 2534 
L 872 684 
Q 825 503 825 372 
Q 825 97 1013 97 
Q 1294 97 1511 361 
Q 1728 625 1844 941 
Q 1869 978 1894 978 
L 1972 978 
Q 1997 978 2012 961 
Q 2028 944 2028 922 
Q 2028 909 2022 903 
Q 1881 516 1612 222 
Q 1344 -72 997 -72 
Q 744 -72 570 93 
Q 397 259 397 519 
z
" transform="scale(0.015625)"/>
      </defs>
      <use xlink:href="#DejaVuSans-54" transform="translate(0 0.015625)"/>
      <use xlink:href="#DejaVuSans-69" transform="translate(61.083984 0.015625)"/>
      <use xlink:href="#DejaVuSans-6d" transform="translate(88.867188 0.015625)"/>
      <use xlink:href="#DejaVuSans-65" transform="translate(186.279297 0.015625)"/>
      <use xlink:href="#DejaVuSans-20" transform="translate(247.802734 0.015625)"/>
      <use xlink:href="#DejaVuSans-73" transform="translate(279.589844 0.015625)"/>
      <use xlink:href="#DejaVuSans-74" transform="translate(331.689453 0.015625)"/>
      <use xlink:href="#DejaVuSans-65" transform="translate(370.898438 0.015625)"/>
      <use xlink:href="#DejaVuSans-70" transform="translate(432.421875 0.015625)"/>
      <use xlink:href="#DejaVuSans-20" transform="translate(495.898438 0.015625)"/>
      <use xlink:href="#Cmmi10-74" transform="translate(527.685547 0.015625)"/>
     </g>
    </g>
   </g>
   <g id="matplotlib.axis_4">
    <g id="ytick_8">
     <g id="line2d_49">
      <path d="M 248.764622 150.406582 
L 450.289077 150.406582 
" clip-path="url(#paec9f8c6cc)" style="fill: none; stroke: #000000; stroke-opacity: 0.1; stroke-width: 0.5; stroke-linecap: square"/>
     </g>
     <g id="line2d_50">
      <g>
       <use xlink:href="#m2bbe2ce6d2" x="248.764622" y="150.406582" style="stroke: #000000; stroke-width: 0.5"/>
      </g>
     </g>
     <g id="text_28">
      <!-- 0.00 -->
      <g transform="translate(231.678685 153.066035)scale(0.07 -0.07)">
       <use xlink:href="#DejaVuSans-30"/>
       <use xlink:href="#DejaVuSans-2e" x="63.623047"/>
       <use xlink:href="#DejaVuSans-30" x="95.410156"/>
       <use xlink:href="#DejaVuSans-30" x="159.033203"/>
      </g>
     </g>
    </g>
    <g id="ytick_9">
     <g id="line2d_51">
      <path d="M 248.764622 123.218062 
L 450.289077 123.218062 
" clip-path="url(#paec9f8c6cc)" style="fill: none; stroke: #000000; stroke-opacity: 0.1; stroke-width: 0.5; stroke-linecap: square"/>
     </g>
     <g id="line2d_52">
      <g>
       <use xlink:href="#m2bbe2ce6d2" x="248.764622" y="123.218062" style="stroke: #000000; stroke-width: 0.5"/>
      </g>
     </g>
     <g id="text_29">
      <!-- 0.05 -->
      <g transform="translate(231.678685 125.877515)scale(0.07 -0.07)">
       <use xlink:href="#DejaVuSans-30"/>
       <use xlink:href="#DejaVuSans-2e" x="63.623047"/>
       <use xlink:href="#DejaVuSans-30" x="95.410156"/>
       <use xlink:href="#DejaVuSans-35" x="159.033203"/>
      </g>
     </g>
    </g>
    <g id="ytick_10">
     <g id="line2d_53">
      <path d="M 248.764622 96.029542 
L 450.289077 96.029542 
" clip-path="url(#paec9f8c6cc)" style="fill: none; stroke: #000000; stroke-opacity: 0.1; stroke-width: 0.5; stroke-linecap: square"/>
     </g>
     <g id="line2d_54">
      <g>
       <use xlink:href="#m2bbe2ce6d2" x="248.764622" y="96.029542" style="stroke: #000000; stroke-width: 0.5"/>
      </g>
     </g>
     <g id="text_30">
      <!-- 0.10 -->
      <g transform="translate(231.678685 98.688995)scale(0.07 -0.07)">
       <use xlink:href="#DejaVuSans-30"/>
       <use xlink:href="#DejaVuSans-2e" x="63.623047"/>
       <use xlink:href="#DejaVuSans-31" x="95.410156"/>
       <use xlink:href="#DejaVuSans-30" x="159.033203"/>
      </g>
     </g>
    </g>
    <g id="ytick_11">
     <g id="line2d_55">
      <path d="M 248.764622 68.841022 
L 450.289077 68.841022 
" clip-path="url(#paec9f8c6cc)" style="fill: none; stroke: #000000; stroke-opacity: 0.1; stroke-width: 0.5; stroke-linecap: square"/>
     </g>
     <g id="line2d_56">
      <g>
       <use xlink:href="#m2bbe2ce6d2" x="248.764622" y="68.841022" style="stroke: #000000; stroke-width: 0.5"/>
      </g>
     </g>
     <g id="text_31">
      <!-- 0.15 -->
      <g transform="translate(231.678685 71.500475)scale(0.07 -0.07)">
       <use xlink:href="#DejaVuSans-30"/>
       <use xlink:href="#DejaVuSans-2e" x="63.623047"/>
       <use xlink:href="#DejaVuSans-31" x="95.410156"/>
       <use xlink:href="#DejaVuSans-35" x="159.033203"/>
      </g>
     </g>
    </g>
    <g id="ytick_12">
     <g id="line2d_57">
      <path d="M 248.764622 41.652502 
L 450.289077 41.652502 
" clip-path="url(#paec9f8c6cc)" style="fill: none; stroke: #000000; stroke-opacity: 0.1; stroke-width: 0.5; stroke-linecap: square"/>
     </g>
     <g id="line2d_58">
      <g>
       <use xlink:href="#m2bbe2ce6d2" x="248.764622" y="41.652502" style="stroke: #000000; stroke-width: 0.5"/>
      </g>
     </g>
     <g id="text_32">
      <!-- 0.20 -->
      <g transform="translate(231.678685 44.311955)scale(0.07 -0.07)">
       <use xlink:href="#DejaVuSans-30"/>
       <use xlink:href="#DejaVuSans-2e" x="63.623047"/>
       <use xlink:href="#DejaVuSans-32" x="95.410156"/>
       <use xlink:href="#DejaVuSans-30" x="159.033203"/>
      </g>
     </g>
    </g>
    <g id="ytick_13">
     <g id="line2d_59">
      <path d="M 248.764622 14.463982 
L 450.289077 14.463982 
" clip-path="url(#paec9f8c6cc)" style="fill: none; stroke: #000000; stroke-opacity: 0.1; stroke-width: 0.5; stroke-linecap: square"/>
     </g>
     <g id="line2d_60">
      <g>
       <use xlink:href="#m2bbe2ce6d2" x="248.764622" y="14.463982" style="stroke: #000000; stroke-width: 0.5"/>
      </g>
     </g>
     <g id="text_33">
      <!-- 0.25 -->
      <g transform="translate(231.678685 17.123435)scale(0.07 -0.07)">
       <use xlink:href="#DejaVuSans-30"/>
       <use xlink:href="#DejaVuSans-2e" x="63.623047"/>
       <use xlink:href="#DejaVuSans-32" x="95.410156"/>
       <use xlink:href="#DejaVuSans-35" x="159.033203"/>
      </g>
     </g>
    </g>
    <g id="text_34">
     <!-- $p_T(t)$ -->
     <g transform="translate(227.428685 91.723105)rotate(-90)scale(0.09 -0.09)">
      <defs>
       <path id="Cmmi10-54" d="M 294 84 
Q 297 100 308 140 
Q 319 181 336 203 
Q 353 225 384 225 
Q 934 225 1113 256 
Q 1284 300 1319 441 
L 2194 3956 
Q 2222 4034 2222 4097 
Q 2222 4147 1997 4147 
L 1625 4147 
Q 1197 4147 964 4015 
Q 731 3884 622 3668 
Q 513 3453 341 2963 
Q 319 2906 275 2906 
L 219 2906 
Q 153 2906 153 2988 
L 609 4313 
Q 622 4372 672 4372 
L 4453 4372 
Q 4519 4372 4519 4288 
L 4306 2963 
Q 4306 2944 4284 2925 
Q 4263 2906 4244 2906 
L 4184 2906 
Q 4122 2906 4122 2988 
Q 4191 3441 4191 3628 
Q 4191 3853 4097 3968 
Q 4003 4084 3853 4115 
Q 3703 4147 3463 4147 
L 3084 4147 
Q 2913 4147 2853 4115 
Q 2794 4084 2753 3928 
L 1875 416 
Q 1872 403 1870 390 
Q 1869 378 1863 359 
Q 1863 278 1959 256 
Q 2125 225 2669 225 
Q 2731 225 2731 141 
Q 2709 50 2696 25 
Q 2684 0 2625 0 
L 359 0 
Q 294 0 294 84 
z
" transform="scale(0.015625)"/>
       <path id="Cmr10-28" d="M 1984 -1588 
Q 1628 -1306 1370 -942 
Q 1113 -578 948 -165 
Q 784 247 703 697 
Q 622 1147 622 1600 
Q 622 2059 703 2509 
Q 784 2959 951 3375 
Q 1119 3791 1378 4153 
Q 1638 4516 1984 4788 
Q 1984 4800 2016 4800 
L 2075 4800 
Q 2094 4800 2109 4783 
Q 2125 4766 2125 4744 
Q 2125 4716 2113 4703 
Q 1800 4397 1592 4047 
Q 1384 3697 1257 3301 
Q 1131 2906 1075 2482 
Q 1019 2059 1019 1600 
Q 1019 -434 2106 -1491 
Q 2125 -1509 2125 -1544 
Q 2125 -1559 2108 -1579 
Q 2091 -1600 2075 -1600 
L 2016 -1600 
Q 1984 -1600 1984 -1588 
z
" transform="scale(0.015625)"/>
       <path id="Cmr10-29" d="M 416 -1600 
Q 359 -1600 359 -1544 
Q 359 -1516 372 -1503 
Q 1466 -434 1466 1600 
Q 1466 3634 384 4691 
Q 359 4706 359 4744 
Q 359 4766 376 4783 
Q 394 4800 416 4800 
L 475 4800 
Q 494 4800 506 4788 
Q 966 4425 1272 3906 
Q 1578 3388 1720 2800 
Q 1863 2213 1863 1600 
Q 1863 1147 1786 708 
Q 1709 269 1542 -157 
Q 1375 -584 1119 -945 
Q 863 -1306 506 -1588 
Q 494 -1600 475 -1600 
L 416 -1600 
z
" transform="scale(0.015625)"/>
      </defs>
      <use xlink:href="#Cmmi10-70"/>
      <use xlink:href="#Cmmi10-54" transform="translate(50.292969 -17.00625)scale(0.7)"/>
      <use xlink:href="#Cmr10-28" transform="translate(97.549219 0)"/>
      <use xlink:href="#Cmmi10-74" transform="translate(136.367578 0)"/>
      <use xlink:href="#Cmr10-29" transform="translate(172.451562 0)"/>
     </g>
    </g>
   </g>
   <g id="line2d_61">
    <path d="M 226.373016 147.118611 
L 248.764622 128.486771 
L 271.156228 84.647149 
L 293.547834 33.500923 
L 315.939441 14.016646 
L 338.331047 41.294633 
L 360.722653 89.788833 
L 383.114259 127.314106 
L 405.505865 144.633463 
L 427.897471 149.551305 
L 450.289077 150.349564 
" clip-path="url(#paec9f8c6cc)" style="fill: none; stroke: #005ea8; stroke-linecap: square"/>
    <defs>
     <path id="m3ae2e7558d" d="M 0 1.5 
C 0.397805 1.5 0.77937 1.341951 1.06066 1.06066 
C 1.341951 0.77937 1.5 0.397805 1.5 0 
C 1.5 -0.397805 1.341951 -0.77937 1.06066 -1.06066 
C 0.77937 -1.341951 0.397805 -1.5 0 -1.5 
C -0.397805 -1.5 -0.77937 -1.341951 -1.06066 -1.06066 
C -1.341951 -0.77937 -1.5 -0.397805 -1.5 0 
C -1.5 0.397805 -1.341951 0.77937 -1.06066 1.06066 
C -0.77937 1.341951 -0.397805 1.5 0 1.5 
z
" style="stroke: #005ea8"/>
    </defs>
    <g clip-path="url(#paec9f8c6cc)">
     <use xlink:href="#m3ae2e7558d" x="226.373016" y="147.118611" style="fill: #005ea8; stroke: #005ea8"/>
     <use xlink:href="#m3ae2e7558d" x="248.764622" y="128.486771" style="fill: #005ea8; stroke: #005ea8"/>
     <use xlink:href="#m3ae2e7558d" x="271.156228" y="84.647149" style="fill: #005ea8; stroke: #005ea8"/>
     <use xlink:href="#m3ae2e7558d" x="293.547834" y="33.500923" style="fill: #005ea8; stroke: #005ea8"/>
     <use xlink:href="#m3ae2e7558d" x="315.939441" y="14.016646" style="fill: #005ea8; stroke: #005ea8"/>
     <use xlink:href="#m3ae2e7558d" x="338.331047" y="41.294633" style="fill: #005ea8; stroke: #005ea8"/>
     <use xlink:href="#m3ae2e7558d" x="360.722653" y="89.788833" style="fill: #005ea8; stroke: #005ea8"/>
     <use xlink:href="#m3ae2e7558d" x="383.114259" y="127.314106" style="fill: #005ea8; stroke: #005ea8"/>
     <use xlink:href="#m3ae2e7558d" x="405.505865" y="144.633463" style="fill: #005ea8; stroke: #005ea8"/>
     <use xlink:href="#m3ae2e7558d" x="427.897471" y="149.551305" style="fill: #005ea8; stroke: #005ea8"/>
     <use xlink:href="#m3ae2e7558d" x="450.289077" y="150.349564" style="fill: #005ea8; stroke: #005ea8"/>
    </g>
   </g>
   <g id="line2d_62">
    <path d="M 226.373016 150.298536 
L 248.764622 148.953135 
L 271.156228 141.608265 
L 293.547834 118.845193 
L 315.939441 76.107764 
L 338.331047 30.470214 
L 360.722653 15.95764 
L 383.114259 47.057391 
L 405.505865 98.271977 
L 427.897471 134.821779 
L 450.289077 148.31011 
" clip-path="url(#paec9f8c6cc)" style="fill: none; stroke: #ae0060; stroke-linecap: square"/>
    <defs>
     <path id="m96dccda6d8" d="M 0 1.5 
C 0.397805 1.5 0.77937 1.341951 1.06066 1.06066 
C 1.341951 0.77937 1.5 0.397805 1.5 0 
C 1.5 -0.397805 1.341951 -0.77937 1.06066 -1.06066 
C 0.77937 -1.341951 0.397805 -1.5 0 -1.5 
C -0.397805 -1.5 -0.77937 -1.341951 -1.06066 -1.06066 
C -1.341951 -0.77937 -1.5 -0.397805 -1.5 0 
C -1.5 0.397805 -1.341951 0.77937 -1.06066 1.06066 
C -0.77937 1.341951 -0.397805 1.5 0 1.5 
z
" style="stroke: #ae0060"/>
    </defs>
    <g clip-path="url(#paec9f8c6cc)">
     <use xlink:href="#m96dccda6d8" x="226.373016" y="150.298536" style="fill: #ae0060; stroke: #ae0060"/>
     <use xlink:href="#m96dccda6d8" x="248.764622" y="148.953135" style="fill: #ae0060; stroke: #ae0060"/>
     <use xlink:href="#m96dccda6d8" x="271.156228" y="141.608265" style="fill: #ae0060; stroke: #ae0060"/>
     <use xlink:href="#m96dccda6d8" x="293.547834" y="118.845193" style="fill: #ae0060; stroke: #ae0060"/>
     <use xlink:href="#m96dccda6d8" x="315.939441" y="76.107764" style="fill: #ae0060; stroke: #ae0060"/>
     <use xlink:href="#m96dccda6d8" x="338.331047" y="30.470214" style="fill: #ae0060; stroke: #ae0060"/>
     <use xlink:href="#m96dccda6d8" x="360.722653" y="15.95764" style="fill: #ae0060; stroke: #ae0060"/>
     <use xlink:href="#m96dccda6d8" x="383.114259" y="47.057391" style="fill: #ae0060; stroke: #ae0060"/>
     <use xlink:href="#m96dccda6d8" x="405.505865" y="98.271977" style="fill: #ae0060; stroke: #ae0060"/>
     <use xlink:href="#m96dccda6d8" x="427.897471" y="134.821779" style="fill: #ae0060; stroke: #ae0060"/>
     <use xlink:href="#m96dccda6d8" x="450.289077" y="148.31011" style="fill: #ae0060; stroke: #ae0060"/>
    </g>
   </g>
   <g id="patch_11">
    <path d="M 248.764622 157.16621 
L 248.764622 7.2 
" style="fill: none; stroke: #000000; stroke-width: 0.5; stroke-linejoin: miter; stroke-linecap: square"/>
   </g>
   <g id="patch_12">
    <path d="M 450.289077 157.16621 
L 450.289077 7.2 
" style="fill: none; stroke: #000000; stroke-width: 0.5; stroke-linejoin: miter; stroke-linecap: square"/>
   </g>
   <g id="patch_13">
    <path d="M 248.764622 157.16621 
L 450.289077 157.16621 
" style="fill: none; stroke: #000000; stroke-width: 0.5; stroke-linejoin: miter; stroke-linecap: square"/>
   </g>
   <g id="patch_14">
    <path d="M 248.764622 7.2 
L 450.289077 7.2 
" style="fill: none; stroke: #000000; stroke-width: 0.5; stroke-linejoin: miter; stroke-linecap: square"/>
   </g>
   <g id="legend_2">
    <g id="patch_15">
     <path d="M 386.309077 28.828906 
L 445.389077 28.828906 
Q 446.789077 28.828906 446.789077 27.428906 
L 446.789077 12.1 
Q 446.789077 10.7 445.389077 10.7 
L 386.309077 10.7 
Q 384.909077 10.7 384.909077 12.1 
L 384.909077 27.428906 
Q 384.909077 28.828906 386.309077 28.828906 
z
" style="fill: #ffffff; opacity: 0.8; stroke: #cccccc; stroke-linejoin: miter"/>
    </g>
    <g id="line2d_63">
     <path d="M 386.309077 14.97 
L 393.309077 14.97 
L 400.309077 14.97 
" style="fill: none; stroke: #005ea8; stroke-linecap: square"/>
     <defs>
      <path id="m676fa4982d" d="M 0 1.125 
C 0.298353 1.125 0.584527 1.006463 0.795495 0.795495 
C 1.006463 0.584527 1.125 0.298353 1.125 0 
C 1.125 -0.298353 1.006463 -0.584527 0.795495 -0.795495 
C 0.584527 -1.006463 0.298353 -1.125 0 -1.125 
C -0.298353 -1.125 -0.584527 -1.006463 -0.795495 -0.795495 
C -1.006463 -0.584527 -1.125 -0.298353 -1.125 0 
C -1.125 0.298353 -1.006463 0.584527 -0.795495 0.795495 
C -0.584527 1.006463 -0.298353 1.125 0 1.125 
z
" style="stroke: #005ea8"/>
     </defs>
     <g>
      <use xlink:href="#m676fa4982d" x="393.309077" y="14.97" style="fill: #005ea8; stroke: #005ea8"/>
     </g>
    </g>
    <g id="text_35">
     <!-- $p_{\mathrm{early}}$ (fixed) -->
     <g transform="translate(405.909077 17.42)scale(0.07 -0.07)">
      <use xlink:href="#Cmmi10-70" transform="translate(0 0.015625)"/>
      <use xlink:href="#Cmr10-65" transform="translate(50.292969 -16.990625)scale(0.7)"/>
      <use xlink:href="#Cmr10-61" transform="translate(81.362305 -16.990625)scale(0.7)"/>
      <use xlink:href="#Cmr10-72" transform="translate(116.362305 -16.990625)scale(0.7)"/>
      <use xlink:href="#Cmr10-6c" transform="translate(143.740234 -16.990625)scale(0.7)"/>
      <use xlink:href="#Cmr10-79" transform="translate(163.120117 -16.990625)scale(0.7)"/>
      <use xlink:href="#DejaVuSans-20" transform="translate(206.377344 0.015625)"/>
      <use xlink:href="#DejaVuSans-28" transform="translate(238.164453 0.015625)"/>
      <use xlink:href="#DejaVuSans-66" transform="translate(277.178125 0.015625)"/>
      <use xlink:href="#DejaVuSans-69" transform="translate(312.383203 0.015625)"/>
      <use xlink:href="#DejaVuSans-78" transform="translate(340.166406 0.015625)"/>
      <use xlink:href="#DejaVuSans-65" transform="translate(399.346094 0.015625)"/>
      <use xlink:href="#DejaVuSans-64" transform="translate(460.869531 0.015625)"/>
      <use xlink:href="#DejaVuSans-29" transform="translate(524.346094 0.015625)"/>
     </g>
    </g>
    <g id="line2d_64">
     <path d="M 386.309077 23.228906 
L 393.309077 23.228906 
L 400.309077 23.228906 
" style="fill: none; stroke: #ae0060; stroke-linecap: square"/>
     <defs>
      <path id="mf08bfc2ed6" d="M 0 1.125 
C 0.298353 1.125 0.584527 1.006463 0.795495 0.795495 
C 1.006463 0.584527 1.125 0.298353 1.125 0 
C 1.125 -0.298353 1.006463 -0.584527 0.795495 -0.795495 
C 0.584527 -1.006463 0.298353 -1.125 0 -1.125 
C -0.298353 -1.125 -0.584527 -1.006463 -0.795495 -0.795495 
C -1.006463 -0.584527 -1.125 -0.298353 -1.125 0 
C -1.125 0.298353 -1.006463 0.584527 -0.795495 0.795495 
C -0.584527 1.006463 -0.298353 1.125 0 1.125 
z
" style="stroke: #ae0060"/>
     </defs>
     <g>
      <use xlink:href="#mf08bfc2ed6" x="393.309077" y="23.228906" style="fill: #ae0060; stroke: #ae0060"/>
     </g>
    </g>
    <g id="text_36">
     <!-- $\mathbb{E}[p_{\mathrm{late}}]$ -->
     <g transform="translate(405.909077 25.678906)scale(0.07 -0.07)">
      <defs>
       <path id="STIXNonUnicode-Italic-e156" d="M 4250 4179 
L 4192 3942 
L 2150 3942 
L 1709 2266 
L 3514 2266 
L 3443 2029 
L 1645 2029 
L 1165 237 
L 3443 237 
L 3392 0 
L 109 0 
L 1229 4179 
L 4250 4179 
z
M 1914 3942 
L 1414 3942 
L 416 237 
L 928 237 
L 1914 3942 
z
" transform="scale(0.015625)"/>
       <path id="Cmr10-5b" d="M 756 -1600 
L 756 4800 
L 1631 4800 
L 1631 4544 
L 1013 4544 
L 1013 -1344 
L 1631 -1344 
L 1631 -1600 
L 756 -1600 
z
" transform="scale(0.015625)"/>
       <path id="Cmr10-5d" d="M 141 -1600 
L 141 -1344 
L 763 -1344 
L 763 4544 
L 141 4544 
L 141 4800 
L 1019 4800 
L 1019 -1600 
L 141 -1600 
z
" transform="scale(0.015625)"/>
      </defs>
      <use xlink:href="#STIXNonUnicode-Italic-e156"/>
      <use xlink:href="#Cmr10-5b" transform="translate(63.899994 0)"/>
      <use xlink:href="#Cmmi10-70" transform="translate(91.585541 0)"/>
      <use xlink:href="#Cmr10-6c" transform="translate(141.87851 -17.00625)scale(0.7)"/>
      <use xlink:href="#Cmr10-61" transform="translate(161.258392 -17.00625)scale(0.7)"/>
      <use xlink:href="#Cmr10-74" transform="translate(196.258392 -17.00625)scale(0.7)"/>
      <use xlink:href="#Cmr10-65" transform="translate(223.431244 -17.00625)scale(0.7)"/>
      <use xlink:href="#Cmr10-5d" transform="translate(260.877924 0)"/>
     </g>
    </g>
   </g>
  </g>
 </g>
 <defs>
  <clipPath id="p9317d68ee4">
   <rect x="13.15375" y="7.2" width="201.524455" height="149.96621"/>
  </clipPath>
  <clipPath id="paec9f8c6cc">
   <rect x="248.764622" y="7.2" width="201.524455" height="149.96621"/>
  </clipPath>
 </defs>
</svg>
