<?xml version="1.0" encoding="utf-8" standalone="no"?>
<!DOCTYPE svg PUBLIC "-//W3C//DTD SVG 1.1//EN"
  "http://www.w3.org/Graphics/SVG/1.1/DTD/svg11.dtd">
<svg xmlns:xlink="http://www.w3.org/1999/xlink" width="461.942827pt" height="183.370897pt" viewBox="0 0 461.942827 183.370897" xmlns="http://www.w3.org/2000/svg" version="1.1">
 <metadata>
  <rdf:RDF xmlns:dc="http://purl.org/dc/elements/1.1/" xmlns:cc="http://creativecommons.org/ns#" xmlns:rdf="http://www.w3.org/1999/02/22-rdf-syntax-ns#">
   <cc:Work>
    <dc:type rdf:resource="http://purl.org/dc/dcmitype/StillImage"/>
    <dc:date>2022-02-14T17:15:57.559043</dc:date>
    <dc:format>image/svg+xml</dc:format>
    <dc:creator>
     <cc:Agent>
      <dc:title>Matplotlib v3.5.1, https://matplotlib.org/</dc:title>
     </cc:Agent>
    </dc:creator>
   </cc:Work>
  </rdf:RDF>
 </metadata>
 <defs>
  <style type="text/css">*{stroke-linejoin: round; stroke-linecap: butt}</style>
 </defs>
 <g id="figure_1">
  <g id="patch_1">
   <path d="M 0 183.370897
L 461.942827 183.370897
L 461.942827 -0
L 0 -0
L 0 183.370897
z
" style="fill: none"/>
  </g>
  <g id="axes_1">
   <g id="patch_2">
    <path d="M 11.865941 159.212024
L 217.248704 159.212024
L 217.248704 7.2
L 11.865941 7.2
z
" style="fill: #ffffff"/>
   </g>
   <g id="patch_3">
    <path d="M 21.201521 159.212024
L 21.201521 159.203982
L 25.869311 159.203982
L 25.869311 159.195939
L 30.537102 159.195939
L 30.537102 159.179854
L 35.204892 159.179854
L 35.204892 159.083344
L 39.872682 159.083344
L 39.872682 159.010962
L 44.540472 159.010962
L 44.540472 158.415815
L 49.208262 158.415815
L 49.208262 157.28182
L 53.876052 157.28182
L 53.876052 155.150553
L 58.543842 155.150553
L 58.543842 150.799551
L 63.211632 150.799551
L 63.211632 143.625626
L 67.879422 143.625626
L 67.879422 132.068528
L 72.547212 132.068528
L 72.547212 113.820056
L 77.215002 113.820056
L 77.215002 101.209389
L 81.882792 101.209389
L 81.882792 74.757549
L 86.550582 74.757549
L 86.550582 59.525021
L 91.218372 59.525021
L 91.218372 32.52629
L 95.886162 32.52629
L 95.886162 26.027935
L 100.553953 26.027935
L 100.553953 14.438668
L 105.221743 14.438668
L 105.221743 17.044443
L 109.889533 17.044443
L 109.889533 23.38999
L 114.557323 23.38999
L 114.557323 34.191091
L 119.225113 34.191091
L 119.225113 53.798748
L 123.892903 53.798748
L 123.892903 72.931897
L 128.560693 72.931897
L 128.560693 85.035886
L 133.228483 85.035886
L 133.228483 106.670258
L 137.896273 106.670258
L 137.896273 119.401563
L 142.564063 119.401563
L 142.564063 130.50828
L 147.231853 130.50828
L 147.231853 137.826971
L 151.899643 137.826971
L 151.899643 144.30924
L 156.567433 144.30924
L 156.567433 146.9311
L 161.235223 146.9311
L 161.235223 152.416097
L 165.903013 152.416097
L 165.903013 154.7243
L 170.570804 154.7243
L 170.570804 156.485611
L 175.238594 156.485611
L 175.238594 157.161183
L 179.906384 157.161183
L 179.906384 157.515053
L 184.574174 157.515053
L 184.574174 158.480155
L 189.241964 158.480155
L 189.241964 158.713388
L 193.909754 158.713388
L 193.909754 158.914451
L 198.577544 158.914451
L 198.577544 159.115514
L 203.245334 159.115514
L 203.245334 159.091387
L 207.913124 159.091387
L 207.913124 159.212024
L 203.245334 159.212024
L 203.245334 159.212024
L 198.577544 159.212024
L 198.577544 159.212024
L 193.909754 159.212024
L 193.909754 159.212024
L 189.241964 159.212024
L 189.241964 159.212024
L 184.574174 159.212024
L 184.574174 159.212024
L 179.906384 159.212024
L 179.906384 159.212024
L 175.238594 159.212024
L 175.238594 159.212024
L 170.570804 159.212024
L 170.570804 159.212024
L 165.903013 159.212024
L 165.903013 159.212024
L 161.235223 159.212024
L 161.235223 159.212024
L 156.567433 159.212024
L 156.567433 159.212024
L 151.899643 159.212024
L 151.899643 159.212024
L 147.231853 159.212024
L 147.231853 159.212024
L 142.564063 159.212024
L 142.564063 159.212024
L 137.896273 159.212024
L 137.896273 159.212024
L 133.228483 159.212024
L 133.228483 159.212024
L 128.560693 159.212024
L 128.560693 159.212024
L 123.892903 159.212024
L 123.892903 159.212024
L 119.225113 159.212024
L 119.225113 159.212024
L 114.557323 159.212024
L 114.557323 159.212024
L 109.889533 159.212024
L 109.889533 159.212024
L 105.221743 159.212024
L 105.221743 159.212024
L 100.553953 159.212024
L 100.553953 159.212024
L 95.886162 159.212024
L 95.886162 159.212024
L 91.218372 159.212024
L 91.218372 159.212024
L 86.550582 159.212024
L 86.550582 159.212024
L 81.882792 159.212024
L 81.882792 159.212024
L 77.215002 159.212024
L 77.215002 159.212024
L 72.547212 159.212024
L 72.547212 159.212024
L 67.879422 159.212024
L 67.879422 159.212024
L 63.211632 159.212024
L 63.211632 159.212024
L 58.543842 159.212024
L 58.543842 159.212024
L 53.876052 159.212024
L 53.876052 159.212024
L 49.208262 159.212024
L 49.208262 159.212024
L 44.540472 159.212024
L 44.540472 159.212024
L 39.872682 159.212024
L 39.872682 159.212024
L 35.204892 159.212024
L 35.204892 159.212024
L 30.537102 159.212024
L 30.537102 159.212024
L 25.869311 159.212024
L 25.869311 159.212024
z
" clip-path="url(#pc731f8589e)" style="fill: #ae0060"/>
   </g>
   <g id="matplotlib.axis_1">
    <g id="xtick_1">
     <g id="line2d_1">
      <path d="M 22.578377 159.212024
L 22.578377 7.2
" clip-path="url(#pc731f8589e)" style="fill: none; stroke: #000000; stroke-opacity: 0.1; stroke-width: 0.5; stroke-linecap: square"/>
     </g>
     <g id="line2d_2">
      <defs>
       <path id="md24e4da9cf" d="M 0 0
L 0 -3
" style="stroke: #000000; stroke-width: 0.5"/>
      </defs>
      <g>
       <use xlink:href="#md24e4da9cf" x="22.578377" y="159.212024" style="stroke: #000000; stroke-width: 0.5"/>
      </g>
     </g>
     <g id="text_1">
      <!-- 0.3 -->
      <g transform="translate(18.623878 164.96028)scale(0.06246 -0.06246)">
       <defs>
        <path id="Calibri-30" d="M 3022 2031
Q 3022 1566 2948 1181
Q 2875 797 2704 520
Q 2534 244 2259 92
Q 1984 -59 1581 -59
Q 1200 -59 939 77
Q 678 213 518 477
Q 359 741 292 1127
Q 225 1513 225 2013
Q 225 2475 300 2861
Q 375 3247 544 3523
Q 713 3800 988 3951
Q 1263 4103 1663 4103
Q 2047 4103 2308 3967
Q 2569 3831 2728 3567
Q 2888 3303 2955 2917
Q 3022 2531 3022 2031
z
M 2472 1994
Q 2472 2297 2450 2537
Q 2428 2778 2386 2962
Q 2344 3147 2276 3280
Q 2209 3413 2115 3498
Q 2022 3584 1901 3623
Q 1781 3663 1631 3663
Q 1366 3663 1200 3538
Q 1034 3413 939 3194
Q 844 2975 809 2681
Q 775 2388 775 2050
Q 775 1597 822 1280
Q 869 963 970 763
Q 1072 563 1230 472
Q 1388 381 1613 381
Q 1788 381 1920 437
Q 2053 494 2148 598
Q 2244 703 2306 850
Q 2369 997 2406 1175
Q 2444 1353 2458 1561
Q 2472 1769 2472 1994
z
" transform="scale(0.015625)"/>
        <path id="Calibri-2e" d="M 1144 341
Q 1144 119 1070 45
Q 997 -28 803 -28
Q 616 -28 544 44
Q 472 116 472 331
Q 472 553 545 626
Q 619 700 813 700
Q 1000 700 1072 628
Q 1144 556 1144 341
z
" transform="scale(0.015625)"/>
        <path id="Calibri-33" d="M 2856 1156
Q 2856 878 2759 654
Q 2663 431 2481 272
Q 2300 113 2034 27
Q 1769 -59 1434 -59
Q 1231 -59 1054 -26
Q 878 6 740 51
Q 603 97 512 145
Q 422 194 398 216
Q 375 238 362 259
Q 350 281 340 312
Q 331 344 326 389
Q 322 434 322 500
Q 322 613 344 656
Q 366 700 406 700
Q 434 700 517 650
Q 600 600 729 542
Q 859 484 1032 434
Q 1206 384 1419 384
Q 1625 384 1781 437
Q 1938 491 2044 587
Q 2150 684 2203 817
Q 2256 950 2256 1106
Q 2256 1278 2189 1415
Q 2122 1553 1992 1653
Q 1863 1753 1673 1806
Q 1484 1859 1244 1859
L 859 1859
Q 834 1859 811 1870
Q 788 1881 770 1906
Q 753 1931 742 1972
Q 731 2013 731 2078
Q 731 2138 740 2177
Q 750 2216 767 2239
Q 784 2263 806 2273
Q 828 2284 856 2284
L 1209 2284
Q 1416 2284 1580 2337
Q 1744 2391 1858 2491
Q 1972 2591 2033 2730
Q 2094 2869 2094 3041
Q 2094 3166 2053 3280
Q 2013 3394 1931 3478
Q 1850 3563 1723 3611
Q 1597 3659 1431 3659
Q 1250 3659 1098 3604
Q 947 3550 828 3487
Q 709 3425 631 3370
Q 553 3316 522 3316
Q 500 3316 483 3323
Q 466 3331 455 3354
Q 444 3378 439 3420
Q 434 3463 434 3531
Q 434 3578 437 3614
Q 441 3650 450 3676
Q 459 3703 471 3725
Q 484 3747 514 3776
Q 544 3806 634 3862
Q 725 3919 858 3973
Q 991 4028 1164 4065
Q 1338 4103 1538 4103
Q 1819 4103 2031 4031
Q 2244 3959 2386 3828
Q 2528 3697 2598 3514
Q 2669 3331 2669 3109
Q 2669 2919 2619 2755
Q 2569 2591 2472 2464
Q 2375 2338 2234 2248
Q 2094 2159 1909 2125
L 1909 2119
Q 2119 2097 2292 2014
Q 2466 1931 2591 1806
Q 2716 1681 2786 1514
Q 2856 1347 2856 1156
z
" transform="scale(0.015625)"/>
       </defs>
       <use xlink:href="#Calibri-30"/>
       <use xlink:href="#Calibri-2e" x="50.683594"/>
       <use xlink:href="#Calibri-33" x="75.927734"/>
      </g>
     </g>
    </g>
    <g id="xtick_2">
     <g id="line2d_3">
      <path d="M 53.570204 159.212024
L 53.570204 7.2
" clip-path="url(#pc731f8589e)" style="fill: none; stroke: #000000; stroke-opacity: 0.1; stroke-width: 0.5; stroke-linecap: square"/>
     </g>
     <g id="line2d_4">
      <g>
       <use xlink:href="#md24e4da9cf" x="53.570204" y="159.212024" style="stroke: #000000; stroke-width: 0.5"/>
      </g>
     </g>
     <g id="text_2">
      <!-- 0.4 -->
      <g transform="translate(49.615706 164.96028)scale(0.06246 -0.06246)">
       <defs>
        <path id="Calibri-34" d="M 3059 1150
Q 3059 1047 3028 987
Q 2997 928 2941 928
L 2484 928
L 2484 78
Q 2484 53 2471 36
Q 2459 19 2428 6
Q 2397 -6 2347 -12
Q 2297 -19 2219 -19
Q 2144 -19 2094 -12
Q 2044 -6 2014 6
Q 1984 19 1973 36
Q 1963 53 1963 78
L 1963 928
L 294 928
Q 256 928 231 937
Q 206 947 186 972
Q 166 997 158 1044
Q 150 1091 150 1166
Q 150 1225 153 1272
Q 156 1319 165 1358
Q 175 1397 190 1433
Q 206 1469 228 1509
L 1684 3966
Q 1700 3991 1729 4009
Q 1759 4028 1806 4040
Q 1853 4053 1922 4058
Q 1991 4063 2084 4063
Q 2188 4063 2264 4055
Q 2341 4047 2387 4034
Q 2434 4022 2459 4001
Q 2484 3981 2484 3953
L 2484 1372
L 2941 1372
Q 2994 1372 3026 1317
Q 3059 1263 3059 1150
z
M 1963 3591
L 1956 3591
L 641 1372
L 1963 1372
L 1963 3591
z
" transform="scale(0.015625)"/>
       </defs>
       <use xlink:href="#Calibri-30"/>
       <use xlink:href="#Calibri-2e" x="50.683594"/>
       <use xlink:href="#Calibri-34" x="75.927734"/>
      </g>
     </g>
    </g>
    <g id="xtick_3">
     <g id="line2d_5">
      <path d="M 84.562032 159.212024
L 84.562032 7.2
" clip-path="url(#pc731f8589e)" style="fill: none; stroke: #000000; stroke-opacity: 0.1; stroke-width: 0.5; stroke-linecap: square"/>
     </g>
     <g id="line2d_6">
      <g>
       <use xlink:href="#md24e4da9cf" x="84.562032" y="159.212024" style="stroke: #000000; stroke-width: 0.5"/>
      </g>
     </g>
     <g id="text_3">
      <!-- 0.5 -->
      <g transform="translate(80.607533 164.96028)scale(0.06246 -0.06246)">
       <defs>
        <path id="Calibri-35" d="M 2869 1300
Q 2869 975 2759 722
Q 2650 469 2450 295
Q 2250 122 1973 31
Q 1697 -59 1359 -59
Q 1172 -59 1003 -32
Q 834 -6 703 33
Q 572 72 487 109
Q 403 147 379 169
Q 356 191 347 209
Q 338 228 330 254
Q 322 281 319 322
Q 316 363 316 419
Q 316 472 320 514
Q 325 556 337 582
Q 350 609 367 621
Q 384 634 406 634
Q 438 634 503 595
Q 569 556 680 511
Q 791 466 955 425
Q 1119 384 1344 384
Q 1553 384 1728 434
Q 1903 484 2029 590
Q 2156 697 2228 858
Q 2300 1019 2300 1250
Q 2300 1444 2239 1592
Q 2178 1741 2051 1839
Q 1925 1938 1731 1986
Q 1538 2034 1269 2034
Q 1078 2034 940 2015
Q 803 1997 684 1997
Q 597 1997 559 2037
Q 522 2078 522 2194
L 522 3841
Q 522 3944 570 3994
Q 619 4044 709 4044
L 2500 4044
Q 2525 4044 2548 4030
Q 2572 4016 2587 3987
Q 2603 3959 2611 3915
Q 2619 3872 2619 3813
Q 2619 3700 2587 3637
Q 2556 3575 2500 3575
L 991 3575
L 991 2441
Q 1100 2456 1214 2459
Q 1328 2463 1478 2463
Q 1825 2463 2084 2380
Q 2344 2297 2517 2145
Q 2691 1994 2780 1778
Q 2869 1563 2869 1300
z
" transform="scale(0.015625)"/>
       </defs>
       <use xlink:href="#Calibri-30"/>
       <use xlink:href="#Calibri-2e" x="50.683594"/>
       <use xlink:href="#Calibri-35" x="75.927734"/>
      </g>
     </g>
    </g>
    <g id="xtick_4">
     <g id="line2d_7">
      <path d="M 115.55386 159.212024
L 115.55386 7.2
" clip-path="url(#pc731f8589e)" style="fill: none; stroke: #000000; stroke-opacity: 0.1; stroke-width: 0.5; stroke-linecap: square"/>
     </g>
     <g id="line2d_8">
      <g>
       <use xlink:href="#md24e4da9cf" x="115.55386" y="159.212024" style="stroke: #000000; stroke-width: 0.5"/>
      </g>
     </g>
     <g id="text_4">
      <!-- 0.6 -->
      <g transform="translate(111.599361 164.96028)scale(0.06246 -0.06246)">
       <defs>
        <path id="Calibri-36" d="M 2991 1309
Q 2991 1044 2909 795
Q 2828 547 2659 358
Q 2491 169 2231 55
Q 1972 -59 1619 -59
Q 1366 -59 1172 3
Q 978 66 834 181
Q 691 297 595 465
Q 500 634 442 850
Q 384 1066 359 1322
Q 334 1578 334 1872
Q 334 2131 362 2397
Q 391 2663 462 2909
Q 534 3156 657 3373
Q 781 3591 967 3752
Q 1153 3913 1412 4006
Q 1672 4100 2016 4100
Q 2131 4100 2250 4086
Q 2369 4072 2469 4048
Q 2569 4025 2637 3997
Q 2706 3969 2728 3951
Q 2750 3934 2761 3914
Q 2772 3894 2778 3870
Q 2784 3847 2787 3817
Q 2791 3788 2791 3744
Q 2791 3688 2789 3647
Q 2788 3606 2777 3581
Q 2766 3556 2748 3543
Q 2731 3531 2703 3531
Q 2669 3531 2609 3553
Q 2550 3575 2465 3601
Q 2381 3628 2261 3650
Q 2141 3672 1981 3672
Q 1691 3672 1481 3553
Q 1272 3434 1139 3234
Q 1006 3034 942 2770
Q 878 2506 869 2219
Q 950 2266 1051 2312
Q 1153 2359 1273 2396
Q 1394 2434 1528 2457
Q 1663 2481 1816 2481
Q 2144 2481 2369 2392
Q 2594 2303 2733 2145
Q 2872 1988 2931 1773
Q 2991 1559 2991 1309
z
M 2447 1259
Q 2447 1441 2411 1589
Q 2375 1738 2290 1841
Q 2206 1944 2065 2000
Q 1925 2056 1719 2056
Q 1603 2056 1487 2036
Q 1372 2016 1264 1980
Q 1156 1944 1057 1895
Q 959 1847 878 1791
Q 878 1388 929 1116
Q 981 844 1079 680
Q 1178 516 1325 445
Q 1472 375 1669 375
Q 1869 375 2016 450
Q 2163 525 2259 651
Q 2356 778 2401 936
Q 2447 1094 2447 1259
z
" transform="scale(0.015625)"/>
       </defs>
       <use xlink:href="#Calibri-30"/>
       <use xlink:href="#Calibri-2e" x="50.683594"/>
       <use xlink:href="#Calibri-36" x="75.927734"/>
      </g>
     </g>
    </g>
    <g id="xtick_5">
     <g id="line2d_9">
      <path d="M 146.545687 159.212024
L 146.545687 7.2
" clip-path="url(#pc731f8589e)" style="fill: none; stroke: #000000; stroke-opacity: 0.1; stroke-width: 0.5; stroke-linecap: square"/>
     </g>
     <g id="line2d_10">
      <g>
       <use xlink:href="#md24e4da9cf" x="146.545687" y="159.212024" style="stroke: #000000; stroke-width: 0.5"/>
      </g>
     </g>
     <g id="text_5">
      <!-- 0.7 -->
      <g transform="translate(142.591188 164.96028)scale(0.06246 -0.06246)">
       <defs>
        <path id="Calibri-37" d="M 2947 3813
Q 2947 3756 2942 3711
Q 2938 3666 2930 3623
Q 2922 3581 2908 3542
Q 2894 3503 2875 3459
L 1419 103
Q 1403 66 1379 42
Q 1356 19 1320 5
Q 1284 -9 1228 -14
Q 1172 -19 1091 -19
Q 984 -19 925 -9
Q 866 0 839 20
Q 813 41 816 70
Q 819 100 838 141
L 2369 3572
L 428 3572
Q 369 3572 339 3634
Q 309 3697 309 3809
Q 309 3869 317 3912
Q 325 3956 340 3986
Q 356 4016 378 4030
Q 400 4044 428 4044
L 2784 4044
Q 2828 4044 2861 4034
Q 2894 4025 2911 3997
Q 2928 3969 2937 3925
Q 2947 3881 2947 3813
z
" transform="scale(0.015625)"/>
       </defs>
       <use xlink:href="#Calibri-30"/>
       <use xlink:href="#Calibri-2e" x="50.683594"/>
       <use xlink:href="#Calibri-37" x="75.927734"/>
      </g>
     </g>
    </g>
    <g id="xtick_6">
     <g id="line2d_11">
      <path d="M 177.537515 159.212024
L 177.537515 7.2
" clip-path="url(#pc731f8589e)" style="fill: none; stroke: #000000; stroke-opacity: 0.1; stroke-width: 0.5; stroke-linecap: square"/>
     </g>
     <g id="line2d_12">
      <g>
       <use xlink:href="#md24e4da9cf" x="177.537515" y="159.212024" style="stroke: #000000; stroke-width: 0.5"/>
      </g>
     </g>
     <g id="text_6">
      <!-- 0.8 -->
      <g transform="translate(173.583016 164.96028)scale(0.06246 -0.06246)">
       <defs>
        <path id="Calibri-38" d="M 2981 1038
Q 2981 775 2887 570
Q 2794 366 2617 225
Q 2441 84 2181 12
Q 1922 -59 1588 -59
Q 1275 -59 1028 6
Q 781 72 609 200
Q 438 328 347 515
Q 256 703 256 944
Q 256 1134 318 1293
Q 381 1453 498 1587
Q 616 1722 787 1839
Q 959 1956 1175 2063
Q 988 2159 844 2267
Q 700 2375 600 2501
Q 500 2628 448 2772
Q 397 2916 397 3084
Q 397 3297 473 3483
Q 550 3669 704 3806
Q 859 3944 1098 4023
Q 1338 4103 1656 4103
Q 1963 4103 2186 4029
Q 2409 3956 2554 3829
Q 2700 3703 2769 3531
Q 2838 3359 2838 3163
Q 2838 3003 2786 2856
Q 2734 2709 2634 2578
Q 2534 2447 2389 2333
Q 2244 2219 2056 2119
Q 2278 2009 2451 1893
Q 2625 1778 2742 1645
Q 2859 1513 2920 1364
Q 2981 1216 2981 1038
z
M 2306 3113
Q 2306 3244 2261 3350
Q 2216 3456 2128 3531
Q 2041 3606 1911 3645
Q 1781 3684 1616 3684
Q 1278 3684 1104 3531
Q 931 3378 931 3113
Q 931 2991 973 2886
Q 1016 2781 1105 2687
Q 1194 2594 1330 2505
Q 1466 2416 1653 2319
Q 1969 2481 2137 2678
Q 2306 2875 2306 3113
z
M 2438 981
Q 2438 1125 2384 1242
Q 2331 1359 2223 1461
Q 2116 1563 1955 1658
Q 1794 1753 1581 1856
Q 1384 1759 1236 1662
Q 1088 1566 992 1462
Q 897 1359 848 1245
Q 800 1131 800 994
Q 800 691 1008 525
Q 1216 359 1628 359
Q 2028 359 2233 526
Q 2438 694 2438 981
z
" transform="scale(0.015625)"/>
       </defs>
       <use xlink:href="#Calibri-30"/>
       <use xlink:href="#Calibri-2e" x="50.683594"/>
       <use xlink:href="#Calibri-38" x="75.927734"/>
      </g>
     </g>
    </g>
    <g id="xtick_7">
     <g id="line2d_13">
      <path d="M 208.529342 159.212024
L 208.529342 7.2
" clip-path="url(#pc731f8589e)" style="fill: none; stroke: #000000; stroke-opacity: 0.1; stroke-width: 0.5; stroke-linecap: square"/>
     </g>
     <g id="line2d_14">
      <g>
       <use xlink:href="#md24e4da9cf" x="208.529342" y="159.212024" style="stroke: #000000; stroke-width: 0.5"/>
      </g>
     </g>
     <g id="text_7">
      <!-- 0.9 -->
      <g transform="translate(204.574844 164.96028)scale(0.06246 -0.06246)">
       <defs>
        <path id="Calibri-39" d="M 2919 2181
Q 2919 1919 2887 1650
Q 2856 1381 2781 1132
Q 2706 884 2579 667
Q 2453 450 2261 287
Q 2069 125 1805 33
Q 1541 -59 1191 -59
Q 1056 -59 929 -42
Q 803 -25 701 0
Q 600 25 531 53
Q 463 81 431 109
Q 400 138 386 186
Q 372 234 372 316
Q 372 384 376 425
Q 381 466 390 487
Q 400 509 417 517
Q 434 525 459 525
Q 494 525 556 501
Q 619 478 714 450
Q 809 422 937 398
Q 1066 375 1225 375
Q 1528 375 1745 492
Q 1963 609 2100 806
Q 2238 1003 2306 1262
Q 2375 1522 2381 1809
Q 2216 1713 1984 1638
Q 1753 1563 1453 1563
Q 1116 1563 886 1655
Q 656 1747 517 1906
Q 378 2066 317 2284
Q 256 2503 256 2763
Q 256 3031 334 3273
Q 413 3516 578 3700
Q 744 3884 1000 3993
Q 1256 4103 1613 4103
Q 1866 4103 2061 4039
Q 2256 3975 2400 3854
Q 2544 3734 2644 3564
Q 2744 3394 2805 3178
Q 2866 2963 2892 2711
Q 2919 2459 2919 2181
z
M 2372 2241
Q 2372 2641 2319 2914
Q 2266 3188 2162 3356
Q 2059 3525 1909 3600
Q 1759 3675 1563 3675
Q 1359 3675 1215 3601
Q 1072 3528 980 3404
Q 888 3281 844 3125
Q 800 2969 800 2803
Q 800 2619 839 2466
Q 878 2313 965 2206
Q 1053 2100 1193 2042
Q 1334 1984 1541 1984
Q 1775 1984 1994 2054
Q 2213 2125 2372 2241
z
" transform="scale(0.015625)"/>
       </defs>
       <use xlink:href="#Calibri-30"/>
       <use xlink:href="#Calibri-2e" x="50.683594"/>
       <use xlink:href="#Calibri-39" x="75.927734"/>
      </g>
     </g>
    </g>
    <g id="text_8">
     <!-- Binomial parameter $p$ -->
     <g transform="translate(74.687323 174.280897)scale(0.09 -0.09)">
      <defs>
       <path id="Calibri-42" d="M 3203 1159
Q 3203 969 3154 808
Q 3106 647 3018 519
Q 2931 391 2807 294
Q 2684 197 2529 131
Q 2375 66 2198 33
Q 2022 0 1794 0
L 738 0
Q 666 0 602 48
Q 538 97 538 219
L 538 3825
Q 538 3947 602 3995
Q 666 4044 738 4044
L 1656 4044
Q 2019 4044 2250 3975
Q 2481 3906 2636 3775
Q 2791 3644 2869 3453
Q 2947 3263 2947 3022
Q 2947 2878 2912 2747
Q 2878 2616 2811 2505
Q 2744 2394 2642 2306
Q 2541 2219 2409 2163
Q 2575 2131 2719 2048
Q 2863 1966 2970 1837
Q 3078 1709 3140 1537
Q 3203 1366 3203 1159
z
M 2394 2969
Q 2394 3116 2353 3234
Q 2313 3353 2225 3436
Q 2138 3519 1997 3562
Q 1856 3606 1625 3606
L 1069 3606
L 1069 2297
L 1681 2297
Q 1891 2297 2019 2351
Q 2147 2406 2231 2498
Q 2316 2591 2355 2714
Q 2394 2838 2394 2969
z
M 2638 1128
Q 2638 1309 2580 1446
Q 2522 1584 2411 1678
Q 2300 1772 2133 1820
Q 1966 1869 1713 1869
L 1069 1869
L 1069 444
L 1850 444
Q 2034 444 2171 487
Q 2309 531 2414 617
Q 2519 703 2578 831
Q 2638 959 2638 1128
z
" transform="scale(0.015625)"/>
       <path id="Calibri-69" d="M 994 78
Q 994 53 981 36
Q 969 19 941 6
Q 913 -6 863 -12
Q 813 -19 734 -19
Q 659 -19 609 -12
Q 559 -6 529 6
Q 500 19 489 36
Q 478 53 478 78
L 478 2891
Q 478 2913 489 2931
Q 500 2950 529 2962
Q 559 2975 609 2981
Q 659 2988 734 2988
Q 813 2988 863 2981
Q 913 2975 941 2962
Q 969 2950 981 2931
Q 994 2913 994 2891
L 994 78
z
M 1053 3841
Q 1053 3659 984 3593
Q 916 3528 731 3528
Q 550 3528 483 3592
Q 416 3656 416 3834
Q 416 4016 484 4081
Q 553 4147 738 4147
Q 919 4147 986 4083
Q 1053 4019 1053 3841
z
" transform="scale(0.015625)"/>
       <path id="Calibri-6e" d="M 2900 78
Q 2900 53 2887 36
Q 2875 19 2847 6
Q 2819 -6 2769 -12
Q 2719 -19 2644 -19
Q 2566 -19 2516 -12
Q 2466 -6 2437 6
Q 2409 19 2396 36
Q 2384 53 2384 78
L 2384 1725
Q 2384 1966 2346 2112
Q 2309 2259 2237 2365
Q 2166 2472 2052 2528
Q 1938 2584 1788 2584
Q 1594 2584 1400 2446
Q 1206 2309 994 2044
L 994 78
Q 994 53 981 36
Q 969 19 941 6
Q 913 -6 863 -12
Q 813 -19 734 -19
Q 659 -19 609 -12
Q 559 -6 529 6
Q 500 19 489 36
Q 478 53 478 78
L 478 2891
Q 478 2916 487 2933
Q 497 2950 525 2964
Q 553 2978 597 2983
Q 641 2988 713 2988
Q 781 2988 826 2983
Q 872 2978 897 2964
Q 922 2950 933 2933
Q 944 2916 944 2891
L 944 2519
Q 1181 2784 1417 2907
Q 1653 3031 1894 3031
Q 2175 3031 2367 2936
Q 2559 2841 2678 2681
Q 2797 2522 2848 2308
Q 2900 2094 2900 1794
L 2900 78
z
" transform="scale(0.015625)"/>
       <path id="Calibri-6f" d="M 3094 1516
Q 3094 1172 3003 883
Q 2913 594 2733 384
Q 2553 175 2283 58
Q 2013 -59 1656 -59
Q 1309 -59 1051 44
Q 794 147 622 344
Q 450 541 365 822
Q 281 1103 281 1459
Q 281 1803 370 2092
Q 459 2381 639 2590
Q 819 2800 1087 2915
Q 1356 3031 1716 3031
Q 2063 3031 2320 2928
Q 2578 2825 2750 2628
Q 2922 2431 3008 2150
Q 3094 1869 3094 1516
z
M 2550 1481
Q 2550 1709 2508 1912
Q 2466 2116 2369 2269
Q 2272 2422 2106 2511
Q 1941 2600 1694 2600
Q 1466 2600 1302 2519
Q 1138 2438 1031 2289
Q 925 2141 873 1937
Q 822 1734 822 1494
Q 822 1263 864 1059
Q 906 856 1004 704
Q 1103 553 1268 464
Q 1434 375 1681 375
Q 1906 375 2072 456
Q 2238 538 2344 684
Q 2450 831 2500 1034
Q 2550 1238 2550 1481
z
" transform="scale(0.015625)"/>
       <path id="Calibri-6d" d="M 4650 78
Q 4650 53 4637 36
Q 4625 19 4597 6
Q 4569 -6 4519 -12
Q 4469 -19 4394 -19
Q 4316 -19 4266 -12
Q 4216 -6 4186 6
Q 4156 19 4143 36
Q 4131 53 4131 78
L 4131 1788
Q 4131 1966 4100 2112
Q 4069 2259 4000 2365
Q 3931 2472 3825 2528
Q 3719 2584 3575 2584
Q 3397 2584 3217 2446
Q 3038 2309 2822 2044
L 2822 78
Q 2822 53 2809 36
Q 2797 19 2767 6
Q 2738 -6 2688 -12
Q 2638 -19 2563 -19
Q 2491 -19 2439 -12
Q 2388 -6 2358 6
Q 2328 19 2317 36
Q 2306 53 2306 78
L 2306 1788
Q 2306 1966 2272 2112
Q 2238 2259 2169 2365
Q 2100 2472 1995 2528
Q 1891 2584 1747 2584
Q 1569 2584 1387 2446
Q 1206 2309 994 2044
L 994 78
Q 994 53 981 36
Q 969 19 941 6
Q 913 -6 863 -12
Q 813 -19 734 -19
Q 659 -19 609 -12
Q 559 -6 529 6
Q 500 19 489 36
Q 478 53 478 78
L 478 2891
Q 478 2916 487 2933
Q 497 2950 525 2964
Q 553 2978 597 2983
Q 641 2988 713 2988
Q 781 2988 826 2983
Q 872 2978 897 2964
Q 922 2950 933 2933
Q 944 2916 944 2891
L 944 2519
Q 1181 2784 1404 2907
Q 1628 3031 1856 3031
Q 2031 3031 2170 2990
Q 2309 2950 2415 2876
Q 2522 2803 2597 2701
Q 2672 2600 2722 2475
Q 2863 2628 2989 2734
Q 3116 2841 3233 2906
Q 3350 2972 3461 3001
Q 3572 3031 3684 3031
Q 3956 3031 4140 2936
Q 4325 2841 4439 2681
Q 4553 2522 4601 2308
Q 4650 2094 4650 1856
L 4650 78
z
" transform="scale(0.015625)"/>
       <path id="Calibri-61" d="M 2597 75
Q 2597 38 2572 19
Q 2547 0 2503 -9
Q 2459 -19 2375 -19
Q 2294 -19 2245 -9
Q 2197 0 2175 19
Q 2153 38 2153 75
L 2153 356
Q 1969 159 1742 50
Q 1516 -59 1263 -59
Q 1041 -59 861 -1
Q 681 56 554 165
Q 428 275 358 434
Q 288 594 288 797
Q 288 1034 384 1209
Q 481 1384 662 1500
Q 844 1616 1106 1673
Q 1369 1731 1697 1731
L 2084 1731
L 2084 1950
Q 2084 2113 2050 2238
Q 2016 2363 1939 2445
Q 1863 2528 1741 2570
Q 1619 2613 1441 2613
Q 1250 2613 1098 2567
Q 947 2522 833 2467
Q 719 2413 642 2367
Q 566 2322 528 2322
Q 503 2322 484 2334
Q 466 2347 452 2372
Q 438 2397 431 2436
Q 425 2475 425 2522
Q 425 2600 436 2645
Q 447 2691 489 2731
Q 531 2772 634 2826
Q 738 2881 872 2926
Q 1006 2972 1165 3001
Q 1325 3031 1488 3031
Q 1791 3031 2003 2962
Q 2216 2894 2347 2761
Q 2478 2628 2537 2431
Q 2597 2234 2597 1972
L 2597 75
z
M 2084 1359
L 1644 1359
Q 1431 1359 1275 1323
Q 1119 1288 1016 1217
Q 913 1147 864 1048
Q 816 950 816 822
Q 816 603 955 473
Q 1094 344 1344 344
Q 1547 344 1720 447
Q 1894 550 2084 763
L 2084 1359
z
" transform="scale(0.015625)"/>
       <path id="Calibri-6c" d="M 994 78
Q 994 53 981 36
Q 969 19 941 6
Q 913 -6 863 -12
Q 813 -19 734 -19
Q 659 -19 609 -12
Q 559 -6 529 6
Q 500 19 489 36
Q 478 53 478 78
L 478 4253
Q 478 4278 489 4297
Q 500 4316 529 4328
Q 559 4341 609 4347
Q 659 4353 734 4353
Q 813 4353 863 4347
Q 913 4341 941 4328
Q 969 4316 981 4297
Q 994 4278 994 4253
L 994 78
z
" transform="scale(0.015625)"/>
       <path id="Calibri-20" transform="scale(0.015625)"/>
       <path id="Calibri-70" d="M 3066 1528
Q 3066 1159 2986 865
Q 2906 572 2751 367
Q 2597 163 2369 52
Q 2141 -59 1847 -59
Q 1722 -59 1615 -34
Q 1509 -9 1407 44
Q 1306 97 1206 178
Q 1106 259 994 369
L 994 -1038
Q 994 -1063 981 -1081
Q 969 -1100 941 -1112
Q 913 -1125 863 -1131
Q 813 -1138 734 -1138
Q 659 -1138 609 -1131
Q 559 -1125 529 -1112
Q 500 -1100 489 -1081
Q 478 -1063 478 -1038
L 478 2891
Q 478 2919 487 2936
Q 497 2953 525 2965
Q 553 2978 597 2983
Q 641 2988 703 2988
Q 769 2988 811 2983
Q 853 2978 881 2965
Q 909 2953 920 2936
Q 931 2919 931 2891
L 931 2513
Q 1059 2644 1178 2741
Q 1297 2838 1417 2902
Q 1538 2966 1664 2998
Q 1791 3031 1931 3031
Q 2238 3031 2453 2912
Q 2669 2794 2805 2587
Q 2941 2381 3003 2107
Q 3066 1834 3066 1528
z
M 2522 1469
Q 2522 1684 2489 1886
Q 2456 2088 2376 2244
Q 2297 2400 2162 2494
Q 2028 2588 1828 2588
Q 1728 2588 1631 2558
Q 1534 2528 1434 2464
Q 1334 2400 1225 2295
Q 1116 2191 994 2038
L 994 919
Q 1206 659 1397 521
Q 1588 384 1797 384
Q 1991 384 2130 478
Q 2269 572 2355 728
Q 2441 884 2481 1078
Q 2522 1272 2522 1469
z
" transform="scale(0.015625)"/>
       <path id="Calibri-72" d="M 2122 2706
Q 2122 2638 2119 2591
Q 2116 2544 2106 2517
Q 2097 2491 2083 2477
Q 2069 2463 2044 2463
Q 2019 2463 1983 2477
Q 1947 2491 1901 2505
Q 1856 2519 1800 2531
Q 1744 2544 1678 2544
Q 1600 2544 1525 2512
Q 1450 2481 1367 2409
Q 1284 2338 1193 2219
Q 1103 2100 994 1928
L 994 78
Q 994 53 981 36
Q 969 19 941 6
Q 913 -6 863 -12
Q 813 -19 734 -19
Q 659 -19 609 -12
Q 559 -6 529 6
Q 500 19 489 36
Q 478 53 478 78
L 478 2891
Q 478 2916 487 2933
Q 497 2950 525 2964
Q 553 2978 597 2983
Q 641 2988 713 2988
Q 781 2988 826 2983
Q 872 2978 897 2964
Q 922 2950 933 2933
Q 944 2916 944 2891
L 944 2481
Q 1059 2650 1161 2756
Q 1263 2863 1353 2923
Q 1444 2984 1533 3007
Q 1622 3031 1713 3031
Q 1753 3031 1804 3026
Q 1856 3022 1912 3009
Q 1969 2997 2014 2981
Q 2059 2966 2078 2950
Q 2097 2934 2103 2920
Q 2109 2906 2114 2884
Q 2119 2863 2120 2820
Q 2122 2778 2122 2706
z
" transform="scale(0.015625)"/>
       <path id="Calibri-65" d="M 2878 1606
Q 2878 1484 2817 1432
Q 2756 1381 2678 1381
L 834 1381
Q 834 1147 881 959
Q 928 772 1037 637
Q 1147 503 1322 431
Q 1497 359 1750 359
Q 1950 359 2106 392
Q 2263 425 2377 465
Q 2491 506 2564 539
Q 2638 572 2675 572
Q 2697 572 2714 561
Q 2731 550 2740 528
Q 2750 506 2754 467
Q 2759 428 2759 372
Q 2759 331 2756 301
Q 2753 272 2748 248
Q 2744 225 2733 206
Q 2722 188 2705 170
Q 2688 153 2603 114
Q 2519 75 2384 37
Q 2250 0 2073 -29
Q 1897 -59 1697 -59
Q 1350 -59 1089 37
Q 828 134 650 325
Q 472 516 381 803
Q 291 1091 291 1472
Q 291 1834 384 2123
Q 478 2413 654 2614
Q 831 2816 1081 2923
Q 1331 3031 1641 3031
Q 1972 3031 2205 2925
Q 2438 2819 2588 2639
Q 2738 2459 2808 2217
Q 2878 1975 2878 1700
L 2878 1606
z
M 2359 1759
Q 2369 2166 2180 2397
Q 1991 2628 1619 2628
Q 1428 2628 1284 2556
Q 1141 2484 1044 2365
Q 947 2247 894 2089
Q 841 1931 834 1759
L 2359 1759
z
" transform="scale(0.015625)"/>
       <path id="Calibri-74" d="M 1941 284
Q 1941 194 1928 141
Q 1916 88 1891 63
Q 1866 38 1816 16
Q 1766 -6 1702 -20
Q 1638 -34 1566 -43
Q 1494 -53 1422 -53
Q 1203 -53 1047 5
Q 891 63 791 180
Q 691 297 645 476
Q 600 656 600 900
L 600 2544
L 206 2544
Q 159 2544 131 2594
Q 103 2644 103 2756
Q 103 2816 111 2856
Q 119 2897 131 2923
Q 144 2950 164 2961
Q 184 2972 209 2972
L 600 2972
L 600 3641
Q 600 3663 611 3681
Q 622 3700 651 3714
Q 681 3728 731 3734
Q 781 3741 856 3741
Q 934 3741 984 3734
Q 1034 3728 1062 3714
Q 1091 3700 1103 3681
Q 1116 3663 1116 3641
L 1116 2972
L 1838 2972
Q 1863 2972 1881 2961
Q 1900 2950 1914 2923
Q 1928 2897 1934 2856
Q 1941 2816 1941 2756
Q 1941 2644 1912 2594
Q 1884 2544 1838 2544
L 1116 2544
L 1116 975
Q 1116 684 1202 536
Q 1288 388 1509 388
Q 1581 388 1637 402
Q 1694 416 1737 431
Q 1781 447 1812 461
Q 1844 475 1869 475
Q 1884 475 1898 467
Q 1913 459 1920 437
Q 1928 416 1934 378
Q 1941 341 1941 284
z
" transform="scale(0.015625)"/>
       <path id="Cambria-Italic-70" d="M 669 -553
Q 638 -703 630 -784
Q 622 -866 622 -919
Q 622 -1013 653 -1066
Q 684 -1119 750 -1147
Q 816 -1175 966 -1191
L 941 -1344
L -25 -1344
L 766 2131
Q 825 2394 825 2581
Q 825 2669 798 2717
Q 772 2766 708 2789
Q 644 2813 491 2822
L 528 2988
L 1238 3016
L 1416 3016
L 1206 2203
L 1244 2191
Q 1822 3038 2394 3038
Q 2734 3038 2923 2778
Q 3113 2519 3113 2047
Q 3113 1709 3020 1368
Q 2928 1028 2764 753
Q 2600 478 2398 301
Q 2197 125 1973 37
Q 1750 -50 1503 -50
Q 1088 -50 813 131
L 669 -553
z
M 1044 1088
Q 1013 922 1005 834
Q 997 747 997 663
Q 997 419 1101 308
Q 1206 197 1463 197
Q 1622 197 1756 259
Q 1891 322 2011 440
Q 2131 559 2228 728
Q 2325 897 2401 1120
Q 2478 1344 2517 1580
Q 2556 1816 2556 2022
Q 2556 2350 2464 2511
Q 2372 2672 2172 2672
Q 2013 2672 1858 2564
Q 1703 2456 1518 2218
Q 1334 1981 1231 1750
Q 1128 1519 1069 1219
L 1044 1088
z
" transform="scale(0.015625)"/>
      </defs>
      <use xlink:href="#Calibri-42" transform="translate(0 0.984375)"/>
      <use xlink:href="#Calibri-69" transform="translate(54.394531 0.984375)"/>
      <use xlink:href="#Calibri-6e" transform="translate(77.34375 0.984375)"/>
      <use xlink:href="#Calibri-6f" transform="translate(129.882812 0.984375)"/>
      <use xlink:href="#Calibri-6d" transform="translate(182.617188 0.984375)"/>
      <use xlink:href="#Calibri-69" transform="translate(262.5 0.984375)"/>
      <use xlink:href="#Calibri-61" transform="translate(285.449219 0.984375)"/>
      <use xlink:href="#Calibri-6c" transform="translate(333.349609 0.984375)"/>
      <use xlink:href="#Calibri-20" transform="translate(356.298828 0.984375)"/>
      <use xlink:href="#Calibri-70" transform="translate(378.90625 0.984375)"/>
      <use xlink:href="#Calibri-61" transform="translate(431.445312 0.984375)"/>
      <use xlink:href="#Calibri-72" transform="translate(479.345703 0.984375)"/>
      <use xlink:href="#Calibri-61" transform="translate(514.208984 0.984375)"/>
      <use xlink:href="#Calibri-6d" transform="translate(562.109375 0.984375)"/>
      <use xlink:href="#Calibri-65" transform="translate(641.992188 0.984375)"/>
      <use xlink:href="#Calibri-74" transform="translate(691.748047 0.984375)"/>
      <use xlink:href="#Calibri-65" transform="translate(725.244141 0.984375)"/>
      <use xlink:href="#Calibri-72" transform="translate(775 0.984375)"/>
      <use xlink:href="#Calibri-20" transform="translate(809.863281 0.984375)"/>
      <use xlink:href="#Cambria-Italic-70" transform="translate(832.470703 0.984375)"/>
     </g>
    </g>
   </g>
   <g id="matplotlib.axis_2">
    <g id="ytick_1">
     <g id="line2d_15">
      <path d="M 11.865941 159.212024
L 217.248704 159.212024
" clip-path="url(#pc731f8589e)" style="fill: none; stroke: #000000; stroke-opacity: 0.1; stroke-width: 0.5; stroke-linecap: square"/>
     </g>
     <g id="line2d_16">
      <defs>
       <path id="m31149977f0" d="M 0 0
L 3 0
" style="stroke: #000000; stroke-width: 0.5"/>
      </defs>
      <g>
       <use xlink:href="#m31149977f0" x="11.865941" y="159.212024" style="stroke: #000000; stroke-width: 0.5"/>
      </g>
     </g>
     <g id="text_9">
      <!-- 0 -->
      <g transform="translate(7.2 161.336152)scale(0.06246 -0.06246)">
       <use xlink:href="#Calibri-30"/>
      </g>
     </g>
    </g>
    <g id="ytick_2">
     <g id="line2d_17">
      <path d="M 11.865941 134.985778
L 217.248704 134.985778
" clip-path="url(#pc731f8589e)" style="fill: none; stroke: #000000; stroke-opacity: 0.1; stroke-width: 0.5; stroke-linecap: square"/>
     </g>
     <g id="line2d_18">
      <g>
       <use xlink:href="#m31149977f0" x="11.865941" y="134.985778" style="stroke: #000000; stroke-width: 0.5"/>
      </g>
     </g>
     <g id="text_10">
      <!-- 1 -->
      <g transform="translate(7.2 137.109906)scale(0.06246 -0.06246)">
       <defs>
        <path id="Calibri-31" d="M 2897 213
Q 2897 153 2887 112
Q 2878 72 2862 47
Q 2847 22 2826 11
Q 2806 0 2784 0
L 672 0
Q 650 0 631 11
Q 613 22 595 47
Q 578 72 568 112
Q 559 153 559 213
Q 559 269 568 309
Q 578 350 592 376
Q 606 403 626 417
Q 647 431 672 431
L 1516 431
L 1516 3506
L 734 3041
Q 675 3009 639 3003
Q 603 2997 581 3017
Q 559 3038 551 3084
Q 544 3131 544 3203
Q 544 3256 548 3293
Q 553 3331 562 3356
Q 572 3381 589 3400
Q 606 3419 634 3438
L 1566 4034
Q 1578 4044 1597 4050
Q 1616 4056 1644 4062
Q 1672 4069 1709 4070
Q 1747 4072 1803 4072
Q 1878 4072 1928 4065
Q 1978 4059 2006 4048
Q 2034 4038 2043 4020
Q 2053 4003 2053 3984
L 2053 431
L 2784 431
Q 2809 431 2831 417
Q 2853 403 2867 376
Q 2881 350 2889 309
Q 2897 269 2897 213
z
" transform="scale(0.015625)"/>
       </defs>
       <use xlink:href="#Calibri-31"/>
      </g>
     </g>
    </g>
    <g id="ytick_3">
     <g id="line2d_19">
      <path d="M 11.865941 110.759531
L 217.248704 110.759531
" clip-path="url(#pc731f8589e)" style="fill: none; stroke: #000000; stroke-opacity: 0.1; stroke-width: 0.5; stroke-linecap: square"/>
     </g>
     <g id="line2d_20">
      <g>
       <use xlink:href="#m31149977f0" x="11.865941" y="110.759531" style="stroke: #000000; stroke-width: 0.5"/>
      </g>
     </g>
     <g id="text_11">
      <!-- 2 -->
      <g transform="translate(7.2 112.883659)scale(0.06246 -0.06246)">
       <defs>
        <path id="Calibri-32" d="M 2888 231
Q 2888 175 2880 131
Q 2872 88 2858 58
Q 2844 28 2820 14
Q 2797 0 2769 0
L 534 0
Q 491 0 458 11
Q 425 22 401 47
Q 378 72 367 119
Q 356 166 356 234
Q 356 297 361 344
Q 366 391 381 427
Q 397 463 420 498
Q 444 534 481 575
L 1266 1406
Q 1538 1694 1702 1922
Q 1866 2150 1955 2337
Q 2044 2525 2072 2678
Q 2100 2831 2100 2966
Q 2100 3100 2056 3220
Q 2013 3341 1930 3431
Q 1847 3522 1722 3575
Q 1597 3628 1434 3628
Q 1244 3628 1092 3575
Q 941 3522 827 3459
Q 713 3397 636 3344
Q 559 3291 522 3291
Q 500 3291 483 3303
Q 466 3316 455 3344
Q 444 3372 437 3419
Q 431 3466 431 3531
Q 431 3578 434 3612
Q 438 3647 445 3672
Q 453 3697 465 3719
Q 478 3741 515 3773
Q 553 3806 645 3862
Q 738 3919 877 3973
Q 1016 4028 1183 4065
Q 1350 4103 1534 4103
Q 1828 4103 2048 4020
Q 2269 3938 2414 3794
Q 2559 3650 2631 3459
Q 2703 3269 2703 3053
Q 2703 2859 2668 2667
Q 2634 2475 2523 2251
Q 2413 2028 2203 1754
Q 1994 1481 1647 1125
L 1006 456
L 2766 456
Q 2791 456 2814 442
Q 2838 428 2855 400
Q 2872 372 2880 330
Q 2888 288 2888 231
z
" transform="scale(0.015625)"/>
       </defs>
       <use xlink:href="#Calibri-32"/>
      </g>
     </g>
    </g>
    <g id="ytick_4">
     <g id="line2d_21">
      <path d="M 11.865941 86.533284
L 217.248704 86.533284
" clip-path="url(#pc731f8589e)" style="fill: none; stroke: #000000; stroke-opacity: 0.1; stroke-width: 0.5; stroke-linecap: square"/>
     </g>
     <g id="line2d_22">
      <g>
       <use xlink:href="#m31149977f0" x="11.865941" y="86.533284" style="stroke: #000000; stroke-width: 0.5"/>
      </g>
     </g>
     <g id="text_12">
      <!-- 3 -->
      <g transform="translate(7.2 88.657412)scale(0.06246 -0.06246)">
       <use xlink:href="#Calibri-33"/>
      </g>
     </g>
    </g>
    <g id="ytick_5">
     <g id="line2d_23">
      <path d="M 11.865941 62.307038
L 217.248704 62.307038
" clip-path="url(#pc731f8589e)" style="fill: none; stroke: #000000; stroke-opacity: 0.1; stroke-width: 0.5; stroke-linecap: square"/>
     </g>
     <g id="line2d_24">
      <g>
       <use xlink:href="#m31149977f0" x="11.865941" y="62.307038" style="stroke: #000000; stroke-width: 0.5"/>
      </g>
     </g>
     <g id="text_13">
      <!-- 4 -->
      <g transform="translate(7.2 64.431166)scale(0.06246 -0.06246)">
       <use xlink:href="#Calibri-34"/>
      </g>
     </g>
    </g>
    <g id="ytick_6">
     <g id="line2d_25">
      <path d="M 11.865941 38.080791
L 217.248704 38.080791
" clip-path="url(#pc731f8589e)" style="fill: none; stroke: #000000; stroke-opacity: 0.1; stroke-width: 0.5; stroke-linecap: square"/>
     </g>
     <g id="line2d_26">
      <g>
       <use xlink:href="#m31149977f0" x="11.865941" y="38.080791" style="stroke: #000000; stroke-width: 0.5"/>
      </g>
     </g>
     <g id="text_14">
      <!-- 5 -->
      <g transform="translate(7.2 40.204919)scale(0.06246 -0.06246)">
       <use xlink:href="#Calibri-35"/>
      </g>
     </g>
    </g>
    <g id="ytick_7">
     <g id="line2d_27">
      <path d="M 11.865941 13.854544
L 217.248704 13.854544
" clip-path="url(#pc731f8589e)" style="fill: none; stroke: #000000; stroke-opacity: 0.1; stroke-width: 0.5; stroke-linecap: square"/>
     </g>
     <g id="line2d_28">
      <g>
       <use xlink:href="#m31149977f0" x="11.865941" y="13.854544" style="stroke: #000000; stroke-width: 0.5"/>
      </g>
     </g>
     <g id="text_15">
      <!-- 6 -->
      <g transform="translate(7.2 15.978672)scale(0.06246 -0.06246)">
       <use xlink:href="#Calibri-36"/>
      </g>
     </g>
    </g>
   </g>
   <g id="line2d_29">
    <path d="M 53.570204 159.212024
L 53.570204 7.2
" clip-path="url(#pc731f8589e)" style="fill: none; stroke: #005ea8; stroke-width: 2; stroke-linecap: square"/>
   </g>
   <g id="patch_4">
    <path d="M 11.865941 159.212024
L 11.865941 7.2
" style="fill: none; stroke: #000000; stroke-width: 0.5; stroke-linejoin: miter; stroke-linecap: square"/>
   </g>
   <g id="patch_5">
    <path d="M 217.248704 159.212024
L 217.248704 7.2
" style="fill: none; stroke: #000000; stroke-width: 0.5; stroke-linejoin: miter; stroke-linecap: square"/>
   </g>
   <g id="patch_6">
    <path d="M 11.865941 159.212024
L 217.248704 159.212024
" style="fill: none; stroke: #000000; stroke-width: 0.5; stroke-linejoin: miter; stroke-linecap: square"/>
   </g>
   <g id="patch_7">
    <path d="M 11.865941 7.2
L 217.248704 7.2
" style="fill: none; stroke: #000000; stroke-width: 0.5; stroke-linejoin: miter; stroke-linecap: square"/>
   </g>
   <g id="legend_1">
    <g id="patch_8">
     <path d="M 164.907224 25.3134
L 212.876504 25.3134
Q 214.125704 25.3134 214.125704 24.0642
L 214.125704 11.5722
Q 214.125704 10.323 212.876504 10.323
L 164.907224 10.323
Q 163.658024 10.323 163.658024 11.5722
L 163.658024 24.0642
Q 163.658024 25.3134 164.907224 25.3134
z
" style="fill: #ffffff; opacity: 0.8; stroke: #cccccc; stroke-linejoin: miter"/>
    </g>
    <g id="line2d_30">
     <path d="M 164.907224 13.7583
L 171.153224 13.7583
L 177.399224 13.7583
" style="fill: none; stroke: #005ea8; stroke-width: 2; stroke-linecap: square"/>
    </g>
    <g id="text_16">
     <!-- $p_{\mathrm{early}}$ (fixed) -->
     <g transform="translate(182.396024 15.9444)scale(0.06246 -0.06246)">
      <defs>
       <path id="Cambria-65" d="M 2800 531
Q 2600 322 2433 203
Q 2266 84 2066 17
Q 1866 -50 1625 -50
Q 981 -50 653 336
Q 325 722 325 1475
Q 325 1941 492 2297
Q 659 2653 968 2847
Q 1278 3041 1681 3041
Q 1997 3041 2219 2941
Q 2441 2841 2573 2667
Q 2706 2494 2779 2230
Q 2853 1966 2863 1541
L 894 1541
L 894 1484
Q 894 1116 976 864
Q 1059 613 1248 470
Q 1438 328 1741 328
Q 1997 328 2201 423
Q 2406 519 2609 734
L 2800 531
z
M 2275 1800
Q 2256 2138 2190 2352
Q 2125 2566 1994 2680
Q 1863 2794 1650 2794
Q 1328 2794 1136 2536
Q 944 2278 909 1800
L 2275 1800
z
" transform="scale(0.015625)"/>
       <path id="Cambria-61" d="M 2109 447
L 2063 459
Q 1791 181 1552 65
Q 1313 -50 1044 -50
Q 806 -50 625 42
Q 444 134 347 301
Q 250 469 250 688
Q 250 1144 701 1392
Q 1153 1641 2056 1681
L 2056 1884
Q 2056 2209 1993 2396
Q 1931 2584 1797 2671
Q 1663 2759 1438 2759
Q 1194 2759 1045 2631
Q 897 2503 822 2247
L 413 2247
L 413 2653
Q 713 2809 913 2882
Q 1113 2956 1313 2998
Q 1513 3041 1719 3041
Q 2028 3041 2215 2942
Q 2403 2844 2497 2641
Q 2591 2438 2591 2028
L 2591 941
Q 2591 709 2594 614
Q 2597 519 2612 437
Q 2628 356 2659 307
Q 2691 259 2752 225
Q 2813 191 2950 153
L 2950 0
L 2094 0
L 2109 447
z
M 2056 1425
Q 1422 1419 1106 1256
Q 791 1094 791 766
Q 791 588 862 484
Q 934 381 1043 342
Q 1153 303 1303 303
Q 1516 303 1689 406
Q 1863 509 1959 668
Q 2056 828 2056 984
L 2056 1425
z
" transform="scale(0.015625)"/>
       <path id="Cambria-72" d="M 1147 2469
L 1191 2459
Q 1363 2669 1509 2789
Q 1656 2909 1826 2975
Q 1997 3041 2213 3041
Q 2394 3041 2541 3022
L 2541 2303
L 2188 2303
Q 2113 2472 2028 2548
Q 1944 2625 1797 2625
Q 1684 2625 1573 2559
Q 1463 2494 1359 2369
Q 1256 2244 1217 2134
Q 1178 2025 1178 1875
L 1178 781
Q 1178 497 1212 389
Q 1247 281 1326 231
Q 1406 181 1566 153
L 1566 0
L 306 0
L 306 153
Q 425 191 476 219
Q 528 247 565 297
Q 603 347 622 450
Q 641 553 641 772
L 641 2134
Q 641 2334 634 2456
Q 628 2578 590 2651
Q 553 2725 476 2761
Q 400 2797 259 2822
L 259 2984
L 991 3016
L 1181 3016
L 1147 2469
z
" transform="scale(0.015625)"/>
       <path id="Cambria-6c" d="M 1138 781
Q 1138 513 1163 408
Q 1188 303 1258 248
Q 1328 194 1488 153
L 1488 0
L 247 0
L 247 153
Q 403 194 464 237
Q 525 281 551 342
Q 578 403 589 508
Q 600 613 600 781
L 600 3397
Q 600 3697 595 3815
Q 591 3934 570 4017
Q 550 4100 514 4147
Q 478 4194 417 4222
Q 356 4250 197 4278
L 197 4441
L 950 4472
L 1138 4472
L 1138 781
z
" transform="scale(0.015625)"/>
       <path id="Cambria-79" d="M 1625 -256
Q 1453 -644 1290 -884
Q 1128 -1125 933 -1247
Q 738 -1369 469 -1369
Q 297 -1369 81 -1328
L 81 -709
L 359 -709
Q 397 -838 453 -888
Q 509 -938 616 -938
Q 709 -938 782 -902
Q 856 -866 936 -778
Q 1016 -691 1123 -509
Q 1231 -328 1366 -50
L 491 2303
Q 406 2531 354 2622
Q 303 2713 243 2759
Q 184 2806 63 2834
L 63 2988
L 1334 2988
L 1334 2834
Q 1188 2800 1128 2767
Q 1069 2734 1041 2682
Q 1013 2631 1013 2550
Q 1013 2466 1033 2375
Q 1053 2284 1097 2163
L 1653 597
L 2278 2097
Q 2331 2222 2361 2326
Q 2391 2431 2391 2522
Q 2391 2656 2317 2725
Q 2244 2794 2063 2834
L 2063 2988
L 3231 2988
L 3231 2834
Q 3109 2809 3043 2757
Q 2978 2706 2912 2595
Q 2847 2484 2756 2284
L 1625 -256
z
" transform="scale(0.015625)"/>
       <path id="Calibri-28" d="M 1547 4306
Q 1250 3678 1104 3017
Q 959 2356 959 1688
Q 959 1016 1107 356
Q 1256 -303 1541 -938
Q 1556 -975 1557 -1001
Q 1559 -1028 1537 -1045
Q 1516 -1063 1470 -1070
Q 1425 -1078 1347 -1078
Q 1291 -1078 1250 -1075
Q 1209 -1072 1179 -1062
Q 1150 -1053 1131 -1040
Q 1113 -1028 1103 -1013
Q 934 -694 806 -367
Q 678 -41 590 296
Q 503 634 459 979
Q 416 1325 416 1678
Q 416 2031 464 2375
Q 513 2719 602 3058
Q 691 3397 819 3725
Q 947 4053 1106 4375
Q 1109 4388 1123 4397
Q 1138 4406 1163 4415
Q 1188 4425 1231 4429
Q 1275 4434 1344 4434
Q 1416 4434 1459 4425
Q 1503 4416 1528 4400
Q 1553 4384 1556 4359
Q 1559 4334 1547 4306
z
" transform="scale(0.015625)"/>
       <path id="Calibri-66" d="M 2019 4047
Q 2019 3988 2012 3952
Q 2006 3916 1998 3894
Q 1991 3872 1978 3864
Q 1966 3856 1947 3856
Q 1925 3856 1892 3870
Q 1859 3884 1812 3901
Q 1766 3919 1702 3933
Q 1638 3947 1553 3947
Q 1438 3947 1356 3909
Q 1275 3872 1225 3792
Q 1175 3713 1153 3586
Q 1131 3459 1131 3278
L 1131 2972
L 1759 2972
Q 1784 2972 1801 2961
Q 1819 2950 1833 2923
Q 1847 2897 1855 2856
Q 1863 2816 1863 2756
Q 1863 2644 1834 2594
Q 1806 2544 1759 2544
L 1131 2544
L 1131 78
Q 1131 53 1118 36
Q 1106 19 1076 6
Q 1047 -6 997 -12
Q 947 -19 872 -19
Q 797 -19 747 -12
Q 697 -6 667 6
Q 638 19 625 36
Q 613 53 613 78
L 613 2544
L 216 2544
Q 166 2544 141 2594
Q 116 2644 116 2756
Q 116 2816 122 2856
Q 128 2897 140 2923
Q 153 2950 172 2961
Q 191 2972 216 2972
L 613 2972
L 613 3263
Q 613 3556 667 3767
Q 722 3978 834 4112
Q 947 4247 1117 4311
Q 1288 4375 1519 4375
Q 1628 4375 1731 4354
Q 1834 4334 1890 4311
Q 1947 4288 1965 4269
Q 1984 4250 1996 4220
Q 2009 4191 2014 4148
Q 2019 4106 2019 4047
z
" transform="scale(0.015625)"/>
       <path id="Calibri-78" d="M 2609 138
Q 2634 94 2634 64
Q 2634 34 2604 15
Q 2575 -3 2514 -11
Q 2453 -19 2356 -19
Q 2263 -19 2208 -14
Q 2153 -9 2120 2
Q 2088 13 2070 30
Q 2053 47 2041 69
L 1366 1184
L 694 69
Q 681 47 664 30
Q 647 13 614 2
Q 581 -9 528 -14
Q 475 -19 388 -19
Q 297 -19 239 -11
Q 181 -3 154 15
Q 128 34 129 64
Q 131 94 159 138
L 1034 1509
L 206 2831
Q 181 2875 179 2904
Q 178 2934 208 2954
Q 238 2975 298 2981
Q 359 2988 459 2988
Q 550 2988 604 2983
Q 659 2978 690 2968
Q 722 2959 737 2943
Q 753 2928 766 2906
L 1406 1859
L 2056 2906
Q 2069 2925 2084 2940
Q 2100 2956 2126 2967
Q 2153 2978 2201 2983
Q 2250 2988 2334 2988
Q 2425 2988 2483 2981
Q 2541 2975 2569 2958
Q 2597 2941 2594 2909
Q 2591 2878 2563 2831
L 1741 1525
L 2609 138
z
" transform="scale(0.015625)"/>
       <path id="Calibri-64" d="M 2888 78
Q 2888 53 2877 34
Q 2866 16 2839 5
Q 2813 -6 2769 -12
Q 2725 -19 2663 -19
Q 2597 -19 2553 -12
Q 2509 -6 2481 5
Q 2453 16 2440 34
Q 2428 53 2428 78
L 2428 450
Q 2206 209 1967 75
Q 1728 -59 1444 -59
Q 1134 -59 915 61
Q 697 181 561 386
Q 425 591 362 867
Q 300 1144 300 1450
Q 300 1813 378 2105
Q 456 2397 609 2603
Q 763 2809 989 2920
Q 1216 3031 1513 3031
Q 1759 3031 1964 2923
Q 2169 2816 2369 2606
L 2369 4241
Q 2369 4263 2380 4283
Q 2391 4303 2422 4314
Q 2453 4325 2501 4333
Q 2550 4341 2625 4341
Q 2703 4341 2753 4333
Q 2803 4325 2831 4314
Q 2859 4303 2873 4283
Q 2888 4263 2888 4241
L 2888 78
z
M 2369 2056
Q 2159 2316 1964 2452
Q 1769 2588 1556 2588
Q 1359 2588 1221 2494
Q 1084 2400 998 2247
Q 913 2094 873 1900
Q 834 1706 834 1506
Q 834 1294 867 1091
Q 900 888 981 730
Q 1063 572 1197 476
Q 1331 381 1534 381
Q 1638 381 1733 409
Q 1828 438 1928 503
Q 2028 569 2137 673
Q 2247 778 2369 931
L 2369 2056
z
" transform="scale(0.015625)"/>
       <path id="Calibri-29" d="M 1522 1678
Q 1522 1325 1478 979
Q 1434 634 1346 296
Q 1259 -41 1132 -367
Q 1006 -694 838 -1013
Q 828 -1028 809 -1040
Q 791 -1053 761 -1062
Q 731 -1072 690 -1075
Q 650 -1078 594 -1078
Q 513 -1078 467 -1070
Q 422 -1063 401 -1045
Q 381 -1028 382 -1001
Q 384 -975 400 -938
Q 688 -306 834 355
Q 981 1016 981 1688
Q 981 2356 834 3017
Q 688 3678 394 4306
Q 381 4334 384 4359
Q 388 4384 413 4400
Q 438 4416 481 4425
Q 525 4434 597 4434
Q 663 4434 706 4429
Q 750 4425 776 4415
Q 803 4406 815 4397
Q 828 4388 834 4375
Q 1156 3734 1339 3057
Q 1522 2381 1522 1678
z
" transform="scale(0.015625)"/>
      </defs>
      <use xlink:href="#Cambria-Italic-70" transform="translate(0 0.71875)"/>
      <use xlink:href="#Cambria-65" transform="translate(52.685547 -13.2875)scale(0.7)"/>
      <use xlink:href="#Cambria-61" transform="translate(86.831055 -13.2875)scale(0.7)"/>
      <use xlink:href="#Cambria-72" transform="translate(121.010742 -13.2875)scale(0.7)"/>
      <use xlink:href="#Cambria-6c" transform="translate(149.960938 -13.2875)scale(0.7)"/>
      <use xlink:href="#Cambria-79" transform="translate(168.964844 -13.2875)scale(0.7)"/>
      <use xlink:href="#Calibri-20" transform="translate(206.572656 0.71875)"/>
      <use xlink:href="#Calibri-28" transform="translate(228.055078 0.71875)"/>
      <use xlink:href="#Calibri-66" transform="translate(257.877344 0.71875)"/>
      <use xlink:href="#Calibri-69" transform="translate(288.394922 0.71875)"/>
      <use xlink:href="#Calibri-78" transform="translate(311.344141 0.71875)"/>
      <use xlink:href="#Calibri-65" transform="translate(354.654688 0.71875)"/>
      <use xlink:href="#Calibri-64" transform="translate(404.410547 0.71875)"/>
      <use xlink:href="#Calibri-29" transform="translate(456.949609 0.71875)"/>
     </g>
    </g>
    <g id="patch_9">
     <path d="M 164.907224 22.75254
L 177.399224 22.75254
L 177.399224 18.38034
L 164.907224 18.38034
z
" style="fill: #ae0060"/>
    </g>
    <g id="text_17">
     <!-- $p_{\mathrm{late}}$ -->
     <g transform="translate(182.396024 22.75254)scale(0.06246 -0.06246)">
      <defs>
       <path id="Cambria-74" d="M 116 2831
Q 272 2856 369 2918
Q 466 2981 520 3079
Q 575 3178 606 3326
Q 638 3475 672 3759
L 1116 3759
L 1116 2988
L 2125 2988
L 2125 2672
L 1116 2672
L 1116 1281
Q 1116 978 1141 798
Q 1166 619 1234 517
Q 1303 416 1390 372
Q 1478 328 1616 328
Q 1741 328 1850 379
Q 1959 431 2066 528
L 2206 359
Q 1984 144 1786 47
Q 1588 -50 1375 -50
Q 972 -50 775 189
Q 578 428 578 938
L 578 2672
L 116 2672
L 116 2831
z
" transform="scale(0.015625)"/>
      </defs>
      <use xlink:href="#Cambria-Italic-70" transform="translate(0 0.53125)"/>
      <use xlink:href="#Cambria-6c" transform="translate(52.685547 -13.475)scale(0.7)"/>
      <use xlink:href="#Cambria-61" transform="translate(71.689453 -13.475)scale(0.7)"/>
      <use xlink:href="#Cambria-74" transform="translate(105.869141 -13.475)scale(0.7)"/>
      <use xlink:href="#Cambria-65" transform="translate(129.555664 -13.475)scale(0.7)"/>
     </g>
    </g>
   </g>
  </g>
  <g id="axes_2">
   <g id="patch_10">
    <path d="M 246.194123 159.212024
L 451.576886 159.212024
L 451.576886 7.2
L 246.194123 7.2
z
" style="fill: #ffffff"/>
   </g>
   <g id="matplotlib.axis_3">
    <g id="xtick_8">
     <g id="line2d_31">
      <path d="M 246.194123 159.212024
L 246.194123 7.2
" clip-path="url(#pdd2964d70d)" style="fill: none; stroke: #000000; stroke-opacity: 0.1; stroke-width: 0.5; stroke-linecap: square"/>
     </g>
     <g id="line2d_32">
      <g>
       <use xlink:href="#md24e4da9cf" x="246.194123" y="159.212024" style="stroke: #000000; stroke-width: 0.5"/>
      </g>
     </g>
     <g id="text_18">
      <!-- 1 -->
      <g transform="translate(244.611152 164.96028)scale(0.06246 -0.06246)">
       <use xlink:href="#Calibri-31"/>
      </g>
     </g>
    </g>
    <g id="xtick_9">
     <g id="line2d_33">
      <path d="M 269.01443 159.212024
L 269.01443 7.2
" clip-path="url(#pdd2964d70d)" style="fill: none; stroke: #000000; stroke-opacity: 0.1; stroke-width: 0.5; stroke-linecap: square"/>
     </g>
     <g id="line2d_34">
      <g>
       <use xlink:href="#md24e4da9cf" x="269.01443" y="159.212024" style="stroke: #000000; stroke-width: 0.5"/>
      </g>
     </g>
     <g id="text_19">
      <!-- 2 -->
      <g transform="translate(267.431459 164.96028)scale(0.06246 -0.06246)">
       <use xlink:href="#Calibri-32"/>
      </g>
     </g>
    </g>
    <g id="xtick_10">
     <g id="line2d_35">
      <path d="M 291.834737 159.212024
L 291.834737 7.2
" clip-path="url(#pdd2964d70d)" style="fill: none; stroke: #000000; stroke-opacity: 0.1; stroke-width: 0.5; stroke-linecap: square"/>
     </g>
     <g id="line2d_36">
      <g>
       <use xlink:href="#md24e4da9cf" x="291.834737" y="159.212024" style="stroke: #000000; stroke-width: 0.5"/>
      </g>
     </g>
     <g id="text_20">
      <!-- 3 -->
      <g transform="translate(290.251766 164.96028)scale(0.06246 -0.06246)">
       <use xlink:href="#Calibri-33"/>
      </g>
     </g>
    </g>
    <g id="xtick_11">
     <g id="line2d_37">
      <path d="M 314.655044 159.212024
L 314.655044 7.2
" clip-path="url(#pdd2964d70d)" style="fill: none; stroke: #000000; stroke-opacity: 0.1; stroke-width: 0.5; stroke-linecap: square"/>
     </g>
     <g id="line2d_38">
      <g>
       <use xlink:href="#md24e4da9cf" x="314.655044" y="159.212024" style="stroke: #000000; stroke-width: 0.5"/>
      </g>
     </g>
     <g id="text_21">
      <!-- 4 -->
      <g transform="translate(313.072073 164.96028)scale(0.06246 -0.06246)">
       <use xlink:href="#Calibri-34"/>
      </g>
     </g>
    </g>
    <g id="xtick_12">
     <g id="line2d_39">
      <path d="M 337.475351 159.212024
L 337.475351 7.2
" clip-path="url(#pdd2964d70d)" style="fill: none; stroke: #000000; stroke-opacity: 0.1; stroke-width: 0.5; stroke-linecap: square"/>
     </g>
     <g id="line2d_40">
      <g>
       <use xlink:href="#md24e4da9cf" x="337.475351" y="159.212024" style="stroke: #000000; stroke-width: 0.5"/>
      </g>
     </g>
     <g id="text_22">
      <!-- 5 -->
      <g transform="translate(335.89238 164.96028)scale(0.06246 -0.06246)">
       <use xlink:href="#Calibri-35"/>
      </g>
     </g>
    </g>
    <g id="xtick_13">
     <g id="line2d_41">
      <path d="M 360.295658 159.212024
L 360.295658 7.2
" clip-path="url(#pdd2964d70d)" style="fill: none; stroke: #000000; stroke-opacity: 0.1; stroke-width: 0.5; stroke-linecap: square"/>
     </g>
     <g id="line2d_42">
      <g>
       <use xlink:href="#md24e4da9cf" x="360.295658" y="159.212024" style="stroke: #000000; stroke-width: 0.5"/>
      </g>
     </g>
     <g id="text_23">
      <!-- 6 -->
      <g transform="translate(358.712687 164.96028)scale(0.06246 -0.06246)">
       <use xlink:href="#Calibri-36"/>
      </g>
     </g>
    </g>
    <g id="xtick_14">
     <g id="line2d_43">
      <path d="M 383.115965 159.212024
L 383.115965 7.2
" clip-path="url(#pdd2964d70d)" style="fill: none; stroke: #000000; stroke-opacity: 0.1; stroke-width: 0.5; stroke-linecap: square"/>
     </g>
     <g id="line2d_44">
      <g>
       <use xlink:href="#md24e4da9cf" x="383.115965" y="159.212024" style="stroke: #000000; stroke-width: 0.5"/>
      </g>
     </g>
     <g id="text_24">
      <!-- 7 -->
      <g transform="translate(381.532994 164.96028)scale(0.06246 -0.06246)">
       <use xlink:href="#Calibri-37"/>
      </g>
     </g>
    </g>
    <g id="xtick_15">
     <g id="line2d_45">
      <path d="M 405.936272 159.212024
L 405.936272 7.2
" clip-path="url(#pdd2964d70d)" style="fill: none; stroke: #000000; stroke-opacity: 0.1; stroke-width: 0.5; stroke-linecap: square"/>
     </g>
     <g id="line2d_46">
      <g>
       <use xlink:href="#md24e4da9cf" x="405.936272" y="159.212024" style="stroke: #000000; stroke-width: 0.5"/>
      </g>
     </g>
     <g id="text_25">
      <!-- 8 -->
      <g transform="translate(404.353301 164.96028)scale(0.06246 -0.06246)">
       <use xlink:href="#Calibri-38"/>
      </g>
     </g>
    </g>
    <g id="xtick_16">
     <g id="line2d_47">
      <path d="M 428.756579 159.212024
L 428.756579 7.2
" clip-path="url(#pdd2964d70d)" style="fill: none; stroke: #000000; stroke-opacity: 0.1; stroke-width: 0.5; stroke-linecap: square"/>
     </g>
     <g id="line2d_48">
      <g>
       <use xlink:href="#md24e4da9cf" x="428.756579" y="159.212024" style="stroke: #000000; stroke-width: 0.5"/>
      </g>
     </g>
     <g id="text_26">
      <!-- 9 -->
      <g transform="translate(427.173608 164.96028)scale(0.06246 -0.06246)">
       <use xlink:href="#Calibri-39"/>
      </g>
     </g>
    </g>
    <g id="xtick_17">
     <g id="line2d_49">
      <path d="M 451.576886 159.212024
L 451.576886 7.2
" clip-path="url(#pdd2964d70d)" style="fill: none; stroke: #000000; stroke-opacity: 0.1; stroke-width: 0.5; stroke-linecap: square"/>
     </g>
     <g id="line2d_50">
      <g>
       <use xlink:href="#md24e4da9cf" x="451.576886" y="159.212024" style="stroke: #000000; stroke-width: 0.5"/>
      </g>
     </g>
     <g id="text_27">
      <!-- 10 -->
      <g transform="translate(448.410945 164.96028)scale(0.06246 -0.06246)">
       <use xlink:href="#Calibri-31"/>
       <use xlink:href="#Calibri-30" x="50.683594"/>
      </g>
     </g>
    </g>
    <g id="text_28">
     <!-- Time step $t$ -->
     <g transform="translate(328.365504 174.172616)scale(0.09 -0.09)">
      <defs>
       <path id="Calibri-54" d="M 3072 3813
Q 3072 3753 3065 3709
Q 3059 3666 3045 3639
Q 3031 3613 3011 3600
Q 2991 3588 2966 3588
L 1828 3588
L 1828 81
Q 1828 56 1815 37
Q 1803 19 1772 8
Q 1741 -3 1689 -11
Q 1638 -19 1559 -19
Q 1484 -19 1431 -11
Q 1378 -3 1347 8
Q 1316 19 1303 37
Q 1291 56 1291 81
L 1291 3588
L 153 3588
Q 128 3588 108 3600
Q 88 3613 75 3639
Q 63 3666 55 3709
Q 47 3753 47 3813
Q 47 3872 55 3917
Q 63 3963 75 3991
Q 88 4019 108 4031
Q 128 4044 153 4044
L 2966 4044
Q 2991 4044 3011 4031
Q 3031 4019 3045 3991
Q 3059 3963 3065 3917
Q 3072 3872 3072 3813
z
" transform="scale(0.015625)"/>
       <path id="Calibri-73" d="M 2244 844
Q 2244 628 2164 459
Q 2084 291 1937 175
Q 1791 59 1587 0
Q 1384 -59 1141 -59
Q 991 -59 855 -36
Q 719 -13 611 23
Q 503 59 428 98
Q 353 138 318 169
Q 284 200 268 256
Q 253 313 253 409
Q 253 469 259 509
Q 266 550 275 575
Q 284 600 301 611
Q 319 622 341 622
Q 375 622 442 580
Q 509 538 607 488
Q 706 438 840 395
Q 975 353 1150 353
Q 1281 353 1387 381
Q 1494 409 1572 464
Q 1650 519 1692 603
Q 1734 688 1734 803
Q 1734 922 1673 1003
Q 1613 1084 1513 1146
Q 1413 1209 1288 1257
Q 1163 1306 1030 1359
Q 897 1413 770 1480
Q 644 1547 544 1644
Q 444 1741 383 1875
Q 322 2009 322 2197
Q 322 2363 386 2514
Q 450 2666 578 2780
Q 706 2894 898 2962
Q 1091 3031 1347 3031
Q 1459 3031 1571 3012
Q 1684 2994 1775 2966
Q 1866 2938 1930 2905
Q 1994 2872 2026 2847
Q 2059 2822 2070 2803
Q 2081 2784 2086 2761
Q 2091 2738 2095 2703
Q 2100 2669 2100 2619
Q 2100 2566 2095 2527
Q 2091 2488 2080 2463
Q 2069 2438 2053 2427
Q 2038 2416 2019 2416
Q 1991 2416 1937 2450
Q 1884 2484 1800 2523
Q 1716 2563 1602 2597
Q 1488 2631 1341 2631
Q 1209 2631 1109 2601
Q 1009 2572 945 2517
Q 881 2463 848 2388
Q 816 2313 816 2225
Q 816 2103 878 2020
Q 941 1938 1041 1875
Q 1141 1813 1269 1763
Q 1397 1713 1530 1659
Q 1663 1606 1792 1540
Q 1922 1475 2022 1381
Q 2122 1288 2183 1156
Q 2244 1025 2244 844
z
" transform="scale(0.015625)"/>
       <path id="Cambria-Italic-74" d="M 2109 575
Q 1853 266 1603 108
Q 1353 -50 1072 -50
Q 741 -50 578 119
Q 416 288 416 609
Q 416 806 472 1050
L 859 2672
L 394 2672
L 428 2831
Q 613 2853 720 2911
Q 828 2969 901 3064
Q 975 3159 1037 3312
Q 1100 3466 1194 3759
L 1625 3759
L 1453 2988
L 2444 2988
L 2375 2672
L 1381 2672
L 1081 1459
Q 956 953 956 703
Q 956 513 1039 414
Q 1122 316 1281 316
Q 1425 316 1583 427
Q 1741 538 1928 763
L 2109 575
z
" transform="scale(0.015625)"/>
      </defs>
      <use xlink:href="#Calibri-54" transform="translate(0 0.203125)"/>
      <use xlink:href="#Calibri-69" transform="translate(48.730469 0.203125)"/>
      <use xlink:href="#Calibri-6d" transform="translate(71.679688 0.203125)"/>
      <use xlink:href="#Calibri-65" transform="translate(151.5625 0.203125)"/>
      <use xlink:href="#Calibri-20" transform="translate(201.318359 0.203125)"/>
      <use xlink:href="#Calibri-73" transform="translate(223.925781 0.203125)"/>
      <use xlink:href="#Calibri-74" transform="translate(263.037109 0.203125)"/>
      <use xlink:href="#Calibri-65" transform="translate(296.533203 0.203125)"/>
      <use xlink:href="#Calibri-70" transform="translate(346.289062 0.203125)"/>
      <use xlink:href="#Calibri-20" transform="translate(398.828125 0.203125)"/>
      <use xlink:href="#Cambria-Italic-74" transform="translate(421.435547 0.203125)"/>
     </g>
    </g>
   </g>
   <g id="matplotlib.axis_4">
    <g id="ytick_8">
     <g id="line2d_51">
      <path d="M 246.194123 152.360183
L 451.576886 152.360183
" clip-path="url(#pdd2964d70d)" style="fill: none; stroke: #000000; stroke-opacity: 0.1; stroke-width: 0.5; stroke-linecap: square"/>
     </g>
     <g id="line2d_52">
      <g>
       <use xlink:href="#m31149977f0" x="246.194123" y="152.360183" style="stroke: #000000; stroke-width: 0.5"/>
      </g>
     </g>
     <g id="text_29">
      <!-- 0.00 -->
      <g transform="translate(233.619184 154.484311)scale(0.06246 -0.06246)">
       <use xlink:href="#Calibri-30"/>
       <use xlink:href="#Calibri-2e" x="50.683594"/>
       <use xlink:href="#Calibri-30" x="75.927734"/>
       <use xlink:href="#Calibri-30" x="126.611328"/>
      </g>
     </g>
    </g>
    <g id="ytick_9">
     <g id="line2d_53">
      <path d="M 246.194123 124.800762
L 451.576886 124.800762
" clip-path="url(#pdd2964d70d)" style="fill: none; stroke: #000000; stroke-opacity: 0.1; stroke-width: 0.5; stroke-linecap: square"/>
     </g>
     <g id="line2d_54">
      <g>
       <use xlink:href="#m31149977f0" x="246.194123" y="124.800762" style="stroke: #000000; stroke-width: 0.5"/>
      </g>
     </g>
     <g id="text_30">
      <!-- 0.05 -->
      <g transform="translate(233.619184 126.92489)scale(0.06246 -0.06246)">
       <use xlink:href="#Calibri-30"/>
       <use xlink:href="#Calibri-2e" x="50.683594"/>
       <use xlink:href="#Calibri-30" x="75.927734"/>
       <use xlink:href="#Calibri-35" x="126.611328"/>
      </g>
     </g>
    </g>
    <g id="ytick_10">
     <g id="line2d_55">
      <path d="M 246.194123 97.24134
L 451.576886 97.24134
" clip-path="url(#pdd2964d70d)" style="fill: none; stroke: #000000; stroke-opacity: 0.1; stroke-width: 0.5; stroke-linecap: square"/>
     </g>
     <g id="line2d_56">
      <g>
       <use xlink:href="#m31149977f0" x="246.194123" y="97.24134" style="stroke: #000000; stroke-width: 0.5"/>
      </g>
     </g>
     <g id="text_31">
      <!-- 0.10 -->
      <g transform="translate(233.619184 99.365468)scale(0.06246 -0.06246)">
       <use xlink:href="#Calibri-30"/>
       <use xlink:href="#Calibri-2e" x="50.683594"/>
       <use xlink:href="#Calibri-31" x="75.927734"/>
       <use xlink:href="#Calibri-30" x="126.611328"/>
      </g>
     </g>
    </g>
    <g id="ytick_11">
     <g id="line2d_57">
      <path d="M 246.194123 69.681919
L 451.576886 69.681919
" clip-path="url(#pdd2964d70d)" style="fill: none; stroke: #000000; stroke-opacity: 0.1; stroke-width: 0.5; stroke-linecap: square"/>
     </g>
     <g id="line2d_58">
      <g>
       <use xlink:href="#m31149977f0" x="246.194123" y="69.681919" style="stroke: #000000; stroke-width: 0.5"/>
      </g>
     </g>
     <g id="text_32">
      <!-- 0.15 -->
      <g transform="translate(233.619184 71.806047)scale(0.06246 -0.06246)">
       <use xlink:href="#Calibri-30"/>
       <use xlink:href="#Calibri-2e" x="50.683594"/>
       <use xlink:href="#Calibri-31" x="75.927734"/>
       <use xlink:href="#Calibri-35" x="126.611328"/>
      </g>
     </g>
    </g>
    <g id="ytick_12">
     <g id="line2d_59">
      <path d="M 246.194123 42.122497
L 451.576886 42.122497
" clip-path="url(#pdd2964d70d)" style="fill: none; stroke: #000000; stroke-opacity: 0.1; stroke-width: 0.5; stroke-linecap: square"/>
     </g>
     <g id="line2d_60">
      <g>
       <use xlink:href="#m31149977f0" x="246.194123" y="42.122497" style="stroke: #000000; stroke-width: 0.5"/>
      </g>
     </g>
     <g id="text_33">
      <!-- 0.20 -->
      <g transform="translate(233.619184 44.246625)scale(0.06246 -0.06246)">
       <use xlink:href="#Calibri-30"/>
       <use xlink:href="#Calibri-2e" x="50.683594"/>
       <use xlink:href="#Calibri-32" x="75.927734"/>
       <use xlink:href="#Calibri-30" x="126.611328"/>
      </g>
     </g>
    </g>
    <g id="ytick_13">
     <g id="line2d_61">
      <path d="M 246.194123 14.563076
L 451.576886 14.563076
" clip-path="url(#pdd2964d70d)" style="fill: none; stroke: #000000; stroke-opacity: 0.1; stroke-width: 0.5; stroke-linecap: square"/>
     </g>
     <g id="line2d_62">
      <g>
       <use xlink:href="#m31149977f0" x="246.194123" y="14.563076" style="stroke: #000000; stroke-width: 0.5"/>
      </g>
     </g>
     <g id="text_34">
      <!-- 0.25 -->
      <g transform="translate(233.619184 16.687204)scale(0.06246 -0.06246)">
       <use xlink:href="#Calibri-30"/>
       <use xlink:href="#Calibri-2e" x="50.683594"/>
       <use xlink:href="#Calibri-32" x="75.927734"/>
       <use xlink:href="#Calibri-35" x="126.611328"/>
      </g>
     </g>
    </g>
    <g id="text_35">
     <!-- $p_T(t)$ -->
     <g transform="translate(229.639184 92.521012)rotate(-90)scale(0.09 -0.09)">
      <defs>
       <path id="Cambria-Italic-54" d="M 2225 0
L 909 0
L 944 153
Q 1066 169 1125 201
Q 1184 234 1229 300
Q 1275 366 1322 505
Q 1369 644 1431 931
L 2100 3991
L 1703 3991
Q 1509 3991 1393 3934
Q 1278 3878 1162 3725
Q 1047 3572 881 3213
L 581 3213
L 816 4266
L 4078 4266
L 3834 3166
L 3534 3166
Q 3534 3469 3518 3620
Q 3503 3772 3459 3851
Q 3416 3931 3352 3961
Q 3288 3991 3125 3991
L 2663 3991
L 1984 909
Q 1956 788 1945 716
Q 1934 644 1926 564
Q 1919 484 1919 422
Q 1919 325 1950 270
Q 1981 216 2043 191
Q 2106 166 2259 153
L 2225 0
z
" transform="scale(0.015625)"/>
       <path id="Cambria-28" d="M 2309 -1359
Q 1778 -1359 1442 -1200
Q 1106 -1041 918 -714
Q 731 -388 647 134
Q 563 656 563 1550
Q 563 2438 645 2964
Q 728 3491 915 3822
Q 1103 4153 1440 4318
Q 1778 4484 2309 4484
L 2309 4228
Q 2091 4228 1922 4191
Q 1731 4147 1597 4022
Q 1447 3884 1353 3638
Q 1244 3350 1191 2875
Q 1134 2372 1134 1575
Q 1134 872 1181 379
Q 1228 -113 1338 -425
Q 1425 -688 1556 -834
Q 1672 -963 1831 -1028
Q 2016 -1103 2309 -1103
L 2309 -1359
z
" transform="scale(0.015625)"/>
       <path id="Cambria-29" d="M 134 4484
Q 666 4484 1002 4325
Q 1338 4166 1525 3839
Q 1713 3513 1797 2991
Q 1881 2469 1881 1575
Q 1881 688 1798 161
Q 1716 -366 1528 -697
Q 1341 -1028 1003 -1193
Q 666 -1359 134 -1359
L 134 -1103
Q 353 -1103 522 -1066
Q 713 -1022 847 -897
Q 997 -759 1091 -513
Q 1200 -225 1253 250
Q 1309 753 1309 1550
Q 1309 2253 1262 2745
Q 1216 3238 1106 3550
Q 1019 3813 888 3959
Q 772 4088 613 4153
Q 428 4228 134 4228
L 134 4484
z
" transform="scale(0.015625)"/>
      </defs>
      <use xlink:href="#Cambria-Italic-70" transform="translate(0 0.9375)"/>
      <use xlink:href="#Cambria-Italic-54" transform="translate(52.685547 -13.06875)scale(0.7)"/>
      <use xlink:href="#Cambria-28" transform="translate(95.181055 0.9375)"/>
      <use xlink:href="#Cambria-Italic-74" transform="translate(133.364648 0.9375)"/>
      <use xlink:href="#Cambria-29" transform="translate(167.886133 0.9375)"/>
     </g>
    </g>
   </g>
   <g id="line2d_63">
    <path d="M 223.373816 149.027358
L 246.194123 130.141346
L 269.01443 85.70367
L 291.834737 33.859715
L 314.655044 14.109637
L 337.475351 41.759747
L 360.295658 90.915496
L 383.115965 128.952683
L 405.936272 146.508308
L 428.756579 151.493239
L 451.576886 152.302387
" clip-path="url(#pdd2964d70d)" style="fill: none; stroke: #005ea8; stroke-linecap: square"/>
    <defs>
     <path id="mc73bde4f16" d="M 0 1.5
C 0.397805 1.5 0.77937 1.341951 1.06066 1.06066
C 1.341951 0.77937 1.5 0.397805 1.5 0
C 1.5 -0.397805 1.341951 -0.77937 1.06066 -1.06066
C 0.77937 -1.341951 0.397805 -1.5 0 -1.5
C -0.397805 -1.5 -0.77937 -1.341951 -1.06066 -1.06066
C -1.341951 -0.77937 -1.5 -0.397805 -1.5 0
C -1.5 0.397805 -1.341951 0.77937 -1.06066 1.06066
C -0.77937 1.341951 -0.397805 1.5 0 1.5
z
" style="stroke: #005ea8"/>
    </defs>
    <g clip-path="url(#pdd2964d70d)">
     <use xlink:href="#mc73bde4f16" x="223.373816" y="149.027358" style="fill: #005ea8; stroke: #005ea8"/>
     <use xlink:href="#mc73bde4f16" x="246.194123" y="130.141346" style="fill: #005ea8; stroke: #005ea8"/>
     <use xlink:href="#mc73bde4f16" x="269.01443" y="85.70367" style="fill: #005ea8; stroke: #005ea8"/>
     <use xlink:href="#mc73bde4f16" x="291.834737" y="33.859715" style="fill: #005ea8; stroke: #005ea8"/>
     <use xlink:href="#mc73bde4f16" x="314.655044" y="14.109637" style="fill: #005ea8; stroke: #005ea8"/>
     <use xlink:href="#mc73bde4f16" x="337.475351" y="41.759747" style="fill: #005ea8; stroke: #005ea8"/>
     <use xlink:href="#mc73bde4f16" x="360.295658" y="90.915496" style="fill: #005ea8; stroke: #005ea8"/>
     <use xlink:href="#mc73bde4f16" x="383.115965" y="128.952683" style="fill: #005ea8; stroke: #005ea8"/>
     <use xlink:href="#mc73bde4f16" x="405.936272" y="146.508308" style="fill: #005ea8; stroke: #005ea8"/>
     <use xlink:href="#mc73bde4f16" x="428.756579" y="151.493239" style="fill: #005ea8; stroke: #005ea8"/>
     <use xlink:href="#mc73bde4f16" x="451.576886" y="152.302387" style="fill: #005ea8; stroke: #005ea8"/>
    </g>
   </g>
   <g id="line2d_64">
    <path d="M 223.373816 152.256489
L 246.194123 150.951952
L 269.01443 143.754117
L 291.834737 121.193422
L 314.655044 78.289224
L 337.475351 31.649015
L 360.295658 15.749568
L 383.115965 46.345838
L 405.936272 98.370082
L 428.756579 136.066478
L 451.576886 150.147404
" clip-path="url(#pdd2964d70d)" style="fill: none; stroke: #ae0060; stroke-linecap: square"/>
    <defs>
     <path id="m37e57a2072" d="M 0 1.5
C 0.397805 1.5 0.77937 1.341951 1.06066 1.06066
C 1.341951 0.77937 1.5 0.397805 1.5 0
C 1.5 -0.397805 1.341951 -0.77937 1.06066 -1.06066
C 0.77937 -1.341951 0.397805 -1.5 0 -1.5
C -0.397805 -1.5 -0.77937 -1.341951 -1.06066 -1.06066
C -1.341951 -0.77937 -1.5 -0.397805 -1.5 0
C -1.5 0.397805 -1.341951 0.77937 -1.06066 1.06066
C -0.77937 1.341951 -0.397805 1.5 0 1.5
z
" style="stroke: #ae0060"/>
    </defs>
    <g clip-path="url(#pdd2964d70d)">
     <use xlink:href="#m37e57a2072" x="223.373816" y="152.256489" style="fill: #ae0060; stroke: #ae0060"/>
     <use xlink:href="#m37e57a2072" x="246.194123" y="150.951952" style="fill: #ae0060; stroke: #ae0060"/>
     <use xlink:href="#m37e57a2072" x="269.01443" y="143.754117" style="fill: #ae0060; stroke: #ae0060"/>
     <use xlink:href="#m37e57a2072" x="291.834737" y="121.193422" style="fill: #ae0060; stroke: #ae0060"/>
     <use xlink:href="#m37e57a2072" x="314.655044" y="78.289224" style="fill: #ae0060; stroke: #ae0060"/>
     <use xlink:href="#m37e57a2072" x="337.475351" y="31.649015" style="fill: #ae0060; stroke: #ae0060"/>
     <use xlink:href="#m37e57a2072" x="360.295658" y="15.749568" style="fill: #ae0060; stroke: #ae0060"/>
     <use xlink:href="#m37e57a2072" x="383.115965" y="46.345838" style="fill: #ae0060; stroke: #ae0060"/>
     <use xlink:href="#m37e57a2072" x="405.936272" y="98.370082" style="fill: #ae0060; stroke: #ae0060"/>
     <use xlink:href="#m37e57a2072" x="428.756579" y="136.066478" style="fill: #ae0060; stroke: #ae0060"/>
     <use xlink:href="#m37e57a2072" x="451.576886" y="150.147404" style="fill: #ae0060; stroke: #ae0060"/>
    </g>
   </g>
   <g id="line2d_65">
    <path d="M 223.373816 152.107746
L 246.194123 149.777389
L 269.01443 139.953629
L 291.834737 115.334349
L 314.655044 75.96509
L 337.475351 38.006907
L 360.295658 26.202964
L 383.115965 50.890564
L 405.936272 95.386028
L 428.756579 132.200217
L 451.576886 148.948704
" clip-path="url(#pdd2964d70d)" style="fill: none; stroke-dasharray: 3.7,1.6; stroke-dashoffset: 0; stroke: #ae0060; stroke-opacity: 0.5"/>
    <defs>
     <path id="m2edae796c3" d="M 0 1.5
C 0.397805 1.5 0.77937 1.341951 1.06066 1.06066
C 1.341951 0.77937 1.5 0.397805 1.5 0
C 1.5 -0.397805 1.341951 -0.77937 1.06066 -1.06066
C 0.77937 -1.341951 0.397805 -1.5 0 -1.5
C -0.397805 -1.5 -0.77937 -1.341951 -1.06066 -1.06066
C -1.341951 -0.77937 -1.5 -0.397805 -1.5 0
C -1.5 0.397805 -1.341951 0.77937 -1.06066 1.06066
C -0.77937 1.341951 -0.397805 1.5 0 1.5
z
" style="stroke: #ae0060; stroke-opacity: 0.5"/>
    </defs>
    <g clip-path="url(#pdd2964d70d)">
     <use xlink:href="#m2edae796c3" x="223.373816" y="152.107746" style="fill: #ae0060; fill-opacity: 0.5; stroke: #ae0060; stroke-opacity: 0.5"/>
     <use xlink:href="#m2edae796c3" x="246.194123" y="149.777389" style="fill: #ae0060; fill-opacity: 0.5; stroke: #ae0060; stroke-opacity: 0.5"/>
     <use xlink:href="#m2edae796c3" x="269.01443" y="139.953629" style="fill: #ae0060; fill-opacity: 0.5; stroke: #ae0060; stroke-opacity: 0.5"/>
     <use xlink:href="#m2edae796c3" x="291.834737" y="115.334349" style="fill: #ae0060; fill-opacity: 0.5; stroke: #ae0060; stroke-opacity: 0.5"/>
     <use xlink:href="#m2edae796c3" x="314.655044" y="75.96509" style="fill: #ae0060; fill-opacity: 0.5; stroke: #ae0060; stroke-opacity: 0.5"/>
     <use xlink:href="#m2edae796c3" x="337.475351" y="38.006907" style="fill: #ae0060; fill-opacity: 0.5; stroke: #ae0060; stroke-opacity: 0.5"/>
     <use xlink:href="#m2edae796c3" x="360.295658" y="26.202964" style="fill: #ae0060; fill-opacity: 0.5; stroke: #ae0060; stroke-opacity: 0.5"/>
     <use xlink:href="#m2edae796c3" x="383.115965" y="50.890564" style="fill: #ae0060; fill-opacity: 0.5; stroke: #ae0060; stroke-opacity: 0.5"/>
     <use xlink:href="#m2edae796c3" x="405.936272" y="95.386028" style="fill: #ae0060; fill-opacity: 0.5; stroke: #ae0060; stroke-opacity: 0.5"/>
     <use xlink:href="#m2edae796c3" x="428.756579" y="132.200217" style="fill: #ae0060; fill-opacity: 0.5; stroke: #ae0060; stroke-opacity: 0.5"/>
     <use xlink:href="#m2edae796c3" x="451.576886" y="148.948704" style="fill: #ae0060; fill-opacity: 0.5; stroke: #ae0060; stroke-opacity: 0.5"/>
    </g>
   </g>
   <g id="patch_11">
    <path d="M 246.194123 159.212024
L 246.194123 7.2
" style="fill: none; stroke: #000000; stroke-width: 0.5; stroke-linejoin: miter; stroke-linecap: square"/>
   </g>
   <g id="patch_12">
    <path d="M 451.576886 159.212024
L 451.576886 7.2
" style="fill: none; stroke: #000000; stroke-width: 0.5; stroke-linejoin: miter; stroke-linecap: square"/>
   </g>
   <g id="patch_13">
    <path d="M 246.194123 159.212024
L 451.576886 159.212024
" style="fill: none; stroke: #000000; stroke-width: 0.5; stroke-linejoin: miter; stroke-linecap: square"/>
   </g>
   <g id="patch_14">
    <path d="M 246.194123 7.2
L 451.576886 7.2
" style="fill: none; stroke: #000000; stroke-width: 0.5; stroke-linejoin: miter; stroke-linecap: square"/>
   </g>
   <g id="legend_2">
    <g id="patch_15">
     <path d="M 377.358791 31.423745
L 447.204686 31.423745
Q 448.453886 31.423745 448.453886 30.174545
L 448.453886 11.5722
Q 448.453886 10.323 447.204686 10.323
L 377.358791 10.323
Q 376.109591 10.323 376.109591 11.5722
L 376.109591 30.174545
Q 376.109591 31.423745 377.358791 31.423745
z
" style="fill: #ffffff; opacity: 0.8; stroke: #cccccc; stroke-linejoin: miter"/>
    </g>
    <g id="line2d_66">
     <path d="M 377.358791 13.7583
L 383.604791 13.7583
L 389.850791 13.7583
" style="fill: none; stroke: #005ea8; stroke-linecap: square"/>
     <defs>
      <path id="m78098e8ef6" d="M 0 1.125
C 0.298353 1.125 0.584527 1.006463 0.795495 0.795495
C 1.006463 0.584527 1.125 0.298353 1.125 0
C 1.125 -0.298353 1.006463 -0.584527 0.795495 -0.795495
C 0.584527 -1.006463 0.298353 -1.125 0 -1.125
C -0.298353 -1.125 -0.584527 -1.006463 -0.795495 -0.795495
C -1.006463 -0.584527 -1.125 -0.298353 -1.125 0
C -1.125 0.298353 -1.006463 0.584527 -0.795495 0.795495
C -0.584527 1.006463 -0.298353 1.125 0 1.125
z
" style="stroke: #005ea8"/>
     </defs>
     <g>
      <use xlink:href="#m78098e8ef6" x="383.604791" y="13.7583" style="fill: #005ea8; stroke: #005ea8"/>
     </g>
    </g>
    <g id="text_36">
     <!-- $p_{\mathrm{early}}$ (fixed) -->
     <g transform="translate(394.847591 15.9444)scale(0.06246 -0.06246)">
      <use xlink:href="#Cambria-Italic-70" transform="translate(0 0.71875)"/>
      <use xlink:href="#Cambria-65" transform="translate(52.685547 -13.2875)scale(0.7)"/>
      <use xlink:href="#Cambria-61" transform="translate(86.831055 -13.2875)scale(0.7)"/>
      <use xlink:href="#Cambria-72" transform="translate(121.010742 -13.2875)scale(0.7)"/>
      <use xlink:href="#Cambria-6c" transform="translate(149.960938 -13.2875)scale(0.7)"/>
      <use xlink:href="#Cambria-79" transform="translate(168.964844 -13.2875)scale(0.7)"/>
      <use xlink:href="#Calibri-20" transform="translate(206.572656 0.71875)"/>
      <use xlink:href="#Calibri-28" transform="translate(228.055078 0.71875)"/>
      <use xlink:href="#Calibri-66" transform="translate(257.877344 0.71875)"/>
      <use xlink:href="#Calibri-69" transform="translate(288.394922 0.71875)"/>
      <use xlink:href="#Calibri-78" transform="translate(311.344141 0.71875)"/>
      <use xlink:href="#Calibri-65" transform="translate(354.654688 0.71875)"/>
      <use xlink:href="#Calibri-64" transform="translate(404.410547 0.71875)"/>
      <use xlink:href="#Calibri-29" transform="translate(456.949609 0.71875)"/>
     </g>
    </g>
    <g id="line2d_67">
     <path d="M 377.358791 20.56644
L 383.604791 20.56644
L 389.850791 20.56644
" style="fill: none; stroke: #ae0060; stroke-linecap: square"/>
     <defs>
      <path id="m76fff709b6" d="M 0 1.125
C 0.298353 1.125 0.584527 1.006463 0.795495 0.795495
C 1.006463 0.584527 1.125 0.298353 1.125 0
C 1.125 -0.298353 1.006463 -0.584527 0.795495 -0.795495
C 0.584527 -1.006463 0.298353 -1.125 0 -1.125
C -0.298353 -1.125 -0.584527 -1.006463 -0.795495 -0.795495
C -1.006463 -0.584527 -1.125 -0.298353 -1.125 0
C -1.125 0.298353 -1.006463 0.584527 -0.795495 0.795495
C -0.584527 1.006463 -0.298353 1.125 0 1.125
z
" style="stroke: #ae0060"/>
     </defs>
     <g>
      <use xlink:href="#m76fff709b6" x="383.604791" y="20.56644" style="fill: #ae0060; stroke: #ae0060"/>
     </g>
    </g>
    <g id="text_37">
     <!-- $\mathbb{E}[p_{\mathrm{late}}]$ -->
     <g transform="translate(394.847591 22.75254)scale(0.06246 -0.06246)">
      <defs>
       <path id="STIXNonUnicode-Italic-e156" d="M 4250 4179
L 4192 3942
L 2150 3942
L 1709 2266
L 3514 2266
L 3443 2029
L 1645 2029
L 1165 237
L 3443 237
L 3392 0
L 109 0
L 1229 4179
L 4250 4179
z
M 1914 3942
L 1414 3942
L 416 237
L 928 237
L 1914 3942
z
" transform="scale(0.015625)"/>
       <path id="Cambria-5b" d="M 2106 -1344
L 713 -1344
L 713 4472
L 2106 4472
L 2106 4216
L 1263 4216
L 1263 -1088
L 2106 -1088
L 2106 -1344
z
" transform="scale(0.015625)"/>
       <path id="Cambria-5d" d="M 1528 -1344
L 134 -1344
L 134 -1088
L 978 -1088
L 978 4216
L 134 4216
L 134 4472
L 1528 4472
L 1528 -1344
z
" transform="scale(0.015625)"/>
      </defs>
      <use xlink:href="#STIXNonUnicode-Italic-e156" transform="translate(0 0.125)"/>
      <use xlink:href="#Cambria-5b" transform="translate(63.899994 0.125)"/>
      <use xlink:href="#Cambria-Italic-70" transform="translate(98.90976 0.125)"/>
      <use xlink:href="#Cambria-6c" transform="translate(151.595306 -13.88125)scale(0.7)"/>
      <use xlink:href="#Cambria-61" transform="translate(170.599213 -13.88125)scale(0.7)"/>
      <use xlink:href="#Cambria-74" transform="translate(204.7789 -13.88125)scale(0.7)"/>
      <use xlink:href="#Cambria-65" transform="translate(228.465424 -13.88125)scale(0.7)"/>
      <use xlink:href="#Cambria-5d" transform="translate(264.945306 0.125)"/>
     </g>
    </g>
    <g id="line2d_68">
     <path d="M 377.358791 26.8749
L 383.604791 26.8749
L 389.850791 26.8749
" style="fill: none; stroke-dasharray: 3.7,1.6; stroke-dashoffset: 0; stroke: #ae0060; stroke-opacity: 0.5"/>
     <defs>
      <path id="m11e1f060b7" d="M 0 1.125
C 0.298353 1.125 0.584527 1.006463 0.795495 0.795495
C 1.006463 0.584527 1.125 0.298353 1.125 0
C 1.125 -0.298353 1.006463 -0.584527 0.795495 -0.795495
C 0.584527 -1.006463 0.298353 -1.125 0 -1.125
C -0.298353 -1.125 -0.584527 -1.006463 -0.795495 -0.795495
C -1.006463 -0.584527 -1.125 -0.298353 -1.125 0
C -1.125 0.298353 -1.006463 0.584527 -0.795495 0.795495
C -0.584527 1.006463 -0.298353 1.125 0 1.125
z
" style="stroke: #ae0060; stroke-opacity: 0.5"/>
     </defs>
     <g>
      <use xlink:href="#m11e1f060b7" x="383.604791" y="26.8749" style="fill: #ae0060; fill-opacity: 0.5; stroke: #ae0060; stroke-opacity: 0.5"/>
     </g>
    </g>
    <g id="text_38">
     <!-- avergaged binomials -->
     <g transform="translate(394.847591 29.061)scale(0.06246 -0.06246)">
      <defs>
       <path id="Calibri-76" d="M 2784 2897
Q 2784 2884 2782 2870
Q 2781 2856 2778 2840
Q 2775 2825 2770 2806
Q 2766 2788 2759 2766
L 1800 94
Q 1788 59 1767 37
Q 1747 16 1706 3
Q 1666 -9 1603 -14
Q 1541 -19 1447 -19
Q 1353 -19 1290 -12
Q 1228 -6 1189 6
Q 1150 19 1128 41
Q 1106 63 1094 94
L 138 2766
Q 125 2803 117 2831
Q 109 2859 107 2873
Q 106 2888 106 2897
Q 106 2922 118 2940
Q 131 2959 161 2970
Q 191 2981 239 2984
Q 288 2988 359 2988
Q 450 2988 504 2983
Q 559 2978 589 2965
Q 619 2953 633 2934
Q 647 2916 659 2888
L 1453 569
L 1466 531
L 1475 569
L 2259 2888
Q 2266 2916 2281 2934
Q 2297 2953 2326 2965
Q 2356 2978 2407 2983
Q 2459 2988 2544 2988
Q 2616 2988 2662 2984
Q 2709 2981 2736 2968
Q 2763 2956 2773 2939
Q 2784 2922 2784 2897
z
" transform="scale(0.015625)"/>
       <path id="Calibri-67" d="M 2828 2763
Q 2828 2653 2798 2604
Q 2769 2556 2722 2556
L 2319 2556
Q 2428 2444 2472 2308
Q 2516 2172 2516 2025
Q 2516 1781 2437 1593
Q 2359 1406 2214 1276
Q 2069 1147 1869 1078
Q 1669 1009 1425 1009
Q 1253 1009 1098 1054
Q 944 1100 859 1169
Q 803 1113 767 1041
Q 731 969 731 875
Q 731 766 832 694
Q 934 622 1103 616
L 1838 584
Q 2047 578 2222 526
Q 2397 475 2525 379
Q 2653 284 2725 145
Q 2797 6 2797 -178
Q 2797 -372 2715 -547
Q 2634 -722 2467 -855
Q 2300 -988 2040 -1064
Q 1781 -1141 1428 -1141
Q 1088 -1141 848 -1083
Q 609 -1025 456 -925
Q 303 -825 234 -686
Q 166 -547 166 -384
Q 166 -281 191 -184
Q 216 -88 267 0
Q 319 88 395 167
Q 472 247 572 325
Q 419 403 345 522
Q 272 641 272 778
Q 272 969 350 1119
Q 428 1269 544 1388
Q 447 1503 390 1648
Q 334 1794 334 2000
Q 334 2241 415 2431
Q 497 2622 640 2753
Q 784 2884 986 2954
Q 1188 3025 1425 3025
Q 1553 3025 1664 3011
Q 1775 2997 1872 2972
L 2722 2972
Q 2775 2972 2801 2920
Q 2828 2869 2828 2763
z
M 2022 2022
Q 2022 2309 1864 2470
Q 1706 2631 1416 2631
Q 1266 2631 1155 2581
Q 1044 2531 970 2443
Q 897 2356 861 2242
Q 825 2128 825 2003
Q 825 1725 983 1565
Q 1141 1406 1425 1406
Q 1578 1406 1690 1454
Q 1803 1503 1876 1589
Q 1950 1675 1986 1787
Q 2022 1900 2022 2022
z
M 2281 -206
Q 2281 -25 2132 73
Q 1984 172 1731 178
L 1003 203
Q 903 125 839 54
Q 775 -16 737 -80
Q 700 -144 686 -206
Q 672 -269 672 -334
Q 672 -538 878 -642
Q 1084 -747 1453 -747
Q 1688 -747 1845 -701
Q 2003 -656 2100 -581
Q 2197 -506 2239 -409
Q 2281 -313 2281 -206
z
" transform="scale(0.015625)"/>
       <path id="Calibri-62" d="M 3066 1522
Q 3066 1156 2986 864
Q 2906 572 2751 365
Q 2597 159 2372 50
Q 2147 -59 1856 -59
Q 1722 -59 1608 -32
Q 1494 -6 1384 53
Q 1275 113 1165 203
Q 1056 294 934 422
L 934 78
Q 934 53 921 34
Q 909 16 881 5
Q 853 -6 811 -12
Q 769 -19 703 -19
Q 641 -19 597 -12
Q 553 -6 525 5
Q 497 16 487 34
Q 478 53 478 78
L 478 4253
Q 478 4278 489 4297
Q 500 4316 529 4328
Q 559 4341 609 4347
Q 659 4353 734 4353
Q 813 4353 863 4347
Q 913 4341 941 4328
Q 969 4316 981 4297
Q 994 4278 994 4253
L 994 2569
Q 1119 2697 1236 2784
Q 1353 2872 1465 2926
Q 1578 2981 1690 3006
Q 1803 3031 1928 3031
Q 2234 3031 2451 2909
Q 2669 2788 2805 2583
Q 2941 2378 3003 2103
Q 3066 1828 3066 1522
z
M 2522 1463
Q 2522 1678 2489 1881
Q 2456 2084 2375 2240
Q 2294 2397 2159 2492
Q 2025 2588 1825 2588
Q 1725 2588 1628 2559
Q 1531 2531 1431 2465
Q 1331 2400 1223 2297
Q 1116 2194 994 2038
L 994 916
Q 1206 656 1400 520
Q 1594 384 1803 384
Q 1997 384 2134 478
Q 2272 572 2358 726
Q 2444 881 2483 1073
Q 2522 1266 2522 1463
z
" transform="scale(0.015625)"/>
      </defs>
      <use xlink:href="#Calibri-61"/>
      <use xlink:href="#Calibri-76" x="47.900391"/>
      <use xlink:href="#Calibri-65" x="93.066406"/>
      <use xlink:href="#Calibri-72" x="142.822266"/>
      <use xlink:href="#Calibri-67" x="177.685547"/>
      <use xlink:href="#Calibri-61" x="224.755859"/>
      <use xlink:href="#Calibri-67" x="272.65625"/>
      <use xlink:href="#Calibri-65" x="319.726562"/>
      <use xlink:href="#Calibri-64" x="369.482422"/>
      <use xlink:href="#Calibri-20" x="422.021484"/>
      <use xlink:href="#Calibri-62" x="444.628906"/>
      <use xlink:href="#Calibri-69" x="497.167969"/>
      <use xlink:href="#Calibri-6e" x="520.117188"/>
      <use xlink:href="#Calibri-6f" x="572.65625"/>
      <use xlink:href="#Calibri-6d" x="625.390625"/>
      <use xlink:href="#Calibri-69" x="705.273438"/>
      <use xlink:href="#Calibri-61" x="728.222656"/>
      <use xlink:href="#Calibri-6c" x="776.123047"/>
      <use xlink:href="#Calibri-73" x="799.072266"/>
     </g>
    </g>
   </g>
  </g>
 </g>
 <defs>
  <clipPath id="pc731f8589e">
   <rect x="11.865941" y="7.2" width="205.382763" height="152.012024"/>
  </clipPath>
  <clipPath id="pdd2964d70d">
   <rect x="246.194123" y="7.2" width="205.382763" height="152.012024"/>
  </clipPath>
 </defs>
</svg>
