<?xml version="1.0" encoding="utf-8" standalone="no"?>
<!DOCTYPE svg PUBLIC "-//W3C//DTD SVG 1.1//EN"
  "http://www.w3.org/Graphics/SVG/1.1/DTD/svg11.dtd">
<svg xmlns:xlink="http://www.w3.org/1999/xlink" width="461.942827pt" height="159.580622pt" viewBox="0 0 461.942827 159.580622" xmlns="http://www.w3.org/2000/svg" version="1.1">
 <metadata>
  <rdf:RDF xmlns:dc="http://purl.org/dc/elements/1.1/" xmlns:cc="http://creativecommons.org/ns#" xmlns:rdf="http://www.w3.org/1999/02/22-rdf-syntax-ns#">
   <cc:Work>
    <dc:type rdf:resource="http://purl.org/dc/dcmitype/StillImage"/>
    <dc:date>2022-09-08T14:40:05.446214</dc:date>
    <dc:format>image/svg+xml</dc:format>
    <dc:creator>
     <cc:Agent>
      <dc:title>Matplotlib v3.5.3, https://matplotlib.org/</dc:title>
     </cc:Agent>
    </dc:creator>
   </cc:Work>
  </rdf:RDF>
 </metadata>
 <defs>
  <style type="text/css">*{stroke-linejoin: round; stroke-linecap: butt}</style>
 </defs>
 <g id="figure_1">
  <g id="patch_1">
   <path d="M 0 159.580622 
L 461.942827 159.580622 
L 461.942827 0 
L 0 0 
z
" style="fill: #ffffff"/>
  </g>
  <g id="axes_1">
   <g id="patch_2">
    <path d="M 30.832187 133.395622 
L 231.244299 133.395622 
L 231.244299 22.038594 
L 30.832187 22.038594 
z
" style="fill: #ffffff"/>
   </g>
   <g id="patch_3">
    <path d="M 30.832187 133.395622 
L 30.832187 133.395622 
L 34.922231 133.395622 
L 34.922231 133.395622 
L 39.012274 133.395622 
L 39.012274 133.395622 
L 43.102317 133.395622 
L 43.102317 133.371442 
L 47.19236 133.371442 
L 47.19236 131.84809 
L 51.282403 131.84809 
L 51.282403 123.844447 
L 55.372446 123.844447 
L 55.372446 96.545013 
L 59.462489 96.545013 
L 59.462489 52.682148 
L 63.552532 52.682148 
L 63.552532 27.341309 
L 67.642575 27.341309 
L 67.642575 30.871617 
L 71.732618 30.871617 
L 71.732618 63.563234 
L 75.822661 63.563234 
L 75.822661 92.240939 
L 79.912704 92.240939 
L 79.912704 113.737128 
L 84.002748 113.737128 
L 84.002748 123.916988 
L 88.092791 123.916988 
L 88.092791 129.478432 
L 92.182834 129.478432 
L 92.182834 131.944811 
L 96.272877 131.944811 
L 96.272877 132.887838 
L 100.36292 132.887838 
L 100.36292 133.202181 
L 104.452963 133.202181 
L 104.452963 133.298902 
L 108.543006 133.298902 
L 108.543006 133.347262 
L 112.633049 133.347262 
L 112.633049 133.395622 
L 116.723092 133.395622 
L 116.723092 133.395622 
L 120.813135 133.395622 
L 120.813135 133.395622 
L 124.903178 133.395622 
L 124.903178 133.395622 
L 128.993221 133.395622 
L 128.993221 133.395622 
L 133.083265 133.395622 
L 133.083265 133.395622 
L 137.173308 133.395622 
L 137.173308 133.395622 
L 141.263351 133.395622 
L 141.263351 133.395622 
L 145.353394 133.395622 
L 145.353394 133.395622 
L 149.443437 133.395622 
L 149.443437 133.395622 
L 153.53348 133.395622 
L 153.53348 133.395622 
L 157.623523 133.395622 
L 157.623523 133.395622 
L 161.713566 133.395622 
L 161.713566 133.395622 
L 165.803609 133.395622 
L 165.803609 133.395622 
L 169.893652 133.395622 
L 169.893652 133.395622 
L 173.983695 133.395622 
L 173.983695 133.395622 
L 178.073738 133.395622 
L 178.073738 133.395622 
L 182.163782 133.395622 
L 182.163782 133.395622 
L 186.253825 133.395622 
L 186.253825 133.395622 
L 190.343868 133.395622 
L 190.343868 133.395622 
L 194.433911 133.395622 
L 194.433911 133.395622 
L 198.523954 133.395622 
L 198.523954 133.395622 
L 202.613997 133.395622 
L 202.613997 133.395622 
L 206.70404 133.395622 
L 206.70404 133.395622 
L 210.794083 133.395622 
L 210.794083 133.395622 
L 214.884126 133.395622 
L 214.884126 133.395622 
L 218.974169 133.395622 
L 218.974169 133.395622 
L 223.064212 133.395622 
L 223.064212 133.395622 
L 227.154255 133.395622 
L 227.154255 133.395622 
L 231.244299 133.395622 
L 231.244299 133.395622 
L 227.154255 133.395622 
L 227.154255 133.395622 
L 223.064212 133.395622 
L 223.064212 133.395622 
L 218.974169 133.395622 
L 218.974169 133.395622 
L 214.884126 133.395622 
L 214.884126 133.395622 
L 210.794083 133.395622 
L 210.794083 133.395622 
L 206.70404 133.395622 
L 206.70404 133.395622 
L 202.613997 133.395622 
L 202.613997 133.395622 
L 198.523954 133.395622 
L 198.523954 133.395622 
L 194.433911 133.395622 
L 194.433911 133.395622 
L 190.343868 133.395622 
L 190.343868 133.395622 
L 186.253825 133.395622 
L 186.253825 133.395622 
L 182.163782 133.395622 
L 182.163782 133.395622 
L 178.073738 133.395622 
L 178.073738 133.395622 
L 173.983695 133.395622 
L 173.983695 133.395622 
L 169.893652 133.395622 
L 169.893652 133.395622 
L 165.803609 133.395622 
L 165.803609 133.395622 
L 161.713566 133.395622 
L 161.713566 133.395622 
L 157.623523 133.395622 
L 157.623523 133.395622 
L 153.53348 133.395622 
L 153.53348 133.395622 
L 149.443437 133.395622 
L 149.443437 133.395622 
L 145.353394 133.395622 
L 145.353394 133.395622 
L 141.263351 133.395622 
L 141.263351 133.395622 
L 137.173308 133.395622 
L 137.173308 133.395622 
L 133.083265 133.395622 
L 133.083265 133.395622 
L 128.993221 133.395622 
L 128.993221 133.395622 
L 124.903178 133.395622 
L 124.903178 133.395622 
L 120.813135 133.395622 
L 120.813135 133.395622 
L 116.723092 133.395622 
L 116.723092 133.395622 
L 112.633049 133.395622 
L 112.633049 133.395622 
L 108.543006 133.395622 
L 108.543006 133.395622 
L 104.452963 133.395622 
L 104.452963 133.395622 
L 100.36292 133.395622 
L 100.36292 133.395622 
L 96.272877 133.395622 
L 96.272877 133.395622 
L 92.182834 133.395622 
L 92.182834 133.395622 
L 88.092791 133.395622 
L 88.092791 133.395622 
L 84.002748 133.395622 
L 84.002748 133.395622 
L 79.912704 133.395622 
L 79.912704 133.395622 
L 75.822661 133.395622 
L 75.822661 133.395622 
L 71.732618 133.395622 
L 71.732618 133.395622 
L 67.642575 133.395622 
L 67.642575 133.395622 
L 63.552532 133.395622 
L 63.552532 133.395622 
L 59.462489 133.395622 
L 59.462489 133.395622 
L 55.372446 133.395622 
L 55.372446 133.395622 
L 51.282403 133.395622 
L 51.282403 133.395622 
L 47.19236 133.395622 
L 47.19236 133.395622 
L 43.102317 133.395622 
L 43.102317 133.395622 
L 39.012274 133.395622 
L 39.012274 133.395622 
L 34.922231 133.395622 
L 34.922231 133.395622 
z
" clip-path="url(#pad2947a604)" style="fill: #005ea8; opacity: 0.5"/>
   </g>
   <g id="patch_4">
    <path d="M 30.832187 133.395622 
L 30.832187 133.395622 
L 34.922231 133.395622 
L 34.922231 133.395622 
L 39.012274 133.395622 
L 39.012274 133.395622 
L 43.102317 133.395622 
L 43.102317 133.395622 
L 47.19236 133.395622 
L 47.19236 133.395622 
L 51.282403 133.395622 
L 51.282403 133.395622 
L 55.372446 133.395622 
L 55.372446 133.395622 
L 59.462489 133.395622 
L 59.462489 133.178001 
L 63.552532 133.178001 
L 63.552532 131.678829 
L 67.642575 131.678829 
L 67.642575 128.849747 
L 71.732618 128.849747 
L 71.732618 122.707978 
L 75.822661 122.707978 
L 75.822661 112.939182 
L 79.912704 112.939182 
L 79.912704 100.341303 
L 84.002748 100.341303 
L 84.002748 85.011062 
L 88.092791 85.011062 
L 88.092791 74.903743 
L 92.182834 74.903743 
L 92.182834 76.547996 
L 96.272877 76.547996 
L 96.272877 76.741437 
L 100.36292 76.741437 
L 100.36292 82.20616 
L 104.452963 82.20616 
L 104.452963 91.854056 
L 108.543006 91.854056 
L 108.543006 102.5417 
L 112.633049 102.5417 
L 112.633049 111.41583 
L 116.723092 111.41583 
L 116.723092 117.82358 
L 120.813135 117.82358 
L 120.813135 122.998141 
L 124.903178 122.998141 
L 124.903178 126.431728 
L 128.993221 126.431728 
L 128.993221 128.583765 
L 133.083265 128.583765 
L 133.083265 129.599333 
L 137.173308 129.599333 
L 137.173308 131.412847 
L 141.263351 131.412847 
L 141.263351 132.234973 
L 145.353394 132.234973 
L 145.353394 132.500955 
L 149.443437 132.500955 
L 149.443437 133.0571 
L 153.53348 133.0571 
L 153.53348 133.178001 
L 157.623523 133.178001 
L 157.623523 133.12964 
L 161.713566 133.12964 
L 161.713566 133.250541 
L 165.803609 133.250541 
L 165.803609 133.178001 
L 169.893652 133.178001 
L 169.893652 133.298902 
L 173.983695 133.298902 
L 173.983695 133.323082 
L 178.073738 133.323082 
L 178.073738 133.371442 
L 182.163782 133.371442 
L 182.163782 133.395622 
L 186.253825 133.395622 
L 186.253825 133.371442 
L 190.343868 133.371442 
L 190.343868 133.395622 
L 194.433911 133.395622 
L 194.433911 133.395622 
L 198.523954 133.395622 
L 198.523954 133.395622 
L 202.613997 133.395622 
L 202.613997 133.395622 
L 206.70404 133.395622 
L 206.70404 133.395622 
L 210.794083 133.395622 
L 210.794083 133.395622 
L 214.884126 133.395622 
L 214.884126 133.395622 
L 218.974169 133.395622 
L 218.974169 133.395622 
L 223.064212 133.395622 
L 223.064212 133.395622 
L 227.154255 133.395622 
L 227.154255 133.395622 
L 231.244299 133.395622 
L 231.244299 133.395622 
L 227.154255 133.395622 
L 227.154255 133.395622 
L 223.064212 133.395622 
L 223.064212 133.395622 
L 218.974169 133.395622 
L 218.974169 133.395622 
L 214.884126 133.395622 
L 214.884126 133.395622 
L 210.794083 133.395622 
L 210.794083 133.395622 
L 206.70404 133.395622 
L 206.70404 133.395622 
L 202.613997 133.395622 
L 202.613997 133.395622 
L 198.523954 133.395622 
L 198.523954 133.395622 
L 194.433911 133.395622 
L 194.433911 133.395622 
L 190.343868 133.395622 
L 190.343868 133.395622 
L 186.253825 133.395622 
L 186.253825 133.395622 
L 182.163782 133.395622 
L 182.163782 133.395622 
L 178.073738 133.395622 
L 178.073738 133.395622 
L 173.983695 133.395622 
L 173.983695 133.395622 
L 169.893652 133.395622 
L 169.893652 133.395622 
L 165.803609 133.395622 
L 165.803609 133.395622 
L 161.713566 133.395622 
L 161.713566 133.395622 
L 157.623523 133.395622 
L 157.623523 133.395622 
L 153.53348 133.395622 
L 153.53348 133.395622 
L 149.443437 133.395622 
L 149.443437 133.395622 
L 145.353394 133.395622 
L 145.353394 133.395622 
L 141.263351 133.395622 
L 141.263351 133.395622 
L 137.173308 133.395622 
L 137.173308 133.395622 
L 133.083265 133.395622 
L 133.083265 133.395622 
L 128.993221 133.395622 
L 128.993221 133.395622 
L 124.903178 133.395622 
L 124.903178 133.395622 
L 120.813135 133.395622 
L 120.813135 133.395622 
L 116.723092 133.395622 
L 116.723092 133.395622 
L 112.633049 133.395622 
L 112.633049 133.395622 
L 108.543006 133.395622 
L 108.543006 133.395622 
L 104.452963 133.395622 
L 104.452963 133.395622 
L 100.36292 133.395622 
L 100.36292 133.395622 
L 96.272877 133.395622 
L 96.272877 133.395622 
L 92.182834 133.395622 
L 92.182834 133.395622 
L 88.092791 133.395622 
L 88.092791 133.395622 
L 84.002748 133.395622 
L 84.002748 133.395622 
L 79.912704 133.395622 
L 79.912704 133.395622 
L 75.822661 133.395622 
L 75.822661 133.395622 
L 71.732618 133.395622 
L 71.732618 133.395622 
L 67.642575 133.395622 
L 67.642575 133.395622 
L 63.552532 133.395622 
L 63.552532 133.395622 
L 59.462489 133.395622 
L 59.462489 133.395622 
L 55.372446 133.395622 
L 55.372446 133.395622 
L 51.282403 133.395622 
L 51.282403 133.395622 
L 47.19236 133.395622 
L 47.19236 133.395622 
L 43.102317 133.395622 
L 43.102317 133.395622 
L 39.012274 133.395622 
L 39.012274 133.395622 
L 34.922231 133.395622 
L 34.922231 133.395622 
z
" clip-path="url(#pad2947a604)" style="fill: #f17900; opacity: 0.5"/>
   </g>
   <g id="matplotlib.axis_1">
    <g id="xtick_1">
     <g id="line2d_1">
      <path d="M 30.832187 133.395622 
L 30.832187 22.038594 
" clip-path="url(#pad2947a604)" style="fill: none; stroke: #000000; stroke-opacity: 0.1; stroke-width: 0.5; stroke-linecap: square"/>
     </g>
     <g id="line2d_2">
      <defs>
       <path id="m6e37afdfbe" d="M 0 0 
L 0 -3 
" style="stroke: #000000; stroke-width: 0.5"/>
      </defs>
      <g>
       <use xlink:href="#m6e37afdfbe" x="30.832187" y="133.395622" style="stroke: #000000; stroke-width: 0.5"/>
      </g>
     </g>
     <g id="text_1">
      <!-- 0 -->
      <g transform="translate(28.605313 140.214529)scale(0.07 -0.07)">
       <defs>
        <path id="DejaVuSans-30" d="M 2034 4250 
Q 1547 4250 1301 3770 
Q 1056 3291 1056 2328 
Q 1056 1369 1301 889 
Q 1547 409 2034 409 
Q 2525 409 2770 889 
Q 3016 1369 3016 2328 
Q 3016 3291 2770 3770 
Q 2525 4250 2034 4250 
z
M 2034 4750 
Q 2819 4750 3233 4129 
Q 3647 3509 3647 2328 
Q 3647 1150 3233 529 
Q 2819 -91 2034 -91 
Q 1250 -91 836 529 
Q 422 1150 422 2328 
Q 422 3509 836 4129 
Q 1250 4750 2034 4750 
z
" transform="scale(0.015625)"/>
       </defs>
       <use xlink:href="#DejaVuSans-30"/>
      </g>
     </g>
    </g>
    <g id="xtick_2">
     <g id="line2d_3">
      <path d="M 70.91461 133.395622 
L 70.91461 22.038594 
" clip-path="url(#pad2947a604)" style="fill: none; stroke: #000000; stroke-opacity: 0.1; stroke-width: 0.5; stroke-linecap: square"/>
     </g>
     <g id="line2d_4">
      <g>
       <use xlink:href="#m6e37afdfbe" x="70.91461" y="133.395622" style="stroke: #000000; stroke-width: 0.5"/>
      </g>
     </g>
     <g id="text_2">
      <!-- 5 -->
      <g transform="translate(68.687735 140.214529)scale(0.07 -0.07)">
       <defs>
        <path id="DejaVuSans-35" d="M 691 4666 
L 3169 4666 
L 3169 4134 
L 1269 4134 
L 1269 2991 
Q 1406 3038 1543 3061 
Q 1681 3084 1819 3084 
Q 2600 3084 3056 2656 
Q 3513 2228 3513 1497 
Q 3513 744 3044 326 
Q 2575 -91 1722 -91 
Q 1428 -91 1123 -41 
Q 819 9 494 109 
L 494 744 
Q 775 591 1075 516 
Q 1375 441 1709 441 
Q 2250 441 2565 725 
Q 2881 1009 2881 1497 
Q 2881 1984 2565 2268 
Q 2250 2553 1709 2553 
Q 1456 2553 1204 2497 
Q 953 2441 691 2322 
L 691 4666 
z
" transform="scale(0.015625)"/>
       </defs>
       <use xlink:href="#DejaVuSans-35"/>
      </g>
     </g>
    </g>
    <g id="xtick_3">
     <g id="line2d_5">
      <path d="M 110.997032 133.395622 
L 110.997032 22.038594 
" clip-path="url(#pad2947a604)" style="fill: none; stroke: #000000; stroke-opacity: 0.1; stroke-width: 0.5; stroke-linecap: square"/>
     </g>
     <g id="line2d_6">
      <g>
       <use xlink:href="#m6e37afdfbe" x="110.997032" y="133.395622" style="stroke: #000000; stroke-width: 0.5"/>
      </g>
     </g>
     <g id="text_3">
      <!-- 10 -->
      <g transform="translate(106.543282 140.214529)scale(0.07 -0.07)">
       <defs>
        <path id="DejaVuSans-31" d="M 794 531 
L 1825 531 
L 1825 4091 
L 703 3866 
L 703 4441 
L 1819 4666 
L 2450 4666 
L 2450 531 
L 3481 531 
L 3481 0 
L 794 0 
L 794 531 
z
" transform="scale(0.015625)"/>
       </defs>
       <use xlink:href="#DejaVuSans-31"/>
       <use xlink:href="#DejaVuSans-30" x="63.623047"/>
      </g>
     </g>
    </g>
    <g id="xtick_4">
     <g id="line2d_7">
      <path d="M 151.079454 133.395622 
L 151.079454 22.038594 
" clip-path="url(#pad2947a604)" style="fill: none; stroke: #000000; stroke-opacity: 0.1; stroke-width: 0.5; stroke-linecap: square"/>
     </g>
     <g id="line2d_8">
      <g>
       <use xlink:href="#m6e37afdfbe" x="151.079454" y="133.395622" style="stroke: #000000; stroke-width: 0.5"/>
      </g>
     </g>
     <g id="text_4">
      <!-- 15 -->
      <g transform="translate(146.625704 140.214529)scale(0.07 -0.07)">
       <use xlink:href="#DejaVuSans-31"/>
       <use xlink:href="#DejaVuSans-35" x="63.623047"/>
      </g>
     </g>
    </g>
    <g id="xtick_5">
     <g id="line2d_9">
      <path d="M 191.161876 133.395622 
L 191.161876 22.038594 
" clip-path="url(#pad2947a604)" style="fill: none; stroke: #000000; stroke-opacity: 0.1; stroke-width: 0.5; stroke-linecap: square"/>
     </g>
     <g id="line2d_10">
      <g>
       <use xlink:href="#m6e37afdfbe" x="191.161876" y="133.395622" style="stroke: #000000; stroke-width: 0.5"/>
      </g>
     </g>
     <g id="text_5">
      <!-- 20 -->
      <g transform="translate(186.708126 140.214529)scale(0.07 -0.07)">
       <defs>
        <path id="DejaVuSans-32" d="M 1228 531 
L 3431 531 
L 3431 0 
L 469 0 
L 469 531 
Q 828 903 1448 1529 
Q 2069 2156 2228 2338 
Q 2531 2678 2651 2914 
Q 2772 3150 2772 3378 
Q 2772 3750 2511 3984 
Q 2250 4219 1831 4219 
Q 1534 4219 1204 4116 
Q 875 4013 500 3803 
L 500 4441 
Q 881 4594 1212 4672 
Q 1544 4750 1819 4750 
Q 2544 4750 2975 4387 
Q 3406 4025 3406 3419 
Q 3406 3131 3298 2873 
Q 3191 2616 2906 2266 
Q 2828 2175 2409 1742 
Q 1991 1309 1228 531 
z
" transform="scale(0.015625)"/>
       </defs>
       <use xlink:href="#DejaVuSans-32"/>
       <use xlink:href="#DejaVuSans-30" x="63.623047"/>
      </g>
     </g>
    </g>
    <g id="xtick_6">
     <g id="line2d_11">
      <path d="M 231.244299 133.395622 
L 231.244299 22.038594 
" clip-path="url(#pad2947a604)" style="fill: none; stroke: #000000; stroke-opacity: 0.1; stroke-width: 0.5; stroke-linecap: square"/>
     </g>
     <g id="line2d_12">
      <g>
       <use xlink:href="#m6e37afdfbe" x="231.244299" y="133.395622" style="stroke: #000000; stroke-width: 0.5"/>
      </g>
     </g>
     <g id="text_6">
      <!-- 25 -->
      <g transform="translate(226.790549 140.214529)scale(0.07 -0.07)">
       <use xlink:href="#DejaVuSans-32"/>
       <use xlink:href="#DejaVuSans-35" x="63.623047"/>
      </g>
     </g>
    </g>
    <g id="text_7">
     <!-- risk $R$ [%] -->
     <g transform="translate(108.898243 150.508904)scale(0.09 -0.09)">
      <defs>
       <path id="DejaVuSans-72" d="M 2631 2963 
Q 2534 3019 2420 3045 
Q 2306 3072 2169 3072 
Q 1681 3072 1420 2755 
Q 1159 2438 1159 1844 
L 1159 0 
L 581 0 
L 581 3500 
L 1159 3500 
L 1159 2956 
Q 1341 3275 1631 3429 
Q 1922 3584 2338 3584 
Q 2397 3584 2469 3576 
Q 2541 3569 2628 3553 
L 2631 2963 
z
" transform="scale(0.015625)"/>
       <path id="DejaVuSans-69" d="M 603 3500 
L 1178 3500 
L 1178 0 
L 603 0 
L 603 3500 
z
M 603 4863 
L 1178 4863 
L 1178 4134 
L 603 4134 
L 603 4863 
z
" transform="scale(0.015625)"/>
       <path id="DejaVuSans-73" d="M 2834 3397 
L 2834 2853 
Q 2591 2978 2328 3040 
Q 2066 3103 1784 3103 
Q 1356 3103 1142 2972 
Q 928 2841 928 2578 
Q 928 2378 1081 2264 
Q 1234 2150 1697 2047 
L 1894 2003 
Q 2506 1872 2764 1633 
Q 3022 1394 3022 966 
Q 3022 478 2636 193 
Q 2250 -91 1575 -91 
Q 1294 -91 989 -36 
Q 684 19 347 128 
L 347 722 
Q 666 556 975 473 
Q 1284 391 1588 391 
Q 1994 391 2212 530 
Q 2431 669 2431 922 
Q 2431 1156 2273 1281 
Q 2116 1406 1581 1522 
L 1381 1569 
Q 847 1681 609 1914 
Q 372 2147 372 2553 
Q 372 3047 722 3315 
Q 1072 3584 1716 3584 
Q 2034 3584 2315 3537 
Q 2597 3491 2834 3397 
z
" transform="scale(0.015625)"/>
       <path id="DejaVuSans-6b" d="M 581 4863 
L 1159 4863 
L 1159 1991 
L 2875 3500 
L 3609 3500 
L 1753 1863 
L 3688 0 
L 2938 0 
L 1159 1709 
L 1159 0 
L 581 0 
L 581 4863 
z
" transform="scale(0.015625)"/>
       <path id="DejaVuSans-20" transform="scale(0.015625)"/>
       <path id="Cmmi10-52" d="M 313 0 
Q 250 0 250 84 
Q 253 100 262 139 
Q 272 178 289 201 
Q 306 225 331 225 
Q 722 225 878 269 
Q 959 297 997 441 
L 1875 3956 
Q 1888 4019 1888 4044 
Q 1888 4113 1813 4122 
Q 1691 4147 1350 4147 
Q 1288 4147 1288 4231 
Q 1291 4247 1300 4286 
Q 1309 4325 1326 4348 
Q 1344 4372 1369 4372 
L 3309 4372 
Q 3541 4372 3791 4319 
Q 4041 4266 4250 4152 
Q 4459 4038 4593 3848 
Q 4728 3659 4728 3406 
Q 4728 3084 4515 2831 
Q 4303 2578 3978 2408 
Q 3653 2238 3347 2169 
Q 3597 2078 3756 1879 
Q 3916 1681 3916 1422 
Q 3916 1388 3914 1370 
Q 3913 1353 3909 1331 
L 3859 763 
Q 3853 638 3847 550 
Q 3841 463 3841 409 
Q 3841 234 3892 129 
Q 3944 25 4097 25 
Q 4297 25 4448 211 
Q 4600 397 4647 616 
Q 4675 672 4709 672 
L 4769 672 
Q 4831 672 4831 588 
Q 4784 403 4682 237 
Q 4581 72 4426 -34 
Q 4272 -141 4091 -141 
Q 3716 -141 3452 26 
Q 3188 194 3188 550 
Q 3188 684 3213 788 
L 3353 1356 
Q 3378 1434 3378 1538 
Q 3378 1803 3198 1954 
Q 3019 2106 2747 2106 
L 1959 2106 
L 1538 416 
Q 1522 363 1522 325 
Q 1522 259 1600 250 
Q 1722 225 2059 225 
Q 2125 225 2125 141 
Q 2103 50 2090 25 
Q 2078 0 2016 0 
L 313 0 
z
M 1997 2272 
L 2706 2272 
Q 3403 2272 3756 2625 
Q 3919 2788 4014 3039 
Q 4109 3291 4109 3541 
Q 4109 3778 3970 3912 
Q 3831 4047 3626 4097 
Q 3422 4147 3175 4147 
L 2747 4147 
Q 2572 4147 2515 4117 
Q 2459 4088 2413 3928 
L 1997 2272 
z
" transform="scale(0.015625)"/>
       <path id="DejaVuSans-5b" d="M 550 4863 
L 1875 4863 
L 1875 4416 
L 1125 4416 
L 1125 -397 
L 1875 -397 
L 1875 -844 
L 550 -844 
L 550 4863 
z
" transform="scale(0.015625)"/>
       <path id="DejaVuSans-25" d="M 4653 2053 
Q 4381 2053 4226 1822 
Q 4072 1591 4072 1178 
Q 4072 772 4226 539 
Q 4381 306 4653 306 
Q 4919 306 5073 539 
Q 5228 772 5228 1178 
Q 5228 1588 5073 1820 
Q 4919 2053 4653 2053 
z
M 4653 2450 
Q 5147 2450 5437 2106 
Q 5728 1763 5728 1178 
Q 5728 594 5436 251 
Q 5144 -91 4653 -91 
Q 4153 -91 3862 251 
Q 3572 594 3572 1178 
Q 3572 1766 3864 2108 
Q 4156 2450 4653 2450 
z
M 1428 4353 
Q 1159 4353 1004 4120 
Q 850 3888 850 3481 
Q 850 3069 1003 2837 
Q 1156 2606 1428 2606 
Q 1700 2606 1854 2837 
Q 2009 3069 2009 3481 
Q 2009 3884 1853 4118 
Q 1697 4353 1428 4353 
z
M 4250 4750 
L 4750 4750 
L 1831 -91 
L 1331 -91 
L 4250 4750 
z
M 1428 4750 
Q 1922 4750 2215 4408 
Q 2509 4066 2509 3481 
Q 2509 2891 2217 2550 
Q 1925 2209 1428 2209 
Q 931 2209 642 2551 
Q 353 2894 353 3481 
Q 353 4063 643 4406 
Q 934 4750 1428 4750 
z
" transform="scale(0.015625)"/>
       <path id="DejaVuSans-5d" d="M 1947 4863 
L 1947 -844 
L 622 -844 
L 622 -397 
L 1369 -397 
L 1369 4416 
L 622 4416 
L 622 4863 
L 1947 4863 
z
" transform="scale(0.015625)"/>
      </defs>
      <use xlink:href="#DejaVuSans-72" transform="translate(0 0.015625)"/>
      <use xlink:href="#DejaVuSans-69" transform="translate(41.113281 0.015625)"/>
      <use xlink:href="#DejaVuSans-73" transform="translate(68.896484 0.015625)"/>
      <use xlink:href="#DejaVuSans-6b" transform="translate(120.996094 0.015625)"/>
      <use xlink:href="#DejaVuSans-20" transform="translate(178.90625 0.015625)"/>
      <use xlink:href="#Cmmi10-52" transform="translate(210.693359 0.015625)"/>
      <use xlink:href="#DejaVuSans-20" transform="translate(286.572266 0.015625)"/>
      <use xlink:href="#DejaVuSans-5b" transform="translate(318.359375 0.015625)"/>
      <use xlink:href="#DejaVuSans-25" transform="translate(357.373047 0.015625)"/>
      <use xlink:href="#DejaVuSans-5d" transform="translate(452.392578 0.015625)"/>
     </g>
    </g>
   </g>
   <g id="matplotlib.axis_2">
    <g id="ytick_1">
     <g id="line2d_13">
      <path d="M 30.832187 133.395622 
L 231.244299 133.395622 
" clip-path="url(#pad2947a604)" style="fill: none; stroke: #000000; stroke-opacity: 0.1; stroke-width: 0.5; stroke-linecap: square"/>
     </g>
     <g id="line2d_14">
      <defs>
       <path id="m86602dec3e" d="M 0 0 
L 3 0 
" style="stroke: #000000; stroke-width: 0.5"/>
      </defs>
      <g>
       <use xlink:href="#m86602dec3e" x="30.832187" y="133.395622" style="stroke: #000000; stroke-width: 0.5"/>
      </g>
     </g>
     <g id="text_8">
      <!-- 0.0 -->
      <g transform="translate(18.2 136.055075)scale(0.07 -0.07)">
       <defs>
        <path id="DejaVuSans-2e" d="M 684 794 
L 1344 794 
L 1344 0 
L 684 0 
L 684 794 
z
" transform="scale(0.015625)"/>
       </defs>
       <use xlink:href="#DejaVuSans-30"/>
       <use xlink:href="#DejaVuSans-2e" x="63.623047"/>
       <use xlink:href="#DejaVuSans-30" x="95.410156"/>
      </g>
     </g>
    </g>
    <g id="ytick_2">
     <g id="line2d_15">
      <path d="M 30.832187 108.721959 
L 231.244299 108.721959 
" clip-path="url(#pad2947a604)" style="fill: none; stroke: #000000; stroke-opacity: 0.1; stroke-width: 0.5; stroke-linecap: square"/>
     </g>
     <g id="line2d_16">
      <g>
       <use xlink:href="#m86602dec3e" x="30.832187" y="108.721959" style="stroke: #000000; stroke-width: 0.5"/>
      </g>
     </g>
     <g id="text_9">
      <!-- 0.1 -->
      <g transform="translate(18.2 111.381412)scale(0.07 -0.07)">
       <use xlink:href="#DejaVuSans-30"/>
       <use xlink:href="#DejaVuSans-2e" x="63.623047"/>
       <use xlink:href="#DejaVuSans-31" x="95.410156"/>
      </g>
     </g>
    </g>
    <g id="ytick_3">
     <g id="line2d_17">
      <path d="M 30.832187 84.048296 
L 231.244299 84.048296 
" clip-path="url(#pad2947a604)" style="fill: none; stroke: #000000; stroke-opacity: 0.1; stroke-width: 0.5; stroke-linecap: square"/>
     </g>
     <g id="line2d_18">
      <g>
       <use xlink:href="#m86602dec3e" x="30.832187" y="84.048296" style="stroke: #000000; stroke-width: 0.5"/>
      </g>
     </g>
     <g id="text_10">
      <!-- 0.2 -->
      <g transform="translate(18.2 86.707749)scale(0.07 -0.07)">
       <use xlink:href="#DejaVuSans-30"/>
       <use xlink:href="#DejaVuSans-2e" x="63.623047"/>
       <use xlink:href="#DejaVuSans-32" x="95.410156"/>
      </g>
     </g>
    </g>
    <g id="ytick_4">
     <g id="line2d_19">
      <path d="M 30.832187 59.374633 
L 231.244299 59.374633 
" clip-path="url(#pad2947a604)" style="fill: none; stroke: #000000; stroke-opacity: 0.1; stroke-width: 0.5; stroke-linecap: square"/>
     </g>
     <g id="line2d_20">
      <g>
       <use xlink:href="#m86602dec3e" x="30.832187" y="59.374633" style="stroke: #000000; stroke-width: 0.5"/>
      </g>
     </g>
     <g id="text_11">
      <!-- 0.3 -->
      <g transform="translate(18.2 62.034086)scale(0.07 -0.07)">
       <defs>
        <path id="DejaVuSans-33" d="M 2597 2516 
Q 3050 2419 3304 2112 
Q 3559 1806 3559 1356 
Q 3559 666 3084 287 
Q 2609 -91 1734 -91 
Q 1441 -91 1130 -33 
Q 819 25 488 141 
L 488 750 
Q 750 597 1062 519 
Q 1375 441 1716 441 
Q 2309 441 2620 675 
Q 2931 909 2931 1356 
Q 2931 1769 2642 2001 
Q 2353 2234 1838 2234 
L 1294 2234 
L 1294 2753 
L 1863 2753 
Q 2328 2753 2575 2939 
Q 2822 3125 2822 3475 
Q 2822 3834 2567 4026 
Q 2313 4219 1838 4219 
Q 1578 4219 1281 4162 
Q 984 4106 628 3988 
L 628 4550 
Q 988 4650 1302 4700 
Q 1616 4750 1894 4750 
Q 2613 4750 3031 4423 
Q 3450 4097 3450 3541 
Q 3450 3153 3228 2886 
Q 3006 2619 2597 2516 
z
" transform="scale(0.015625)"/>
       </defs>
       <use xlink:href="#DejaVuSans-30"/>
       <use xlink:href="#DejaVuSans-2e" x="63.623047"/>
       <use xlink:href="#DejaVuSans-33" x="95.410156"/>
      </g>
     </g>
    </g>
    <g id="ytick_5">
     <g id="line2d_21">
      <path d="M 30.832187 34.70097 
L 231.244299 34.70097 
" clip-path="url(#pad2947a604)" style="fill: none; stroke: #000000; stroke-opacity: 0.1; stroke-width: 0.5; stroke-linecap: square"/>
     </g>
     <g id="line2d_22">
      <g>
       <use xlink:href="#m86602dec3e" x="30.832187" y="34.70097" style="stroke: #000000; stroke-width: 0.5"/>
      </g>
     </g>
     <g id="text_12">
      <!-- 0.4 -->
      <g transform="translate(18.2 37.360423)scale(0.07 -0.07)">
       <defs>
        <path id="DejaVuSans-34" d="M 2419 4116 
L 825 1625 
L 2419 1625 
L 2419 4116 
z
M 2253 4666 
L 3047 4666 
L 3047 1625 
L 3713 1625 
L 3713 1100 
L 3047 1100 
L 3047 0 
L 2419 0 
L 2419 1100 
L 313 1100 
L 313 1709 
L 2253 4666 
z
" transform="scale(0.015625)"/>
       </defs>
       <use xlink:href="#DejaVuSans-30"/>
       <use xlink:href="#DejaVuSans-2e" x="63.623047"/>
       <use xlink:href="#DejaVuSans-34" x="95.410156"/>
      </g>
     </g>
    </g>
    <g id="text_13">
     <!-- $p(R)$ -->
     <g transform="translate(13.95 86.897108)rotate(-90)scale(0.09 -0.09)">
      <defs>
       <path id="Cmmi10-70" d="M -159 -1241 
Q -219 -1241 -219 -1159 
Q -197 -1019 -134 -1019 
Q 66 -1019 145 -983 
Q 225 -947 269 -800 
L 991 2081 
Q 1038 2200 1038 2388 
Q 1038 2663 850 2663 
Q 650 2663 553 2423 
Q 456 2184 366 1819 
Q 366 1778 313 1778 
L 238 1778 
Q 222 1778 203 1801 
Q 184 1825 184 1844 
Q 253 2122 317 2315 
Q 381 2509 517 2668 
Q 653 2828 856 2828 
Q 1075 2828 1240 2704 
Q 1406 2581 1453 2369 
Q 1628 2572 1840 2700 
Q 2053 2828 2278 2828 
Q 2547 2828 2745 2684 
Q 2944 2541 3044 2308 
Q 3144 2075 3144 1806 
Q 3144 1394 2933 953 
Q 2722 513 2361 220 
Q 2000 -72 1588 -72 
Q 1400 -72 1248 34 
Q 1097 141 1013 313 
L 722 -825 
Q 706 -919 703 -934 
Q 703 -1019 1125 -1019 
Q 1191 -1019 1191 -1100 
Q 1169 -1184 1155 -1212 
Q 1141 -1241 1081 -1241 
L -159 -1241 
z
M 1594 97 
Q 1816 97 2006 280 
Q 2197 463 2316 691 
Q 2403 863 2479 1111 
Q 2556 1359 2612 1640 
Q 2669 1922 2669 2088 
Q 2669 2234 2630 2362 
Q 2591 2491 2502 2577 
Q 2413 2663 2266 2663 
Q 2031 2663 1823 2495 
Q 1616 2328 1447 2081 
L 1447 2059 
L 1094 647 
Q 1138 419 1263 258 
Q 1388 97 1594 97 
z
" transform="scale(0.015625)"/>
       <path id="Cmr10-28" d="M 1984 -1588 
Q 1628 -1306 1370 -942 
Q 1113 -578 948 -165 
Q 784 247 703 697 
Q 622 1147 622 1600 
Q 622 2059 703 2509 
Q 784 2959 951 3375 
Q 1119 3791 1378 4153 
Q 1638 4516 1984 4788 
Q 1984 4800 2016 4800 
L 2075 4800 
Q 2094 4800 2109 4783 
Q 2125 4766 2125 4744 
Q 2125 4716 2113 4703 
Q 1800 4397 1592 4047 
Q 1384 3697 1257 3301 
Q 1131 2906 1075 2482 
Q 1019 2059 1019 1600 
Q 1019 -434 2106 -1491 
Q 2125 -1509 2125 -1544 
Q 2125 -1559 2108 -1579 
Q 2091 -1600 2075 -1600 
L 2016 -1600 
Q 1984 -1600 1984 -1588 
z
" transform="scale(0.015625)"/>
       <path id="Cmr10-29" d="M 416 -1600 
Q 359 -1600 359 -1544 
Q 359 -1516 372 -1503 
Q 1466 -434 1466 1600 
Q 1466 3634 384 4691 
Q 359 4706 359 4744 
Q 359 4766 376 4783 
Q 394 4800 416 4800 
L 475 4800 
Q 494 4800 506 4788 
Q 966 4425 1272 3906 
Q 1578 3388 1720 2800 
Q 1863 2213 1863 1600 
Q 1863 1147 1786 708 
Q 1709 269 1542 -157 
Q 1375 -584 1119 -945 
Q 863 -1306 506 -1588 
Q 494 -1600 475 -1600 
L 416 -1600 
z
" transform="scale(0.015625)"/>
      </defs>
      <use xlink:href="#Cmmi10-70"/>
      <use xlink:href="#Cmr10-28" transform="translate(50.292969 0)"/>
      <use xlink:href="#Cmmi10-52" transform="translate(89.111328 0)"/>
      <use xlink:href="#Cmr10-29" transform="translate(164.990234 0)"/>
     </g>
    </g>
   </g>
   <g id="patch_5">
    <path d="M 30.832187 133.395622 
L 30.832187 133.395622 
L 34.922231 133.395622 
L 34.922231 133.395622 
L 39.012274 133.395622 
L 39.012274 133.395622 
L 43.102317 133.395622 
L 43.102317 133.395622 
L 47.19236 133.395622 
L 47.19236 133.395622 
L 51.282403 133.395622 
L 51.282403 133.395622 
L 55.372446 133.395622 
L 55.372446 133.395622 
L 59.462489 133.395622 
L 59.462489 133.395622 
L 63.552532 133.395622 
L 63.552532 133.395622 
L 67.642575 133.395622 
L 67.642575 133.371442 
L 71.732618 133.371442 
L 71.732618 132.912019 
L 75.822661 132.912019 
L 75.822661 132.476775 
L 79.912704 132.476775 
L 79.912704 129.913675 
L 84.002748 129.913675 
L 84.002748 126.431728 
L 88.092791 126.431728 
L 88.092791 118.935869 
L 92.182834 118.935869 
L 92.182834 108.828549 
L 96.272877 108.828549 
L 96.272877 96.690094 
L 100.36292 96.690094 
L 100.36292 85.035243 
L 104.452963 85.035243 
L 104.452963 80.029943 
L 108.543006 80.029943 
L 108.543006 73.332031 
L 112.633049 73.332031 
L 112.633049 74.952103 
L 116.723092 74.952103 
L 116.723092 82.931566 
L 120.813135 82.931566 
L 120.813135 92.797083 
L 124.903178 92.797083 
L 124.903178 102.904403 
L 128.993221 102.904403 
L 128.993221 112.600659 
L 133.083265 112.600659 
L 133.083265 120.821924 
L 137.173308 120.821924 
L 137.173308 123.989528 
L 141.263351 123.989528 
L 141.263351 128.873927 
L 145.353394 128.873927 
L 145.353394 130.300558 
L 149.443437 130.300558 
L 149.443437 131.630468 
L 153.53348 131.630468 
L 153.53348 132.549316 
L 157.623523 132.549316 
L 157.623523 132.815298 
L 161.713566 132.815298 
L 161.713566 133.03292 
L 165.803609 133.03292 
L 165.803609 133.274721 
L 169.893652 133.274721 
L 169.893652 133.274721 
L 173.983695 133.274721 
L 173.983695 133.395622 
L 178.073738 133.395622 
L 178.073738 133.371442 
L 182.163782 133.371442 
L 182.163782 133.395622 
L 186.253825 133.395622 
L 186.253825 133.395622 
L 190.343868 133.395622 
L 190.343868 133.395622 
L 194.433911 133.395622 
L 194.433911 133.395622 
L 198.523954 133.395622 
L 198.523954 133.395622 
L 202.613997 133.395622 
L 202.613997 133.395622 
L 206.70404 133.395622 
L 206.70404 133.395622 
L 210.794083 133.395622 
L 210.794083 133.395622 
L 214.884126 133.395622 
L 214.884126 133.395622 
L 218.974169 133.395622 
L 218.974169 133.395622 
L 223.064212 133.395622 
L 223.064212 133.395622 
L 227.154255 133.395622 
L 227.154255 133.395622 
L 231.244299 133.395622 
L 231.244299 133.395622 
" clip-path="url(#pad2947a604)" style="fill: none; stroke: #005ea8; stroke-width: 1.5; stroke-linejoin: miter"/>
   </g>
   <g id="patch_6">
    <path d="M 30.832187 133.395622 
L 30.832187 133.395622 
L 34.922231 133.395622 
L 34.922231 133.395622 
L 39.012274 133.395622 
L 39.012274 133.395622 
L 43.102317 133.395622 
L 43.102317 133.395622 
L 47.19236 133.395622 
L 47.19236 133.395622 
L 51.282403 133.395622 
L 51.282403 133.395622 
L 55.372446 133.395622 
L 55.372446 133.395622 
L 59.462489 133.395622 
L 59.462489 133.395622 
L 63.552532 133.395622 
L 63.552532 133.395622 
L 67.642575 133.395622 
L 67.642575 133.395622 
L 71.732618 133.395622 
L 71.732618 133.395622 
L 75.822661 133.395622 
L 75.822661 133.395622 
L 79.912704 133.395622 
L 79.912704 133.37101 
L 84.002748 133.37101 
L 84.002748 133.24795 
L 88.092791 133.24795 
L 88.092791 133.174113 
L 92.182834 133.174113 
L 92.182834 132.55881 
L 96.272877 132.55881 
L 96.272877 132.312689 
L 100.36292 132.312689 
L 100.36292 131.008245 
L 104.452963 131.008245 
L 104.452963 129.55613 
L 108.543006 129.55613 
L 108.543006 128.842378 
L 112.633049 128.842378 
L 112.633049 125.421291 
L 116.723092 125.421291 
L 116.723092 123.009302 
L 120.813135 123.009302 
L 120.813135 118.776015 
L 124.903178 118.776015 
L 124.903178 116.610148 
L 128.993221 116.610148 
L 128.993221 111.466212 
L 133.083265 111.466212 
L 133.083265 108.389695 
L 137.173308 108.389695 
L 137.173308 106.93758 
L 141.263351 106.93758 
L 141.263351 105.067057 
L 145.353394 105.067057 
L 145.353394 105.263955 
L 149.443437 105.263955 
L 149.443437 100.587649 
L 153.53348 100.587649 
L 153.53348 104.304081 
L 157.623523 104.304081 
L 157.623523 105.436239 
L 161.713566 105.436239 
L 161.713566 106.543785 
L 165.803609 106.543785 
L 165.803609 107.995901 
L 169.893652 107.995901 
L 169.893652 110.998581 
L 173.983695 110.998581 
L 173.983695 111.712333 
L 178.073738 111.712333 
L 178.073738 116.437863 
L 182.163782 116.437863 
L 182.163782 117.3239 
L 186.253825 117.3239 
L 186.253825 119.489767 
L 190.343868 119.489767 
L 190.343868 122.64012 
L 194.433911 122.64012 
L 194.433911 124.092236 
L 198.523954 124.092236 
L 198.523954 125.002885 
L 202.613997 125.002885 
L 202.613997 126.528837 
L 206.70404 126.528837 
L 206.70404 127.537935 
L 210.794083 127.537935 
L 210.794083 128.473196 
L 214.884126 128.473196 
L 214.884126 129.802251 
L 218.974169 129.802251 
L 218.974169 130.048372 
L 223.064212 130.048372 
L 223.064212 131.05747 
L 227.154255 131.05747 
L 227.154255 131.008245 
L 231.244299 131.008245 
L 231.244299 133.395622 
" clip-path="url(#pad2947a604)" style="fill: none; stroke: #f17900; stroke-width: 1.5; stroke-linejoin: miter"/>
   </g>
   <g id="patch_7">
    <path d="M 30.832187 133.395622 
L 30.832187 22.038594 
" style="fill: none; stroke: #000000; stroke-width: 0.5; stroke-linejoin: miter; stroke-linecap: square"/>
   </g>
   <g id="patch_8">
    <path d="M 231.244299 133.395622 
L 231.244299 22.038594 
" style="fill: none; stroke: #000000; stroke-width: 0.5; stroke-linejoin: miter; stroke-linecap: square"/>
   </g>
   <g id="patch_9">
    <path d="M 30.832187 133.395622 
L 231.244299 133.395622 
" style="fill: none; stroke: #000000; stroke-width: 0.5; stroke-linejoin: miter; stroke-linecap: square"/>
   </g>
   <g id="patch_10">
    <path d="M 30.832187 22.038594 
L 231.244299 22.038594 
" style="fill: none; stroke: #000000; stroke-width: 0.5; stroke-linejoin: miter; stroke-linecap: square"/>
   </g>
   <g id="text_14">
    <!-- III -->
    <g transform="translate(127.055743 14.038594)scale(0.09 -0.09)">
     <defs>
      <path id="DejaVuSans-49" d="M 628 4666 
L 1259 4666 
L 1259 0 
L 628 0 
L 628 4666 
z
" transform="scale(0.015625)"/>
     </defs>
     <use xlink:href="#DejaVuSans-49"/>
     <use xlink:href="#DejaVuSans-49" x="29.492188"/>
     <use xlink:href="#DejaVuSans-49" x="58.984375"/>
    </g>
   </g>
   <g id="legend_1">
    <g id="patch_11">
     <path d="M 79.402267 58.438594 
L 226.344299 58.438594 
Q 227.744299 58.438594 227.744299 57.038594 
L 227.744299 26.938594 
Q 227.744299 25.538594 226.344299 25.538594 
L 79.402267 25.538594 
Q 78.002267 25.538594 78.002267 26.938594 
L 78.002267 57.038594 
Q 78.002267 58.438594 79.402267 58.438594 
z
" style="fill: #ffffff; opacity: 0.8; stroke: #cccccc; stroke-linejoin: miter"/>
    </g>
    <g id="patch_12">
     <path d="M 79.402267 32.288125 
L 93.402267 32.288125 
L 93.402267 27.388125 
L 79.402267 27.388125 
z
" style="fill: #005ea8; opacity: 0.5"/>
    </g>
    <g id="text_15">
     <!-- early | no observed involvement -->
     <g transform="translate(99.002267 32.288125)scale(0.07 -0.07)">
      <defs>
       <path id="DejaVuSans-65" d="M 3597 1894 
L 3597 1613 
L 953 1613 
Q 991 1019 1311 708 
Q 1631 397 2203 397 
Q 2534 397 2845 478 
Q 3156 559 3463 722 
L 3463 178 
Q 3153 47 2828 -22 
Q 2503 -91 2169 -91 
Q 1331 -91 842 396 
Q 353 884 353 1716 
Q 353 2575 817 3079 
Q 1281 3584 2069 3584 
Q 2775 3584 3186 3129 
Q 3597 2675 3597 1894 
z
M 3022 2063 
Q 3016 2534 2758 2815 
Q 2500 3097 2075 3097 
Q 1594 3097 1305 2825 
Q 1016 2553 972 2059 
L 3022 2063 
z
" transform="scale(0.015625)"/>
       <path id="DejaVuSans-61" d="M 2194 1759 
Q 1497 1759 1228 1600 
Q 959 1441 959 1056 
Q 959 750 1161 570 
Q 1363 391 1709 391 
Q 2188 391 2477 730 
Q 2766 1069 2766 1631 
L 2766 1759 
L 2194 1759 
z
M 3341 1997 
L 3341 0 
L 2766 0 
L 2766 531 
Q 2569 213 2275 61 
Q 1981 -91 1556 -91 
Q 1019 -91 701 211 
Q 384 513 384 1019 
Q 384 1609 779 1909 
Q 1175 2209 1959 2209 
L 2766 2209 
L 2766 2266 
Q 2766 2663 2505 2880 
Q 2244 3097 1772 3097 
Q 1472 3097 1187 3025 
Q 903 2953 641 2809 
L 641 3341 
Q 956 3463 1253 3523 
Q 1550 3584 1831 3584 
Q 2591 3584 2966 3190 
Q 3341 2797 3341 1997 
z
" transform="scale(0.015625)"/>
       <path id="DejaVuSans-6c" d="M 603 4863 
L 1178 4863 
L 1178 0 
L 603 0 
L 603 4863 
z
" transform="scale(0.015625)"/>
       <path id="DejaVuSans-79" d="M 2059 -325 
Q 1816 -950 1584 -1140 
Q 1353 -1331 966 -1331 
L 506 -1331 
L 506 -850 
L 844 -850 
Q 1081 -850 1212 -737 
Q 1344 -625 1503 -206 
L 1606 56 
L 191 3500 
L 800 3500 
L 1894 763 
L 2988 3500 
L 3597 3500 
L 2059 -325 
z
" transform="scale(0.015625)"/>
       <path id="DejaVuSans-7c" d="M 1344 4891 
L 1344 -1509 
L 813 -1509 
L 813 4891 
L 1344 4891 
z
" transform="scale(0.015625)"/>
       <path id="DejaVuSans-6e" d="M 3513 2113 
L 3513 0 
L 2938 0 
L 2938 2094 
Q 2938 2591 2744 2837 
Q 2550 3084 2163 3084 
Q 1697 3084 1428 2787 
Q 1159 2491 1159 1978 
L 1159 0 
L 581 0 
L 581 3500 
L 1159 3500 
L 1159 2956 
Q 1366 3272 1645 3428 
Q 1925 3584 2291 3584 
Q 2894 3584 3203 3211 
Q 3513 2838 3513 2113 
z
" transform="scale(0.015625)"/>
       <path id="DejaVuSans-6f" d="M 1959 3097 
Q 1497 3097 1228 2736 
Q 959 2375 959 1747 
Q 959 1119 1226 758 
Q 1494 397 1959 397 
Q 2419 397 2687 759 
Q 2956 1122 2956 1747 
Q 2956 2369 2687 2733 
Q 2419 3097 1959 3097 
z
M 1959 3584 
Q 2709 3584 3137 3096 
Q 3566 2609 3566 1747 
Q 3566 888 3137 398 
Q 2709 -91 1959 -91 
Q 1206 -91 779 398 
Q 353 888 353 1747 
Q 353 2609 779 3096 
Q 1206 3584 1959 3584 
z
" transform="scale(0.015625)"/>
       <path id="DejaVuSans-62" d="M 3116 1747 
Q 3116 2381 2855 2742 
Q 2594 3103 2138 3103 
Q 1681 3103 1420 2742 
Q 1159 2381 1159 1747 
Q 1159 1113 1420 752 
Q 1681 391 2138 391 
Q 2594 391 2855 752 
Q 3116 1113 3116 1747 
z
M 1159 2969 
Q 1341 3281 1617 3432 
Q 1894 3584 2278 3584 
Q 2916 3584 3314 3078 
Q 3713 2572 3713 1747 
Q 3713 922 3314 415 
Q 2916 -91 2278 -91 
Q 1894 -91 1617 61 
Q 1341 213 1159 525 
L 1159 0 
L 581 0 
L 581 4863 
L 1159 4863 
L 1159 2969 
z
" transform="scale(0.015625)"/>
       <path id="DejaVuSans-76" d="M 191 3500 
L 800 3500 
L 1894 563 
L 2988 3500 
L 3597 3500 
L 2284 0 
L 1503 0 
L 191 3500 
z
" transform="scale(0.015625)"/>
       <path id="DejaVuSans-64" d="M 2906 2969 
L 2906 4863 
L 3481 4863 
L 3481 0 
L 2906 0 
L 2906 525 
Q 2725 213 2448 61 
Q 2172 -91 1784 -91 
Q 1150 -91 751 415 
Q 353 922 353 1747 
Q 353 2572 751 3078 
Q 1150 3584 1784 3584 
Q 2172 3584 2448 3432 
Q 2725 3281 2906 2969 
z
M 947 1747 
Q 947 1113 1208 752 
Q 1469 391 1925 391 
Q 2381 391 2643 752 
Q 2906 1113 2906 1747 
Q 2906 2381 2643 2742 
Q 2381 3103 1925 3103 
Q 1469 3103 1208 2742 
Q 947 2381 947 1747 
z
" transform="scale(0.015625)"/>
       <path id="DejaVuSans-6d" d="M 3328 2828 
Q 3544 3216 3844 3400 
Q 4144 3584 4550 3584 
Q 5097 3584 5394 3201 
Q 5691 2819 5691 2113 
L 5691 0 
L 5113 0 
L 5113 2094 
Q 5113 2597 4934 2840 
Q 4756 3084 4391 3084 
Q 3944 3084 3684 2787 
Q 3425 2491 3425 1978 
L 3425 0 
L 2847 0 
L 2847 2094 
Q 2847 2600 2669 2842 
Q 2491 3084 2119 3084 
Q 1678 3084 1418 2786 
Q 1159 2488 1159 1978 
L 1159 0 
L 581 0 
L 581 3500 
L 1159 3500 
L 1159 2956 
Q 1356 3278 1631 3431 
Q 1906 3584 2284 3584 
Q 2666 3584 2933 3390 
Q 3200 3197 3328 2828 
z
" transform="scale(0.015625)"/>
       <path id="DejaVuSans-74" d="M 1172 4494 
L 1172 3500 
L 2356 3500 
L 2356 3053 
L 1172 3053 
L 1172 1153 
Q 1172 725 1289 603 
Q 1406 481 1766 481 
L 2356 481 
L 2356 0 
L 1766 0 
Q 1100 0 847 248 
Q 594 497 594 1153 
L 594 3053 
L 172 3053 
L 172 3500 
L 594 3500 
L 594 4494 
L 1172 4494 
z
" transform="scale(0.015625)"/>
      </defs>
      <use xlink:href="#DejaVuSans-65"/>
      <use xlink:href="#DejaVuSans-61" x="61.523438"/>
      <use xlink:href="#DejaVuSans-72" x="122.802734"/>
      <use xlink:href="#DejaVuSans-6c" x="163.916016"/>
      <use xlink:href="#DejaVuSans-79" x="191.699219"/>
      <use xlink:href="#DejaVuSans-20" x="250.878906"/>
      <use xlink:href="#DejaVuSans-7c" x="282.666016"/>
      <use xlink:href="#DejaVuSans-20" x="316.357422"/>
      <use xlink:href="#DejaVuSans-6e" x="348.144531"/>
      <use xlink:href="#DejaVuSans-6f" x="411.523438"/>
      <use xlink:href="#DejaVuSans-20" x="472.705078"/>
      <use xlink:href="#DejaVuSans-6f" x="504.492188"/>
      <use xlink:href="#DejaVuSans-62" x="565.673828"/>
      <use xlink:href="#DejaVuSans-73" x="629.150391"/>
      <use xlink:href="#DejaVuSans-65" x="681.25"/>
      <use xlink:href="#DejaVuSans-72" x="742.773438"/>
      <use xlink:href="#DejaVuSans-76" x="783.886719"/>
      <use xlink:href="#DejaVuSans-65" x="843.066406"/>
      <use xlink:href="#DejaVuSans-64" x="904.589844"/>
      <use xlink:href="#DejaVuSans-20" x="968.066406"/>
      <use xlink:href="#DejaVuSans-69" x="999.853516"/>
      <use xlink:href="#DejaVuSans-6e" x="1027.636719"/>
      <use xlink:href="#DejaVuSans-76" x="1091.015625"/>
      <use xlink:href="#DejaVuSans-6f" x="1150.195312"/>
      <use xlink:href="#DejaVuSans-6c" x="1211.376953"/>
      <use xlink:href="#DejaVuSans-76" x="1239.160156"/>
      <use xlink:href="#DejaVuSans-65" x="1298.339844"/>
      <use xlink:href="#DejaVuSans-6d" x="1359.863281"/>
      <use xlink:href="#DejaVuSans-65" x="1457.275391"/>
      <use xlink:href="#DejaVuSans-6e" x="1518.798828"/>
      <use xlink:href="#DejaVuSans-74" x="1582.177734"/>
     </g>
    </g>
    <g id="patch_13">
     <path d="M 79.402267 39.988125 
L 93.402267 39.988125 
L 93.402267 35.088125 
L 79.402267 35.088125 
L 79.402267 39.988125 
z
" style="fill: none; stroke: #005ea8; stroke-width: 1.5; stroke-linejoin: miter"/>
    </g>
    <g id="text_16">
     <!-- early | only LNL II observed involved -->
     <g transform="translate(99.002267 39.988125)scale(0.07 -0.07)">
      <defs>
       <path id="DejaVuSans-4c" d="M 628 4666 
L 1259 4666 
L 1259 531 
L 3531 531 
L 3531 0 
L 628 0 
L 628 4666 
z
" transform="scale(0.015625)"/>
       <path id="DejaVuSans-4e" d="M 628 4666 
L 1478 4666 
L 3547 763 
L 3547 4666 
L 4159 4666 
L 4159 0 
L 3309 0 
L 1241 3903 
L 1241 0 
L 628 0 
L 628 4666 
z
" transform="scale(0.015625)"/>
      </defs>
      <use xlink:href="#DejaVuSans-65"/>
      <use xlink:href="#DejaVuSans-61" x="61.523438"/>
      <use xlink:href="#DejaVuSans-72" x="122.802734"/>
      <use xlink:href="#DejaVuSans-6c" x="163.916016"/>
      <use xlink:href="#DejaVuSans-79" x="191.699219"/>
      <use xlink:href="#DejaVuSans-20" x="250.878906"/>
      <use xlink:href="#DejaVuSans-7c" x="282.666016"/>
      <use xlink:href="#DejaVuSans-20" x="316.357422"/>
      <use xlink:href="#DejaVuSans-6f" x="348.144531"/>
      <use xlink:href="#DejaVuSans-6e" x="409.326172"/>
      <use xlink:href="#DejaVuSans-6c" x="472.705078"/>
      <use xlink:href="#DejaVuSans-79" x="500.488281"/>
      <use xlink:href="#DejaVuSans-20" x="559.667969"/>
      <use xlink:href="#DejaVuSans-4c" x="591.455078"/>
      <use xlink:href="#DejaVuSans-4e" x="647.167969"/>
      <use xlink:href="#DejaVuSans-4c" x="721.972656"/>
      <use xlink:href="#DejaVuSans-20" x="777.685547"/>
      <use xlink:href="#DejaVuSans-49" x="809.472656"/>
      <use xlink:href="#DejaVuSans-49" x="838.964844"/>
      <use xlink:href="#DejaVuSans-20" x="868.457031"/>
      <use xlink:href="#DejaVuSans-6f" x="900.244141"/>
      <use xlink:href="#DejaVuSans-62" x="961.425781"/>
      <use xlink:href="#DejaVuSans-73" x="1024.902344"/>
      <use xlink:href="#DejaVuSans-65" x="1077.001953"/>
      <use xlink:href="#DejaVuSans-72" x="1138.525391"/>
      <use xlink:href="#DejaVuSans-76" x="1179.638672"/>
      <use xlink:href="#DejaVuSans-65" x="1238.818359"/>
      <use xlink:href="#DejaVuSans-64" x="1300.341797"/>
      <use xlink:href="#DejaVuSans-20" x="1363.818359"/>
      <use xlink:href="#DejaVuSans-69" x="1395.605469"/>
      <use xlink:href="#DejaVuSans-6e" x="1423.388672"/>
      <use xlink:href="#DejaVuSans-76" x="1486.767578"/>
      <use xlink:href="#DejaVuSans-6f" x="1545.947266"/>
      <use xlink:href="#DejaVuSans-6c" x="1607.128906"/>
      <use xlink:href="#DejaVuSans-76" x="1634.912109"/>
      <use xlink:href="#DejaVuSans-65" x="1694.091797"/>
      <use xlink:href="#DejaVuSans-64" x="1755.615234"/>
     </g>
    </g>
    <g id="patch_14">
     <path d="M 79.402267 47.688125 
L 93.402267 47.688125 
L 93.402267 42.788125 
L 79.402267 42.788125 
z
" style="fill: #f17900; opacity: 0.5"/>
    </g>
    <g id="text_17">
     <!-- late | no observed involvement -->
     <g transform="translate(99.002267 47.688125)scale(0.07 -0.07)">
      <use xlink:href="#DejaVuSans-6c"/>
      <use xlink:href="#DejaVuSans-61" x="27.783203"/>
      <use xlink:href="#DejaVuSans-74" x="89.0625"/>
      <use xlink:href="#DejaVuSans-65" x="128.271484"/>
      <use xlink:href="#DejaVuSans-20" x="189.794922"/>
      <use xlink:href="#DejaVuSans-7c" x="221.582031"/>
      <use xlink:href="#DejaVuSans-20" x="255.273438"/>
      <use xlink:href="#DejaVuSans-6e" x="287.060547"/>
      <use xlink:href="#DejaVuSans-6f" x="350.439453"/>
      <use xlink:href="#DejaVuSans-20" x="411.621094"/>
      <use xlink:href="#DejaVuSans-6f" x="443.408203"/>
      <use xlink:href="#DejaVuSans-62" x="504.589844"/>
      <use xlink:href="#DejaVuSans-73" x="568.066406"/>
      <use xlink:href="#DejaVuSans-65" x="620.166016"/>
      <use xlink:href="#DejaVuSans-72" x="681.689453"/>
      <use xlink:href="#DejaVuSans-76" x="722.802734"/>
      <use xlink:href="#DejaVuSans-65" x="781.982422"/>
      <use xlink:href="#DejaVuSans-64" x="843.505859"/>
      <use xlink:href="#DejaVuSans-20" x="906.982422"/>
      <use xlink:href="#DejaVuSans-69" x="938.769531"/>
      <use xlink:href="#DejaVuSans-6e" x="966.552734"/>
      <use xlink:href="#DejaVuSans-76" x="1029.931641"/>
      <use xlink:href="#DejaVuSans-6f" x="1089.111328"/>
      <use xlink:href="#DejaVuSans-6c" x="1150.292969"/>
      <use xlink:href="#DejaVuSans-76" x="1178.076172"/>
      <use xlink:href="#DejaVuSans-65" x="1237.255859"/>
      <use xlink:href="#DejaVuSans-6d" x="1298.779297"/>
      <use xlink:href="#DejaVuSans-65" x="1396.191406"/>
      <use xlink:href="#DejaVuSans-6e" x="1457.714844"/>
      <use xlink:href="#DejaVuSans-74" x="1521.09375"/>
     </g>
    </g>
    <g id="patch_15">
     <path d="M 79.402267 55.388125 
L 93.402267 55.388125 
L 93.402267 50.488125 
L 79.402267 50.488125 
L 79.402267 55.388125 
z
" style="fill: none; stroke: #f17900; stroke-width: 1.5; stroke-linejoin: miter"/>
    </g>
    <g id="text_18">
     <!-- late | only LNL II observed involved -->
     <g transform="translate(99.002267 55.388125)scale(0.07 -0.07)">
      <use xlink:href="#DejaVuSans-6c"/>
      <use xlink:href="#DejaVuSans-61" x="27.783203"/>
      <use xlink:href="#DejaVuSans-74" x="89.0625"/>
      <use xlink:href="#DejaVuSans-65" x="128.271484"/>
      <use xlink:href="#DejaVuSans-20" x="189.794922"/>
      <use xlink:href="#DejaVuSans-7c" x="221.582031"/>
      <use xlink:href="#DejaVuSans-20" x="255.273438"/>
      <use xlink:href="#DejaVuSans-6f" x="287.060547"/>
      <use xlink:href="#DejaVuSans-6e" x="348.242188"/>
      <use xlink:href="#DejaVuSans-6c" x="411.621094"/>
      <use xlink:href="#DejaVuSans-79" x="439.404297"/>
      <use xlink:href="#DejaVuSans-20" x="498.583984"/>
      <use xlink:href="#DejaVuSans-4c" x="530.371094"/>
      <use xlink:href="#DejaVuSans-4e" x="586.083984"/>
      <use xlink:href="#DejaVuSans-4c" x="660.888672"/>
      <use xlink:href="#DejaVuSans-20" x="716.601562"/>
      <use xlink:href="#DejaVuSans-49" x="748.388672"/>
      <use xlink:href="#DejaVuSans-49" x="777.880859"/>
      <use xlink:href="#DejaVuSans-20" x="807.373047"/>
      <use xlink:href="#DejaVuSans-6f" x="839.160156"/>
      <use xlink:href="#DejaVuSans-62" x="900.341797"/>
      <use xlink:href="#DejaVuSans-73" x="963.818359"/>
      <use xlink:href="#DejaVuSans-65" x="1015.917969"/>
      <use xlink:href="#DejaVuSans-72" x="1077.441406"/>
      <use xlink:href="#DejaVuSans-76" x="1118.554688"/>
      <use xlink:href="#DejaVuSans-65" x="1177.734375"/>
      <use xlink:href="#DejaVuSans-64" x="1239.257812"/>
      <use xlink:href="#DejaVuSans-20" x="1302.734375"/>
      <use xlink:href="#DejaVuSans-69" x="1334.521484"/>
      <use xlink:href="#DejaVuSans-6e" x="1362.304688"/>
      <use xlink:href="#DejaVuSans-76" x="1425.683594"/>
      <use xlink:href="#DejaVuSans-6f" x="1484.863281"/>
      <use xlink:href="#DejaVuSans-6c" x="1546.044922"/>
      <use xlink:href="#DejaVuSans-76" x="1573.828125"/>
      <use xlink:href="#DejaVuSans-65" x="1633.007812"/>
      <use xlink:href="#DejaVuSans-64" x="1694.53125"/>
     </g>
    </g>
   </g>
  </g>
  <g id="axes_2">
   <g id="patch_16">
    <path d="M 254.330716 133.395622 
L 454.742827 133.395622 
L 454.742827 22.038594 
L 254.330716 22.038594 
z
" style="fill: #ffffff"/>
   </g>
   <g id="patch_17">
    <path d="M 254.330716 133.395622 
L 254.330716 133.395622 
L 258.420759 133.395622 
L 258.420759 133.159789 
L 262.510802 133.159789 
L 262.510802 129.64587 
L 266.600845 129.64587 
L 266.600845 104.057938 
L 270.690888 104.057938 
L 270.690888 58.966578 
L 274.780931 58.966578 
L 274.780931 27.341309 
L 278.870975 27.341309 
L 278.870975 34.156897 
L 282.961018 34.156897 
L 282.961018 59.202412 
L 287.051061 59.202412 
L 287.051061 89.719263 
L 291.141104 89.719263 
L 291.141104 109.788692 
L 295.231147 109.788692 
L 295.231147 123.467033 
L 299.32119 123.467033 
L 299.32119 128.844036 
L 303.411233 128.844036 
L 303.411233 131.532538 
L 307.501276 131.532538 
L 307.501276 132.711705 
L 311.591319 132.711705 
L 311.591319 133.301289 
L 315.681362 133.301289 
L 315.681362 133.372039 
L 319.771405 133.372039 
L 319.771405 133.395622 
L 323.861448 133.395622 
L 323.861448 133.395622 
L 327.951492 133.395622 
L 327.951492 133.395622 
L 332.041535 133.395622 
L 332.041535 133.395622 
L 336.131578 133.395622 
L 336.131578 133.395622 
L 340.221621 133.395622 
L 340.221621 133.395622 
L 344.311664 133.395622 
L 344.311664 133.395622 
L 348.401707 133.395622 
L 348.401707 133.395622 
L 352.49175 133.395622 
L 352.49175 133.395622 
L 356.581793 133.395622 
L 356.581793 133.395622 
L 360.671836 133.395622 
L 360.671836 133.395622 
L 364.761879 133.395622 
L 364.761879 133.395622 
L 368.851922 133.395622 
L 368.851922 133.395622 
L 372.941965 133.395622 
L 372.941965 133.395622 
L 377.032009 133.395622 
L 377.032009 133.395622 
L 381.122052 133.395622 
L 381.122052 133.395622 
L 385.212095 133.395622 
L 385.212095 133.395622 
L 389.302138 133.395622 
L 389.302138 133.395622 
L 393.392181 133.395622 
L 393.392181 133.395622 
L 397.482224 133.395622 
L 397.482224 133.395622 
L 401.572267 133.395622 
L 401.572267 133.395622 
L 405.66231 133.395622 
L 405.66231 133.395622 
L 409.752353 133.395622 
L 409.752353 133.395622 
L 413.842396 133.395622 
L 413.842396 133.395622 
L 417.932439 133.395622 
L 417.932439 133.395622 
L 422.022482 133.395622 
L 422.022482 133.395622 
L 426.112526 133.395622 
L 426.112526 133.395622 
L 430.202569 133.395622 
L 430.202569 133.395622 
L 434.292612 133.395622 
L 434.292612 133.395622 
L 438.382655 133.395622 
L 438.382655 133.395622 
L 442.472698 133.395622 
L 442.472698 133.395622 
L 446.562741 133.395622 
L 446.562741 133.395622 
L 450.652784 133.395622 
L 450.652784 133.395622 
L 454.742827 133.395622 
L 454.742827 133.395622 
L 450.652784 133.395622 
L 450.652784 133.395622 
L 446.562741 133.395622 
L 446.562741 133.395622 
L 442.472698 133.395622 
L 442.472698 133.395622 
L 438.382655 133.395622 
L 438.382655 133.395622 
L 434.292612 133.395622 
L 434.292612 133.395622 
L 430.202569 133.395622 
L 430.202569 133.395622 
L 426.112526 133.395622 
L 426.112526 133.395622 
L 422.022482 133.395622 
L 422.022482 133.395622 
L 417.932439 133.395622 
L 417.932439 133.395622 
L 413.842396 133.395622 
L 413.842396 133.395622 
L 409.752353 133.395622 
L 409.752353 133.395622 
L 405.66231 133.395622 
L 405.66231 133.395622 
L 401.572267 133.395622 
L 401.572267 133.395622 
L 397.482224 133.395622 
L 397.482224 133.395622 
L 393.392181 133.395622 
L 393.392181 133.395622 
L 389.302138 133.395622 
L 389.302138 133.395622 
L 385.212095 133.395622 
L 385.212095 133.395622 
L 381.122052 133.395622 
L 381.122052 133.395622 
L 377.032009 133.395622 
L 377.032009 133.395622 
L 372.941965 133.395622 
L 372.941965 133.395622 
L 368.851922 133.395622 
L 368.851922 133.395622 
L 364.761879 133.395622 
L 364.761879 133.395622 
L 360.671836 133.395622 
L 360.671836 133.395622 
L 356.581793 133.395622 
L 356.581793 133.395622 
L 352.49175 133.395622 
L 352.49175 133.395622 
L 348.401707 133.395622 
L 348.401707 133.395622 
L 344.311664 133.395622 
L 344.311664 133.395622 
L 340.221621 133.395622 
L 340.221621 133.395622 
L 336.131578 133.395622 
L 336.131578 133.395622 
L 332.041535 133.395622 
L 332.041535 133.395622 
L 327.951492 133.395622 
L 327.951492 133.395622 
L 323.861448 133.395622 
L 323.861448 133.395622 
L 319.771405 133.395622 
L 319.771405 133.395622 
L 315.681362 133.395622 
L 315.681362 133.395622 
L 311.591319 133.395622 
L 311.591319 133.395622 
L 307.501276 133.395622 
L 307.501276 133.395622 
L 303.411233 133.395622 
L 303.411233 133.395622 
L 299.32119 133.395622 
L 299.32119 133.395622 
L 295.231147 133.395622 
L 295.231147 133.395622 
L 291.141104 133.395622 
L 291.141104 133.395622 
L 287.051061 133.395622 
L 287.051061 133.395622 
L 282.961018 133.395622 
L 282.961018 133.395622 
L 278.870975 133.395622 
L 278.870975 133.395622 
L 274.780931 133.395622 
L 274.780931 133.395622 
L 270.690888 133.395622 
L 270.690888 133.395622 
L 266.600845 133.395622 
L 266.600845 133.395622 
L 262.510802 133.395622 
L 262.510802 133.395622 
L 258.420759 133.395622 
L 258.420759 133.395622 
z
" clip-path="url(#pbffa0bf2f4)" style="fill: #005ea8; opacity: 0.5"/>
   </g>
   <g id="patch_18">
    <path d="M 254.330716 133.395622 
L 254.330716 133.395622 
L 258.420759 133.395622 
L 258.420759 133.395622 
L 262.510802 133.395622 
L 262.510802 133.395622 
L 266.600845 133.395622 
L 266.600845 132.923955 
L 270.690888 132.923955 
L 270.690888 130.966538 
L 274.780931 130.966538 
L 274.780931 124.103784 
L 278.870975 124.103784 
L 278.870975 111.015026 
L 282.961018 111.015026 
L 282.961018 93.940682 
L 287.051061 93.940682 
L 287.051061 79.389757 
L 291.141104 79.389757 
L 291.141104 73.234503 
L 295.231147 73.234503 
L 295.231147 72.055336 
L 299.32119 72.055336 
L 299.32119 75.380588 
L 303.411233 75.380588 
L 303.411233 85.19126 
L 307.501276 85.19126 
L 307.501276 96.959351 
L 311.591319 96.959351 
L 311.591319 106.911523 
L 315.681362 106.911523 
L 315.681362 115.354362 
L 319.771405 115.354362 
L 319.771405 119.929531 
L 323.861448 119.929531 
L 323.861448 124.693367 
L 327.951492 124.693367 
L 327.951492 127.995036 
L 332.041535 127.995036 
L 332.041535 130.848621 
L 336.131578 130.848621 
L 336.131578 131.556121 
L 340.221621 131.556121 
L 340.221621 132.027788 
L 344.311664 132.027788 
L 344.311664 132.806039 
L 348.401707 132.806039 
L 348.401707 133.018289 
L 352.49175 133.018289 
L 352.49175 133.206956 
L 356.581793 133.206956 
L 356.581793 133.254122 
L 360.671836 133.254122 
L 360.671836 133.183372 
L 364.761879 133.183372 
L 364.761879 133.348456 
L 368.851922 133.348456 
L 368.851922 133.324872 
L 372.941965 133.324872 
L 372.941965 133.395622 
L 377.032009 133.395622 
L 377.032009 133.395622 
L 381.122052 133.395622 
L 381.122052 133.395622 
L 385.212095 133.395622 
L 385.212095 133.395622 
L 389.302138 133.395622 
L 389.302138 133.395622 
L 393.392181 133.395622 
L 393.392181 133.395622 
L 397.482224 133.395622 
L 397.482224 133.395622 
L 401.572267 133.395622 
L 401.572267 133.395622 
L 405.66231 133.395622 
L 405.66231 133.395622 
L 409.752353 133.395622 
L 409.752353 133.395622 
L 413.842396 133.395622 
L 413.842396 133.395622 
L 417.932439 133.395622 
L 417.932439 133.395622 
L 422.022482 133.395622 
L 422.022482 133.395622 
L 426.112526 133.395622 
L 426.112526 133.395622 
L 430.202569 133.395622 
L 430.202569 133.395622 
L 434.292612 133.395622 
L 434.292612 133.395622 
L 438.382655 133.395622 
L 438.382655 133.395622 
L 442.472698 133.395622 
L 442.472698 133.395622 
L 446.562741 133.395622 
L 446.562741 133.395622 
L 450.652784 133.395622 
L 450.652784 133.395622 
L 454.742827 133.395622 
L 454.742827 133.395622 
L 450.652784 133.395622 
L 450.652784 133.395622 
L 446.562741 133.395622 
L 446.562741 133.395622 
L 442.472698 133.395622 
L 442.472698 133.395622 
L 438.382655 133.395622 
L 438.382655 133.395622 
L 434.292612 133.395622 
L 434.292612 133.395622 
L 430.202569 133.395622 
L 430.202569 133.395622 
L 426.112526 133.395622 
L 426.112526 133.395622 
L 422.022482 133.395622 
L 422.022482 133.395622 
L 417.932439 133.395622 
L 417.932439 133.395622 
L 413.842396 133.395622 
L 413.842396 133.395622 
L 409.752353 133.395622 
L 409.752353 133.395622 
L 405.66231 133.395622 
L 405.66231 133.395622 
L 401.572267 133.395622 
L 401.572267 133.395622 
L 397.482224 133.395622 
L 397.482224 133.395622 
L 393.392181 133.395622 
L 393.392181 133.395622 
L 389.302138 133.395622 
L 389.302138 133.395622 
L 385.212095 133.395622 
L 385.212095 133.395622 
L 381.122052 133.395622 
L 381.122052 133.395622 
L 377.032009 133.395622 
L 377.032009 133.395622 
L 372.941965 133.395622 
L 372.941965 133.395622 
L 368.851922 133.395622 
L 368.851922 133.395622 
L 364.761879 133.395622 
L 364.761879 133.395622 
L 360.671836 133.395622 
L 360.671836 133.395622 
L 356.581793 133.395622 
L 356.581793 133.395622 
L 352.49175 133.395622 
L 352.49175 133.395622 
L 348.401707 133.395622 
L 348.401707 133.395622 
L 344.311664 133.395622 
L 344.311664 133.395622 
L 340.221621 133.395622 
L 340.221621 133.395622 
L 336.131578 133.395622 
L 336.131578 133.395622 
L 332.041535 133.395622 
L 332.041535 133.395622 
L 327.951492 133.395622 
L 327.951492 133.395622 
L 323.861448 133.395622 
L 323.861448 133.395622 
L 319.771405 133.395622 
L 319.771405 133.395622 
L 315.681362 133.395622 
L 315.681362 133.395622 
L 311.591319 133.395622 
L 311.591319 133.395622 
L 307.501276 133.395622 
L 307.501276 133.395622 
L 303.411233 133.395622 
L 303.411233 133.395622 
L 299.32119 133.395622 
L 299.32119 133.395622 
L 295.231147 133.395622 
L 295.231147 133.395622 
L 291.141104 133.395622 
L 291.141104 133.395622 
L 287.051061 133.395622 
L 287.051061 133.395622 
L 282.961018 133.395622 
L 282.961018 133.395622 
L 278.870975 133.395622 
L 278.870975 133.395622 
L 274.780931 133.395622 
L 274.780931 133.395622 
L 270.690888 133.395622 
L 270.690888 133.395622 
L 266.600845 133.395622 
L 266.600845 133.395622 
L 262.510802 133.395622 
L 262.510802 133.395622 
L 258.420759 133.395622 
L 258.420759 133.395622 
z
" clip-path="url(#pbffa0bf2f4)" style="fill: #f17900; opacity: 0.5"/>
   </g>
   <g id="matplotlib.axis_3">
    <g id="xtick_7">
     <g id="line2d_23">
      <path d="M 254.330716 133.395622 
L 254.330716 22.038594 
" clip-path="url(#pbffa0bf2f4)" style="fill: none; stroke: #000000; stroke-opacity: 0.1; stroke-width: 0.5; stroke-linecap: square"/>
     </g>
     <g id="line2d_24">
      <g>
       <use xlink:href="#m6e37afdfbe" x="254.330716" y="133.395622" style="stroke: #000000; stroke-width: 0.5"/>
      </g>
     </g>
     <g id="text_19">
      <!-- 0 -->
      <g transform="translate(252.103841 140.214529)scale(0.07 -0.07)">
       <use xlink:href="#DejaVuSans-30"/>
      </g>
     </g>
    </g>
    <g id="xtick_8">
     <g id="line2d_25">
      <path d="M 281.052331 133.395622 
L 281.052331 22.038594 
" clip-path="url(#pbffa0bf2f4)" style="fill: none; stroke: #000000; stroke-opacity: 0.1; stroke-width: 0.5; stroke-linecap: square"/>
     </g>
     <g id="line2d_26">
      <g>
       <use xlink:href="#m6e37afdfbe" x="281.052331" y="133.395622" style="stroke: #000000; stroke-width: 0.5"/>
      </g>
     </g>
     <g id="text_20">
      <!-- 2 -->
      <g transform="translate(278.825456 140.214529)scale(0.07 -0.07)">
       <use xlink:href="#DejaVuSans-32"/>
      </g>
     </g>
    </g>
    <g id="xtick_9">
     <g id="line2d_27">
      <path d="M 307.773946 133.395622 
L 307.773946 22.038594 
" clip-path="url(#pbffa0bf2f4)" style="fill: none; stroke: #000000; stroke-opacity: 0.1; stroke-width: 0.5; stroke-linecap: square"/>
     </g>
     <g id="line2d_28">
      <g>
       <use xlink:href="#m6e37afdfbe" x="307.773946" y="133.395622" style="stroke: #000000; stroke-width: 0.5"/>
      </g>
     </g>
     <g id="text_21">
      <!-- 4 -->
      <g transform="translate(305.547071 140.214529)scale(0.07 -0.07)">
       <use xlink:href="#DejaVuSans-34"/>
      </g>
     </g>
    </g>
    <g id="xtick_10">
     <g id="line2d_29">
      <path d="M 334.49556 133.395622 
L 334.49556 22.038594 
" clip-path="url(#pbffa0bf2f4)" style="fill: none; stroke: #000000; stroke-opacity: 0.1; stroke-width: 0.5; stroke-linecap: square"/>
     </g>
     <g id="line2d_30">
      <g>
       <use xlink:href="#m6e37afdfbe" x="334.49556" y="133.395622" style="stroke: #000000; stroke-width: 0.5"/>
      </g>
     </g>
     <g id="text_22">
      <!-- 6 -->
      <g transform="translate(332.268685 140.214529)scale(0.07 -0.07)">
       <defs>
        <path id="DejaVuSans-36" d="M 2113 2584 
Q 1688 2584 1439 2293 
Q 1191 2003 1191 1497 
Q 1191 994 1439 701 
Q 1688 409 2113 409 
Q 2538 409 2786 701 
Q 3034 994 3034 1497 
Q 3034 2003 2786 2293 
Q 2538 2584 2113 2584 
z
M 3366 4563 
L 3366 3988 
Q 3128 4100 2886 4159 
Q 2644 4219 2406 4219 
Q 1781 4219 1451 3797 
Q 1122 3375 1075 2522 
Q 1259 2794 1537 2939 
Q 1816 3084 2150 3084 
Q 2853 3084 3261 2657 
Q 3669 2231 3669 1497 
Q 3669 778 3244 343 
Q 2819 -91 2113 -91 
Q 1303 -91 875 529 
Q 447 1150 447 2328 
Q 447 3434 972 4092 
Q 1497 4750 2381 4750 
Q 2619 4750 2861 4703 
Q 3103 4656 3366 4563 
z
" transform="scale(0.015625)"/>
       </defs>
       <use xlink:href="#DejaVuSans-36"/>
      </g>
     </g>
    </g>
    <g id="xtick_11">
     <g id="line2d_31">
      <path d="M 361.217175 133.395622 
L 361.217175 22.038594 
" clip-path="url(#pbffa0bf2f4)" style="fill: none; stroke: #000000; stroke-opacity: 0.1; stroke-width: 0.5; stroke-linecap: square"/>
     </g>
     <g id="line2d_32">
      <g>
       <use xlink:href="#m6e37afdfbe" x="361.217175" y="133.395622" style="stroke: #000000; stroke-width: 0.5"/>
      </g>
     </g>
     <g id="text_23">
      <!-- 8 -->
      <g transform="translate(358.9903 140.214529)scale(0.07 -0.07)">
       <defs>
        <path id="DejaVuSans-38" d="M 2034 2216 
Q 1584 2216 1326 1975 
Q 1069 1734 1069 1313 
Q 1069 891 1326 650 
Q 1584 409 2034 409 
Q 2484 409 2743 651 
Q 3003 894 3003 1313 
Q 3003 1734 2745 1975 
Q 2488 2216 2034 2216 
z
M 1403 2484 
Q 997 2584 770 2862 
Q 544 3141 544 3541 
Q 544 4100 942 4425 
Q 1341 4750 2034 4750 
Q 2731 4750 3128 4425 
Q 3525 4100 3525 3541 
Q 3525 3141 3298 2862 
Q 3072 2584 2669 2484 
Q 3125 2378 3379 2068 
Q 3634 1759 3634 1313 
Q 3634 634 3220 271 
Q 2806 -91 2034 -91 
Q 1263 -91 848 271 
Q 434 634 434 1313 
Q 434 1759 690 2068 
Q 947 2378 1403 2484 
z
M 1172 3481 
Q 1172 3119 1398 2916 
Q 1625 2713 2034 2713 
Q 2441 2713 2670 2916 
Q 2900 3119 2900 3481 
Q 2900 3844 2670 4047 
Q 2441 4250 2034 4250 
Q 1625 4250 1398 4047 
Q 1172 3844 1172 3481 
z
" transform="scale(0.015625)"/>
       </defs>
       <use xlink:href="#DejaVuSans-38"/>
      </g>
     </g>
    </g>
    <g id="xtick_12">
     <g id="line2d_33">
      <path d="M 387.93879 133.395622 
L 387.93879 22.038594 
" clip-path="url(#pbffa0bf2f4)" style="fill: none; stroke: #000000; stroke-opacity: 0.1; stroke-width: 0.5; stroke-linecap: square"/>
     </g>
     <g id="line2d_34">
      <g>
       <use xlink:href="#m6e37afdfbe" x="387.93879" y="133.395622" style="stroke: #000000; stroke-width: 0.5"/>
      </g>
     </g>
     <g id="text_24">
      <!-- 10 -->
      <g transform="translate(383.48504 140.214529)scale(0.07 -0.07)">
       <use xlink:href="#DejaVuSans-31"/>
       <use xlink:href="#DejaVuSans-30" x="63.623047"/>
      </g>
     </g>
    </g>
    <g id="xtick_13">
     <g id="line2d_35">
      <path d="M 414.660405 133.395622 
L 414.660405 22.038594 
" clip-path="url(#pbffa0bf2f4)" style="fill: none; stroke: #000000; stroke-opacity: 0.1; stroke-width: 0.5; stroke-linecap: square"/>
     </g>
     <g id="line2d_36">
      <g>
       <use xlink:href="#m6e37afdfbe" x="414.660405" y="133.395622" style="stroke: #000000; stroke-width: 0.5"/>
      </g>
     </g>
     <g id="text_25">
      <!-- 12 -->
      <g transform="translate(410.206655 140.214529)scale(0.07 -0.07)">
       <use xlink:href="#DejaVuSans-31"/>
       <use xlink:href="#DejaVuSans-32" x="63.623047"/>
      </g>
     </g>
    </g>
    <g id="xtick_14">
     <g id="line2d_37">
      <path d="M 441.38202 133.395622 
L 441.38202 22.038594 
" clip-path="url(#pbffa0bf2f4)" style="fill: none; stroke: #000000; stroke-opacity: 0.1; stroke-width: 0.5; stroke-linecap: square"/>
     </g>
     <g id="line2d_38">
      <g>
       <use xlink:href="#m6e37afdfbe" x="441.38202" y="133.395622" style="stroke: #000000; stroke-width: 0.5"/>
      </g>
     </g>
     <g id="text_26">
      <!-- 14 -->
      <g transform="translate(436.92827 140.214529)scale(0.07 -0.07)">
       <use xlink:href="#DejaVuSans-31"/>
       <use xlink:href="#DejaVuSans-34" x="63.623047"/>
      </g>
     </g>
    </g>
    <g id="text_27">
     <!-- risk $R$ [%] -->
     <g transform="translate(332.396772 150.508904)scale(0.09 -0.09)">
      <use xlink:href="#DejaVuSans-72" transform="translate(0 0.015625)"/>
      <use xlink:href="#DejaVuSans-69" transform="translate(41.113281 0.015625)"/>
      <use xlink:href="#DejaVuSans-73" transform="translate(68.896484 0.015625)"/>
      <use xlink:href="#DejaVuSans-6b" transform="translate(120.996094 0.015625)"/>
      <use xlink:href="#DejaVuSans-20" transform="translate(178.90625 0.015625)"/>
      <use xlink:href="#Cmmi10-52" transform="translate(210.693359 0.015625)"/>
      <use xlink:href="#DejaVuSans-20" transform="translate(286.572266 0.015625)"/>
      <use xlink:href="#DejaVuSans-5b" transform="translate(318.359375 0.015625)"/>
      <use xlink:href="#DejaVuSans-25" transform="translate(357.373047 0.015625)"/>
      <use xlink:href="#DejaVuSans-5d" transform="translate(452.392578 0.015625)"/>
     </g>
    </g>
   </g>
   <g id="matplotlib.axis_4">
    <g id="ytick_6">
     <g id="line2d_39">
      <path d="M 254.330716 133.395622 
L 454.742827 133.395622 
" clip-path="url(#pbffa0bf2f4)" style="fill: none; stroke: #000000; stroke-opacity: 0.1; stroke-width: 0.5; stroke-linecap: square"/>
     </g>
     <g id="line2d_40">
      <g>
       <use xlink:href="#m86602dec3e" x="254.330716" y="133.395622" style="stroke: #000000; stroke-width: 0.5"/>
      </g>
     </g>
     <g id="text_28">
      <!-- 0.0 -->
      <g transform="translate(241.698529 136.055075)scale(0.07 -0.07)">
       <use xlink:href="#DejaVuSans-30"/>
       <use xlink:href="#DejaVuSans-2e" x="63.623047"/>
       <use xlink:href="#DejaVuSans-30" x="95.410156"/>
      </g>
     </g>
    </g>
    <g id="ytick_7">
     <g id="line2d_41">
      <path d="M 254.330716 104.518054 
L 454.742827 104.518054 
" clip-path="url(#pbffa0bf2f4)" style="fill: none; stroke: #000000; stroke-opacity: 0.1; stroke-width: 0.5; stroke-linecap: square"/>
     </g>
     <g id="line2d_42">
      <g>
       <use xlink:href="#m86602dec3e" x="254.330716" y="104.518054" style="stroke: #000000; stroke-width: 0.5"/>
      </g>
     </g>
     <g id="text_29">
      <!-- 0.2 -->
      <g transform="translate(241.698529 107.177507)scale(0.07 -0.07)">
       <use xlink:href="#DejaVuSans-30"/>
       <use xlink:href="#DejaVuSans-2e" x="63.623047"/>
       <use xlink:href="#DejaVuSans-32" x="95.410156"/>
      </g>
     </g>
    </g>
    <g id="ytick_8">
     <g id="line2d_43">
      <path d="M 254.330716 75.640486 
L 454.742827 75.640486 
" clip-path="url(#pbffa0bf2f4)" style="fill: none; stroke: #000000; stroke-opacity: 0.1; stroke-width: 0.5; stroke-linecap: square"/>
     </g>
     <g id="line2d_44">
      <g>
       <use xlink:href="#m86602dec3e" x="254.330716" y="75.640486" style="stroke: #000000; stroke-width: 0.5"/>
      </g>
     </g>
     <g id="text_30">
      <!-- 0.4 -->
      <g transform="translate(241.698529 78.299939)scale(0.07 -0.07)">
       <use xlink:href="#DejaVuSans-30"/>
       <use xlink:href="#DejaVuSans-2e" x="63.623047"/>
       <use xlink:href="#DejaVuSans-34" x="95.410156"/>
      </g>
     </g>
    </g>
    <g id="ytick_9">
     <g id="line2d_45">
      <path d="M 254.330716 46.762918 
L 454.742827 46.762918 
" clip-path="url(#pbffa0bf2f4)" style="fill: none; stroke: #000000; stroke-opacity: 0.1; stroke-width: 0.5; stroke-linecap: square"/>
     </g>
     <g id="line2d_46">
      <g>
       <use xlink:href="#m86602dec3e" x="254.330716" y="46.762918" style="stroke: #000000; stroke-width: 0.5"/>
      </g>
     </g>
     <g id="text_31">
      <!-- 0.6 -->
      <g transform="translate(241.698529 49.422371)scale(0.07 -0.07)">
       <use xlink:href="#DejaVuSans-30"/>
       <use xlink:href="#DejaVuSans-2e" x="63.623047"/>
       <use xlink:href="#DejaVuSans-36" x="95.410156"/>
      </g>
     </g>
    </g>
   </g>
   <g id="patch_19">
    <path d="M 254.330716 133.395622 
L 254.330716 133.395622 
L 258.420759 133.395622 
L 258.420759 133.395622 
L 262.510802 133.395622 
L 262.510802 133.395622 
L 266.600845 133.395622 
L 266.600845 133.395622 
L 270.690888 133.395622 
L 270.690888 133.395622 
L 274.780931 133.395622 
L 274.780931 133.395622 
L 278.870975 133.395622 
L 278.870975 133.372039 
L 282.961018 133.372039 
L 282.961018 133.324872 
L 287.051061 133.324872 
L 287.051061 132.876789 
L 291.141104 132.876789 
L 291.141104 132.287205 
L 295.231147 132.287205 
L 295.231147 131.603288 
L 299.32119 131.603288 
L 299.32119 128.773286 
L 303.411233 128.773286 
L 303.411233 127.075285 
L 307.501276 127.075285 
L 307.501276 122.570866 
L 311.591319 122.570866 
L 311.591319 117.193863 
L 315.681362 117.193863 
L 315.681362 112.31211 
L 319.771405 112.31211 
L 319.771405 105.449356 
L 323.861448 105.449356 
L 323.861448 101.32227 
L 327.951492 101.32227 
L 327.951492 98.421518 
L 332.041535 98.421518 
L 332.041535 96.558434 
L 336.131578 96.558434 
L 336.131578 93.044515 
L 340.221621 93.044515 
L 340.221621 94.553849 
L 344.311664 94.553849 
L 344.311664 99.388436 
L 348.401707 99.388436 
L 348.401707 101.699604 
L 352.49175 101.699604 
L 352.49175 105.590856 
L 356.581793 105.590856 
L 356.581793 110.425442 
L 360.671836 110.425442 
L 360.671836 116.203362 
L 364.761879 116.203362 
L 364.761879 117.972113 
L 368.851922 117.972113 
L 368.851922 120.283281 
L 372.941965 120.283281 
L 372.941965 124.245284 
L 377.032009 124.245284 
L 377.032009 125.919701 
L 381.122052 125.919701 
L 381.122052 128.207286 
L 385.212095 128.207286 
L 385.212095 128.985536 
L 389.302138 128.985536 
L 389.302138 130.565621 
L 393.392181 130.565621 
L 393.392181 131.155204 
L 397.482224 131.155204 
L 397.482224 131.791955 
L 401.572267 131.791955 
L 401.572267 132.169288 
L 405.66231 132.169288 
L 405.66231 132.947539 
L 409.752353 132.947539 
L 409.752353 132.782455 
L 413.842396 132.782455 
L 413.842396 133.136206 
L 417.932439 133.136206 
L 417.932439 133.206956 
L 422.022482 133.206956 
L 422.022482 133.372039 
L 426.112526 133.372039 
L 426.112526 133.324872 
L 430.202569 133.324872 
L 430.202569 133.324872 
L 434.292612 133.324872 
L 434.292612 133.348456 
L 438.382655 133.348456 
L 438.382655 133.395622 
L 442.472698 133.395622 
L 442.472698 133.395622 
L 446.562741 133.395622 
L 446.562741 133.395622 
L 450.652784 133.395622 
L 450.652784 133.372039 
L 454.742827 133.372039 
L 454.742827 133.395622 
" clip-path="url(#pbffa0bf2f4)" style="fill: none; stroke: #005ea8; stroke-width: 1.5; stroke-linejoin: miter"/>
   </g>
   <g id="patch_20">
    <path d="M 254.330716 133.395622 
L 254.330716 133.395622 
L 258.420759 133.395622 
L 258.420759 133.395622 
L 262.510802 133.395622 
L 262.510802 133.395622 
L 266.600845 133.395622 
L 266.600845 133.395622 
L 270.690888 133.395622 
L 270.690888 133.395622 
L 274.780931 133.395622 
L 274.780931 133.395622 
L 278.870975 133.395622 
L 278.870975 133.395622 
L 282.961018 133.395622 
L 282.961018 133.395622 
L 287.051061 133.395622 
L 287.051061 133.368803 
L 291.141104 133.368803 
L 291.141104 133.368803 
L 295.231147 133.368803 
L 295.231147 133.261527 
L 299.32119 133.261527 
L 299.32119 133.207889 
L 303.411233 133.207889 
L 303.411233 132.966517 
L 307.501276 132.966517 
L 307.501276 132.698327 
L 311.591319 132.698327 
L 311.591319 132.483774 
L 315.681362 132.483774 
L 315.681362 131.840116 
L 319.771405 131.840116 
L 319.771405 130.230972 
L 323.861448 130.230972 
L 323.861448 130.123696 
L 327.951492 130.123696 
L 327.951492 129.506858 
L 332.041535 129.506858 
L 332.041535 127.951352 
L 336.131578 127.951352 
L 336.131578 125.323083 
L 340.221621 125.323083 
L 340.221621 123.258015 
L 344.311664 123.258015 
L 344.311664 123.0971 
L 348.401707 123.0971 
L 348.401707 121.487956 
L 352.49175 121.487956 
L 352.49175 118.430582 
L 356.581793 118.430582 
L 356.581793 118.21603 
L 360.671836 118.21603 
L 360.671836 116.070505 
L 364.761879 116.070505 
L 364.761879 114.059074 
L 368.851922 114.059074 
L 368.851922 115.882771 
L 372.941965 115.882771 
L 372.941965 114.46136 
L 377.032009 114.46136 
L 377.032009 114.729551 
L 381.122052 114.729551 
L 381.122052 110.653053 
L 385.212095 110.653053 
L 385.212095 110.787148 
L 389.302138 110.787148 
L 389.302138 111.350349 
L 393.392181 111.350349 
L 393.392181 111.135796 
L 397.482224 111.135796 
L 397.482224 111.243072 
L 401.572267 111.243072 
L 401.572267 114.407722 
L 405.66231 114.407722 
L 405.66231 115.721857 
L 409.752353 115.721857 
L 409.752353 115.426847 
L 413.842396 115.426847 
L 413.842396 116.472791 
L 417.932439 116.472791 
L 417.932439 117.465096 
L 422.022482 117.465096 
L 422.022482 118.591497 
L 426.112526 118.591497 
L 426.112526 119.476526 
L 430.202569 119.476526 
L 430.202569 121.192946 
L 434.292612 121.192946 
L 434.292612 121.997519 
L 438.382655 121.997519 
L 438.382655 122.185252 
L 442.472698 122.185252 
L 442.472698 124.035768 
L 446.562741 124.035768 
L 446.562741 124.303958 
L 450.652784 124.303958 
L 450.652784 125.081711 
L 454.742827 125.081711 
L 454.742827 133.395622 
" clip-path="url(#pbffa0bf2f4)" style="fill: none; stroke: #f17900; stroke-width: 1.5; stroke-linejoin: miter"/>
   </g>
   <g id="patch_21">
    <path d="M 254.330716 133.395622 
L 254.330716 22.038594 
" style="fill: none; stroke: #000000; stroke-width: 0.5; stroke-linejoin: miter; stroke-linecap: square"/>
   </g>
   <g id="patch_22">
    <path d="M 454.742827 133.395622 
L 454.742827 22.038594 
" style="fill: none; stroke: #000000; stroke-width: 0.5; stroke-linejoin: miter; stroke-linecap: square"/>
   </g>
   <g id="patch_23">
    <path d="M 254.330716 133.395622 
L 454.742827 133.395622 
" style="fill: none; stroke: #000000; stroke-width: 0.5; stroke-linejoin: miter; stroke-linecap: square"/>
   </g>
   <g id="patch_24">
    <path d="M 254.330716 22.038594 
L 454.742827 22.038594 
" style="fill: none; stroke: #000000; stroke-width: 0.5; stroke-linejoin: miter; stroke-linecap: square"/>
   </g>
   <g id="text_32">
    <!-- IV -->
    <g transform="translate(350.13099 14.038594)scale(0.09 -0.09)">
     <defs>
      <path id="DejaVuSans-56" d="M 1831 0 
L 50 4666 
L 709 4666 
L 2188 738 
L 3669 4666 
L 4325 4666 
L 2547 0 
L 1831 0 
z
" transform="scale(0.015625)"/>
     </defs>
     <use xlink:href="#DejaVuSans-49"/>
     <use xlink:href="#DejaVuSans-56" x="29.492188"/>
    </g>
   </g>
   <g id="legend_2">
    <g id="patch_25">
     <path d="M 303.82939 58.438594 
L 449.842827 58.438594 
Q 451.242827 58.438594 451.242827 57.038594 
L 451.242827 26.938594 
Q 451.242827 25.538594 449.842827 25.538594 
L 303.82939 25.538594 
Q 302.42939 25.538594 302.42939 26.938594 
L 302.42939 57.038594 
Q 302.42939 58.438594 303.82939 58.438594 
z
" style="fill: #ffffff; opacity: 0.8; stroke: #cccccc; stroke-linejoin: miter"/>
    </g>
    <g id="patch_26">
     <path d="M 303.82939 32.288125 
L 317.82939 32.288125 
L 317.82939 27.388125 
L 303.82939 27.388125 
z
" style="fill: #005ea8; opacity: 0.5"/>
    </g>
    <g id="text_33">
     <!-- early | no observed involvement -->
     <g transform="translate(323.42939 32.288125)scale(0.07 -0.07)">
      <use xlink:href="#DejaVuSans-65"/>
      <use xlink:href="#DejaVuSans-61" x="61.523438"/>
      <use xlink:href="#DejaVuSans-72" x="122.802734"/>
      <use xlink:href="#DejaVuSans-6c" x="163.916016"/>
      <use xlink:href="#DejaVuSans-79" x="191.699219"/>
      <use xlink:href="#DejaVuSans-20" x="250.878906"/>
      <use xlink:href="#DejaVuSans-7c" x="282.666016"/>
      <use xlink:href="#DejaVuSans-20" x="316.357422"/>
      <use xlink:href="#DejaVuSans-6e" x="348.144531"/>
      <use xlink:href="#DejaVuSans-6f" x="411.523438"/>
      <use xlink:href="#DejaVuSans-20" x="472.705078"/>
      <use xlink:href="#DejaVuSans-6f" x="504.492188"/>
      <use xlink:href="#DejaVuSans-62" x="565.673828"/>
      <use xlink:href="#DejaVuSans-73" x="629.150391"/>
      <use xlink:href="#DejaVuSans-65" x="681.25"/>
      <use xlink:href="#DejaVuSans-72" x="742.773438"/>
      <use xlink:href="#DejaVuSans-76" x="783.886719"/>
      <use xlink:href="#DejaVuSans-65" x="843.066406"/>
      <use xlink:href="#DejaVuSans-64" x="904.589844"/>
      <use xlink:href="#DejaVuSans-20" x="968.066406"/>
      <use xlink:href="#DejaVuSans-69" x="999.853516"/>
      <use xlink:href="#DejaVuSans-6e" x="1027.636719"/>
      <use xlink:href="#DejaVuSans-76" x="1091.015625"/>
      <use xlink:href="#DejaVuSans-6f" x="1150.195312"/>
      <use xlink:href="#DejaVuSans-6c" x="1211.376953"/>
      <use xlink:href="#DejaVuSans-76" x="1239.160156"/>
      <use xlink:href="#DejaVuSans-65" x="1298.339844"/>
      <use xlink:href="#DejaVuSans-6d" x="1359.863281"/>
      <use xlink:href="#DejaVuSans-65" x="1457.275391"/>
      <use xlink:href="#DejaVuSans-6e" x="1518.798828"/>
      <use xlink:href="#DejaVuSans-74" x="1582.177734"/>
     </g>
    </g>
    <g id="patch_27">
     <path d="M 303.82939 39.988125 
L 317.82939 39.988125 
L 317.82939 35.088125 
L 303.82939 35.088125 
L 303.82939 39.988125 
z
" style="fill: none; stroke: #005ea8; stroke-width: 1.5; stroke-linejoin: miter"/>
    </g>
    <g id="text_34">
     <!-- early | LNL II &amp; III observed involved -->
     <g transform="translate(323.42939 39.988125)scale(0.07 -0.07)">
      <defs>
       <path id="DejaVuSans-26" d="M 1556 2509 
Q 1272 2256 1139 2004 
Q 1006 1753 1006 1478 
Q 1006 1022 1337 719 
Q 1669 416 2169 416 
Q 2466 416 2725 514 
Q 2984 613 3213 813 
L 1556 2509 
z
M 1997 2859 
L 3584 1234 
Q 3769 1513 3872 1830 
Q 3975 2147 3994 2503 
L 4575 2503 
Q 4538 2091 4375 1687 
Q 4213 1284 3922 891 
L 4794 0 
L 4006 0 
L 3559 459 
Q 3234 181 2878 45 
Q 2522 -91 2113 -91 
Q 1359 -91 881 339 
Q 403 769 403 1441 
Q 403 1841 612 2192 
Q 822 2544 1241 2853 
Q 1091 3050 1012 3245 
Q 934 3441 934 3628 
Q 934 4134 1281 4442 
Q 1628 4750 2203 4750 
Q 2463 4750 2720 4694 
Q 2978 4638 3244 4525 
L 3244 3956 
Q 2972 4103 2725 4179 
Q 2478 4256 2266 4256 
Q 1938 4256 1733 4082 
Q 1528 3909 1528 3634 
Q 1528 3475 1620 3314 
Q 1713 3153 1997 2859 
z
" transform="scale(0.015625)"/>
      </defs>
      <use xlink:href="#DejaVuSans-65"/>
      <use xlink:href="#DejaVuSans-61" x="61.523438"/>
      <use xlink:href="#DejaVuSans-72" x="122.802734"/>
      <use xlink:href="#DejaVuSans-6c" x="163.916016"/>
      <use xlink:href="#DejaVuSans-79" x="191.699219"/>
      <use xlink:href="#DejaVuSans-20" x="250.878906"/>
      <use xlink:href="#DejaVuSans-7c" x="282.666016"/>
      <use xlink:href="#DejaVuSans-20" x="316.357422"/>
      <use xlink:href="#DejaVuSans-4c" x="348.144531"/>
      <use xlink:href="#DejaVuSans-4e" x="403.857422"/>
      <use xlink:href="#DejaVuSans-4c" x="478.662109"/>
      <use xlink:href="#DejaVuSans-20" x="534.375"/>
      <use xlink:href="#DejaVuSans-49" x="566.162109"/>
      <use xlink:href="#DejaVuSans-49" x="595.654297"/>
      <use xlink:href="#DejaVuSans-20" x="625.146484"/>
      <use xlink:href="#DejaVuSans-26" x="656.933594"/>
      <use xlink:href="#DejaVuSans-20" x="734.912109"/>
      <use xlink:href="#DejaVuSans-49" x="766.699219"/>
      <use xlink:href="#DejaVuSans-49" x="796.191406"/>
      <use xlink:href="#DejaVuSans-49" x="825.683594"/>
      <use xlink:href="#DejaVuSans-20" x="855.175781"/>
      <use xlink:href="#DejaVuSans-6f" x="886.962891"/>
      <use xlink:href="#DejaVuSans-62" x="948.144531"/>
      <use xlink:href="#DejaVuSans-73" x="1011.621094"/>
      <use xlink:href="#DejaVuSans-65" x="1063.720703"/>
      <use xlink:href="#DejaVuSans-72" x="1125.244141"/>
      <use xlink:href="#DejaVuSans-76" x="1166.357422"/>
      <use xlink:href="#DejaVuSans-65" x="1225.537109"/>
      <use xlink:href="#DejaVuSans-64" x="1287.060547"/>
      <use xlink:href="#DejaVuSans-20" x="1350.537109"/>
      <use xlink:href="#DejaVuSans-69" x="1382.324219"/>
      <use xlink:href="#DejaVuSans-6e" x="1410.107422"/>
      <use xlink:href="#DejaVuSans-76" x="1473.486328"/>
      <use xlink:href="#DejaVuSans-6f" x="1532.666016"/>
      <use xlink:href="#DejaVuSans-6c" x="1593.847656"/>
      <use xlink:href="#DejaVuSans-76" x="1621.630859"/>
      <use xlink:href="#DejaVuSans-65" x="1680.810547"/>
      <use xlink:href="#DejaVuSans-64" x="1742.333984"/>
     </g>
    </g>
    <g id="patch_28">
     <path d="M 303.82939 47.688125 
L 317.82939 47.688125 
L 317.82939 42.788125 
L 303.82939 42.788125 
z
" style="fill: #f17900; opacity: 0.5"/>
    </g>
    <g id="text_35">
     <!-- late | no observed involvement -->
     <g transform="translate(323.42939 47.688125)scale(0.07 -0.07)">
      <use xlink:href="#DejaVuSans-6c"/>
      <use xlink:href="#DejaVuSans-61" x="27.783203"/>
      <use xlink:href="#DejaVuSans-74" x="89.0625"/>
      <use xlink:href="#DejaVuSans-65" x="128.271484"/>
      <use xlink:href="#DejaVuSans-20" x="189.794922"/>
      <use xlink:href="#DejaVuSans-7c" x="221.582031"/>
      <use xlink:href="#DejaVuSans-20" x="255.273438"/>
      <use xlink:href="#DejaVuSans-6e" x="287.060547"/>
      <use xlink:href="#DejaVuSans-6f" x="350.439453"/>
      <use xlink:href="#DejaVuSans-20" x="411.621094"/>
      <use xlink:href="#DejaVuSans-6f" x="443.408203"/>
      <use xlink:href="#DejaVuSans-62" x="504.589844"/>
      <use xlink:href="#DejaVuSans-73" x="568.066406"/>
      <use xlink:href="#DejaVuSans-65" x="620.166016"/>
      <use xlink:href="#DejaVuSans-72" x="681.689453"/>
      <use xlink:href="#DejaVuSans-76" x="722.802734"/>
      <use xlink:href="#DejaVuSans-65" x="781.982422"/>
      <use xlink:href="#DejaVuSans-64" x="843.505859"/>
      <use xlink:href="#DejaVuSans-20" x="906.982422"/>
      <use xlink:href="#DejaVuSans-69" x="938.769531"/>
      <use xlink:href="#DejaVuSans-6e" x="966.552734"/>
      <use xlink:href="#DejaVuSans-76" x="1029.931641"/>
      <use xlink:href="#DejaVuSans-6f" x="1089.111328"/>
      <use xlink:href="#DejaVuSans-6c" x="1150.292969"/>
      <use xlink:href="#DejaVuSans-76" x="1178.076172"/>
      <use xlink:href="#DejaVuSans-65" x="1237.255859"/>
      <use xlink:href="#DejaVuSans-6d" x="1298.779297"/>
      <use xlink:href="#DejaVuSans-65" x="1396.191406"/>
      <use xlink:href="#DejaVuSans-6e" x="1457.714844"/>
      <use xlink:href="#DejaVuSans-74" x="1521.09375"/>
     </g>
    </g>
    <g id="patch_29">
     <path d="M 303.82939 55.388125 
L 317.82939 55.388125 
L 317.82939 50.488125 
L 303.82939 50.488125 
L 303.82939 55.388125 
z
" style="fill: none; stroke: #f17900; stroke-width: 1.5; stroke-linejoin: miter"/>
    </g>
    <g id="text_36">
     <!-- late | LNL II &amp; III observed involved -->
     <g transform="translate(323.42939 55.388125)scale(0.07 -0.07)">
      <use xlink:href="#DejaVuSans-6c"/>
      <use xlink:href="#DejaVuSans-61" x="27.783203"/>
      <use xlink:href="#DejaVuSans-74" x="89.0625"/>
      <use xlink:href="#DejaVuSans-65" x="128.271484"/>
      <use xlink:href="#DejaVuSans-20" x="189.794922"/>
      <use xlink:href="#DejaVuSans-7c" x="221.582031"/>
      <use xlink:href="#DejaVuSans-20" x="255.273438"/>
      <use xlink:href="#DejaVuSans-4c" x="287.060547"/>
      <use xlink:href="#DejaVuSans-4e" x="342.773438"/>
      <use xlink:href="#DejaVuSans-4c" x="417.578125"/>
      <use xlink:href="#DejaVuSans-20" x="473.291016"/>
      <use xlink:href="#DejaVuSans-49" x="505.078125"/>
      <use xlink:href="#DejaVuSans-49" x="534.570312"/>
      <use xlink:href="#DejaVuSans-20" x="564.0625"/>
      <use xlink:href="#DejaVuSans-26" x="595.849609"/>
      <use xlink:href="#DejaVuSans-20" x="673.828125"/>
      <use xlink:href="#DejaVuSans-49" x="705.615234"/>
      <use xlink:href="#DejaVuSans-49" x="735.107422"/>
      <use xlink:href="#DejaVuSans-49" x="764.599609"/>
      <use xlink:href="#DejaVuSans-20" x="794.091797"/>
      <use xlink:href="#DejaVuSans-6f" x="825.878906"/>
      <use xlink:href="#DejaVuSans-62" x="887.060547"/>
      <use xlink:href="#DejaVuSans-73" x="950.537109"/>
      <use xlink:href="#DejaVuSans-65" x="1002.636719"/>
      <use xlink:href="#DejaVuSans-72" x="1064.160156"/>
      <use xlink:href="#DejaVuSans-76" x="1105.273438"/>
      <use xlink:href="#DejaVuSans-65" x="1164.453125"/>
      <use xlink:href="#DejaVuSans-64" x="1225.976562"/>
      <use xlink:href="#DejaVuSans-20" x="1289.453125"/>
      <use xlink:href="#DejaVuSans-69" x="1321.240234"/>
      <use xlink:href="#DejaVuSans-6e" x="1349.023438"/>
      <use xlink:href="#DejaVuSans-76" x="1412.402344"/>
      <use xlink:href="#DejaVuSans-6f" x="1471.582031"/>
      <use xlink:href="#DejaVuSans-6c" x="1532.763672"/>
      <use xlink:href="#DejaVuSans-76" x="1560.546875"/>
      <use xlink:href="#DejaVuSans-65" x="1619.726562"/>
      <use xlink:href="#DejaVuSans-64" x="1681.25"/>
     </g>
    </g>
   </g>
  </g>
 </g>
 <defs>
  <clipPath id="pad2947a604">
   <rect x="30.832187" y="22.038594" width="200.412111" height="111.357029"/>
  </clipPath>
  <clipPath id="pbffa0bf2f4">
   <rect x="254.330716" y="22.038594" width="200.412111" height="111.357029"/>
  </clipPath>
 </defs>
</svg>
